<svg width="122" height="81" viewBox="0 0 122 81" fill="none" xmlns="http://www.w3.org/2000/svg">
<path d="M90.9 6.5C90.4 6.4 89.9 6.30001 89.4 6.20001C88.6 6.10001 87.8 5.89999 87.1 5.79999C87.9 6.99999 88.3 8.60001 88.6 10.2C89.3 9.00001 90.1 7.8 90.9 6.5Z" fill="#FF719A"/>
<path d="M53.6 62C53 62.7 52.1 62.8 51.3 62.7C53.1 64.9 55.1 66.9 57.3 68.6C55.9 66.4 54.8 64.1 53.8 61.7C53.7 61.8 53.7 61.9 53.6 62Z" fill="#FF719A"/>
<path d="M80.8 18.4C80.6 18.1 80.4 17.8 80.4 17.3C80.6 12.9 79 9.19998 77.9 5.09998C76.6 5.09998 75.3 5.10001 74 5.20001C77.2 9.30001 76.5 16.1 77 21C78.4 20.2 79.7 19.3 80.8 18.4Z" fill="#FF719A"/>
<path d="M86.2 13.2C85.9 12 85.8 10.7 85.6 9.5C85.3 7.9 84.6 7.09999 83.8 5.79999C83.7 5.69999 83.7 5.60002 83.7 5.40002C82.8 5.30002 82 5.20001 81.2 5.20001C82.9 8.50001 83.8 12.2 83.9 15.9C84.6 15 85.4 14.1 86.2 13.2Z" fill="#FF719A"/>
<path d="M48.6 29.3C48.6 26.6 48.8 23 49.4 19.6C47.4 22.3 45.9 25.3 44.7 28.4C45.6 28.7 46.6 29 47.6 29C48 28.9 48.4 29.1 48.6 29.3Z" fill="#FF719A"/>
<path d="M50.9 52.8C50.5 51.2 50.2 49.6 49.9 47.9L49.8 48C48.3 48.6 46.2 48.1 44.7 47.7C44.3 47.6 43.9 47.5 43.5 47.3C43.6 47.7 43.7 48.2 43.8 48.6C44.1 49.6 44.4 50.6 44.8 51.5C46 51.6 47.2 52 48.4 52.3C49.1 52.5 50 52.6 50.9 52.8Z" fill="#FF719A"/>
<path d="M48.7 36.4C48.6 34.8 48.6 33.1 48.6 31.6C48.4 31.8 48 31.9 47.6 31.9C46.3 31.9 45 31.6 43.8 31.2C43.4 32.7 43.1 34.3 42.9 35.8C43.4 35.8 43.9 35.9 44.3 36C45.6 36.1 47.2 36.1 48.7 36.4Z" fill="#FF719A"/>
<path d="M51.6 55.4C50.5 55.8 49.2 55.4 48 55.1C47.3 54.9 46.7 54.7 46 54.5C46.9 56.3 47.9 58.1 49 59.7C49.5 59.7 50 59.7 50.5 59.7C51.4 59.7 52.4 59.7 53.1 60.2C52.6 58.7 52 57.1 51.6 55.4Z" fill="#FF719A"/>
<path d="M49.5 45.5C49.2 43.4 49 41.3 48.8 39.2C47.4 39.4 45.9 39 44.5 38.8C43.9 38.7 43.2 38.7 42.5 38.7C42.4 40.5 42.5 42.4 42.8 44.3C43.8 44.6 44.8 44.8 45.8 45C47.1 45.2 48.3 45.2 49.5 45.5Z" fill="#FF719A"/>
<path d="M90.9 6.5C90.4 6.4 89.9 6.30001 89.4 6.20001C88.6 6.10001 87.8 5.89999 87.1 5.79999C87.9 6.99999 88.3 8.60001 88.6 10.2C89.3 9.00001 90.1 7.8 90.9 6.5Z" fill="#FF719A"/>
<path d="M53.6 62C53 62.7 52.1 62.8 51.3 62.7C53.1 64.9 55.1 66.9 57.3 68.6C55.9 66.4 54.8 64.1 53.8 61.7C53.7 61.8 53.7 61.9 53.6 62Z" fill="#FF719A"/>
<path d="M80.8 18.4C80.6 18.1 80.4 17.8 80.4 17.3C80.6 12.9 79 9.19998 77.9 5.09998C76.6 5.09998 75.3 5.10001 74 5.20001C77.2 9.30001 76.5 16.1 77 21C78.4 20.2 79.7 19.3 80.8 18.4Z" fill="#FF719A"/>
<path d="M86.2 13.2C85.9 12 85.8 10.7 85.6 9.5C85.3 7.9 84.6 7.09999 83.8 5.79999C83.7 5.69999 83.7 5.60002 83.7 5.40002C82.8 5.30002 82 5.20001 81.2 5.20001C82.9 8.50001 83.8 12.2 83.9 15.9C84.6 15 85.4 14.1 86.2 13.2Z" fill="#FF719A"/>
<path d="M48.6 29.3C48.6 26.6 48.8 23 49.4 19.6C47.4 22.3 45.9 25.3 44.7 28.4C45.6 28.7 46.6 29 47.6 29C48 28.9 48.4 29.1 48.6 29.3Z" fill="#FF719A"/>
<path d="M50.9 52.8C50.5 51.2 50.2 49.6 49.9 47.9L49.8 48C48.3 48.6 46.2 48.1 44.7 47.7C44.3 47.6 43.9 47.5 43.5 47.3C43.6 47.7 43.7 48.2 43.8 48.6C44.1 49.6 44.4 50.6 44.8 51.5C46 51.6 47.2 52 48.4 52.3C49.1 52.5 50 52.6 50.9 52.8Z" fill="#FF719A"/>
<path d="M48.7 36.4C48.6 34.8 48.6 33.1 48.6 31.6C48.4 31.8 48 31.9 47.6 31.9C46.3 31.9 45 31.6 43.8 31.2C43.4 32.7 43.1 34.3 42.9 35.8C43.4 35.8 43.9 35.9 44.3 36C45.6 36.1 47.2 36.1 48.7 36.4Z" fill="#FF719A"/>
<path d="M51.6 55.4C50.5 55.8 49.2 55.4 48 55.1C47.3 54.9 46.7 54.7 46 54.5C46.9 56.3 47.9 58.1 49 59.7C49.5 59.7 50 59.7 50.5 59.7C51.4 59.7 52.4 59.7 53.1 60.2C52.6 58.7 52 57.1 51.6 55.4Z" fill="#FF719A"/>
<path d="M49.5 45.5C49.2 43.4 49 41.3 48.8 39.2C47.4 39.4 45.9 39 44.5 38.8C43.9 38.7 43.2 38.7 42.5 38.7C42.4 40.5 42.5 42.4 42.8 44.3C43.8 44.6 44.8 44.8 45.8 45C47.1 45.2 48.3 45.2 49.5 45.5Z" fill="#FF719A"/>
<path d="M112.8 23.1C112.8 23 112.7 23 112.7 22.9C112.3 23.9 111.9 24.8 111.4 25.8C112.6 26.2 113.8 26.8 114.9 27.4C114.3 25.9 113.6 24.5 112.8 23.1Z" fill="#FF719A"/>
<path d="M86.7 62.4C85.6 59.7 84.6 56.9 84.4 54.1C83.1 54.9 81.7 55.7 80.2 56.1C82.2 58.5 84.4 60.6 86.7 62.4Z" fill="#FF719A"/>
<path d="M84 30.2C81.1 32.6 75 37.7 70.4 37.4C70.8 39 71.4 40.7 72 42.3C72.4 43.3 72.8 44.2 73.2 45.2C79.9 43.6 84.7 38.9 89.7 34.3C96 28.5 101 21.1 103.7 13C103.7 12.9 103.8 12.8 103.8 12.8C102.3 11.7 100.8 10.6 99.2 9.70001C96.1 17.5 90.5 24.9 84 30.2Z" fill="#FF719A"/>
<path d="M87.1 52.5C87.6 54.5 88.1 56.6 88.9 58.5C89.8 60.8 90.9 63.1 91.6 65.5C91.6 65.6 91.6 65.7 91.7 65.8C93.4 66.8 95.1 67.8 96.9 68.7C93 63.5 91.2 56.1 91.5 49.7C90 50.7 88.5 51.6 87.1 52.5Z" fill="#FF719A"/>
<path d="M91.2 37.4C87.2 41.1 80.7 47.9 74.5 47.8C75.6 49.9 76.9 51.9 78.3 53.8C81.4 53 84.4 50.4 87 48.9C90.7 46.7 94.1 44.1 96.9 40.8C102.5 34.3 106.1 27.2 110.5 20C110.5 19.9 110.5 19.8 110.5 19.6C109.2 17.9 107.9 16.3 106.4 14.9C103.4 23.7 97.9 31.2 91.2 37.4Z" fill="#FF719A"/>
<path d="M98.1 44.4C97.7 44.8 97.3 45.2 96.9 45.6C95.9 46.5 95 47.2 94 48C95.5 55.8 96.3 63.4 101.5 69.6C103.3 68.3 105 66.8 106.6 65.2C100.6 60.5 97.8 52.1 98.1 44.4Z" fill="#FF719A"/>
<path d="M103.2 38.8C102.4 39.8 101.6 40.8 100.7 41.7C101.5 46.5 101.8 51.1 103.8 55.7C105 58.6 106.3 61 108.7 62.8C110 61.2 111.2 59.5 112.3 57.8C105.8 57.5 103.2 45.9 103.2 38.8Z" fill="#FF719A"/>
<path d="M69.4 45.9C64.4 33.7 63 19.2 66.6 6.40002C65.9 6.60002 65.3 6.90001 64.7 7.20001C61.3 19.3 61.2 31.5 64.8 43.7C66.6 49.9 69 56.1 72.6 61.5C76.6 67.6 81.7 71.4 87.2 76C89 75.6 90.7 75.1 92.5 74.4C94.2 73.8 95.7 73 97.3 72.2C84.6 67.2 74.8 59 69.4 45.9Z" fill="#FF719A"/>
<path d="M61 44.7C58.1 33.8 56.3001 20 60.9001 9.09998C60.4001 9.39998 59.9001 9.7 59.4001 10C54.1001 18.2 54.9001 31.4 56.4001 40.6C58.3001 52.6 62.7 68.3 73 76.1C76 76.7 79.2001 76.9 82.3001 76.7C71.3001 69.3 64.5 57.6 61 44.7Z" fill="#FF719A"/>
<path d="M109.3 47.2C108.7 46.8 108.1 46.5 107.5 46.2C108 48.3 108.7 50.5 109.9 52.3C110.9 53.7 112.3 54.4 113.5 55.6C114.1 54.3 114.7 53.1 115.2 51.8C114.8 51.8 114.5 51.7 114.1 51.4C112.6 49.9 111.1 48.4 109.3 47.2Z" fill="#FF719A"/>
<path d="M110.9 39.5C109.2 37.8 107.4 36.7 105.4 35.8C105.3 35.9 105.3 35.9 105.2 36C106.1 38.1 106.4 40.6 106.7 43C110.2 43.6 113.6 46.7 115.9 49.1C116.2 48.1 116.4 47 116.6 46C116.6 46 116.6 46 116.5 46C114.4 44.4 112.9 41.5 110.9 39.5Z" fill="#FF719A"/>
<path d="M68.7 28.3C68.9 30.4 69.3 32.6 69.7 34.7C71.6 33.9 73.8 33.5 75.6 32.4C78.5 30.6 81.4 28.6 83.8 26.2C88.9 20.9 93.7 15.3 96.5 8.40002C95.8 8.10002 95 7.8 94.3 7.5C91.6 13.5 86.4 18.5 81.3 22.5C78.1 25 73.2 28.3 68.7 28.3Z" fill="#FF719A"/>
<path d="M53.2 39.7C52.3 33.1 51.2 22.1 54 14.4C51 20.1 51.4 29.5 51.6 34.9C51.9 47.3 55 62 63.2 71.7C63.5 72 63.6 72.4 63.6 72.7C64.6 73.2 65.7001 73.7 66.8001 74.1C64.0001 70.8 61.7 66.7 60.2 63.5C56.5 56 54.4 48 53.2 39.7Z" fill="#FF719A"/>
<path d="M116.3 32.4C115.6 31.5 114.7 30.9 113.7 30.3C112.6 29.7 111.1 29.2 109.9 28.6C109 30.2 108.1 31.8 107.1 33.3C109.1 34 111 35.3 112.5 36.8C114.1 38.4 116 40.3 117.3 42.4C117.6 39.2 117.3 36 116.6 32.8C116.5 32.7 116.4 32.6 116.3 32.4Z" fill="#FF719A"/>
<path d="M74.1 22.7C72.9 16.7 73.8 11.1 71 5.5C70.4 5.6 69.8 5.69999 69.2 5.79999C68.5 12.3 68.0001 18.7 68.4001 25.1C70.4001 24.5 72.3 23.6 74.1 22.7Z" fill="#FF719A"/>
<path d="M62.8 3.49998C59.3 4.79998 56.1 6.6 53.2 8.9C53.1 9 53 9.09999 52.9 9.19999C42.6 17.7 36.5 32.1 38.5 45.4C39.5 51.9 42 57.8 45.5 62.8C43.3 62.5 41.1 62.5 38.7 62.6C33 62.9 28 66 22.2 65.7C20.8 65.6 19.4 65.2 18.1 64.6C19.8 63.4 21.2 61.7 22.1 59.3C24.2 53.8 15.4 51.3 12.2 54.8C9.00001 58.4 9.90002 61.7 12.4 64.2C9.10002 65.3 5.40001 65.1 1.70001 65.2C0.200012 65.3 0.200012 67.5 1.70001 67.5C6.10001 67.7 11 67.8 15.1 66.1C15.9 66.6 16.7 67 17.6 67.3C21.2 68.8 24.9 68.4 28.7 67.7C35.8 66.3 41.7 64.3 48.6 66.5C58.1 77.3 72.9 83.1 87.9 80.2C111.6 75.7 126 51.8 119.8 28.9C113.4 5.2 85 -4.70002 62.8 3.49998ZM17.4 61.4C16.7 62.2 15.9 62.8 15.1 63.3C14.1 62.6 13.4 61.8 12.9 60.7C10.6 54.9 23.7 54.8 17.4 61.4ZM112.7 22.9C112.7 23 112.8 23 112.8 23.1C113.6 24.5 114.3 25.9 114.9 27.4C113.8 26.8 112.6 26.2 111.4 25.8C111.8 24.8 112.3 23.9 112.7 22.9ZM110.5 19.6C110.5 19.7 110.5 19.8 110.5 20C106.1 27.2 102.5 34.3 96.9 40.8C94.1 44 90.7 46.7 87 48.9C84.4 50.4 81.4 53 78.3 53.8C76.9 51.9 75.6 49.9 74.5 47.8C80.7 47.9 87.2 41.2 91.2 37.4C98 31.2 103.4 23.7 106.3 14.9C107.8 16.3 109.2 17.9 110.5 19.6ZM96.7 68.7C94.9 67.8 93.2 66.8 91.5 65.8C91.5 65.7 91.5 65.6 91.4 65.5C90.7 63.1 89.7 60.8 88.7 58.5C87.9 56.5 87.4 54.5 86.9 52.5C88.4 51.6 89.8 50.7 91.2 49.8C91 56.1 92.9 63.5 96.7 68.7ZM86.7 62.4C84.3 60.5 82.2 58.4 80.2 56.2C81.7 55.7 83 55 84.4 54.2C84.6 57 85.6 59.8 86.7 62.4ZM103.8 12.7C103.8 12.8 103.7 12.8 103.7 12.9C101 21 96 28.4 89.7 34.2C84.7 38.8 79.9 43.5 73.2 45.1C72.8 44.2 72.4 43.2 72 42.2C71.4 40.6 70.9 39 70.4 37.3C75.1 37.6 81.2 32.5 84 30.1C90.5 24.8 96.1 17.4 99.2 9.49998C100.8 10.6 102.4 11.6 103.8 12.7ZM89.4 6.09995C89.9 6.19995 90.4 6.3 90.9 6.4C90.2 7.7 89.4 8.89995 88.5 10.1C88.2 8.49995 87.9 6.79999 87 5.69999C87.8 5.89999 88.6 5.99995 89.4 6.09995ZM94.3 7.49998C95.1 7.69998 95.8 7.99997 96.5 8.29997C93.7 15.2 89 20.8 83.8 26.1C81.4 28.6 78.6 30.6 75.6 32.3C73.8 33.4 71.6 33.8 69.7 34.6C69.2 32.5 68.9 30.4 68.7 28.2C73.2 28.2 78.1 25 81.3 22.5C86.4 18.5 91.5 13.5 94.3 7.49998ZM83.6 5.29997C83.6 5.39997 83.7 5.49999 83.7 5.69999C84.5 6.99999 85.2 7.9 85.5 9.4C85.8 10.6 85.8 11.9 86.1 13.1C85.3 14 84.5 14.9 83.7 15.7C83.6 12 82.7 8.29998 81 4.99998C81.9 5.19998 82.7 5.19997 83.6 5.29997ZM78 4.99998C79.1 9.09998 80.7 12.8 80.5 17.2C80.5 17.7 80.6 18 80.9 18.3C79.7 19.2 78.5 20.1 77.2 20.9C76.6 16 77.4 9.19995 74.2 5.09995C75.4 5.09995 76.7 4.99998 78 4.99998ZM69.3 5.79997C69.9 5.69997 70.5 5.59998 71.1 5.49998C73.8 11.1 73 16.7 74.2 22.6C72.4 23.5 70.5 24.4 68.5 25.1C68.1 18.7 68.6 12.3 69.3 5.79997ZM49.4 19.6C48.8 23 48.6 26.6 48.6 29.3C48.4 29.1 48 28.9 47.6 28.9C46.6 28.9 45.6 28.6 44.7 28.3C45.9 25.3 47.4 22.3 49.4 19.6ZM43.8 31.2C45 31.7 46.3 31.9 47.6 31.9C48 31.9 48.3 31.8 48.6 31.6C48.6 33.2 48.6 34.8 48.7 36.4C47.3 36.1 45.6 36.1 44.3 36C43.9 36 43.4 35.9 42.9 35.8C43 34.2 43.4 32.7 43.8 31.2ZM42.6 38.7C43.3 38.7 44 38.8 44.6 38.8C46 39 47.5 39.4 48.9 39.2C49 41.3 49.3 43.4 49.6 45.5C48.4 45.1 47.2 45.2 46 44.9C45 44.7 44 44.4 43 44.2C42.6 42.4 42.5 40.5 42.6 38.7ZM44.7 51.5C44.3 50.5 44 49.6 43.7 48.6C43.6 48.2 43.5 47.7 43.4 47.3C43.8 47.4 44.1 47.6 44.6 47.7C46.1 48.1 48.2 48.6 49.7 48C49.8 48 49.8 47.9 49.8 47.9C50.1 49.5 50.4 51.2 50.8 52.8C50 52.6 49 52.6 48.2 52.4C47.1 52 46 51.6 44.7 51.5ZM49 59.8C47.9 58.1 46.9 56.4 46 54.6C46.6 54.8 47.3 55 48 55.2C49.1 55.5 50.5 55.9 51.6 55.5C52.1 57.2 52.6 58.8 53.2 60.4C52.5 59.9 51.5 59.9 50.6 59.9C50 59.8 49.5 59.8 49 59.8ZM51.2 62.7C52.1 62.8 52.9 62.7 53.5 62C53.6 61.9 53.6 61.8 53.6 61.8C54.6 64.2 55.8 66.5 57.1 68.7C55.1 66.9 53 64.9 51.2 62.7ZM63.6 72.7C63.6 72.4 63.5 72 63.2 71.7C54.9 62 51.9 47.2 51.6 34.9C51.5 29.5 51 20.1 54 14.4C51.2 22.2 52.3 33.1 53.2 39.7C54.4 48 56.5 56 60.1 63.5C61.6 66.7 63.9 70.8 66.7 74.1C65.7 73.7 64.6 73.3 63.6 72.7ZM73.1 76.1C62.8 68.3 58.4 52.6 56.5 40.6C55 31.4 54.1 18.2 59.5 9.99998C60 9.69998 60.5 9.39995 61 9.09995C56.4 20 58.2 33.8 61.1 44.7C64.5 57.5 71.4 69.3 82.5 76.7C79.2 76.9 76.1 76.7 73.1 76.1ZM92.4 74.5C90.7 75.2 88.9 75.7 87.1 76.1C81.7 71.5 76.5 67.7 72.5 61.6C68.9 56.1 66.5 50 64.7 43.8C61.1 31.6 61.2 19.4 64.6 7.29997C65.2 6.99997 65.9 6.69998 66.5 6.49998C62.9 19.3 64.3 33.8 69.3 46C74.7 59.1 84.5 67.3 97.1 72.4C95.6 73.1 94 73.8 92.4 74.5ZM101.5 69.5C96.3 63.3 95.5 55.7 94 47.9C95 47.2 96 46.4 96.9 45.5C97.3 45.1 97.7 44.7 98.1 44.3C97.8 52 100.6 60.4 106.6 65C105 66.7 103.3 68.2 101.5 69.5ZM108.7 62.9C106.3 61.1 105 58.7 103.8 55.8C101.9 51.2 101.6 46.6 100.7 41.8C101.6 40.9 102.4 39.9 103.2 38.9C103.3 46 105.9 57.6 112.3 57.9C111.2 59.6 110 61.3 108.7 62.9ZM113.5 55.6C112.3 54.5 110.9 53.7 109.9 52.3C108.6 50.5 108 48.3 107.5 46.2C108.1 46.5 108.7 46.8 109.3 47.2C111.1 48.4 112.6 49.9 114.1 51.4C114.4 51.7 114.8 51.8 115.2 51.8C114.7 53.1 114.1 54.4 113.5 55.6ZM116 49.1C113.7 46.7 110.3 43.5 106.8 43C106.4 40.6 106.2 38.1 105.3 36C105.4 35.9 105.4 35.9 105.5 35.8C107.5 36.6 109.3 37.7 111 39.5C113 41.5 114.4 44.4 116.8 46C116.8 46 116.8 46 116.9 46C116.6 47.1 116.3 48.1 116 49.1ZM117.3 42.4C116 40.3 114.1 38.4 112.5 36.8C111 35.3 109.2 34 107.1 33.3C108.1 31.8 109 30.2 109.9 28.6C111.2 29.2 112.7 29.7 113.7 30.3C114.7 30.9 115.6 31.5 116.3 32.4C116.4 32.5 116.5 32.7 116.6 32.8C117.3 36.1 117.5 39.3 117.3 42.4Z" fill="#5F787D"/>
<path d="M112.8 23.1C112.8 23 112.7 23 112.7 22.9C112.3 23.9 111.9 24.8 111.4 25.8C112.6 26.2 113.8 26.8 114.9 27.4C114.3 25.9 113.6 24.5 112.8 23.1Z" fill="#FF719A"/>
<path d="M86.7 62.4C85.6 59.7 84.6 56.9 84.4 54.1C83.1 54.9 81.7 55.7 80.2 56.1C82.2 58.5 84.4 60.6 86.7 62.4Z" fill="#FF719A"/>
<path d="M84 30.2C81.1 32.6 75 37.7 70.4 37.4C70.8 39 71.4 40.7 72 42.3C72.4 43.3 72.8 44.2 73.2 45.2C79.9 43.6 84.7 38.9 89.7 34.3C96 28.5 101 21.1 103.7 13C103.7 12.9 103.8 12.8 103.8 12.8C102.3 11.7 100.8 10.6 99.2 9.70001C96.1 17.5 90.5 24.9 84 30.2Z" fill="#FF719A"/>
<path d="M87.1 52.5C87.6 54.5 88.1 56.6 88.9 58.5C89.8 60.8 90.9 63.1 91.6 65.5C91.6 65.6 91.6 65.7 91.7 65.8C93.4 66.8 95.1 67.8 96.9 68.7C93 63.5 91.2 56.1 91.5 49.7C90 50.7 88.5 51.6 87.1 52.5Z" fill="#FF719A"/>
<path d="M91.2 37.4C87.2 41.1 80.7 47.9 74.5 47.8C75.6 49.9 76.9 51.9 78.3 53.8C81.4 53 84.4 50.4 87 48.9C90.7 46.7 94.1 44.1 96.9 40.8C102.5 34.3 106.1 27.2 110.5 20C110.5 19.9 110.5 19.8 110.5 19.6C109.2 17.9 107.9 16.3 106.4 14.9C103.4 23.7 97.9 31.2 91.2 37.4Z" fill="#FF719A"/>
<path d="M98.1 44.4C97.7 44.8 97.3 45.2 96.9 45.6C95.9 46.5 95 47.2 94 48C95.5 55.8 96.3 63.4 101.5 69.6C103.3 68.3 105 66.8 106.6 65.2C100.6 60.5 97.8 52.1 98.1 44.4Z" fill="#FF719A"/>
<path d="M103.2 38.8C102.4 39.8 101.6 40.8 100.7 41.7C101.5 46.5 101.8 51.1 103.8 55.7C105 58.6 106.3 61 108.7 62.8C110 61.2 111.2 59.5 112.3 57.8C105.8 57.5 103.2 45.9 103.2 38.8Z" fill="#FF719A"/>
<path d="M69.4 45.9C64.4 33.7 63 19.2 66.6 6.40002C65.9 6.60002 65.3 6.90001 64.7 7.20001C61.3 19.3 61.2 31.5 64.8 43.7C66.6 49.9 69 56.1 72.6 61.5C76.6 67.6 81.7 71.4 87.2 76C89 75.6 90.7 75.1 92.5 74.4C94.2 73.8 95.7 73 97.3 72.2C84.6 67.2 74.8 59 69.4 45.9Z" fill="#FF719A"/>
<path d="M61 44.7C58.1 33.8 56.3001 20 60.9001 9.09998C60.4001 9.39998 59.9001 9.7 59.4001 10C54.1001 18.2 54.9001 31.4 56.4001 40.6C58.3001 52.6 62.7 68.3 73 76.1C76 76.7 79.2001 76.9 82.3001 76.7C71.3001 69.3 64.5 57.6 61 44.7Z" fill="#FF719A"/>
<path d="M109.3 47.2C108.7 46.8 108.1 46.5 107.5 46.2C108 48.3 108.7 50.5 109.9 52.3C110.9 53.7 112.3 54.4 113.5 55.6C114.1 54.3 114.7 53.1 115.2 51.8C114.8 51.8 114.5 51.7 114.1 51.4C112.6 49.9 111.1 48.4 109.3 47.2Z" fill="#FF719A"/>
<path d="M110.9 39.5C109.2 37.8 107.4 36.7 105.4 35.8C105.3 35.9 105.3 35.9 105.2 36C106.1 38.1 106.4 40.6 106.7 43C110.2 43.6 113.6 46.7 115.9 49.1C116.2 48.1 116.4 47 116.6 46C116.6 46 116.6 46 116.5 46C114.4 44.4 112.9 41.5 110.9 39.5Z" fill="#FF719A"/>
<path d="M68.7 28.3C68.9 30.4 69.3 32.6 69.7 34.7C71.6 33.9 73.8 33.5 75.6 32.4C78.5 30.6 81.4 28.6 83.8 26.2C88.9 20.9 93.7 15.3 96.5 8.40002C95.8 8.10002 95 7.8 94.3 7.5C91.6 13.5 86.4 18.5 81.3 22.5C78.1 25 73.2 28.3 68.7 28.3Z" fill="#FF719A"/>
<path d="M53.2 39.7C52.3 33.1 51.2 22.1 54 14.4C51 20.1 51.4 29.5 51.6 34.9C51.9 47.3 55 62 63.2 71.7C63.5 72 63.6 72.4 63.6 72.7C64.6 73.2 65.7001 73.7 66.8001 74.1C64.0001 70.8 61.7 66.7 60.2 63.5C56.5 56 54.4 48 53.2 39.7Z" fill="#FF719A"/>
<path d="M116.3 32.4C115.6 31.5 114.7 30.9 113.7 30.3C112.6 29.7 111.1 29.2 109.9 28.6C109 30.2 108.1 31.8 107.1 33.3C109.1 34 111 35.3 112.5 36.8C114.1 38.4 116 40.3 117.3 42.4C117.6 39.2 117.3 36 116.6 32.8C116.5 32.7 116.4 32.6 116.3 32.4Z" fill="#FF719A"/>
<path d="M74.1 22.7C72.9 16.7 73.8 11.1 71 5.5C70.4 5.6 69.8 5.69999 69.2 5.79999C68.5 12.3 68.0001 18.7 68.4001 25.1C70.4001 24.5 72.3 23.6 74.1 22.7Z" fill="#FF719A"/>
<path d="M62.8 3.49998C59.3 4.79998 56.1 6.6 53.2 8.9C53.1 9 53 9.09999 52.9 9.19999C42.6 17.7 36.5 32.1 38.5 45.4C39.5 51.9 42 57.8 45.5 62.8C43.3 62.5 41.1 62.5 38.7 62.6C33 62.9 28 66 22.2 65.7C20.8 65.6 19.4 65.2 18.1 64.6C19.8 63.4 21.2 61.7 22.1 59.3C24.2 53.8 15.4 51.3 12.2 54.8C9.00001 58.4 9.90002 61.7 12.4 64.2C9.10002 65.3 5.40001 65.1 1.70001 65.2C0.200012 65.3 0.200012 67.5 1.70001 67.5C6.10001 67.7 11 67.8 15.1 66.1C15.9 66.6 16.7 67 17.6 67.3C21.2 68.8 24.9 68.4 28.7 67.7C35.8 66.3 41.7 64.3 48.6 66.5C58.1 77.3 72.9 83.1 87.9 80.2C111.6 75.7 126 51.8 119.8 28.9C113.4 5.2 85 -4.70002 62.8 3.49998ZM17.4 61.4C16.7 62.2 15.9 62.8 15.1 63.3C14.1 62.6 13.4 61.8 12.9 60.7C10.6 54.9 23.7 54.8 17.4 61.4ZM112.7 22.9C112.7 23 112.8 23 112.8 23.1C113.6 24.5 114.3 25.9 114.9 27.4C113.8 26.8 112.6 26.2 111.4 25.8C111.8 24.8 112.3 23.9 112.7 22.9ZM110.5 19.6C110.5 19.7 110.5 19.8 110.5 20C106.1 27.2 102.5 34.3 96.9 40.8C94.1 44 90.7 46.7 87 48.9C84.4 50.4 81.4 53 78.3 53.8C76.9 51.9 75.6 49.9 74.5 47.8C80.7 47.9 87.2 41.2 91.2 37.4C98 31.2 103.4 23.7 106.3 14.9C107.8 16.3 109.2 17.9 110.5 19.6ZM96.7 68.7C94.9 67.8 93.2 66.8 91.5 65.8C91.5 65.7 91.5 65.6 91.4 65.5C90.7 63.1 89.7 60.8 88.7 58.5C87.9 56.5 87.4 54.5 86.9 52.5C88.4 51.6 89.8 50.7 91.2 49.8C91 56.1 92.9 63.5 96.7 68.7ZM86.7 62.4C84.3 60.5 82.2 58.4 80.2 56.2C81.7 55.7 83 55 84.4 54.2C84.6 57 85.6 59.8 86.7 62.4ZM103.8 12.7C103.8 12.8 103.7 12.8 103.7 12.9C101 21 96 28.4 89.7 34.2C84.7 38.8 79.9 43.5 73.2 45.1C72.8 44.2 72.4 43.2 72 42.2C71.4 40.6 70.9 39 70.4 37.3C75.1 37.6 81.2 32.5 84 30.1C90.5 24.8 96.1 17.4 99.2 9.49998C100.8 10.6 102.4 11.6 103.8 12.7ZM89.4 6.09995C89.9 6.19995 90.4 6.3 90.9 6.4C90.2 7.7 89.4 8.89995 88.5 10.1C88.2 8.49995 87.9 6.79999 87 5.69999C87.8 5.89999 88.6 5.99995 89.4 6.09995ZM94.3 7.49998C95.1 7.69998 95.8 7.99997 96.5 8.29997C93.7 15.2 89 20.8 83.8 26.1C81.4 28.6 78.6 30.6 75.6 32.3C73.8 33.4 71.6 33.8 69.7 34.6C69.2 32.5 68.9 30.4 68.7 28.2C73.2 28.2 78.1 25 81.3 22.5C86.4 18.5 91.5 13.5 94.3 7.49998ZM83.6 5.29997C83.6 5.39997 83.7 5.49999 83.7 5.69999C84.5 6.99999 85.2 7.9 85.5 9.4C85.8 10.6 85.8 11.9 86.1 13.1C85.3 14 84.5 14.9 83.7 15.7C83.6 12 82.7 8.29998 81 4.99998C81.9 5.19998 82.7 5.19997 83.6 5.29997ZM78 4.99998C79.1 9.09998 80.7 12.8 80.5 17.2C80.5 17.7 80.6 18 80.9 18.3C79.7 19.2 78.5 20.1 77.2 20.9C76.6 16 77.4 9.19995 74.2 5.09995C75.4 5.09995 76.7 4.99998 78 4.99998ZM69.3 5.79997C69.9 5.69997 70.5 5.59998 71.1 5.49998C73.8 11.1 73 16.7 74.2 22.6C72.4 23.5 70.5 24.4 68.5 25.1C68.1 18.7 68.6 12.3 69.3 5.79997ZM49.4 19.6C48.8 23 48.6 26.6 48.6 29.3C48.4 29.1 48 28.9 47.6 28.9C46.6 28.9 45.6 28.6 44.7 28.3C45.9 25.3 47.4 22.3 49.4 19.6ZM43.8 31.2C45 31.7 46.3 31.9 47.6 31.9C48 31.9 48.3 31.8 48.6 31.6C48.6 33.2 48.6 34.8 48.7 36.4C47.3 36.1 45.6 36.1 44.3 36C43.9 36 43.4 35.9 42.9 35.8C43 34.2 43.4 32.7 43.8 31.2ZM42.6 38.7C43.3 38.7 44 38.8 44.6 38.8C46 39 47.5 39.4 48.9 39.2C49 41.3 49.3 43.4 49.6 45.5C48.4 45.1 47.2 45.2 46 44.9C45 44.7 44 44.4 43 44.2C42.6 42.4 42.5 40.5 42.6 38.7ZM44.7 51.5C44.3 50.5 44 49.6 43.7 48.6C43.6 48.2 43.5 47.7 43.4 47.3C43.8 47.4 44.1 47.6 44.6 47.7C46.1 48.1 48.2 48.6 49.7 48C49.8 48 49.8 47.9 49.8 47.9C50.1 49.5 50.4 51.2 50.8 52.8C50 52.6 49 52.6 48.2 52.4C47.1 52 46 51.6 44.7 51.5ZM49 59.8C47.9 58.1 46.9 56.4 46 54.6C46.6 54.8 47.3 55 48 55.2C49.1 55.5 50.5 55.9 51.6 55.5C52.1 57.2 52.6 58.8 53.2 60.4C52.5 59.9 51.5 59.9 50.6 59.9C50 59.8 49.5 59.8 49 59.8ZM51.2 62.7C52.1 62.8 52.9 62.7 53.5 62C53.6 61.9 53.6 61.8 53.6 61.8C54.6 64.2 55.8 66.5 57.1 68.7C55.1 66.9 53 64.9 51.2 62.7ZM63.6 72.7C63.6 72.4 63.5 72 63.2 71.7C54.9 62 51.9 47.2 51.6 34.9C51.5 29.5 51 20.1 54 14.4C51.2 22.2 52.3 33.1 53.2 39.7C54.4 48 56.5 56 60.1 63.5C61.6 66.7 63.9 70.8 66.7 74.1C65.7 73.7 64.6 73.3 63.6 72.7ZM73.1 76.1C62.8 68.3 58.4 52.6 56.5 40.6C55 31.4 54.1 18.2 59.5 9.99998C60 9.69998 60.5 9.39995 61 9.09995C56.4 20 58.2 33.8 61.1 44.7C64.5 57.5 71.4 69.3 82.5 76.7C79.2 76.9 76.1 76.7 73.1 76.1ZM92.4 74.5C90.7 75.2 88.9 75.7 87.1 76.1C81.7 71.5 76.5 67.7 72.5 61.6C68.9 56.1 66.5 50 64.7 43.8C61.1 31.6 61.2 19.4 64.6 7.29997C65.2 6.99997 65.9 6.69998 66.5 6.49998C62.9 19.3 64.3 33.8 69.3 46C74.7 59.1 84.5 67.3 97.1 72.4C95.6 73.1 94 73.8 92.4 74.5ZM101.5 69.5C96.3 63.3 95.5 55.7 94 47.9C95 47.2 96 46.4 96.9 45.5C97.3 45.1 97.7 44.7 98.1 44.3C97.8 52 100.6 60.4 106.6 65C105 66.7 103.3 68.2 101.5 69.5ZM108.7 62.9C106.3 61.1 105 58.7 103.8 55.8C101.9 51.2 101.6 46.6 100.7 41.8C101.6 40.9 102.4 39.9 103.2 38.9C103.3 46 105.9 57.6 112.3 57.9C111.2 59.6 110 61.3 108.7 62.9ZM113.5 55.6C112.3 54.5 110.9 53.7 109.9 52.3C108.6 50.5 108 48.3 107.5 46.2C108.1 46.5 108.7 46.8 109.3 47.2C111.1 48.4 112.6 49.9 114.1 51.4C114.4 51.7 114.8 51.8 115.2 51.8C114.7 53.1 114.1 54.4 113.5 55.6ZM116 49.1C113.7 46.7 110.3 43.5 106.8 43C106.4 40.6 106.2 38.1 105.3 36C105.4 35.9 105.4 35.9 105.5 35.8C107.5 36.6 109.3 37.7 111 39.5C113 41.5 114.4 44.4 116.8 46C116.8 46 116.8 46 116.9 46C116.6 47.1 116.3 48.1 116 49.1ZM117.3 42.4C116 40.3 114.1 38.4 112.5 36.8C111 35.3 109.2 34 107.1 33.3C108.1 31.8 109 30.2 109.9 28.6C111.2 29.2 112.7 29.7 113.7 30.3C114.7 30.9 115.6 31.5 116.3 32.4C116.4 32.5 116.5 32.7 116.6 32.8C117.3 36.1 117.5 39.3 117.3 42.4Z" fill="#5F787D"/>
</svg>
