<svg width="57" height="61" viewBox="0 0 57 61" fill="none" xmlns="http://www.w3.org/2000/svg">
<path d="M43.5999 51.3C51.7999 43.7 56.3 34.3 52.5 23C50.2 15.4 45.3999 8.80003 37.5999 5.70003C30.8999 3.10003 23.1 2.19999 16.7 6.09999C4.69998 13.3 -4.12464e-05 30.1 6.79996 42.6C13.8 55.4 31.6999 62.4 43.5999 51.3ZM19.8 11.3C28.2 7.7 38.9999 9.79999 44.0999 17.1C52.7999 24.9 48.3999 40.4 40.5999 47.3C31.2999 55.5 16.8 53.8 10.3 42.7C4.19996 32.1 7.99996 16.4 19.8 11.3Z" fill="#FF719A"/>
<path d="M42 40.5C44.4 36 46.4 30.4 44.9 25.3C44.5 24 43.9 22.8 43.4 21.6C37.9 12.5 25.3 8.59998 17 17.3C9.9 24.7 8.19999 35.9 15.3 44C22.9 52.9 36.5 50.7 42 40.5ZM32.9 23.2C34.1 22.9 35.7 23 36.6 23.9C37.1 24.3 37.5 24.8 37.7 25.4C38.2 26.2 38.5 27.2 38.6 28.1C38.7 29.7 37.9 31.4 36.4 32.2C34 33.6 30.7 32.1 29.7 29.6C28.6 26.9 29.9 23.9 32.9 23.2ZM32.6 35C33.1 35.4 33.5 35.9 33.7 36.5C34.2 37.3 34.5 38.3 34.6 39.2C34.7 40.8 33.9 42.5 32.4 43.3C30 44.7 26.7 43.2 25.7 40.7C24.6 38 25.9 34.9 28.9 34.3C30.1 34 31.6 34.1 32.6 35ZM22.2 20.8C23.4 20.5 25 20.6 25.9 21.5C26.4 21.9 26.8 22.4 27 23C27.5 23.8 27.8 24.8 27.9 25.7C28 27.3 27.2 29 25.7 29.8C23.3 31.2 20 29.7 19 27.2C17.9 24.5 19.2 21.5 22.2 20.8ZM18.6 31.2C19.8 30.9 21.4 31 22.3 31.9C22.8 32.3 23.2 32.8 23.4 33.4C23.9 34.2 24.2 35.2 24.3 36.1C24.4 37.7 23.6 39.4 22.1 40.2C19.7 41.6 16.4 40.1 15.4 37.6C14.3 34.9 15.6 31.9 18.6 31.2Z" fill="#FFE785"/>
<path d="M40.7 47.3C48.4 40.4 52.9 24.9 44.2 17.1C39.1 9.7 28.3 7.60001 19.9 11.3C8.00001 16.4 4.29998 32.2 10.5 42.7C16.9 53.8 31.4 55.5 40.7 47.3ZM16.9 17.2C25.2 8.50004 37.8 12.4 43.3 21.5C43.9 22.7 44.4 23.9 44.8 25.2C46.3 30.3 44.3 35.9001 41.9 40.4001C36.4 50.6001 22.8 52.8001 15.1 43.9001C8.09996 35.9001 9.90001 24.7 16.9 17.2Z" fill="#5F787D"/>
<path d="M40 57.7C55.1 49.8 60.6 34.1 54.3 19.7C54.1 19.1 53.4 17.5 52.8 16.4C46 3.60005 32.1 -3.09999 17.4 2.30001C1.60001 8.10001 -1.90001 27.8 2.99999 41.9C8.19999 56.8 26.6 64.6 40 57.7ZM16.8 6.20003C23.2 2.30003 31.1 3.20001 37.7 5.80001C45.5 8.90001 50.3 15.5 52.6 23.1C56.4 34.4 51.9 43.8 43.7 51.4C31.8 62.5 13.8 55.4 6.90002 42.7C0.100016 30.1 4.79998 13.4 16.8 6.20003Z" fill="#5F787D"/>
<path d="M36.4 32.2C37.8 31.4 38.7 29.6999 38.6 28.0999C38.6 27.2999 38.3 26.2 37.7 25.4C37.5 24.9 37.1 24.4 36.6 23.9C35.6 23.1 34.1 23 32.9 23.2C29.9 23.8 28.6 26.7999 29.7 29.5999C30.7 32.0999 34.1 33.6 36.4 32.2ZM33.4 26.0999C33.6 26.0999 33.9 25.9999 34.1 26.0999C34.1 26.1999 34.2 26.3 34.3 26.4C34.8 27.1 35.4 27.3 35.5 28.2C35.6 28.8 35.3 29.3999 34.8 29.5999C34 29.9999 32.8 29.1 32.4 28.3C31.9 27.3 32.3 26.3999 33.4 26.0999Z" fill="#5F787D"/>
<path d="M25.7 29.8C27.1 29 28 27.3 27.9 25.7C27.9 24.9 27.6 23.8 27 23C26.8 22.5 26.4 22 25.9 21.5C24.9 20.7 23.4 20.6 22.2 20.8C19.2 21.4 17.9 24.4 19 27.2C20 29.7 23.3 31.2 25.7 29.8ZM22.7 23.7C22.9 23.7 23.2 23.6 23.4 23.7C23.4 23.8 23.5 23.9 23.6 24C24.1 24.7 24.7 24.9 24.8 25.8C24.9 26.4 24.6 27 24.1 27.2C23.3 27.6 22.1 26.7 21.7 25.9C21.2 24.9 21.6 24 22.7 23.7Z" fill="#5F787D"/>
<path d="M25.7 40.7C26.7 43.2 30 44.6 32.4 43.3C33.8 42.5 34.7 40.8 34.6 39.2C34.6 38.4 34.3 37.3 33.7 36.5C33.5 36 33.1 35.5 32.6 35C31.6 34.2 30.1 34.1 28.9 34.3C25.9 34.9 24.6 37.9 25.7 40.7ZM29.4 37.2C29.6 37.2 29.8 37.0999 30.1 37.0999C30.1 37.1999 30.2 37.3 30.3 37.4C30.8 38.1 31.4 38.3 31.5 39.2C31.6 39.8 31.3 40.3999 30.8 40.5999C30 40.9999 28.8 40.1 28.4 39.3C27.9 38.4 28.3 37.4 29.4 37.2Z" fill="#5F787D"/>
<path d="M22.2 40.2C23.6 39.4 24.5 37.7 24.4 36.1C24.4 35.3 24.1 34.2 23.5 33.4C23.3 32.9 22.9 32.4 22.4 31.9C21.4 31 19.9 31 18.7 31.2C15.7 31.8 14.4 34.8 15.5 37.6C16.4 40.1 19.8 41.6 22.2 40.2ZM19.1 34.1C19.3 34.1 19.6 34 19.8 34C19.8 34.1 19.9 34.2 20 34.3C20.5 35 21.1 35.2 21.2 36.1C21.3 36.7 21 37.3 20.5 37.5C19.7 37.9 18.5 37 18.1 36.2C17.6 35.3 18 34.4 19.1 34.1Z" fill="#5F787D"/>
</svg>
