<svg width="47" height="43" viewBox="0 0 47 43" fill="none" xmlns="http://www.w3.org/2000/svg">
<path d="M25.8 8.59998C24.8 8.39998 23.8 8.40002 22.7 8.40002C14.6 9.20002 7.8 16.5 11.1 25.1C13.9 32.4 21 37.2 28.9 35C37.5 32.6 40.5 22.6 35.3 15.5C33 12.5 29.8 9.19998 25.8 8.59998ZM20.4 16.1C20.6 15.2 21.2 14.2 22.1 13.8C22.6 13.6 23 13.5 23.5 13.5C24.2 13.4 25 13.5 25.6 13.8C26.7 14.3 27.6 15.4 27.7 16.6C27.8 18.7 25.7 20.5 23.7 20.4C21.5 20.3 19.9 18.4 20.4 16.1ZM15.3 22.7C15.5 21.8 16.1 20.8 17 20.4C17.5 20.2 17.9 20.1 18.4 20.1C19.1 20 19.9 20.1 20.5 20.4C21.6 20.9 22.5 22 22.6 23.2C22.7 25.3 20.6 27.1 18.6 27C16.4 26.8 14.7 25 15.3 22.7ZM24.6 32.8C22.4 32.7 20.7 30.8 21.3 28.5C21.5 27.6 22.1 26.6 23 26.2C23.5 26 23.9 25.9 24.4 25.9C25.1 25.8 25.9 25.9 26.5 26.2C27.6 26.7 28.5 27.8 28.6 29C28.7 31.1 26.6 32.9 24.6 32.8ZM30 26.8C27.8 26.7 26.1 24.8 26.7 22.5C26.9 21.6 27.5 20.6 28.4 20.2C28.9 20 29.3 19.9 29.8 19.9C30.5 19.8 31.3 19.9 31.9 20.2C33 20.7 33.9 21.8 34 23C34.1 25.1 32 26.9 30 26.8Z" fill="#ABF7E3"/>
<path d="M26.7 2.59996C20.8 1.69996 14.7 2.79996 9.99999 7.09996C5.99999 10.8 2.90001 15.9 3.40001 21.6C4.40001 32.2 14.3 40.9 25.1 40.3C36.1 39.7 46.8 29.7 43.1 18C40.7 9.79998 35.7 3.69996 26.7 2.59996ZM26.4 37.9C17.2 38.7 7.59999 30.9 7.99999 21.2C8.29999 14.3 13.2 7.49998 20 6.49998C28.2 3.09998 37.4 11.2 39.5 18.8C42.1 27.7 36.1 37.1 26.4 37.9Z" fill="#FF719A"/>
<path d="M19.9 6.4C13.2 7.5 8.20002 14.1999 7.90002 21.0999C7.50002 30.8999 17.1 38.6 26.3 37.8C36.1 37 42 27.5999 39.4 18.5999C37.3 11.0999 28.1 3 19.9 6.4ZM28.9 35.0999C21 37.2999 13.9 32.4 11.1 25.2C7.79998 16.7 14.7 9.29997 22.7 8.49997C23.7 8.49997 24.7 8.49998 25.8 8.69998C29.8 9.29998 33 12.6 35.3 15.7C40.5 22.7 37.5 32.6999 28.9 35.0999Z" fill="#5F787D"/>
<path d="M25 0.299988C24.5 0.299988 23.2 0.200012 22.3 0.200012C11.3 0.700012 2.19998 8.00002 0.999981 19.9C-0.200019 32.6 12.2 41.5 23.4 42.7C35.3 44 46.7 34 46.3 22.5C45.9 9.6 36.9 0.699988 25 0.299988ZM25.2 40.3C14.4 40.9 4.49998 32.2 3.49998 21.6C2.99998 15.9 6.09996 10.8 10.1 7.09998C14.8 2.79998 20.9 1.69998 26.8 2.59998C35.8 3.69998 40.7 9.8 43.3 18C46.9 29.8 36.2 39.8 25.2 40.3Z" fill="#5F787D"/>
<path d="M23.8 20.4001C25.8 20.5001 27.9 18.7 27.8 16.6C27.7 15.3 26.8 14.2 25.7 13.8C25.1 13.5 24.3 13.4 23.6 13.5C23.2 13.5 22.7 13.6 22.2 13.8C21.3 14.2 20.7 15.2 20.5 16.1C19.9 18.4 21.5 20.3001 23.8 20.4001ZM22.6 16.7C22.6 16.5 22.7 16.4 22.8 16.2C22.9 16.2 23 16.2 23.1 16.2C23.7 16.1 24.1 15.8 24.7 16C25.1 16.1 25.4 16.6001 25.4 16.9001C25.4 17.6001 24.4 18.1 23.8 18.1C22.9 18.2 22.4 17.5 22.6 16.7Z" fill="#5F787D"/>
<path d="M22.6 23.2C22.5 21.9 21.6 20.8 20.5 20.4C19.9 20.1 19.1 20 18.4 20.1C18 20.1 17.5 20.2 17 20.4C16.1 20.8 15.5 21.8 15.3 22.7C14.7 25 16.4 26.8 18.6 27C20.6 27.1 22.8 25.3 22.6 23.2ZM18.6 24.7C17.7 24.7 17.2 24.1 17.4 23.3C17.4 23.1 17.5 23 17.6 22.8C17.7 22.8 17.8 22.8 17.9 22.8C18.5 22.7 18.9 22.4 19.5 22.6C19.9 22.7 20.2 23.2 20.2 23.5C20.3 24.2 19.3 24.7 18.6 24.7Z" fill="#5F787D"/>
<path d="M31.9 20.1C31.3 19.8 30.5 19.7 29.8 19.8C29.4 19.8 28.9 19.9 28.4 20.1C27.5 20.5 26.9 21.5001 26.7 22.4001C26.1 24.7001 27.8 26.5 30 26.7C32 26.8 34.1 25.0001 34 22.9001C33.9 21.7001 33 20.6 31.9 20.1ZM30 24.5C29.1 24.5 28.6 23.9 28.8 23.1C28.8 22.9 28.9 22.8 29 22.6C29.1 22.6 29.2 22.6 29.3 22.6C29.9 22.5 30.3 22.2001 30.9 22.4001C31.3 22.5001 31.6 23 31.6 23.3C31.7 24 30.7 24.5 30 24.5Z" fill="#5F787D"/>
<path d="M26.4 26.2C25.8 25.9 25 25.8001 24.3 25.9001C23.9 25.9001 23.4 26 22.9 26.2C22 26.6 21.4 27.6 21.2 28.5C20.6 30.8 22.3 32.6 24.5 32.8C26.5 32.9 28.6 31.1 28.5 29C28.5 27.8 27.6 26.7 26.4 26.2ZM24.6 30.6C23.7 30.6 23.2 30 23.4 29.2C23.4 29 23.5 28.9 23.6 28.7C23.7 28.7 23.8 28.7 23.9 28.7C24.5 28.6 24.9 28.3 25.5 28.5C25.9 28.6 26.2 29.0001 26.2 29.4001C26.2 30.1001 25.2 30.5 24.6 30.6Z" fill="#5F787D"/>
</svg>
