<svg width="114" height="78" viewBox="0 0 114 78" fill="none" xmlns="http://www.w3.org/2000/svg">
<path d="M65.9 31.4C69.3 33.6 74 33.8 77.2 36.3C83.6 29 96.5 18.7 92.6 7.89998C89.4 -1.10002 78.7 7.29998 75.5 11.9C76 13.2 76.3 14.6 76.3 15.9C76.4 18.2 73.2 18.3 72.5 16.4C70.9 12 67.4 4.99999 61.7 5.09999C54.5 5.29999 52.6 14.1 55.3 19.5C57.8 24.3 61.5 28.6 65.9 31.4Z" fill="#FF719A"/>
<path d="M12.6 10C15.4 10.3 18.3 10 21.1 9.60001C20.8 13.6 21 17.7 21.2 21.8C21.4 25.5 21.1001 29.8 21.9001 33.5C19.1001 33.4 16.2001 33.3 13.4001 33.9C11.1001 34.4 11.9001 37.4 13.9001 37.6C20.2001 38.3 26.9 39.1 33 37.5C33.8 37.3 34.5 36.6 34.7 35.8C34.8 35.6 34.8 35.3 34.9 35.1C35 34.7 34.9 34.1 34.5 33.8C32.1 31.9 28.9001 33.4 25.9001 33.5C26.5001 30.2 26.0001 26.7 25.9001 23.4C25.7001 18.6 25.5 13.8 25 9.10001C28.1 8.90001 31.6 9.30001 34.3 7.60001C35.2 7.00001 35.3 5.60001 34.3 5.10001C31.3 3.30001 27.7001 4.30002 24.4001 4.70002C20.3001 5.10002 16 5.4 12.1 6.5C10.6 6.9 10.3 9.7 12.6 10Z" fill="#5F787D"/>
<path d="M76.7 39.8C77.4 40.6 78.6 40.9 79.5 39.8C84.7 33.7 90.7 28.2 94.6 21.1C97.3 16.1 98.5 8.5 94.8 3.7C89.3 -3.4 77.7 1.2 73.6 8.1C71.6 5 68.7 2.49998 65.4 1.39998C58.4 -1.00002 52.5 3.39999 50.1 9.99999C47.7 16.5 52 23.6 56 28.4C61.4 34.7 68.8 38.4 76.7 39.8ZM61.7 5.2C67.4 5.1 70.9 12.1 72.5 16.5C73.2 18.4 76.4 18.3 76.3 16C76.2 14.7 75.9 13.3 75.5 12C78.7 7.39999 89.3 -1.10001 92.6 7.99999C96.5 18.8 83.6 29.1 77.2 36.4C74.1 33.9 69.4 33.6 65.9 31.5C61.4 28.6 57.8 24.4 55.4 19.7C52.6 14.2 54.5 5.3 61.7 5.2Z" fill="#5F787D"/>
<path d="M1.59998 61C3.29998 61.3 5.00001 61.4 6.70001 61.4C6.80001 64.9 7.40002 68.3 8.40002 71.2C10.3 76.7 17.6 80.1 21.4 74.3C22 73.5 21.2 72.3 20.3 72.3C18.4 72.3 15.8 73.6 14.1 72.2C12.3 70.7 12 67.5 11.6 65.4C11.4 64.1 11.3 62.7 11.3 61.3C12.9 61.3 14.3 61.1 15.8 60.4C16.6 60 16.6 58.7 15.8 58.3C14.3 57.5 12.8 57.4 11.2 57.4C11.2 55.2 11.2 52.9 10.8 50.7C10.5 49 8.10001 49.3 7.70001 50.7C7.10001 52.8 6.80001 55.1 6.70001 57.4C5.00001 57.4 3.29998 57.5 1.59998 57.8C0.0999756 58.2 0.0999756 60.8 1.59998 61Z" fill="#5F787D"/>
<path d="M30.9 54.1C30.6 54.1 30.2 54.1 29.9 54.1C20.2 52.4 17.1 75.3 30 73.4C36.8 72.4 39.2 64.8 36.8 59.1C35.7 56.7 33.7 54.4 30.9 54.1ZM28.8 69.3C25.4 70 24.8 63.9 26.9 60.1C28.1 59.6 29.2999 58.4 30.5999 58.3C31.7999 58.3 32.6999 60.3 33.0999 61.2C34.3999 65 32.8 68.4 28.8 69.3Z" fill="#5F787D"/>
<path d="M56.8 77C60.1 77 63.8 75.1 65 72C66.6 68.1 63.5 64.8999 60.4 63.0999C58.5 61.9999 56.2 61.8 54.6 60.4C53.1 59.2 55.9 56.9 56.9 56.5C58.3 55.9 60.2 55.9999 61.7 56.0999C63.3 56.1999 63.9 53.7999 62.5 53.0999C58.2 50.8999 53.7 52.1999 50.9 56.0999C48.5 59.4999 50.1 63.1 53.5 64.9C55.3 65.9 63.6 67.7999 60.7 71.0999C59.6 72.3999 57.8 72.7 56.2 72.7C54.1 72.6 53.1 70.8 51.4 70C50.3 69.5 49.1 70.1 49 71.4C48.9 75.2 53.6 77 56.8 77Z" fill="#5F787D"/>
<path d="M78 65.4C81 64.6 82.7 61.7 82.9 58.8C83.1 53.1 75.6 53 72 54.5C66.2 57 66.9 64.9 69.6 69.5C71 71.8 73.5 73.9 76.3 74.1C78.7 74.3 82.8 72.6 82.5 69.6C82.4 69 82 68.5 81.4 68.5C79.8 68.5 78.7 69.8 77.2 69.9C75.7 70 74.5 68.9 73.6 67.7C73.2 67.1 72.8 66.4 72.5 65.6C74.2 65.9 76.3 65.8 78 65.4ZM71.6 62C71.6 60.6 72.1 59.2 73.3 58.4C74.6 57.6 78.9 56.6 78.8 59.1C78.7 62.5 74.5 61.8 71.6 62Z" fill="#5F787D"/>
<path d="M94 68.8C91.3 64.7 91.9 59 90 54.5C89.4 53.1 87.2 53.1 87.2 54.9C87.2 59.2 87.2 72.8 93.3 73.9C96.1 74.4 97.8 72.6 99 70.3C100.5 73 102.8 75.1 105.8 73.9C112.3 71.4 114 60.5 113.3 54.5C113.2 53.4 111.6 52.6 110.9 53.9C109.2 57.1 109 60.8 108.2 64.2C107.7 66.2 105.8 71.7 103 69C101.4 67.4 101 64.8 101.3 62.8C101.5 60.5 97.8 60.1 97.3 62.3C96.9 63.2 94.8 70.1 94 68.8Z" fill="#5F787D"/>
<path d="M65.9 31.4C69.3 33.6 74 33.8 77.2 36.3C83.6 29 96.5 18.7 92.6 7.89998C89.4 -1.10002 78.7 7.29998 75.5 11.9C76 13.2 76.3 14.6 76.3 15.9C76.4 18.2 73.2 18.3 72.5 16.4C70.9 12 67.4 4.99999 61.7 5.09999C54.5 5.29999 52.6 14.1 55.3 19.5C57.8 24.3 61.5 28.6 65.9 31.4Z" fill="#FF719A"/>
<path d="M12.6 10C15.4 10.3 18.3 10 21.1 9.60001C20.8 13.6 21 17.7 21.2 21.8C21.4 25.5 21.1001 29.8 21.9001 33.5C19.1001 33.4 16.2001 33.3 13.4001 33.9C11.1001 34.4 11.9001 37.4 13.9001 37.6C20.2001 38.3 26.9 39.1 33 37.5C33.8 37.3 34.5 36.6 34.7 35.8C34.8 35.6 34.8 35.3 34.9 35.1C35 34.7 34.9 34.1 34.5 33.8C32.1 31.9 28.9001 33.4 25.9001 33.5C26.5001 30.2 26.0001 26.7 25.9001 23.4C25.7001 18.6 25.5 13.8 25 9.10001C28.1 8.90001 31.6 9.30001 34.3 7.60001C35.2 7.00001 35.3 5.60001 34.3 5.10001C31.3 3.30001 27.7001 4.30002 24.4001 4.70002C20.3001 5.10002 16 5.4 12.1 6.5C10.6 6.9 10.3 9.7 12.6 10Z" fill="#5F787D"/>
<path d="M76.7 39.8C77.4 40.6 78.6 40.9 79.5 39.8C84.7 33.7 90.7 28.2 94.6 21.1C97.3 16.1 98.5 8.5 94.8 3.7C89.3 -3.4 77.7 1.2 73.6 8.1C71.6 5 68.7 2.49998 65.4 1.39998C58.4 -1.00002 52.5 3.39999 50.1 9.99999C47.7 16.5 52 23.6 56 28.4C61.4 34.7 68.8 38.4 76.7 39.8ZM61.7 5.2C67.4 5.1 70.9 12.1 72.5 16.5C73.2 18.4 76.4 18.3 76.3 16C76.2 14.7 75.9 13.3 75.5 12C78.7 7.39999 89.3 -1.10001 92.6 7.99999C96.5 18.8 83.6 29.1 77.2 36.4C74.1 33.9 69.4 33.6 65.9 31.5C61.4 28.6 57.8 24.4 55.4 19.7C52.6 14.2 54.5 5.3 61.7 5.2Z" fill="#5F787D"/>
<path d="M1.59998 61C3.29998 61.3 5.00001 61.4 6.70001 61.4C6.80001 64.9 7.40002 68.3 8.40002 71.2C10.3 76.7 17.6 80.1 21.4 74.3C22 73.5 21.2 72.3 20.3 72.3C18.4 72.3 15.8 73.6 14.1 72.2C12.3 70.7 12 67.5 11.6 65.4C11.4 64.1 11.3 62.7 11.3 61.3C12.9 61.3 14.3 61.1 15.8 60.4C16.6 60 16.6 58.7 15.8 58.3C14.3 57.5 12.8 57.4 11.2 57.4C11.2 55.2 11.2 52.9 10.8 50.7C10.5 49 8.10001 49.3 7.70001 50.7C7.10001 52.8 6.80001 55.1 6.70001 57.4C5.00001 57.4 3.29998 57.5 1.59998 57.8C0.0999756 58.2 0.0999756 60.8 1.59998 61Z" fill="#5F787D"/>
<path d="M30.9 54.1C30.6 54.1 30.2 54.1 29.9 54.1C20.2 52.4 17.1 75.3 30 73.4C36.8 72.4 39.2 64.8 36.8 59.1C35.7 56.7 33.7 54.4 30.9 54.1ZM28.8 69.3C25.4 70 24.8 63.9 26.9 60.1C28.1 59.6 29.2999 58.4 30.5999 58.3C31.7999 58.3 32.6999 60.3 33.0999 61.2C34.3999 65 32.8 68.4 28.8 69.3Z" fill="#5F787D"/>
<path d="M56.8 77C60.1 77 63.8 75.1 65 72C66.6 68.1 63.5 64.8999 60.4 63.0999C58.5 61.9999 56.2 61.8 54.6 60.4C53.1 59.2 55.9 56.9 56.9 56.5C58.3 55.9 60.2 55.9999 61.7 56.0999C63.3 56.1999 63.9 53.7999 62.5 53.0999C58.2 50.8999 53.7 52.1999 50.9 56.0999C48.5 59.4999 50.1 63.1 53.5 64.9C55.3 65.9 63.6 67.7999 60.7 71.0999C59.6 72.3999 57.8 72.7 56.2 72.7C54.1 72.6 53.1 70.8 51.4 70C50.3 69.5 49.1 70.1 49 71.4C48.9 75.2 53.6 77 56.8 77Z" fill="#5F787D"/>
<path d="M78 65.4C81 64.6 82.7 61.7 82.9 58.8C83.1 53.1 75.6 53 72 54.5C66.2 57 66.9 64.9 69.6 69.5C71 71.8 73.5 73.9 76.3 74.1C78.7 74.3 82.8 72.6 82.5 69.6C82.4 69 82 68.5 81.4 68.5C79.8 68.5 78.7 69.8 77.2 69.9C75.7 70 74.5 68.9 73.6 67.7C73.2 67.1 72.8 66.4 72.5 65.6C74.2 65.9 76.3 65.8 78 65.4ZM71.6 62C71.6 60.6 72.1 59.2 73.3 58.4C74.6 57.6 78.9 56.6 78.8 59.1C78.7 62.5 74.5 61.8 71.6 62Z" fill="#5F787D"/>
<path d="M94 68.8C91.3 64.7 91.9 59 90 54.5C89.4 53.1 87.2 53.1 87.2 54.9C87.2 59.2 87.2 72.8 93.3 73.9C96.1 74.4 97.8 72.6 99 70.3C100.5 73 102.8 75.1 105.8 73.9C112.3 71.4 114 60.5 113.3 54.5C113.2 53.4 111.6 52.6 110.9 53.9C109.2 57.1 109 60.8 108.2 64.2C107.7 66.2 105.8 71.7 103 69C101.4 67.4 101 64.8 101.3 62.8C101.5 60.5 97.8 60.1 97.3 62.3C96.9 63.2 94.8 70.1 94 68.8Z" fill="#5F787D"/>
</svg>
