<svg id="Capa_1" enable-background="new 0 0 512 512" height="512" viewBox="0 0 512 512" width="512" xmlns="http://www.w3.org/2000/svg"><g><g><path d="m7.5 119.442h487v273.115h-487z" fill="#f9f6f6"/><path d="m474.5 119.442v273.115c0 15.392-12.477 27.869-27.869 27.869h30c15.392 0 27.869-12.477 27.869-27.869v-273.115z" fill="#dddaec"/><path d="m35.369 420.427h441.262c10.295-9.102 17.869-16.71 27.869-27.869l-235.078-129.182c-8.358-4.593-18.485-4.593-26.843 0l-235.079 129.182c0 15.391 12.477 27.869 27.869 27.869z" fill="#ffd064"/><path d="m269.422 263.375c-8.358-4.593-18.485-4.593-26.843 0l-55.016 30.233 50.782 40.658c10.321 8.263 24.991 8.263 35.312 0l50.782-40.658z" fill="#a79ba7"/><path d="m476.631 420.427c15.392 0 27.869-12.478 27.869-27.869l-30-16.486v16.486c0 15.391-12.476 27.868-27.867 27.869z" fill="#ffc250"/><path d="m35.369 91.573c-15.392 0-27.869 12.477-27.869 27.869l230.844 184.824c10.32 8.263 24.991 8.263 35.312 0l230.844-184.824c-8.438-9.926-14.868-18.087-27.869-27.869z" fill="#ffd064"/><path d="m474.5 119.442v24.019l30-24.019c0-15.392-12.477-27.869-27.869-27.869h-30c15.392 0 27.869 12.478 27.869 27.869z" fill="#ffc250"/><path d="m154.455 172.658c-23.59 23.59-23.59 61.837 0 85.428l86.545 86.545 10.567 9.567c2.448 2.448 6.417 2.448 8.866 0l95.112-96.112c23.59-23.59 24.59-59.837 1-83.427-15.643-15.643-36.731-22.913-56.717-17.81-10.153 2.593-19.764 7.863-27.711 15.81l-16.117 16.117-16.117-16.118c-23.591-23.59-61.838-23.59-85.428 0z" fill="#fe646f"/><g><path d="m357.545 172.659c-15.643-15.643-37.728-20.901-57.714-15.798 10.153 2.593 19.767 7.851 27.714 15.798 23.59 23.59 23.59 61.837 0 85.427l-86.545 86.545 10.567 10.567c2.448 2.448 6.417 2.448 8.865 0l97.112-97.112c23.591-23.59 23.591-61.837.001-85.427z" fill="#fd4755"/></g></g><path d="m292.783 312.241c-2.929 2.929-2.929 7.678 0 10.607 2.93 2.929 7.678 2.929 10.607 0l20.811-20.811 172.36 94.716c-1.94 9.225-10.137 16.174-19.93 16.174h-281.227c-4.142 0-7.5 3.358-7.5 7.5s3.358 7.5 7.5 7.5h281.227c19.46 0 35.297-15.798 35.366-35.242.001-.039.003-.079.003-.118 0-.003 0-.006 0-.009v-273.116c0-19.503-15.866-35.369-35.369-35.369h-59.038c-4.143 0-7.5 3.358-7.5 7.5s3.357 7.5 7.5 7.5h59.038c10.081 0 18.475 7.362 20.089 16.991l-114.462 91.644c-1.662-14.753-8.119-29.063-19.409-40.353-26.479-26.477-69.559-26.477-96.035 0l-10.814 10.814-10.814-10.814c-26.477-26.476-69.558-26.476-96.034 0-11.29 11.29-17.748 25.6-19.41 40.353l-114.462-91.644c1.614-9.629 10.008-16.991 20.089-16.991h350.327c4.143 0 7.5-3.358 7.5-7.5s-3.357-7.5-7.5-7.5h-350.327c-19.502 0-35.369 15.867-35.369 35.369v273.115c0 19.503 15.867 35.369 35.369 35.369h127.348c4.142 0 7.5-3.358 7.5-7.5s-3.358-7.5-7.5-7.5h-127.348c-9.793 0-17.995-6.947-19.934-16.172l172.364-94.719 58.465 58.465c2.6 2.601 6.058 4.033 9.736 4.033s7.136-1.432 9.736-4.033l15.02-15.02c2.929-2.929 2.929-7.678 0-10.606-2.93-2.929-7.678-2.929-10.608 0l-14.148 14.15-96.242-96.242c-20.628-20.628-20.628-54.193 0-74.821 20.629-20.628 54.193-20.627 74.821 0l16.117 16.118c1.406 1.407 3.314 2.197 5.303 2.197s3.896-.79 5.304-2.197l16.117-16.118c9.992-9.993 23.278-15.496 37.41-15.496s27.418 5.503 37.41 15.496c20.629 20.628 20.629 54.192 0 74.821zm-116.03-21.25-161.753 88.888v-244.824l115.381 92.38c2.361 13.179 8.607 25.791 18.771 35.955zm186.096-27.602c10.163-10.164 16.409-22.776 18.77-35.954l115.381-92.38v244.824l-161.753-88.888z"/></g></svg>