<svg width="249" height="192" viewBox="0 0 249 192" fill="none" xmlns="http://www.w3.org/2000/svg">
<path d="M167.6 90.4C163.9 92.5 164 95.9 164.5 99.7C164.8 101.7 164.8 103.8 164.9 105.9C166.8 103.6 168.8 101.3 170.2 98.6C171.1 97 172.3 94.8 172 92.8C171.8 90.2 169.8 89.2 167.6 90.4Z" fill="#FF719A"/>
<path d="M191.8 128C185.7 127.9 181.1 136.4 175.1 136.7C179.5 140.4 185 142.7 190.7 140.4C193.4 139.3 195.6 137.3 196 134.2C196.4 131.4 195.1 128 191.8 128Z" fill="#FF719A"/>
<path d="M198.1 115.4C197.1 110.9 192.9 113.4 191.9 116.4C191.3 117.9 191 119.7 190.2 121.2C193.6 120.5 198.9 118.9 198.1 115.4Z" fill="#FF719A"/>
<path d="M206.5 124.8C206.9 124.4 206.7 123.8 206.4 123.4C205.7 122.4 204.6 122.3 203.5 122.7C202.4 123.1 201.4 123.9 200.3 124.4C201.9 125.4 205.3 126 206.5 124.8Z" fill="#FFE785"/>
<path d="M167.2 63.1C168.6 62.6 169.9 61.9 171.3 61.2C169.7 59.3 165.2 58.7 163.7 60.5C163.1 61.2 163.5 62.3 164.1 62.8C164.9 63.7 166.2 63.5 167.2 63.1Z" fill="#FF719A"/>
<path d="M233.4 29.2C233.5 33 233.7 36.9 233.9 40.7C234.3 48.8 234.2 56.9 234.3 65C234.3 66.7 233.6 94.8 236.8 96.4C236.9 96.4 237 96.3 237.2 96.3C239 96.3 237.7 88.9 237.6 88C237.1 84.4 237.1 80.8 237.2 77.1C237.3 71.5 237.6 65.9 237.6 60.3C237.6 55.9 237.2 51.6 237.2 47.2C237.3 42.1 237.6 37 237.5 31.8C237.4 29.4 237.8 19.2 234.1 18.9C233.4 19.6 233.3 24 233.3 24.4C233.4 26.1 233.4 27.7 233.4 29.2Z" fill="#FF719A"/>
<path d="M229.1 72.5C229.5 76.6 230.2 80.8 230.4 84.9C230.5 87.3 230.3 92.3 233.1 93.4C232.8 91.7 232.8 89.9 232.8 88.8C232.5 80.4 232.3 72.1 232.3 63.7C232.3 52.6 231.8 41.5 231.6 30.3C231.6 28.2 231.3 25.8 231.3 23.5C228 24.3 227.9 31.5 227.7 34C227.4 38.6 227.5 43.2 227.6 47.8C227.9 56.1 228.3 64.3 229.1 72.5Z" fill="#ABF7E3"/>
<path d="M222.2 65.2C222.9 69.1 223.3 72.9 223.2 76.8C224.7 74.3 224.2 69.3 224 67.2C223.7 63.8 223.2 60.5 222.9 57.2C222.6 53.1 221.9 47.7 217.3 46.7C217.6 47.1 217.8 47.6 218 48C220.6 53.2 221.5 59.3 222.2 65.2Z" fill="#FFE785"/>
<path d="M226.1 68.7C226.3 68.7 226.5 68.7 226.8 68.7C226.3 63.3 226 57.8 225.8 52.4C225.3 52.4 224.8 52.4 224.3 52.4C224.7 54 224.9 55.6 225 56.8C225.2 60.6 225.9 64.7 226.1 68.7Z" fill="#FF719A"/>
<path d="M183.8 60.8C183.6 57.3 184.1 53.3 182.8 50.1C181.9 47.9 179.5 45.3 176.8 46.3C175 46.9 173.5 48.5 173.7 50.6C174.1 55.2 179 59.9 183.8 60.8Z" fill="#FF719A"/>
<path d="M188.3 69.3C185 67.7 175.8 65.7 174.8 71.4C173.8 77.3 181.6 78.2 185.6 77.7C189.6 77.2 193.2 77.6 197.2 77.9C195.7 74.3 191.6 70.9 188.3 69.3Z" fill="#FFE785"/>
<path d="M59.1 119.4C60.5 117 60.7 113.5 58.5 111.4C55.9 108.9 53.2999 109.2 50.6999 110.6C47.3999 113.3 46.3999 118.4 51.1999 120.9C53.9999 122.2 57.3 122.4 59.1 119.4ZM51 114.2C51.1 113.3 51.8 112.4 52.4 112.1C53.3 111.7 54.3 111.7 55.1 112.3C56.6 113.4 57.7 115.6 56.9 117.5C55.9 119.8 52 119.6 51 117.4C50.7 116.3 50.6 115.2 51 114.2Z" fill="#CCDFE3"/>
<path d="M54.7 116.8C55 116.6 55.1 116.5 55.1 116.2C55.1 115.4 54.6001 114.4 53.9001 114C53.8001 113.9 53.7 113.9 53.6 113.9C53.2 114.2 52.9001 114.4 52.8001 114.9C52.7001 115.4 52.7 116.2 53.1 116.6C53.5 116.9 54.3 117 54.7 116.8Z" fill="#CCDFE3"/>
<path d="M189.5 48.3C191.4 46 194.2 41.1 190 41.3C187.3 41.4 189.1 45.6 189.5 48.3Z" fill="#FFE785"/>
<path d="M197.8 67.6C198.6 65.2 199.8 62.8 200.3 60.3C200.7 58.5 201.1 55.9 199.9 54.2C198.6 52.5 196.3 52.2 194.7 53.5C191.2 56.2 193 61 195 64C195.9 65.3 197 66.3 197.8 67.6Z" fill="#FF719A"/>
<path d="M213.9 83.1C214.4 80.3 215.2 77.1 214.4 74.2C213.6 71.4 211.1 67 207.4 68.1C205.1 68.8 203.1 71.2 203.1 73.7C203.2 80.5 209.7 84.4 212.9 89.8C213.2 87.5 213.5 85.3 213.9 83.1Z" fill="#FF719A"/>
<path d="M50.3 132.7C51.4 132.5 52.5 132 53 131C53.5 129.8 53.6 128.6 53.6 127.3C53.6 126.4 53.5 125.4 53.5 124.4C52.2 124.3 50.8 123.8 49.6 123.1C49.1 124.4 48.7 125.7 48.7 127.2C48.8 129.2 49.5 131 50.3 132.7Z" fill="#ABF7E3"/>
<path d="M200.8 87C197.6 86.3 194.8 88.3 195.1 91.8C196.1 101.5 207.2 104.1 213.2 110.2C212.1 104.5 211.2 98.7 208.2 93.8C206.6 91.1 204.1 87.8 200.8 87Z" fill="#FF719A"/>
<path d="M164 38C155.9 40.3 148.6 44.4 141 47.7C136.8 49.6 132.4 51.2 128 52.4C131.3 56 132.2 59.9 133 64.9C133.8 69.7 134.1 74.7 132.7 79.5C136.7 80 140.7 81 144.3 82.8C157.1 89.3 162.7 104.6 161 118.4C160.9 119.2 160.8 120 160.6 120.8C165.6 112.9 172.8 105.3 180.4 109.8C186.7 113.5 187.6 122.4 182.2 127.4C179 130.4 174.9 131.5 170.6 131.9C165.3 132.4 160.2 132.7 155.1 134.3C154.4 135.3 153.7 136.4 152.9 137.4C156.7 135.9 161.1 135.7 165 137.1C170.1 138.9 175.4 143.4 175.9 149.2C176.4 155.3 169.8 157.8 164.8 155.3C158.3 152.1 155.7 144.8 149.5 141.3C144.9 146.4 139.7 151.8 139.9 158.8C155.8 160.2 171.7 159.7 187.7 160.1C203.1 160.5 218.4 160.4 233.7 158.7C232.9 155.2 232.3 151.6 231.2 148.2C229.7 143.8 227.3 140.5 224.2 137.1C218.9 131.2 215.5 123.9 215.2 115.9V115.8C213.5 112.2 209.4 109.9 206.2 107.7C203.2 105.7 200 103.6 197.5 100.9C193.8 96.8 190.5 90.1 195.2 85.5C200 80.8 207.2 86.5 209.8 90.7C212.9 95.4 214.7 101.4 215.5 107.3C216.2 100.9 217.8 94.6 219.2 88.4C220.2 83.6 221.3 78.6 221.1 73.6C221 71.6 220.8 69.6 220.5 67.7C218.6 60.1 219.1 51.4 213.6 45.2C207.9 38.8 199.7 35 191.1 34.9C182 35.1 172.5 35.6 164 38ZM172.2 47.2C174.4 43.8 179.2 42.6 182.3 45.6C186.6 49.7 185.4 55.9 185.8 61.2C185.8 61.4 185.8 61.5 185.7 61.7C185.7 61.9 185.6 62.1 185.3 62.3C178.8 65.3 168.3 53.5 172.2 47.2ZM162 59.7C164.2 56.5 171.2 57.4 172.7 60.9C173.3 61.2 173.5 62.3 172.8 62.7C170.4 63.8 167.2 66.3 164.4 65.3C162.2 64.5 160.6 61.8 162 59.7ZM173.7 95.8C172.1 100.6 168.6 104.7 165.4 108.5C165.2 108.8 164.9 108.8 164.6 108.8C164.2 108.9 163.6 108.7 163.4 108.2C162.4 105.3 162.7 102.2 162.3 99.3C162 97.2 161.8 95.2 162.4 93.1C163.3 89.9 167.1 87.5 170.3 87.8C174 88.2 174.7 93 173.7 95.8ZM190.4 142.7C183.1 144.5 177 141.6 171.8 136.5C171.3 136 171.4 135.4 171.8 135C171.9 134.7 172.2 134.5 172.5 134.5C178.8 134.7 182 129.3 187.2 126.8C191.2 124.9 196.9 125.6 198 130.8C199.2 136.3 195.8 141.4 190.4 142.7ZM208.4 125C207.4 128.5 200.3 127 198.5 125.1C198.2 124.8 198.2 124.4 198.4 124.2C199.3 122 202.9 120.5 205.1 120.6C207.2 120.7 209 123 208.4 125ZM192.7 111.9C195.4 110.1 198.8 110.6 199.8 114C201.8 120.4 193.4 122.8 188.8 123.5C188.5 123.5 188.2 123.4 188 123.3C187.5 123.2 187.1 122.7 187.5 122.2C189.4 119 189.4 114.2 192.7 111.9ZM199.1 79.6C199 79.9 198.7 80.1 198.3 80C194.4 79.7 190.7 79.3 186.8 79.8C184.2 80.2 181.2 80.6 178.6 79.6C174.1 77.9 170.5 73.1 173.6 68.5C176.7 63.9 184.3 64.6 188.6 66.7C193.1 69 198.9 73.4 199.3 78.8C199.3 79.3 199.2 79.4 199.1 79.6ZM203.5 67.7C208 63.8 213.6 66.1 216 71.1C217.4 73.9 217.3 77.4 216.8 80.4C216.1 84.6 215.2 88.8 214.3 92.9C214.1 93.9 212.7 93.7 212.5 92.8C207.6 87.1 195.1 75 203.5 67.7ZM202.7 55.8C203.5 60.5 200.4 65.2 199.2 69.5C199 70.1 198.4 70.3 198 70.1C197.8 70.2 197.6 70.1 197.4 69.9C194.5 66.3 190.6 63.4 190.3 58.3C190.1 54.5 192.1 51.4 195.9 50.4C199.5 49.5 202.1 52.5 202.7 55.8ZM190 50.4C189.5 50.9 188.7 50.5 188.5 50L188.4 49.9C187.9 49 187.7 47.7 187.5 46.7C187.2 45.5 186.9 44.3 186.9 43C187 40.5 188.6 39.3 191.1 39.6C197 40.5 192.4 48.2 190 50.4Z" fill="#ABF7E3"/>
<path d="M239.3 47.6C239.3 53.5 239.8 59.3 239.6 65.2C239.4 71.8 238.5 78.9 239.3 85.5C239.4 86.6 240 89.4 240.1 92.1C244.9 81.4 244.1 69.2 243.9 57.6C243.8 51.2 243.9 44.9 243.7 38.5C243.6 33.3 244.6 24.9 238.6 23C239.1 25.2 239.2 27.4 239.3 28.8C239.8 35.1 239.2 41.3 239.3 47.6Z" fill="#ABF7E3"/>
<path d="M44.4 74.1C48.5 69.8 56.4999 64.8 62.1999 69.5C67.2999 73.7 64.9999 81.2 60.1999 84.6C56.8999 86.9 53.1 88 49.3 88.9C44.6 90 41.1 91.7 37.8 95.2C37.7 101.3 37.3999 107.3 37.1999 113.4C38.3999 112.8 39.6 112 40.8 111.3C43.4 109.8 45.7 109.1 48.5 109C48.6 108.9 48.7 108.8 48.8 108.7C50.8 106.4 54.9999 106.4 58.0999 107.8C59.4999 104.7 60.9999 101.6 62.5999 98.6C66.0999 92.1 70.6 85.6 77.5 82.5C80.2 81.3 82.8999 80.5 85.6999 80C87.4999 75.1 88.5 69.9 88.4 64.6C88.3 61.6 88.3 58.1 86.9 55.4C86 53.6 85 52 84.4 50.1C79.6 48.9 74.9 47.4 70.8 44.9C68.4 43.4 65.1 40.8 63 37.8C62.5 38 61.7999 37.8 61.6999 37.1C61.4999 36.2 61.3999 35.3 61.1999 34.3C60.9999 33.8 61 33.3 60.9 32.8C60.7 32.1 60.4999 31.4 60.0999 30.7C58.4999 27.9 55.6 27 52.5 26.9C47.7 26.7 42.5 27.3 37.9 28.5C35.6 29.1 32.6 30 31.4 32.3C30 35.2 30.5 38.3 31.3 41.3C32.7 46.7 34.1999 52 35.1999 57.5C36.6999 66.2 37.4999 75 37.6999 83.8C39.2999 80.2 41.9 76.7 44.4 74.1ZM53.9 101.4C52.3 103.8 49.2999 103.9 46.6999 103.2C45.0999 102.8 43.9 101.2 42.9 100.1C41.9 98.9 40.6999 98.1 39.5999 97C39.3999 96.9 39.4 96.6 39.5 96.5C39.4 96.1 39.5999 95.5 40.0999 95.3C43.4999 94 47.8 93.1 51.4 94.8C53.6 95.8 55.6 98.9 53.9 101.4ZM76.5999 69.1C76.4999 72.1 73.5999 74.3 70.6999 73.3C69.0999 72.7 67.5 71.7 66.3 70.4C65.6 69.6 64.6 68.4 64.5 67.3C64.3 67 64.2999 66.5 64.6999 66.2C66.5999 64.6 69.5 64.4 71.8 65C73.9 65.3 76.6999 66.6 76.5999 69.1ZM72 54C75.9 61.6 58.5999 63.5 54.6999 63.8C54.3999 63.8 54.2 63.7 54 63.5C53.6 63.3 53.3999 62.9 53.5999 62.4C55.3999 58.5 58.3999 54.2 62.1999 52C65.3999 50.2 70 50.1 72 54ZM56.3 43.1C58.1 41.7 60.8 41.2 62.4 43C65.8 46.9 59.9999 50 57.1999 51.6C56.8999 51.8 56.5 51.7 56.3 51.6C56 51.5 55.6999 51.2 55.6999 50.9C55.5999 48.4 53.9 45 56.3 43.1ZM37 54.2C37.6 49.5 41.3 45 46.4 45.2C51.7 45.4 54.9999 50 53.5999 55.2C52.5999 58.6 50.6 61.4 48.4 64.2C46 67.3 43.4999 70.3 40.6999 73.1C40.3999 73.4 40.1 73.5 39.8 73.4C39.3 73.5 38.8 73.2 38.8 72.6C38.8 66.5 36.2 60.4 37 54.2Z" fill="#ABF7E3"/>
<path d="M51.1 85.8C54.2 85 57.7 83.9 60 81.6C62.1 79.5 63.9 75.9 62 73C57.9 66.4 48.9 72.5 45.4 76.5C42.1 80.4 38.6 85.6 37.7 91C37.7 91.4 37.7 91.7 37.7 92.1C39.3 90.6 41 89.2 43 88.3C45.6 87.1 48.3 86.6 51.1 85.8Z" fill="#FF719A"/>
<path d="M45.9001 63.7C47.6001 61.7 49.5 59.4 50.6 56.9C51.7 54.3 52.6001 50 49.5001 48.3C47.6001 47.2 45 47.1 43.1 48.3C35.7 52.9 40.5 62.7 40.6 70.1C42.4 68 44.1001 65.9 45.9001 63.7Z" fill="#FFE785"/>
<path d="M46 146.6C45.9 147 45.9999 146.9 46.1999 146.4C46.2999 146.1 46.4 145.9 46.4 145.6C46.7 144.1 46.6999 142.6 46.5999 141.1C46.5999 139.7 46.5 138.2 46.4 136.8C46.4 136.4 46.3 136 46.3 135.7C45.5 135.7 44.5999 135.8 43.5999 135.9C43.6999 139.5 43.4 143 43.5 146.6C44.3 146.5 45.2 146.4 46 146.6Z" fill="#CCDFE3"/>
<path d="M2.59998 174.3C3.89998 172.6 5.5 171 7 169.3C9 167.1 10.2 164.5 11.4 161.9C7.90002 161.9 3 161.2 2.5 165.4C2.3 167.1 2.30005 168.9 2.30005 170.7C2.40005 171.5 2.19998 173.2 2.59998 174.3Z" fill="#FF719A"/>
<path d="M66.4 67.3C66.7 68 67.6 68.9 68.1 69.3C69 70.1 70.1 71 71.3 71.3C72.6 71.6 73.6 71.4 74.3 70.1C74.6 69.6 74.7 69 74.4 68.5C73 66.4 68.5 65.9 66.4 67.3Z" fill="#FFE785"/>
<path d="M48.8 96.2C46.5 95.8 44.3 96 42.1 96.6C42.7 97.1 43.3 97.7 43.8 98.2C45.5 100 47.3 101.9 50.1 101.3C51.5 100.9 52.7 99.8 52 98.2C51.5 97 50 96.4 48.8 96.2Z" fill="#FFE785"/>
<path d="M56 61.6C60.5 60.8 72.5 58.4 70.2 55.1C65.8 48.8 59.1 57 56 61.6Z" fill="#FF719A"/>
<path d="M61.3 44.7C60.7 43.8 59.8 43.4 58.7 43.7C57.9 44 56.9 44.6 56.8 45.6C56.8 46.9 57.1 48.2 57.3 49.4C59.3 48.4 62.5 46.6 61.3 44.7Z" fill="#FF719A"/>
<path d="M48.4 132.9C48.3 132.6 48.2 132.4 48 132.1C46.9 129.4 46.4 124.7 48.2 122C47.6 121.4 47 120.8 46.5 120C44.9 117.3 44.6 113.7 46.5 111C43.2 111.7 40.7 113.5 37.5 115.1C37.3 115.2 37.1 115.3 36.9 115.4C36.8 120.2 36.7 125.1 35.8 129.8C35.8 130 35.8 130.2 35.8 130.4C36 132.8 38 133.3 40 133.2C42.5 133.1 45.2 133.1 47.7 132.8C48 133 48.2 132.9 48.4 132.9Z" fill="#ABF7E3"/>
<path d="M45.8001 159.7C45.7001 159.7 45.7 159.7 45.7 159.7C45.6 160.3 45.5 160.8 45.5 161.1C45.3 162.1 43.7 161.9 43.7 160.9C43.7 160.5 43.7 159.9 43.7 159.3C42.1 159.3 40.7 158.6 39 159C37.5 159.3 36 159.6 34.5 160C32.5 160.5 30.6 161.1 28.6 161.5C26 161.9 21.7 162.2 21.1 158.8C21 158.3 21.6 157.8 22 158.3C23 159.4 24.2 159.9 25.5 160C24.5 159.3 23.7001 158.4 22.8001 157.6C21.0001 156 18.3001 154.5 16.3001 156.9C15.1001 158.4 14.4 160.1 13.6 161.8C13.1 162.9 12.6 164 12.1 165C12.1 165 12.1 165.1 12.2 165.1C12.4 165.4 12.7 165.7 13 166C13.2 166.3 12.9 166.7 12.6 166.7C12.2 166.7 11.8 166.5 11.5 166.3C10.7 167.7 9.90007 169 8.80007 170.2C7.20007 171.9 5.59996 173.6 4.19997 175.4C3.49997 176.4 2.60007 177.5 2.30007 178.7C1.60007 181.1 4.29997 181.5 6.19997 181.6C9.19997 181.8 12 181.8 14.7 182.7C14.9 182.4 15.1 182.2 15.4 182.1C15.8 181.9 16.2 181.8 16.5 181.9C16.7 182 16.9001 182.2 16.8001 182.5C16.7001 182.9 16.3 183.1 16 183.3C16.2 183.4 16.4 183.5 16.6 183.6C20.7 185.7 24.2 188.9 29.1 188.6C33.3 188.4 37.2001 186.8 41.3001 186.1C42.4001 185.9 42.8 187.3 41.7 187.7C41.2 187.9 40.7 188.1 40.2 188.2C41.3 188.5 42.4 188.8 43.5 189C43.5 188.5 43.6 188.1 43.9 187.7C44.4 187 45.6001 187.4 45.3001 188.3C45.2001 188.6 45.2 188.9 45.1 189.3C47.9 189.6 50.6 189.1 52 186.1C53.7 182.6 52.6001 179 52.8001 175.4C52.5001 175 52.6 174.5 52.9 174.2C52.9 174 53 173.7 53 173.5C53.8 169.6 56.6001 166.3 57.3001 162.4C58.4001 155.3 49.4001 158.8 45.8001 159.7ZM17.1 169.3C16.6 169.7 15.9 169.7 15.4 169.3C15 169 14.4 168.6 14.2 168.1C14 167.7 14.2 167.2 14.7 167.2C15.1 167.2 15.5 167.5 15.9 167.7C16.2 167.9 16.5001 168 16.8001 168.2C16.9001 168.3 17.1 168.3 17.2 168.4C17.3 168.7 17.4 169.1 17.1 169.3ZM21.1 180.9C20.8 181.2 20.4 181.4 20 181.5C19.6 181.6 19.2 181.6 18.9 181.7C18.2 181.8 18 180.8 18.6 180.4C19.3 180 20.2 179.9 21 180.1C21.2 180.1 21.3 180.6 21.1 180.9ZM22.6 170.4C22.2 170.7 21.6 170.7 21.1 170.5C20.6 170.4 19.9001 170.2 19.8001 169.6C19.8001 169.4 19.8 169.2 19.9 169.1C20.4 168.7 20.8001 168.9 21.3001 169C21.7001 169.1 22.2 169.2 22.5 169.4C22.9 169.7 23 170.2 22.6 170.4ZM26.7 181C26.3 181.3 25.5 181.2 25.1 181C24.7 180.9 24.4 180.7 24.1 180.5C23.8 180.3 24 179.7 24.4 179.7C24.6 179.7 24.7 179.6 24.9 179.7C25.1 179.7 25.4 179.7 25.6 179.8C26.1 179.9 26.6 179.9 26.9 180.4C27 180.5 27 180.8 26.7 181ZM26.6 169.7C26.1 169.8 25.7001 169.8 25.3001 169.6C24.8001 169.4 24.8001 168.8 25.3001 168.6C25.5001 168.5 25.7 168.5 25.9 168.4C26.1 168.3 26.3 168.3 26.4 168.3C26.9 168.1 27.4 168 27.6 168.6C27.8 169.2 27.1 169.6 26.6 169.7ZM31.7 182.7C31.6 182.9 31.5 183 31.2 183.1C30.9 183.1 30.6001 182.9 30.3001 182.8C30.0001 182.7 29.8 182.7 29.5 182.7C28.6 182.6 28.6 181.4 29.5 181.3C30 181.2 30.5 181.3 31 181.5C31.5 181.7 31.9 182.2 31.7 182.7ZM30.4 168.1C29.7 168.3 29.2 167.3 29.9 166.9C30.2 166.8 30.5 166.6 30.7 166.4C31 166.1 31.4001 165.8 31.8001 166C32.0001 166 32.1 166.2 32.2 166.4C32.4 167.2 31.1 167.9 30.4 168.1ZM32.6 163.4C32.6 163.2 32.7001 163.1 32.8001 163C32.7001 163.2 32.9 162.8 32.9 162.8C33 162.7 33 162.5 33.1 162.4C33.3 162 33.9001 161.6 34.3001 162C35.0001 162.8 34 164.4 32.9 164C32.7 163.9 32.6 163.7 32.6 163.4ZM34.3001 186.1C34.2001 186 34.1 186 34 185.9C33.8 185.8 33.6001 185.5 33.3001 185.5C33.0001 185.4 32.8001 185 32.8001 184.7C32.9001 184.4 33.1 184.2 33.4 184.2C34.2 184.2 34.9 184.9 34.9 185.7C35 186.1 34.6001 186.3 34.3001 186.1ZM42.6 168.1C42.7 167.2 44 167.2 44 168.1C44 168.6 44.1 169.1 43.9 169.6C43.7 170.2 42.8 170.2 42.6 169.6C42.4 169.1 42.5 168.6 42.6 168.1ZM42 174.6C41.8 174 41.9 173.3 42 172.7C42.1 172 43.3 172 43.4 172.7C43.5 173.3 43.5 174 43.4 174.6C43.1 175.3 42.1 175.3 42 174.6ZM42.1 178.3C42.1 177.4 43.5 177.4 43.5 178.3C43.5 178.9 43.7001 180.3 42.8001 180.3C41.9001 180.2 42.1 178.9 42.1 178.3ZM43.1 185.1C42.7 184.6 42.7 184.1 42.7 183.5C42.8 182.6 44 182.6 44.1 183.5C44.2 183.9 44.3001 184.3 44.3001 184.6C44.4001 185.2 43.5 185.6 43.1 185.1ZM44.7 164.6C44.5 165 44.2001 165.2 43.8001 165.1C43.6001 165.1 43.5 164.9 43.4 164.8C43.4 164.8 43.4 164.8 43.4 164.7C43.4 164.7 43.4 164.7 43.4 164.8L43.3001 164.5C43.3001 164.4 43.3001 164.3 43.3001 164.3C43.3001 164.2 43.4001 163.9 43.3001 164V163.9C43.3001 163.8 43.3 163.7 43.4 163.7C43.5 163 44.6 163 44.7 163.7C44.8 163.9 44.9 164.3 44.7 164.6Z" fill="white"/>
<path d="M233.8 161.2C218 162.9 202.1 163 186.2 162.5C177.8 162.3 169.5 162.4 161.1 162.4C153.5 162.4 145.7 162.4 138.3 160.6C138.1 160.6 138 160.5 137.9 160.3C132.9 161.7 127.3 160.7 122.2 160.7C114.9 160.7 107.6 160.6 100.4 160.6C86.7 160.5 72.9 160.6 59.2 160.1C59.8 164.3 56.3 168.2 55.2 172.2C55 172.8 54.9 173.4 54.8 174C70.6 174 86.3 172.3 102.1 172.3C118.3 172.2 134.5 172.6 150.7 172.8C167 173 183.4 173.3 199.7 173.4C207.8 173.4 216 173.6 224 173.1C227.9 172.9 231.8 172.3 235.7 172C239.1 171.8 242.5 172 245.8 171.5C245.8 168.8 246.4 165.1 244.8 162.9C242.7 159.9 237.6 161.5 233.8 161.2Z" fill="#FF719A"/>
<path d="M93.4 79.2C93.7 77.1 94.5 75.2 94.8 73.2C95.1 70.8 95.2 68.4 95.2 65.9C95.1 61 93.7 56.6 92 52.1C90.2 51.6 88.3 51.2 86.4 50.8C87.6 52.6 88.9 54.5 89.5 56.5C90.3 59.2 90.6 62 90.6 64.8C90.6 70 89.7 74.9 88 79.7C89.9 79.5 91.6 79.3 93.4 79.2Z" fill="#FFE785"/>
<path d="M183.5 28.2C186.6 28.2 189.9 27.9 193.1 28.3C193.3 27.7 193.4 27 193.5 26.3H193.4C191.3 25.8 188.9 25.6 186.5 25.5C186.4 25.5 186.4 25.5 186.3 25.5C184.2 25.7 182.3 26.7 180.2 27.1C179.1 27.3 178.1 27.4 177 27.3C177 27.7 177 28.2 176.9 28.6C179.2 28.2 181.8 28.2 183.5 28.2Z" fill="#FF719A"/>
<path d="M160.4 149.5C162.4 151.8 165.3 154.5 168.6 154.4C171.7 154.3 174.3 152.5 173.5 149.1C172.3 144 167.9 140 162.7 138.9C158.8 138.1 154.9 138.7 151.4 140.3C155.1 142.7 157.4 146.1 160.4 149.5Z" fill="#FF719A"/>
<path d="M183.5 30.3C180.7 30.3 173.9 30 173.2 33.6C174.8 33.4 176.4 33.3 178.1 33.2C184.6 33 191.1 32.1 197.4 33.3C197.3 32.3 196.9 31.4 195.8 31C194 30.5 192.1 30.3 190.3 30.3C187.9 30.3 185.7 30.3 183.5 30.3Z" fill="#FFE785"/>
<path d="M181.8 25H181.9C180.1 24.7 178.5 24.2 176.9 23.4C176.9 24.2 176.9 25.1 176.9 25.9C178.6 25.7 180.2 25.5 181.8 25Z" fill="#FF719A"/>
<path d="M193.2 22C188.1 22.4 183.4 22.2 178.4 20.8C177.8 20.8 177.3 20.7 176.7 20.7C176.7 21 176.7 21.2 176.7 21.5C181.8 24.3 188 23.1 193.3 24.7C193.4 23.8 193.3 22.8 193.2 22Z" fill="#FF719A"/>
<path d="M101.4 53.9C103.9 57.5 103.8 63.5 103.8 67.4C103.8 68.9 104.2 75.9 102.8 79.1C104.4 79.1 106 79.1 107.7 79.1C107.9 78.4 108.5 77.8 108.7 77C109 75.9 109.2 74.9 109.3 73.8C109.5 71.8 109.5 69.9 109.4 67.9C109.2 62.7 107 58.7 104.8 54.2C103.8 54.1 102.6 54 101.4 53.9Z" fill="#FFE785"/>
<path d="M107.2 54.3C110.2 58.4 111.7 63.4 111.8 68.5C111.8 70.4 112.2 76.3 110.6 79C112.2 79 113.9 79 115.5 78.9C116.1 76.8 116.9 75.1 117 72.7C117.1 70.1 117.2 67.6 116.7 65.1C116.3 63 115.9 60.3 114.8 58.4C114 57 113 55.6 112.1 54.2C110.5 54.4 108.9 54.4 107.2 54.3Z" fill="#CCDFE3"/>
<path d="M130.3 79.3C131.5 74.4 131.2 69.6 130.4 64.7C130 62.3 129.9 59.4 128.7 57.2C127.9 55.7 126.8 54.4 125.9 53C124.5 53.3 123 53.6 121.6 53.8C124.2 58 125.9 62.2 126 67.3C126 71.3 125.6 75.3 124.3 79C126.2 79 128.3 79.1 130.3 79.3Z" fill="#CCDFE3"/>
<path d="M94.2 52.7C96 56.5 97.3 60.7 97.4 64.9C97.5 67.4 97.4 69.9 97.2 72.4C97 74.7 96 76.9 95.7 79.2C97 79.2 98.3 79.2 99.6 79.2C99.8 79.2 100 79.2 100.2 79.2C100.4 78.8 100.7 78.4 100.8 77.8C101.1 76.7 101.3 75.5 101.4 74.3C101.6 72 101.6 69.7 101.6 67.4C101.6 63.1 101.7 56.9 98.6 53.5C97.1 53.3 95.7 53 94.2 52.7Z" fill="#CCDFE3"/>
<path d="M165.9 130C169.8 129.7 174.2 129.7 177.7 127.7C181.1 125.8 183.7 122.4 183.2 118.3C182.8 114.9 180.1 111.4 176.4 111.2C170.9 110.9 166.7 116.4 163.9 120.5C161.4 124.1 159.5 128.2 156.9 131.8C159.8 130.8 162.8 130.3 165.9 130Z" fill="#FFE785"/>
<path d="M118.1 54.1C116.9 54.2 115.7 54.2 114.5 54.3C117.1 57.7 118.5 61.1 119.2 65.7C119.6 68.4 119.6 71.3 119.3 74C119.1 75.9 118.5 77.4 117.9 79C119.2 79 120.5 79 121.8 79C123.3 75.1 123.9 70.5 123.5 66.4C123.1 61.7 121.3 58.1 119.3 54.1C118.9 54.1 118.5 54.1 118.1 54.1Z" fill="#FFE785"/>
<path d="M45.5 15.1C47.1 15.2 48.8 15.2 50.4 15.1C51.4 15 54.8 13.1001 52.3 11.9001C51.5 11.5001 50.6 11.4001 49.8 11.4001C47.4 11.2001 45.1 11.4 42.7 12.1C43.1 13.5 43.7 14.9 45.5 15.1Z" fill="#CCDFE3"/>
<path d="M186.3 18.5C187.7 18.1 189 17.6 190.3 17.1C185.7 17.3 181 17.6 176.4 16.9C176.5 17.7 176.6 18.4 176.6 19.2C179.9 19.2 183.1 19.5 186.3 18.5Z" fill="#FF719A"/>
<path d="M50.2 24.4C49.9 22.1 49.6 19.8 49.3 17.5C48 17.6 46.8 17.5 45.6 17.4C45.6 19.9 45.6 22.4 45.3 24.9C46.9 24.7 48.5 24.5 50.2 24.4Z" fill="#CCDFE3"/>
<path d="M182.4 12.3C184.7 12.2 187.1 12.2 189.4 12.2C191.9 12.1 195 12.6 195.7 10.1C191.8 9.8 188 10.4 184 10.5C180.2 10.6 176.3 10.5001 172.6 11.4001C173.7 13.3001 180.9 12.4 182.4 12.3Z" fill="#FFE785"/>
<path d="M184.7 20.5C184.6 20.5 184.6 20.5 184.5 20.5C184.7 20.5 185 20.6 185.2 20.6C187.9 20.9 190.5 20.6 193.1 20.4C193.1 19.5 193 18.6 193 17.7C190.3 18.9 187.6 20 184.7 20.5Z" fill="#FF719A"/>
<path d="M183.7 8.59995C184.4 8.59995 185 8.49997 185.7 8.49997C185.8 7.29997 186.2 4.99999 184.5 5.19999C183.4 5.29999 183.8 7.49995 183.7 8.59995Z" fill="#ABF7E3"/>
<path d="M181.9 14.5C180.9 14.6 178.5 14.8 176.1 14.6C176.1 14.9 176.2 15.2 176.2 15.5C181.8 16.1 187.3 15.5 192.9 15.4C192.9 15 192.9 14.5 192.9 14.1C189.3 14.4 185.6 14.3 181.9 14.5Z" fill="#FF719A"/>
<path d="M57 117.4C57.8 115.5 56.7 113.4 55.2 112.2C54.4 111.6 53.4 111.6 52.5 112C51.8 112.3 51.2 113.3 51.1 114.1C50.7 115.1 50.8 116.2 51.2 117.2C52.1 119.5 56 119.7 57 117.4ZM52.8001 114.9C52.9001 114.4 53.2 114.1 53.6 113.9C53.7 113.9 53.8 113.9 53.9 114C54.6 114.4 55.1 115.5 55.1 116.2C55.1 116.5 55 116.6 54.7 116.8C54.2 117.1 53.5 116.9 53.1 116.6C52.7 116.2 52.7001 115.4 52.8001 114.9Z" fill="#5F787D"/>
<path d="M43.4 163.6C43.4 163.7 43.4 163.8 43.3 163.8V163.9C43.3 163.8 43.3 164.1 43.3 164.2C43.3 164.3 43.3 164.4 43.3 164.4L43.4 164.7C43.5 164.9 43.6 165 43.8 165C44.2 165.1 44.5 164.9 44.7 164.5C44.9 164.1 44.8 163.8 44.8 163.5C44.6 162.9 43.6 162.9 43.4 163.6Z" fill="#5F787D"/>
<path d="M43.9 169.6C44.1 169.1 44 168.6 44 168.1C43.9 167.2 42.6 167.2 42.6 168.1C42.6 168.6 42.4999 169.1 42.6999 169.6C42.7999 170.3 43.7 170.3 43.9 169.6Z" fill="#5F787D"/>
<path d="M43.3001 174.6C43.5001 174 43.4001 173.3 43.3001 172.7C43.2001 172 42.0001 172 41.9001 172.7C41.8001 173.3 41.8001 174 41.9001 174.6C42.1001 175.3 43.1001 175.3 43.3001 174.6Z" fill="#5F787D"/>
<path d="M43.6 178.3C43.6 177.4 42.1999 177.4 42.1999 178.3C42.1999 178.9 42 180.3 42.9 180.3C43.8 180.2 43.6 178.9 43.6 178.3Z" fill="#5F787D"/>
<path d="M42.8001 183.4C42.7001 184 42.7 184.6 43.2 185C43.6 185.5 44.4001 185.1 44.4001 184.5C44.4001 184.1 44.3 183.7 44.2 183.4C44 182.6 42.9001 182.5 42.8001 183.4Z" fill="#5F787D"/>
<path d="M16.6999 168.3C16.3999 168.1 16.1 168 15.8 167.8C15.4 167.6 15 167.3 14.6 167.3C14.1 167.3 13.9 167.8 14.1 168.2C14.3 168.7 14.9 169.1 15.3 169.4C15.8 169.7 16.5 169.8 17 169.4C17.2 169.2 17.2 168.8 17 168.6C17 168.4 16.8999 168.4 16.6999 168.3Z" fill="#5F787D"/>
<path d="M22.6 169.5C22.2 169.2 21.8001 169.2 21.4001 169.1C20.9001 169 20.4 168.8 20 169.2C19.9 169.3 19.8001 169.5 19.9001 169.7C20.0001 170.3 20.7 170.4 21.2 170.6C21.7 170.7 22.3 170.8 22.7 170.5C23 170.2 22.9 169.7 22.6 169.5Z" fill="#5F787D"/>
<path d="M26.4 168.3C26.2 168.4 26 168.4 25.9 168.4C25.7 168.5 25.5 168.5 25.3 168.6C24.8 168.8 24.8 169.4 25.3 169.6C25.7 169.8 26.1 169.8 26.6 169.7C27.1 169.6 27.8 169.2 27.6 168.6C27.4 168 26.9 168.1 26.4 168.3Z" fill="#5F787D"/>
<path d="M31.8 166C31.4 165.9 30.9999 166.2 30.6999 166.4C30.4999 166.6 30.2 166.8 29.9 166.9C29.2 167.2 29.7 168.2 30.4 168.1C31.1 167.9 32.3999 167.2 32.1999 166.3C32.0999 166.1 32 166 31.8 166Z" fill="#5F787D"/>
<path d="M34.3 162C33.9 161.6 33.3 162 33.1 162.4C33 162.5 33 162.7 32.9 162.8C32.9 162.8 32.7 163.2 32.8 163C32.7 163.1 32.7 163.3 32.6 163.4C32.6 163.7 32.7 163.9 32.9 164C34 164.3 35.1 162.8 34.3 162Z" fill="#5F787D"/>
<path d="M20.8 180C20.1 179.8 19.1 180 18.4 180.3C17.8 180.6 17.9999 181.6 18.6999 181.6C19.0999 181.6 19.5 181.5 19.8 181.4C20.2 181.3 20.6 181.2 20.9 180.8C21.3 180.6 21.2 180.1 20.8 180Z" fill="#5F787D"/>
<path d="M25.6 179.7C25.4 179.7 25.1 179.7 24.9 179.6C24.7 179.6 24.6 179.7 24.4 179.6C24 179.6 23.8 180.1 24.1 180.4C24.4 180.7 24.7 180.8 25.1 180.9C25.6 181 26.3 181.2 26.7 180.9C26.9 180.7 27 180.5 26.9 180.2C26.6 179.8 26.1 179.8 25.6 179.7Z" fill="#5F787D"/>
<path d="M31.0999 181.5C30.5999 181.3 30.0999 181.3 29.5999 181.3C28.6999 181.4 28.6999 182.6 29.5999 182.7C29.8999 182.7 30.1 182.8 30.4 182.8C30.7 182.9 30.9 183.1 31.3 183.1C31.5 183.1 31.7 183 31.8 182.7C31.9 182.2 31.4999 181.7 31.0999 181.5Z" fill="#5F787D"/>
<path d="M33.5 184.2C33.2 184.2 33 184.4 32.9 184.7C32.8 185 33 185.4 33.4 185.5C33.7 185.6 33.8999 185.8 34.0999 185.9C34.1999 186 34.3 186 34.4 186.1C34.7 186.3 35.0999 186 35.0999 185.7C35.0999 184.9 34.3 184.2 33.5 184.2Z" fill="#5F787D"/>
<path d="M246.3 161.2C245 159.8 243.4 159.3 241.6 159.1C240 158.9 238 158.9 236.1 159C234.6 152.1 233.6 144.8 229.1 139.1C226.5 135.9 223.4 133.1 221.4 129.4C219 125 217.8 119.9 217.6 114.9C217.2 105.2 220.5 95.3 222.3 85.8C222.7 83.6 223 81.5 223.1 79.3C225.2 78.1 225.6 75.4 225.9 73.1C226 72.3 226 71.4 226.1 70.6H226.9C227.1 72.4 227.2 74.2 227.4 76C227.9 80.3 228.1 84.6 228.7 88.8C229 91.3 229.8 94.3 232.6 95.1C233 95.2 233.3 95.1 233.5 94.9C234.1 97 235.2 98.6 237.5 98.2C237.7 98.2 237.8 98.1 237.9 97.9C239.1 97.7 239.7 96.6 240 95.1C240.4 95.2 240.7 95 241 94.6C247.7 82.2 246.2 67.3 246 53.7C245.9 45.8 246.1 37.8 245.4 29.9C245 25.8 243.1 21 238.2 21.1C237.7 19.5 236.8 18.2 235.6 17.7C235.6 17.6 235.5 17.6 235.5 17.5C234.3 16.3 232.3 17.7 231.9 19C231.6 19.8 231.5 20.6 231.4 21.4C224 20.1 225.5 43.4 225.6 46.9C225.6 47.9 225.7 48.9 225.7 49.9C225 49.9 224.3 49.9 223.7 50C222.6 46.7 220.6 44 217 44.9C216.9 44.9 216.7 45 216.7 45.1C213.4 40.3 208 36.8 202.7 34.6C201.7 34.2 200.7 33.8 199.6 33.6C199.4 31.1 198.4 29.4 195.7 28.6C195.5 28.5 195.3 28.5 195.2 28.5C195.9 26.7 195.6 24.3 195.5 22.5C195.4 19.6 195.1 16.6 195 13.7C197.2 13.2 197.9 11.5 198 9.00002C198 8.40002 197.5 8.00005 196.9 7.90005C193.8 7.60005 190.8 7.8 187.7 8.1C187.7 5.9 187.8 3.2 184.9 3.1C182.1 3 181.7 6.40002 182.2 8.50002C178.6 8.60002 175.1 8.60002 171.6 9.50002C171.2 9.60002 171 9.90003 170.9 10.2C170.9 10.3 170.8 10.3 170.8 10.4C170.1 12.7 171.9 13.8 174.2 14.2C174.2 14.7 174.3 15.3 174.3 15.8C174.3 15.9 174.3 16 174.3 16.1C174.4 17.5 174.5 18.9 174.5 20.2C164.6 19.8 154.7 20.4 144.8 20.6C134.2 20.8 123.6 20.8 112.9 20.8C102.3 20.8 91.7999 20.6 81.1999 20.4C71.5999 20.2 61.5 19.5 52 20.7C51.8 19.5 51.5 18.2 51.3 17.1C52.1 16.9 52.9 16.6 53.5 16.3C55.9 14.9 55.6 11.3 53.5 9.90005C52.4 9.10005 50.7 9.20002 49.4 9.00002C46.9 8.80002 44.5 9.10005 42.1 9.90005C41.6 10 41.4 10.4 41.4 10.8C41.3 10.9 41.1999 11.1 41.1999 11.3C41.1999 13.7 41.8 15.8 44 16.7C44 17.8 43.9 19 43.8 20.1C38.3 19.3 31.9 23.1 27.5 25.8C22 29.2 18.1 34.2 15.6 40.1C13.2 45.8 10.1 53.8 13.5 59.7C14.9 62.1 16.5 64.2 17.8 66.6C16 66.2 14.1999 66.4 12.6999 67.4C8.49994 70.1 10.7999 75.4 14.6999 76.7C19.2999 78.2 20.8 73.6 20.4 69.9C20.7 70.2 21.1 70.4 21.4 70.7C22.3 71.5 23 72.7 23.5 73.9C23.4 74 23.3 74.1 23.1 74.2C20.9 76.1 16.0999 79.8 16.6999 83.2C17.2999 86.5 20.8 87.3 23.4 85.9C24.2 85.5 25 85 25.8 84.5C26.3 87.8 26.5 91.1 25.9 94.3C25.1 98.5 23.1 102.3 22.1 106.5C20.9 111.5 23.5 116.4 29 117C30.8 117.2 32.6 117 34.3 116.5C34.2 120.7 34.1 124.9 34.1 129.1C33.6 131 33.9 133.6 35.6 134.6C37.5 135.7 39.8 135.8 42.1 135.7C41.9 139.5 41.6 143.4 41.8 147.2C41.8 147.7 42.1999 148.1 42.6999 148.1C42.9999 148.1 43.3999 148.2 43.6999 148.2C43.4999 149 43.5 153.9 43.6 157.6C40.1 156.2 36.6 157.4 33.1 158.3C31.7 158.7 30 159.2 28.4 159.5C25.6 158 23.7999 154.7 20.6999 153.9C17.4999 153 15.2 154.7 13.6 157.4C13.1 158.2 12.7 159.1 12.3 159.9C8.30004 159.1 1.60001 159.2 0.900013 164.1C0.600013 166 -0.500011 173.7 1.49999 175.7C1.39999 175.9 1.19996 176.1 1.09996 176.4C-3.60004 184.3 8.99999 182.9 13 184.1C18 185.5 21.4999 189.6 26.6999 190.4C30.2999 190.9 34.2 190.1 37.8 189C42.6 190.9 48.8999 192.8 52.6999 188.3C55.6999 184.8 54.7 180.1 54.8 175.8C62.5 176.3 70.2 175.7 77.9 175.2C86 174.7 94.0999 174.3 102.2 174.2C118.4 174.1 134.6 174.5 150.8 174.7C167.1 174.9 183.5 175.2 199.8 175.3C207.9 175.3 216 175.4 224.1 175C228 174.8 231.9 174.3 235.8 174C239.6 173.7 243.3 174 247 173.4C247.3 173.4 247.5 173.2 247.6 173C247.8 172.8 248 172.6 248 172.2C247.9 168.9 248.8 164 246.3 161.2ZM243.8 38.4C244 44.8 243.9 51.1 244 57.5C244.2 69.1 245 81.3 240.2 92C240.1 89.3 239.5 86.5 239.4 85.4C238.6 78.8 239.5 71.7 239.7 65.1C239.9 59.2 239.4 53.4 239.4 47.5C239.4 41.2 239.9 34.9 239.5 28.6C239.4 27.3 239.3 25 238.8 22.8C244.7 24.9 243.6 33.2 243.8 38.4ZM234.1 19C237.8 19.3 237.4 29.5 237.5 31.9C237.6 37 237.3 42.1 237.2 47.3C237.1 51.6 237.6 56 237.6 60.4C237.6 66 237.3 71.6 237.2 77.2C237.1 80.9 237.1 84.5 237.6 88.1C237.7 89.1 239 96.5 237.2 96.4C237.1 96.4 236.9 96.4 236.8 96.5C233.6 94.9 234.3 66.7 234.3 65.1C234.3 57 234.3 48.9 233.9 40.8C233.7 37 233.5 33.1 233.4 29.3C233.4 27.7 233.4 26.2 233.3 24.6C233.3 24.1 233.4 19.7 234.1 19ZM227.7 34.1C227.9 31.6 227.9 24.4 231.3 23.6C231.3 25.9 231.6 28.3 231.6 30.4C231.8 41.5 232.3 52.6 232.3 63.8C232.3 72.2 232.5 80.5 232.8 88.9C232.8 90 232.9 91.7 233.1 93.5C230.3 92.4 230.5 87.5 230.4 85C230.2 80.9 229.5 76.7 229.1 72.6C228.3 64.4 227.9 56.2 227.6 48C227.5 43.3 227.4 38.7 227.7 34.1ZM225.7 52.3C225.9 57.8 226.2 63.2 226.7 68.6C226.5 68.6 226.3 68.6 226 68.6C225.8 64.6 225.1 60.5 224.8 56.6C224.7 55.4 224.5 53.8 224.1 52.2C224.7 52.3 225.2 52.3 225.7 52.3ZM222.9 57.2C223.2 60.6 223.7 63.9 224 67.2C224.2 69.3 224.8 74.3 223.2 76.8C223.3 72.9 222.9 69.1 222.2 65.2C221.6 59.3 220.6 53.2 218.1 48C217.9 47.5 217.6 47.1 217.4 46.7C222 47.7 222.6 53 222.9 57.2ZM213.4 45.4C218.9 51.6 218.4 60.3 220.3 67.9C220.6 69.9 220.8 71.8 220.9 73.8C221.1 78.8 220 83.8 219 88.6C217.7 94.8 216.1 101.1 215.3 107.5C214.5 101.7 212.6 95.7 209.6 90.9C206.9 86.8 199.7 81.1 195 85.7C190.3 90.3 193.6 97 197.3 101.1C199.8 103.8 203 105.9 206 107.9C209.2 110.1 213.3 112.3 215 116V116.1C215.3 124.1 218.7 131.4 224 137.3C227.1 140.7 229.5 144 231 148.4C232.2 151.8 232.7 155.4 233.5 158.9C218.2 160.5 202.9 160.7 187.5 160.3C171.5 159.9 155.7 160.4 139.7 159C139.5 152 144.7 146.6 149.3 141.5C155.5 145.1 158.2 152.3 164.6 155.5C169.5 158 176.2 155.4 175.7 149.4C175.2 143.6 170 139.1 164.8 137.3C160.9 135.9 156.6 136.1 152.7 137.6C153.5 136.6 154.2 135.6 154.9 134.5C160 132.9 165.1 132.6 170.4 132.1C174.7 131.7 178.8 130.6 182 127.6C187.4 122.6 186.4 113.7 180.2 110C172.5 105.5 165.4 113.1 160.4 121C160.5 120.2 160.7 119.4 160.8 118.6C162.5 104.8 157 89.5 144.1 83C140.5 81.2 136.5 80.2 132.5 79.7C133.8 75 133.5 70 132.8 65.1C132 60.1 131.1 56.2 127.8 52.6C132.3 51.4 136.6 49.7 140.8 47.9C148.4 44.5 155.8 40.5 163.8 38.2C172.3 35.7 181.9 35.2 190.7 35.3C199.5 35.3 207.7 39 213.4 45.4ZM213.3 110.2C207.2 104.1 196.1 101.5 195.2 91.8C194.8 88.3 197.7 86.2 200.9 87C204.2 87.8 206.7 91 208.3 93.8C211.2 98.8 212.2 104.6 213.3 110.2ZM48.3 138.2C48.3 137.5 48.2999 136.4 48.1999 135.5C48.5999 135.5 49.1 135.4 49.5 135.4C50.7 137.7 51.9 140 52.5 142.6C53.6 147.6 50.2 151.6 46.5 154.3C46.4 154.4 46.3 154.5 46.3 154.6C46.2 154.7 46.1 154.7 46 154.8C46.2 152.1 46.2 149.4 46 148.4C46.1 148.4 46.2 148.4 46.3 148.4C46.8 148.4 47.1 148.1 47.3 147.7C48.1 146.6 48.2 145 48.3 143.7C48.6 142 48.5 140.1 48.3 138.2ZM49.6 123C50.8 123.7 52.1 124.1 53.5 124.3C53.4 125.3 53.6 126.3 53.6 127.2C53.6 128.4 53.5 129.7 53 130.9C52.6 131.9 51.5 132.4 50.3 132.6C49.5 130.9 48.7999 129.1 48.6999 127.1C48.6999 125.7 49.2 124.4 49.6 123ZM50.6999 110.5C53.2999 109.1 55.9 108.9 58.5 111.3C60.7 113.4 60.5 116.9 59.1 119.3C57.3 122.3 54 122.1 51.3 120.7C46.4 118.3 47.3999 113.2 50.6999 110.5ZM47.5 155.7C48.1 155.3 48.8 154.9 49.1 154.3C53.7 150.3 55.6 145.3 53.4 139C52.9 137.6 52.2 136.3 51.5 135C53.2 134.5 54.7 133.6 55.4 131.9C56.2 130 56.7 126.6 56 124.2C57.6 123.9 58.9999 123.2 60.1999 122C63.3999 118.7 63.3 113.4 60.6 109.9C60.4 109.6 60.1 109.3 59.8 109C63.5 102.5 66.0999 95.5 71.1999 90C76.9999 83.7 85.4999 82.1 93.6999 81.6C101.3 81.2 108.9 81.7 116.5 81.5C118.4 81.4 120.2 81.4 122.1 81.4C122.4 81.5 122.7 81.6 123 81.4C128.4 81.4 133.8 81.9 139 83.5C154.7 88.2 160.5 105.8 158 120.7C156.6 128.9 151.6 135.3 146.3 141.5C142 146.6 137.4 151.5 137.4 158.4C132.3 159.9 126.3 158.8 121.1 158.9C114.2 158.9 107.3 158.9 100.5 158.9C86.6 158.9 72.8 158.5 58.9 158.7V158.6C56.9 153.8 49.6 156.7 46 157.8C46 157.4 46.1 157.1 46.1 156.7C46.5 156.4 47 156 47.5 155.7ZM89.6 56.5C89 54.5 87.7 52.6 86.5 50.8C88.4 51.3 90.3 51.7 92.1 52.1C93.7 56.6 95.2 61 95.3 65.9C95.4 68.3 95.2 70.8 94.9 73.2C94.6 75.3 93.7 77.2 93.5 79.2C91.7 79.3 90 79.4 88.3 79.7C90 74.9 90.9 69.9 90.9 64.8C90.7 62 90.3 59.2 89.6 56.5ZM121.6 53.8C123.1 53.6 124.5 53.3 125.9 53C126.8 54.5 127.9 55.7 128.7 57.2C129.9 59.4 130 62.2 130.4 64.7C131.2 69.7 131.5 74.5 130.3 79.3C128.3 79.1 126.2 79 124.2 79C125.5 75.3 125.9 71.3 125.9 67.3C125.9 62.2 124.1 57.9 121.6 53.8ZM123.5 66.4C123.8 70.5 123.3 75.1 121.8 79C120.5 79 119.2 79 117.9 79C118.5 77.3 119.1 75.8 119.3 74C119.6 71.3 119.6 68.4 119.2 65.7C118.5 61.1 117.2 57.7 114.5 54.3C115.7 54.3 116.9 54.2 118.1 54.1C118.5 54.1 118.9 54 119.3 54C121.4 58.1 123.1 61.7 123.5 66.4ZM114.9 58.5C116 60.4 116.4 63 116.8 65.2C117.3 67.7 117.2 70.3 117.1 72.8C117 75.1 116.3 76.9 115.6 79C114 79 112.3 79 110.7 79.1C112.3 76.4 112 70.5 111.9 68.6C111.8 63.5 110.3 58.5 107.3 54.4C108.9 54.5 110.6 54.5 112.2 54.5C113 55.7 114 57.1 114.9 58.5ZM109.6 67.8C109.7 69.8 109.6 71.7 109.5 73.7C109.4 74.8 109.2 75.9 108.9 76.9C108.7 77.7 108.1 78.3 107.9 79C106.3 79 104.7 79 103 79C104.4 75.8 104 68.8 104 67.3C104 63.4 104 57.4 101.6 53.8C102.8 53.9 104 54 105.1 54.1C107.2 58.6 109.4 62.7 109.6 67.8ZM101.6 67.4C101.6 69.7 101.6 72 101.4 74.3C101.3 75.5 101.1 76.6 100.8 77.8C100.7 78.3 100.4 78.7 100.2 79.2C99.9999 79.2 99.8 79.2 99.6 79.2C98.3 79.2 96.9999 79.2 95.6999 79.2C96.0999 76.9 96.9999 74.8 97.1999 72.4C97.3999 69.9 97.5 67.4 97.4 64.9C97.3 60.7 95.9999 56.5 94.1999 52.7C95.5999 53 97.1 53.3 98.5 53.5C101.7 56.9 101.6 63.1 101.6 67.4ZM163.9 120.5C166.7 116.4 170.9 110.9 176.4 111.2C180.1 111.4 182.8 114.9 183.2 118.3C183.7 122.4 181.1 125.8 177.7 127.7C174.2 129.7 169.8 129.7 165.9 130C162.8 130.3 159.8 130.8 156.8 131.7C159.5 128.2 161.4 124.1 163.9 120.5ZM151.4 140.3C154.9 138.7 158.8 138.1 162.7 138.9C167.9 139.9 172.3 143.9 173.5 149.1C174.3 152.5 171.7 154.3 168.6 154.4C165.3 154.5 162.5 151.7 160.4 149.5C157.4 146.1 155.1 142.7 151.4 140.3ZM195.7 31.1C196.9 31.4 197.2 32.4 197.3 33.4C191 32.2 184.5 33 178 33.3C176.4 33.4 174.7 33.5 173.1 33.7C173.8 30 180.6 30.4 183.4 30.4C185.6 30.4 187.9 30.4 190.1 30.5C192 30.4 193.9 30.6 195.7 31.1ZM176.9 27.3C178 27.3 179 27.2 180.1 27.1C182.2 26.8 184.1 25.7 186.2 25.5C186.3 25.5 186.3 25.5 186.4 25.5C188.8 25.7 191.1 25.8 193.3 26.3H193.4C193.4 27 193.2 27.7 193 28.3C189.9 27.9 186.5 28.2 183.4 28.2C181.7 28.2 179.1 28.2 176.8 28.7C176.9 28.2 176.9 27.8 176.9 27.3ZM176.9 23.3C178.4 24.2 180.1 24.6 181.9 24.9H181.8C180.2 25.4 178.6 25.6 177 25.7C176.9 25 176.9 24.2 176.9 23.3ZM176.8 21.5C176.8 21.2 176.8 21 176.8 20.7C177.4 20.7 177.9 20.8 178.5 20.8C183.5 22.1 188.2 22.4 193.3 22C193.4 22.9 193.5 23.8 193.5 24.7C188.1 23.1 181.9 24.3 176.8 21.5ZM176.6 19.3C176.5 18.5 176.5 17.7 176.4 17C181 17.7 185.6 17.4 190.3 17.2C189 17.7 187.6 18.2 186.3 18.6C183.1 19.5 179.9 19.2 176.6 19.3ZM185.2 20.7C185 20.7 184.7 20.6 184.5 20.6C184.6 20.6 184.6 20.6 184.7 20.6C187.6 20 190.3 19 193 17.9C193 18.8 193.1 19.7 193.1 20.6C190.5 20.7 187.9 20.9 185.2 20.7ZM176.2 15.5C176.2 15.2 176.1 14.9 176.1 14.6C178.4 14.7 180.8 14.5 181.9 14.5C185.6 14.3 189.3 14.4 193 14.1C193 14.5 193 15 193 15.4C187.4 15.5 181.8 16.1 176.2 15.5ZM184.6 5.1C186.3 4.9 185.9 7.20005 185.8 8.40005C185.1 8.50005 184.5 8.50002 183.8 8.50002C183.8 7.50002 183.4 5.3 184.6 5.1ZM172.6 11.5C176.3 10.6 180.2 10.8 184 10.6C187.9 10.4 191.7 9.90003 195.7 10.2C195 12.7 192 12.2 189.4 12.3C187.1 12.4 184.7 12.3 182.4 12.4C180.9 12.4 173.7 13.3 172.6 11.5ZM81.1999 22.5C91.7999 22.7 102.3 22.8 112.9 22.9C123.5 22.9 134.1 22.8 144.8 22.6C154.7 22.4 164.7 21.6 174.6 22.4C174.7 24.7 174.8 27 175 29.2C172.8 30 171.1 31.4 171.2 34C165.2 34.9 159.5 36.7 153.9 39.1C146.3 42.3 139 46.2 131.2 48.8C122.8 51.6 113.9 52 105.2 51.6C96.4999 51.2 87.8 48.5 79.5 46.1C75.4 44.9 71.6 43.1 68.4 40.4C66.9 39.1 64.9 37.2 63.6 35.2C63.3 31.8 62.0999 28.5 59.1999 26.5C57.2999 25.1 54.7999 24.6 52.1999 24.6C52.2999 23.9 52.1999 23.2 52.1999 22.4C61.6999 22.7 71.4999 22.3 81.1999 22.5ZM42.8 12C45.1 11.3 47.4 11.1 49.9 11.3C50.8 11.4 51.6 11.5 52.4 11.8C54.9 13 51.5 14.9 50.5 15C48.9 15.2 47.2 15.2 45.6 15C43.7 14.9 43.1 13.5 42.8 12ZM45.6 17.4C46.7 17.6 48 17.6 49.3 17.5C49.6 19.8 49.8999 22.1 50.1999 24.4C48.4999 24.5 46.9 24.7 45.4 24.9C45.6 22.4 45.7 19.9 45.6 17.4ZM17.1999 75C14.9999 76.4 12.1 73.9 11.9 71.7C11.6 68.9 14.8 67.8 17 68.2C17.5 68.3 18.1 68.5 18.5 68.7C19.3 70.9 19.2999 73.7 17.1999 75ZM19.8 67.5C18.7 64.6 16.7999 62.1 15.1999 59.6C12.3999 55.2 13.9 50.6 15.4 46C18 37.9 21.6 31.5 29.1 27C33.4 24.4 38.5 21.9 43.6 21.8C43.5 22.9 43.5 24 43.5 25.1C43.3 25.1 43.1 25.2 43 25.2C39 25.7 34 26.3 30.9 29.1C26.9 32.8 27.7 38.2 29 43C30.9 50.3 32.4 57.5 33.4 64.8C33.2 65 32.8999 65.2 32.6999 65.5C32.0999 66 31.6 66.4 31 67C29 69 26.9 70.9 24.8 72.9C24.6 72.5 24.5 72.2 24.3 71.8C23.3 70 21.7 68.5 19.8 67.5ZM33.6 67.1C33.9 69.7 34.2 72.3 34.4 74.9C33.3 75.8 32.2 76.7 31.1 77.7C31 75.3 29.9 72.8 28 72.2C28.8 71.4 29.6 70.7 30.4 69.9C31.1 69.2 32.5 68.2 33.6 67.1ZM22 84.6C20.3 85.3 18.1 84.3 18.6 82.1C18.8 81.1 19.6 80.2 20.3 79.5C21.3 79.7 21.8 80 22.1 81.3C22.4 82.3 22.2 83.5 22 84.6ZM23.9 83.6C24 82.4 23.9 81.2 23.6 80.1C23.3 79.1 22.5999 78.4 21.6999 78.1C22.4999 77.3 23.3 76.5 24.1 75.8C24.7 77.7 25 79.8 25.3 81.5C25.4 81.9 25.4 82.2 25.5 82.6C25 82.9 24.5 83.3 23.9 83.6ZM25.3 74.6C25.7 74.2 26.1 73.9 26.5 73.5C28.6 73.7 30.1 77.1 29.4 79.2C28.6 79.9 27.8 80.6 27 81.3C26.6 79 26.1 76.8 25.3 74.6ZM34.3 114.7C32.5 115.4 30.6 115.7 28.5 115.3C18.3 113.4 27 98.8 27.8 92.9C28.2 89.8 27.7 86.6 27.3 83.5C28.1 82.9 28.9 82.2 29.6 81.6C29.8 81.6 29.9999 81.5 30.1999 81.3C30.2999 81.1 30.4 81 30.5 80.8C31.9 79.6 33.2 78.3 34.6 77.2C34.8 80.1 34.9 83.1 35 86C35.2 95.6 34.7 105.2 34.3 114.7ZM35.1 57.7C34.1 52.2 32.6999 46.9 31.1999 41.5C30.3999 38.5 29.8 35.4 31.3 32.5C32.4 30.2 35.5 29.3 37.8 28.7C42.4 27.5 47.6 26.9 52.4 27.1C55.5 27.2 58.4 28.1 60 30.9C60.4 31.5 60.6 32.3 60.8 33C60.8 33.5 60.9 34 61.1 34.5C61.3 35.4 61.4 36.4 61.6 37.3C61.8 38 62.4 38.2 62.9 38C65 41 68.2999 43.6 70.6999 45.1C74.6999 47.7 79.5 49.1 84.3 50.3C84.8 52.2 85.8 53.9 86.8 55.6C88.2 58.3 88.3 61.8 88.3 64.8C88.4 70.1 87.4 75.2 85.6 80.2C82.8 80.7 80 81.5 77.4 82.7C70.4 85.8 65.9 92.2 62.5 98.8C60.9 101.8 59.4 104.9 58 108C54.9 106.6 50.6999 106.5 48.6999 108.9C48.5999 109 48.5 109.1 48.4 109.2C45.6 109.4 43.2999 110.1 40.6999 111.5C39.4999 112.2 38.3 112.9 37.1 113.6C37.3 107.5 37.5999 101.5 37.6999 95.4C40.9999 91.9 44.5999 90.2 49.1999 89.1C52.9999 88.2 56.9 87 60.1 84.8C65 81.4 67.2 74 62.1 69.7C56.4 65 48.4 70 44.3 74.3C41.8 76.9 39.2 80.4 37.5 84.1C37.4 75.1 36.6 66.4 35.1 57.7ZM37.6999 92C37.6999 91.6 37.6999 91.3 37.6999 90.9C38.6999 85.6 42.1 80.3 45.4 76.4C48.9 72.4 57.8 66.3 62 72.9C63.8 75.8 62.1 79.4 60 81.5C57.7 83.8 54.2 84.9 51.1 85.7C48.4 86.4 45.6 87 43 88.1C41 89.1 39.2999 90.5 37.6999 92ZM40.1999 133.3C38.0999 133.4 36.1 132.9 36 130.5C36 130.3 36 130.1 36 129.9C37 125.2 37 120.3 37.1 115.5C37.3 115.4 37.4999 115.3 37.6999 115.2C40.9999 113.5 43.4999 111.8 46.6999 111.1C44.7999 113.8 44.9999 117.4 46.6999 120.1C47.1999 120.9 47.7 121.5 48.4 122.1C46.6 124.8 46.9999 129.6 48.1999 132.2C48.2999 132.5 48.4 132.7 48.6 133C48.4 133 48.3 133 48.1 133C45.4 133.2 42.7999 133.2 40.1999 133.3ZM43.5 146.5C43.4 142.9 43.7 139.4 43.6 135.8C44.5 135.7 45.4 135.7 46.3 135.6C46.3 136 46.4 136.4 46.4 136.7C46.5 138.1 46.6 139.6 46.6 141C46.6 142.5 46.6 144 46.4 145.5C46.3 145.8 46.2999 146 46.1999 146.3C45.9999 146.8 45.9 146.9 46 146.5C45.2 146.4 44.3 146.5 43.5 146.5ZM2.49999 165.4C2.89999 161.1 7.80001 161.8 11.4 161.9C10.2 164.5 8.99999 167.2 6.99999 169.3C5.49999 170.9 3.99996 172.5 2.59996 174.3C2.19996 173.2 2.40004 171.6 2.30004 170.6C2.30004 168.9 2.39999 167.1 2.49999 165.4ZM53 173.5C52.9 173.7 52.9 174 52.9 174.2C52.5 174.5 52.5 175 52.8 175.4C52.6 179 53.6 182.6 52 186.1C50.6 189.1 48 189.6 45.1 189.3C45.2 189 45.2 188.7 45.3 188.3C45.6 187.4 44.3 187 43.9 187.7C43.7 188.1 43.5 188.5 43.5 189C42.4 188.8 41.1999 188.5 40.1999 188.2C40.6999 188 41.1999 187.8 41.6999 187.7C42.6999 187.3 42.3 185.9 41.3 186.1C37.2 186.8 33.3 188.4 29.1 188.6C24.2 188.8 20.6 185.7 16.6 183.6C16.4 183.5 16.2 183.4 16 183.3C16.3 183.1 16.6 182.9 16.8 182.5C16.9 182.3 16.7 182 16.5 181.9C16.1 181.8 15.8 181.9 15.4 182.1C15.1 182.2 14.8999 182.5 14.6999 182.7C11.9999 181.8 9.19994 181.8 6.19994 181.6C4.29994 181.5 1.70004 181.1 2.30004 178.7C2.60004 177.5 3.49994 176.4 4.19994 175.4C5.59994 173.5 7.20004 171.9 8.80004 170.2C9.90004 169 10.7 167.7 11.5 166.3C11.8 166.6 12.2 166.7 12.6 166.7C12.9 166.7 13.2 166.3 13 166C12.8 165.7 12.4999 165.4 12.1999 165.1C12.1999 165.1 12.2 165 12.1 165C12.6 163.9 13.1 162.8 13.6 161.8C14.4 160.1 15.1 158.3 16.3 156.9C18.3 154.5 21 156 22.8 157.6C23.7 158.4 24.6 159.3 25.5 160C24.2 159.9 22.9 159.4 22 158.3C21.6 157.8 21 158.3 21.1 158.8C21.7 162.2 26 161.8 28.6 161.5C30.6 161.2 32.6 160.6 34.5 160C36 159.6 37.5 159.3 39 159C40.7 158.6 42.0999 159.3 43.6999 159.3C43.6999 159.9 43.6999 160.5 43.6999 160.9C43.6999 161.9 45.3 162.2 45.5 161.1C45.6 160.8 45.6999 160.3 45.6999 159.7H45.8C49.4 158.8 58.5 155.4 57.3 162.4C56.6 166.3 53.8 169.6 53 173.5ZM245.9 171.6C242.6 172.1 239.2 171.9 235.8 172.1C231.9 172.3 228 172.9 224.1 173.2C216 173.7 207.9 173.5 199.8 173.5C183.5 173.5 167.1 173.2 150.8 172.9C134.6 172.7 118.4 172.3 102.2 172.4C86.3999 172.5 70.7 174.1 54.9 174.1C55 173.5 55.1 172.9 55.3 172.3C56.4 168.3 60 164.5 59.3 160.2C73 160.6 86.8 160.5 100.5 160.7C107.8 160.8 115.1 160.8 122.3 160.8C127.4 160.8 133 161.8 138 160.4C138.1 160.5 138.2 160.6 138.4 160.7C145.8 162.5 153.7 162.5 161.2 162.5C169.6 162.5 177.9 162.4 186.3 162.6C202.2 163 218 163 233.9 161.3C237.7 161.5 242.8 160 245 163C246.5 165.1 245.9 168.8 245.9 171.6Z" fill="#5F787D"/>
<path d="M212.5 92.8C212.7 93.7 214.1 93.9 214.3 92.9C215.2 88.8 216.1 84.6 216.8 80.4C217.3 77.4 217.4 74 216 71.1C213.6 66.1 208 63.7 203.5 67.7C195.1 75 207.6 87.1 212.5 92.8ZM207.4 68.1C211.1 67 213.7 71.4 214.4 74.2C215.2 77.1 214.4 80.3 213.9 83.1C213.5 85.3 213.2 87.6 212.8 89.8C209.6 84.4 203.1 80.5 203 73.7C203.1 71.2 205.1 68.8 207.4 68.1Z" fill="#5F787D"/>
<path d="M188.6 66.9C184.3 64.7 176.7 64 173.6 68.7C170.5 73.3 174.1 78 178.6 79.8C181.1 80.8 184.2 80.4 186.8 80C190.7 79.4 194.4 79.9 198.3 80.2C198.7 80.2 199 80 199.1 79.8C199.2 79.7 199.3 79.5 199.3 79.2C199 73.6 193.1 69.1 188.6 66.9ZM185.6 77.7C181.6 78.2 173.8 77.4 174.8 71.4C175.8 65.7 185 67.7 188.3 69.3C191.6 70.9 195.6 74.3 197.2 77.9C193.3 77.5 189.6 77.2 185.6 77.7Z" fill="#5F787D"/>
<path d="M190.3 58.3C190.6 63.4 194.5 66.3 197.4 69.9C197.6 70.1 197.8 70.1 198 70.1C198.5 70.3 199.1 70.1 199.2 69.5C200.4 65.1 203.5 60.5 202.7 55.8C202.1 52.6 199.5 49.5 195.9 50.4C192.1 51.4 190.1 54.5 190.3 58.3ZM194.7 53.5C196.3 52.2 198.6 52.5 199.9 54.2C201.1 55.9 200.7 58.5 200.3 60.3C199.8 62.8 198.6 65.2 197.8 67.6C197 66.3 195.9 65.3 195 64C193 61 191.1 56.2 194.7 53.5Z" fill="#5F787D"/>
<path d="M185.4 62.2C185.7 62.1 185.8 61.9 185.8 61.6C185.9 61.5 185.9 61.3 185.9 61.1C185.5 55.8 186.7 49.5 182.4 45.5C179.2 42.5 174.4 43.7 172.3 47.1C168.3 53.5 178.8 65.3 185.4 62.2ZM176.8 46.2C179.5 45.3 181.9 47.8 182.8 50C184.1 53.3 183.6 57.2 183.8 60.7C179.1 59.9 174.1 55.2 173.7 50.5C173.5 48.4 174.9 46.9 176.8 46.2Z" fill="#5F787D"/>
<path d="M187.3 126.9C182.1 129.4 178.8 134.7 172.6 134.6C172.3 134.6 172 134.8 171.9 135.1C171.5 135.5 171.4 136.1 171.9 136.6C177.1 141.7 183.2 144.6 190.5 142.8C195.8 141.5 199.3 136.4 198.1 130.9C197 125.7 191.2 125 187.3 126.9ZM196 134.2C195.6 137.2 193.4 139.3 190.7 140.4C185 142.7 179.5 140.3 175.1 136.7C181.1 136.5 185.7 127.9 191.8 128C195.1 128 196.4 131.4 196 134.2Z" fill="#5F787D"/>
<path d="M170.3 87.8C167.1 87.5 163.4 89.9 162.4 93.1C161.8 95.2 162 97.1 162.3 99.3C162.8 102.3 162.5 105.4 163.4 108.2C163.6 108.7 164.1 108.9 164.6 108.8C164.9 108.8 165.2 108.8 165.4 108.5C168.7 104.7 172.1 100.6 173.7 95.8C174.7 93 174 88.2 170.3 87.8ZM170.3 98.6C168.9 101.2 166.8 103.5 165 105.9C164.9 103.8 164.9 101.8 164.6 99.7C164.1 95.9 164 92.6 167.7 90.4C169.9 89.2 171.8 90.2 172.2 92.8C172.4 94.8 171.2 96.9 170.3 98.6Z" fill="#5F787D"/>
<path d="M187.4 122.1C187.1 122.7 187.4 123.1 187.9 123.2C188.1 123.4 188.4 123.5 188.7 123.4C193.4 122.7 201.7 120.3 199.7 113.9C198.7 110.6 195.2 110 192.6 111.8C189.4 114.2 189.4 119 187.4 122.1ZM198.1 115.4C198.9 118.9 193.6 120.5 190.2 121.2C191 119.7 191.3 118 191.9 116.4C193 113.4 197.1 110.9 198.1 115.4Z" fill="#5F787D"/>
<path d="M198.3 124.2C198.2 124.5 198.2 124.9 198.4 125.1C200.2 127 207.3 128.5 208.3 125C208.9 123 207.1 120.7 205 120.6C202.9 120.5 199.2 122 198.3 124.2ZM203.5 122.7C204.6 122.3 205.7 122.4 206.4 123.4C206.7 123.8 206.9 124.4 206.5 124.8C205.3 126 201.9 125.4 200.3 124.4C201.3 123.9 202.3 123.1 203.5 122.7Z" fill="#5F787D"/>
<path d="M164.4 65.3C167.2 66.2 170.5 63.8 172.8 62.7C173.6 62.3 173.3 61.3 172.7 60.9C171.2 57.4 164.1 56.5 162 59.7C160.6 61.8 162.2 64.5 164.4 65.3ZM163.6 60.6C165.2 58.7 169.6 59.4 171.2 61.3C169.8 61.9 168.6 62.6 167.1 63.2C166.1 63.6 164.8 63.8 163.9 63C163.4 62.4 163.1 61.3 163.6 60.6Z" fill="#5F787D"/>
<path d="M186.9 43C186.9 44.2 187.2 45.5 187.5 46.7C187.8 47.7 187.9 49 188.4 49.9C188.4 50 188.5 50 188.5 50C188.7 50.5 189.4 50.9 190 50.4C192.4 48.1 197 40.4999 191.1 39.5999C188.6 39.2999 186.9 40.5 186.9 43ZM189.5 48.3C189.1 45.7 187.3 41.5 190 41.3C194.2 41.1 191.4 46 189.5 48.3Z" fill="#5F787D"/>
<path d="M39.6999 73.4C39.9999 73.5 40.2999 73.4 40.5999 73.1C43.3999 70.4 45.9 67.3 48.3 64.2C50.4 61.4 52.5 58.6 53.5 55.2C54.9 50 51.6 45.4 46.3 45.2C41.2 45 37.5 49.6 36.9 54.2C36.1 60.3 38.5999 66.4 38.5999 72.5C38.6999 73.2 39.2999 73.5 39.6999 73.4ZM43.0999 48.3C44.9999 47.1 47.6 47.2 49.5 48.3C52.5 50 51.6999 54.3 50.5999 56.9C49.4999 59.4 47.6 61.7 45.9 63.7C44.1 65.8 42.3999 68 40.5999 70.1C40.4999 62.7 35.6999 52.9 43.0999 48.3Z" fill="#5F787D"/>
<path d="M53.5999 62.5C53.3999 63 53.6 63.4 54 63.6C54.2 63.8 54.3999 63.9 54.6999 63.9C58.6999 63.6 75.9 61.7 72 54.1C70 50.3 65.3999 50.3 62.1999 52.2C58.3999 54.3 55.3999 58.5 53.5999 62.5ZM70.0999 55.1C72.3999 58.5 60.5 60.9 55.9 61.6C59.1 57 65.7999 48.8 70.0999 55.1Z" fill="#5F787D"/>
<path d="M64.7 66.0999C64.3 66.3999 64.3 66.9 64.5 67.2C64.6 68.4 65.6001 69.5 66.3001 70.3C67.5001 71.6 69 72.6 70.7 73.2C73.6 74.2 76.4 72 76.6 69C76.7 66.5 73.8001 65.2 71.9001 64.8C69.5001 64.3 66.6 64.4999 64.7 66.0999ZM74.3001 68.4C74.6001 68.9 74.5 69.5 74.2 70C73.6 71.3 72.5 71.6 71.2 71.2C70 70.9 68.9 70.1 68 69.2C67.6 68.8 66.6001 67.9 66.3001 67.2C68.5001 65.9 73.0001 66.4 74.3001 68.4Z" fill="#5F787D"/>
<path d="M51.4001 94.7C47.9001 93 43.6 93.9 40.1 95.2C39.6 95.4 39.4 95.9 39.5 96.4C39.4 96.6 39.5 96.8 39.6 96.9C40.7 98 41.9001 98.8 42.9001 100C43.9001 101.2 45.1 102.7 46.7 103.1C49.3 103.8 52.2001 103.7 53.9001 101.3C55.6001 98.9 53.6001 95.8 51.4001 94.7ZM50.1 101.4C47.4 102.1 45.5001 100.1 43.8001 98.3C43.3001 97.8 42.7 97.1 42.1 96.7C44.3 96.1 46.5001 95.8 48.8001 96.3C50.0001 96.5 51.5 97.1 52 98.3C52.7 99.9 51.6 101 50.1 101.4Z" fill="#5F787D"/>
<path d="M56.3001 51.6C56.5001 51.8 56.9 51.8 57.2 51.6C60 50 65.8001 46.9 62.4001 43C60.7001 41.1 58.0001 41.6 56.3001 43.1C53.9001 45 55.6 48.4 55.7 50.9C55.7 51.2 56.0001 51.5 56.3001 51.6ZM58.7 43.7C59.8 43.3 60.7001 43.7 61.3001 44.7C62.5001 46.6 59.3001 48.4 57.3001 49.5C57.2001 48.2 56.8001 47 56.8001 45.7C56.9001 44.7 57.9 44 58.7 43.7Z" fill="#5F787D"/>
<path d="M79.6093 0.492432L75.1422 4.95947L79.6093 0.492432Z" fill="#F2F2F2"/>
</svg>
