<svg width="29" height="25" viewBox="0 0 29 25" fill="none" xmlns="http://www.w3.org/2000/svg">
<path d="M10.2 18.7C12.2 20 14.9 20.1 16.7 21.6C20.4 17.4 27.9 11.4 25.6 5.09999C23.7 -0.100007 17.5 4.70004 15.7 7.40004C16 8.20004 16.1 8.90003 16.2 9.70003C16.3 11 14.4 11.1 14 10C13.1 7.40002 11.1 3.40002 7.69999 3.50002C3.49999 3.60002 2.39998 8.70004 3.99998 11.9C5.49998 14.6 7.59999 17.1 10.2 18.7Z" fill="#FF719A"/>
<path d="M16.5 23.6C16.9 24.1 17.6 24.2 18.1 23.6C21.1 20 24.6 16.9 26.8 12.7C28.4 9.80003 29.1 5.4 26.9 2.6C23.7 -1.5 17 1.20003 14.6 5.20003C13.4 3.40003 11.7 1.90001 9.90004 1.30001C5.80004 -0.0999901 2.39999 2.50001 1.09999 6.30001C-0.300008 10.1 2.20002 14.2 4.50002 17C7.50002 20.7 11.9 22.8 16.5 23.6ZM7.8 3.50002C11.1 3.40002 13.1 7.50002 14.1 10C14.5 11.1 16.4 11 16.3 9.70003C16.3 8.90003 16.1 8.20005 15.8 7.40005C17.6 4.70005 23.8 -0.200003 25.7 5.1C27.9 11.4 20.5 17.3 16.8 21.6C15 20.1 12.2 20 10.3 18.7C7.7 17 5.60003 14.6 4.20003 11.9C2.50003 8.80005 3.6 3.60002 7.8 3.50002Z" fill="#5F787D"/>
</svg>
