<svg width="44" height="83" viewBox="0 0 44 83" fill="none" xmlns="http://www.w3.org/2000/svg">
<path d="M32.2 68.5C29.6 69.9 27.5 73.6 29.2 76.4C30.3 78.2 32.9001 79.1 35.0001 79C37.3001 78.9 38.6001 77.8 39.8001 76.3C40.9001 72.2 37.4 65.8 32.2 68.5Z" fill="#ABF7E3"/>
<path d="M10.4 16.7C7.8 11.2 5.59993 5.10002 1.69993 0.400019C1.19993 -0.199981 0.100027 0.39997 0.300027 1.09997C3.10003 11.9 9.69998 22.3 14.5 32.4C19.7 43.2 22.6999 55.4 29.1999 65.5C24.8999 68.2 23 75 26.5 79C29.2 82.2 34.2999 83.2 38.1999 81.7C42.1999 82 43.8 75.5 43.4 72.2C42.6 66.3 37.7 63 32.3 64.3C27.2 53.9 23.5 43 18.5 32.6C15.8 27.2 13 22 10.4 16.7ZM39.8 76.3C38.6 77.8 37.3 78.9 35 79C32.9 79.1 30.3999 78.2 29.1999 76.4C27.3999 73.6 29.5999 69.9 32.1999 68.5C37.3999 65.8 40.9 72.2 39.8 76.3Z" fill="#5F787D"/>
</svg>
