<svg width="698" height="167" viewBox="0 0 698 167" fill="none" xmlns="http://www.w3.org/2000/svg">
<path d="M117.1 62.4C117.1 62.4 126.4 59.9 128.4 60.5C130.4 61.1 141.7 60.5 141.7 60.5L147.7 55.2L167.7 50.4H200.2C200.2 50.4 203 39.7 210.4 46.4C217.7 53.1 228.4 58.2 228.4 58.2L248.4 62.3L265.1 58.2C265.1 58.2 263.1 58.1 269.8 53.3C276.5 48.4 273.1 49.1 276.5 48.4C279.9 47.7 301.2 28.7 301.2 28.7L313.9 17.9L333.2 13.7C333.2 13.7 343.2 11 345.2 8.99999C347.2 6.99999 365.2 -2.3 379.2 1.7C393.2 5.7 413.2 6.99999 413.2 6.99999L428.5 13.7C428.5 13.7 449.8 16.1 449.8 17.9C449.8 19.7 449.8 28.7 449.8 28.7C449.8 28.7 455.8 30.7 457.8 31.5C459.8 32.3 483.8 41 483.8 41C483.8 41 499.1 42.3 504.5 41C509.8 39.7 527.8 41 527.8 41C527.8 41 532.5 45.7 534.5 45.7C536.5 45.7 545.8 46.4 549.8 46.4C553.8 46.4 569.4 46.4 572.9 48.4C576.4 50.4 600.4 57.3 600.4 58.2C600.4 59.1 615.1 62.3 615.1 62.3L617.8 69.3C617.8 69.3 622.9 78.5 622.7 79.4C622.5 80.3 623.6 84.7 622.7 89.5C621.8 94.3 623 106.3 623 106.3C623 106.3 626.5 115.6 626.5 117.6C626.5 119.6 627.8 128.9 626.5 130.9C625.2 132.9 629.7 138.2 627.1 140.2C624.5 142.2 585.8 145.5 585.8 145.5H548.5H499.8L491.8 148.2H467.8H453.1H439.1L415.1 135.5C415.1 135.5 409.1 134.8 406.4 135.5C403.7 136.2 383.7 138.2 383.7 138.2H361H335L325.7 139.5C325.7 139.5 305 140.8 301.7 141.5C298.4 142.2 275.7 139.5 269 144.2C262.3 148.9 253.7 154.9 239 154.9C224.3 154.9 191.7 152.9 183 151.6C174.3 150.3 169 154.9 146.3 140.3C123.6 125.7 125.6 127.6 126.3 123.3C127 119 138.3 130.3 125 111.7C111.7 93.1 109 94.4 109 85.7C109 77 117.1 62.4 117.1 62.4Z" fill="#F1F2F2"/>
<path opacity="0.7" d="M126.4 123.4C125.9 126.3 124.9 126.4 131.5 130.8C131.3 129.7 129.9 127.4 126.7 122.7C126.6 122.9 126.5 123.1 126.4 123.4Z" fill="#BCBEC0"/>
<path opacity="0.7" d="M627 135.3C627 137.3 626.9 139.1 626.4 139.8C626.2 140.1 626.1 140.4 626.2 140.8C626.6 140.7 626.9 140.5 627 140.4C628.5 139.3 627.7 137.3 627 135.3Z" fill="#BCBEC0"/>
<path opacity="0.7" d="M623 115.1C623 115.1 626.5 124.4 626.5 126.4C626.5 127.1 626.6 128.6 626.8 130.3C627.6 127.4 626.5 119.5 626.5 117.7C626.5 115.7 623 106.4 623 106.4C623 106.4 622.7 103.2 622.5 99.5C622 104.9 623 115.1 623 115.1Z" fill="#BCBEC0"/>
<path opacity="0.7" d="M117.1 71C117.1 71 126.4 68.5 128.4 69.1C130.4 69.7 141.7 69.1 141.7 69.1L147.7 63.8L167.7 59H200.2C200.2 59 203 48.3 210.4 55C217.7 61.7 228.4 66.8 228.4 66.8L248.4 70.9L265.1 66.8C265.1 66.8 263.1 66.7 269.8 61.9C276.5 57 273.1 57.7 276.5 57C279.8 56.3 301.2 37.3 301.2 37.3L313.9 26.5L333.2 22.3C333.2 22.3 343.2 19.6 345.2 17.6C347.2 15.6 365.2 6.29997 379.2 10.3C393.2 14.3 413.2 15.6 413.2 15.6L428.5 22.3C428.5 22.3 449.8 24.7 449.8 26.5C449.8 23.7 449.8 19.1 449.8 17.8C449.8 16 428.5 13.6 428.5 13.6L413.2 6.90001C413.2 6.90001 393.2 5.59996 379.2 1.59996C365.2 -2.40004 347.2 6.90001 345.2 8.90001C343.2 10.9 333.2 13.6 333.2 13.6L313.9 17.8L301.2 28.6C301.2 28.6 279.9 47.6 276.5 48.3C273.1 49 276.5 48.3 269.8 53.2C263.1 58.1 265.1 58.1 265.1 58.1L248.4 62.2L228.4 58.1C228.4 58.1 217.7 53 210.4 46.3C203.1 39.6 200.2 50.3 200.2 50.3H167.7L147.7 55.1L141.7 60.4C141.7 60.4 130.4 61 128.4 60.4C126.4 59.8 117.1 62.3 117.1 62.3C117.1 62.3 109.1 77 109.1 85.7C109.1 87.6 109.2 89 109.6 90.3C111.3 81.8 117.1 71 117.1 71Z" fill="#BCBEC0"/>
<path opacity="0.7" d="M449.8 37.4C449.8 37.4 455.8 39.4 457.8 40.2C459.8 41 483.8 49.7 483.8 49.7C483.8 49.7 499.1 51 504.5 49.7C509.8 48.4 527.8 49.7 527.8 49.7C527.8 49.7 532.5 54.4 534.5 54.4C536.5 54.4 545.8 55.1 549.8 55.1C553.8 55.1 569.4 55.1 572.9 57.1C576.4 59.1 600.4 66 600.4 66.9C600.4 67.8 615.1 71 615.1 71L617.8 78C617.8 78 622.9 87.2 622.7 88.1C622.7 88.3 622.7 88.8 622.7 89.4C623.5 84.7 622.5 80.4 622.7 79.5C622.9 78.6 617.8 69.4 617.8 69.4L615.1 62.4C615.1 62.4 600.4 59.1 600.4 58.3C600.4 57.4 576.4 50.5 572.9 48.5C569.4 46.5 553.8 46.5 549.8 46.5C545.8 46.5 536.5 45.8 534.5 45.8C532.5 45.8 527.8 41.1 527.8 41.1C527.8 41.1 509.8 39.8 504.5 41.1C499.2 42.4 483.8 41.1 483.8 41.1C483.8 41.1 459.8 32.5 457.8 31.6C455.8 30.7 449.8 28.8 449.8 28.8C449.8 32 449.8 37.4 449.8 37.4Z" fill="#BCBEC0"/>
<path d="M0 142.9H698V144.4H0V142.9Z" fill="#D1D3D4"/>
<path d="M0 165.5H698V167H0V165.5Z" fill="#D1D3D4"/>
<path d="M0 121.1H698V122.6H0V121.1Z" fill="#D1D3D4"/>
<path d="M676.2 32.1H7.09998L6.90002 33.6H676.2V32.1Z" fill="#D1D3D4"/>
<path d="M4.09998 55.6L4 57.1H698V55.6H4.09998Z" fill="#D1D3D4"/>
<path d="M1.20001 78.9H698V77.4H1.40002L1.20001 78.9Z" fill="#D1D3D4"/>
<path d="M0 99.3H698V100.8H0V99.3Z" fill="#D1D3D4"/>
</svg>
