<svg width="795" height="164" viewBox="0 0 795 164" fill="none" xmlns="http://www.w3.org/2000/svg">
<path d="M115.1 10.5C115.1 10.5 119 11.5 124.9 10.5C130.8 9.50001 138.6 10.9 138.6 10.9L156.3 10.1L158.5 10.9L162.2 7.7C162.2 7.7 164 5.9 165.9 7.7C167.7 9.5 167.7 9.50001 167.7 9.50001L178.7 8.90001H183.5H185.7C185.7 8.90001 186.1 9.00001 185.7 10.9C185.3 12.8 184.9 13.2 185.9 14.3C186.8 15.4 191.6 18 191.6 18H193.4C193.4 18 190.8 16.5 193.4 14C196 11.4 194.5 14.4 196 11.4C197.5 8.50001 197.5 8.50001 197.5 8.50001L204.1 7.00001H214L219.5 0.100006C219.5 0.100006 225.7 0.100006 226.8 0.100006C227.9 0.100006 231.9 0.500005 233.4 2.7C234.9 4.9 234.1 6.4 236.3 6.7C238.5 7.1 244.4 10.4 245.5 9.10001C246.6 7.80001 250.6 6.30001 250.6 6.30001H253.2C253.2 6.30001 255.4 7.00001 256.9 7.40001C258.4 7.80001 262.8 9.20001 263.9 9.10001C265 8.90001 267.9 6.30001 267.9 6.30001C267.9 6.30001 271.2 9.2 272.3 10.7C273.4 12.2 277.1 14 277.1 14L292.9 4.80001C292.9 4.80001 295.5 9.90001 296.6 9.00001C297.7 8.10001 303.2 9.00001 303.2 9.00001L305.4 12.1C305.4 12.1 307.2 13.2 308.7 13.9C310.2 14.6 318.2 17.2 318.6 17.9C319 18.6 322.3 19 324.1 21.6C325.9 24.2 335.1 31.1 335.1 31.1L344.3 28.5C344.3 28.5 346.9 19.3 348.3 17.9C349.8 16.4 352.7 15 354.2 12.4C355.7 9.80001 358.6 5.80001 358.6 5.80001L379.5 5.40001C379.5 5.40001 385.7 6.1 388.3 7.2C390.9 8.3 391.6 8.30001 393.8 10.5C396 12.7 399.7 13.4 399.7 13.4L418.8 11.6C418.8 11.6 425 12 426.9 12.7C428.7 13.4 428.7 13.4 428.7 13.4C428.7 13.4 435.3 15.2 436.4 15.4C437.5 15.6 448.5 17.1 448.5 17.1L454 13.1L456.6 15.5H459.5L465.4 18.3C465.4 18.3 468 17.9 468.3 20.1C468.6 22.3 471.2 23.8 471.2 23.8L478.2 24.9C478.2 24.9 481.9 24.2 484.8 24.2C487.7 24.2 482.6 20.9 489.6 24.2C496.6 27.5 500.6 31.2 500.6 31.2C500.6 31.2 513.8 28.6 514.9 28.6C516 28.6 545 28.6 545 28.6L583.5 28.2L607.7 31.1C607.7 31.1 607.3 33.3 607.7 34.4C608.1 35.5 607.7 37 607.7 37H619.1C619.1 37 622 35.5 623.5 37C625 38.5 636.3 37 636.3 37L640 42.1H649.5C649.5 42.1 650.2 40.6 652.8 42.1C655.4 43.6 659 43.9 661.2 44.3C663.4 44.7 676.2 43.9 678.4 44.3C680.6 44.7 697.1 44.4 697.1 44.4L727.9 42.8C727.9 42.8 740.4 43.9 746.2 44.5C752.1 45 755 46.1 755 46.1C748.8 46.8 739.2 46.1 739.2 46.1L735.9 46.4H716.8C716.8 46.4 713.1 50.5 713.1 53C713.1 55.5 708.7 55.2 712.7 59.2C716.7 63.2 716.7 63.2 716.7 63.2C716.7 63.2 718.2 66.1 717.8 67.2C717.4 68.3 716 70.1 716 70.1H712.7C712.7 70.1 709.4 66.8 706.8 67.5C704.2 68.2 709.7 67.1 704.2 68.2C698.7 69.3 699.1 69.7 695.4 70C691.7 70.4 687.3 70 687.3 70L677.8 67.8H669C669 67.8 667.2 70.3 666.1 70.2C665 70 664.6 71.1 663.5 72.2C662.4 73.3 661.7 74.4 660.9 75.5C660.2 76.6 653.9 78.4 653.9 78.4C653.9 78.4 654.6 73.6 651.7 78.4C648.8 83.2 641.8 84.6 641.8 84.6H629.3H610.2L602.9 82C602.9 82 595.2 80.2 593.7 80.2C592.2 80.2 588.6 78 586.4 80.9C584.2 83.8 582.4 86.4 582.4 86.4C582.4 86.4 581.7 89.3 580.2 90.8C578.7 92.3 580.9 89.7 578.7 92.3C576.5 94.9 570.3 96.3 570.3 96.3C570.3 96.3 514.2 88.2 512.7 88.2C511.2 88.2 494.4 89.3 492.9 90.8C491.4 92.3 487.4 95.2 485.9 96.3C484.4 97.4 476.7 98.1 476.7 98.1H467.5C467.5 98.1 463.8 95.5 458.3 98.1C452.8 100.7 405.8 127.8 405.1 129.6C404.4 131.4 395.9 136.6 394.5 136.9C393 137.3 379.1 139.1 379.1 139.1H369.6L358.2 142H352.3L335.1 143.8L308.7 141.6C308.7 141.6 298.8 139 298.1 142C297.4 144.9 296.6 146 295.5 146.8C294.4 147.5 286.3 148.6 286.3 148.6L280.1 144.9L276.1 140.1L275.7 135L273.1 125.8C273.1 125.8 272.4 127.3 271.3 131.7C270.2 136.1 269.1 138.7 269.1 139.8C269.1 140.9 267.6 142.4 267.3 143.5C266.9 144.6 242 148.6 242 148.6C242 148.6 236.9 146.8 234.7 146.8C232.5 146.8 225.2 145.7 222.6 146.8C220 147.9 202.1 148.6 202.1 148.6L192.2 138.7L175.3 138.3L148.9 137.6L120.7 135L100.5 132.4C100.5 132.4 90.2 129.5 90.6 128C91 126.5 90.2 125.4 88.8 120.7C87.3 115.9 82.2 112.6 82.2 111.5C82.2 110.4 88.1 109.3 75.6 104.9C63.1 100.5 63.1 101.2 55.4 95C47.7 88.8 42.6 82.9 42.6 82.9L45.2 82.2L48.9 80C48.9 80 50.7 75.6 50.7 73.9C50.7 72.2 51.4 68.6 51.4 67.5C51.4 66.4 52.5 63.1 52.5 61.6C52.5 60.1 46.6 61.6 56.2 55.4C65.7 49.2 74.9 42.2 74.9 42.2C74.9 42.2 74.5 40.4 75.3 38.2C76 36 77.1 30.9 77.5 29C77.9 27.2 79.3 24.6 80.8 23.5C82.3 22.4 88.9 18.7 88.9 18.7L98.4 12.8L115.1 10.5Z" fill="#F1F2F2"/>
<path opacity="0.7" d="M47.1 88.3L48.8 87.3C48.8 87.3 50.6 82.9 50.6 81.2C50.6 79.5 51.3 75.9 51.3 74.8C51.3 73.7 52.4 70.4 52.4 68.9C52.4 68.4 51.8 68.3 51.3 68.1V68.2C51.3 69.3 50.6 73 50.6 74.6C50.6 76.3 48.8 80.7 48.8 80.7L45.1 82.9L42.5 83.6C42.6 83.6 44.2 85.5 47.1 88.3Z" fill="#BCBEC0"/>
<path opacity="0.7" d="M52.5 62.4C52.5 63.2 52.1 64.6 51.8 65.9C52.6 65.2 54 64.1 56.1 62.8C65.6 56.6 74.8 49.6 74.8 49.6C74.8 49.6 74.4 47.8 75.2 45.6C75.9 43.4 77 38.3 77.4 36.4C77.8 34.6 79.2 32 80.7 30.9C82.2 29.8 88.8 26.1 88.8 26.1L98.3 20.2L115.1 17.1C115.1 17.1 119 18.1 124.9 17.1C130.8 16.1 138.6 17.5 138.6 17.5L156.3 16.7L158.5 17.5L162.2 14.3C162.2 14.3 164 12.5 165.9 14.3C167.7 16.1 167.7 16.1 167.7 16.1L178.7 15.5H183.5H185.7C185.7 15.5 186.1 15.6 185.7 17.5C185.3 19.4 184.9 19.8 185.9 20.9C186.8 22 191.6 24.6 191.6 24.6H193.4C193.4 24.6 190.8 23.1 193.4 20.6C196 18.1 194.5 21 196 18C197.5 15.1 197.5 15.1 197.5 15.1L204.1 13.6H214L219.5 6.7C219.5 6.7 225.7 6.7 226.8 6.7C227.9 6.7 231.9 7.10001 233.4 9.30001C234.9 11.5 234.1 13 236.3 13.3C238.5 13.7 244.4 17 245.5 15.7C246.6 14.4 250.6 12.9 250.6 12.9H253.2C253.2 12.9 255.4 13.6 256.9 14C258.4 14.4 262.8 15.8 263.9 15.7C265 15.5 267.9 12.9 267.9 12.9C267.9 12.9 271.2 15.8 272.3 17.3C273.4 18.8 277.1 20.6 277.1 20.6L292.9 11.4C292.9 11.4 295.5 16.5 296.6 15.6C297.7 14.7 303.2 15.6 303.2 15.6L305.4 18.7C305.4 18.7 307.2 19.8 308.7 20.5C310.2 21.2 318.2 23.8 318.6 24.5C319 25.2 322.3 25.6 324.1 28.2C325.9 30.8 335.1 37.7 335.1 37.7L344.3 35.1C344.3 35.1 346.9 25.9 348.3 24.5C349.8 23 352.7 21.6 354.2 19C355.7 16.4 358.6 12.4 358.6 12.4L379.5 12C379.5 12 385.7 12.7 388.3 13.8C390.9 14.9 391.6 14.9 393.8 17.1C396 19.3 399.7 20 399.7 20L418.8 18.2C418.8 18.2 425 18.6 426.9 19.3C428.7 20 428.7 20 428.7 20C428.7 20 435.3 21.8 436.4 22C437.5 22.2 448.5 23.7 448.5 23.7L454 19.7L456.6 22.1H459.5L465.4 24.9C465.4 24.9 468 24.5 468.3 26.7C468.7 28.9 471.2 30.4 471.2 30.4L478.2 31.5C478.2 31.5 481.9 30.8 484.8 30.8C487.7 30.8 482.6 27.5 489.6 30.8C496.6 34.1 500.6 37.8 500.6 37.8C500.6 37.8 513.8 35.2 514.9 35.2C516 35.2 545 35.2 545 35.2L583.5 34.8L607.7 37.7C607.7 37.7 607.3 39.9 607.7 41C608.1 42.1 607.7 43.6 607.7 43.6H619.1C619.1 43.6 622 42.1 623.5 43.6C625 45.1 636.3 43.6 636.3 43.6L640 48.7H649.5C649.5 48.7 650.2 47.2 652.8 48.7C655.4 50.2 659 50.5 661.2 50.9C663.4 51.3 676.2 50.5 678.4 50.9C680.6 51.3 697.1 51 697.1 51L714.3 50.1C715.4 48.2 717 46.4 717 46.4H736.1L739.4 46.1C739.4 46.1 748.9 46.8 755.2 46.1C755.2 46.1 752.3 45 746.4 44.5C740.5 44 728.1 42.8 728.1 42.8L697.3 44.4C697.3 44.4 680.8 44.7 678.6 44.3C676.4 43.9 663.6 44.7 661.4 44.3C659.2 43.9 655.5 43.6 653 42.1C650.4 40.6 649.7 42.1 649.7 42.1H640.2L636.5 37C636.5 37 625.1 38.5 623.7 37C622.2 35.5 619.3 37 619.3 37H607.9C607.9 37 608.3 35.5 607.9 34.4C607.5 33.3 607.9 31.1 607.9 31.1L583.7 28.2L545.2 28.6C545.2 28.6 516.2 28.6 515.1 28.6C514 28.6 500.8 31.2 500.8 31.2C500.8 31.2 496.8 27.5 489.8 24.2C482.8 20.9 488 24.2 485 24.2C482.1 24.2 478.4 24.9 478.4 24.9L471.4 23.8C471.4 23.8 468.8 22.3 468.5 20.1C468.2 17.9 465.6 18.3 465.6 18.3L459.7 15.5H456.8L454.2 13.1L448.7 17.1C448.7 17.1 437.7 15.6 436.6 15.4C435.5 15.2 428.9 13.4 428.9 13.4C428.9 13.4 428.9 13.4 427.1 12.7C425.3 12 419 11.6 419 11.6L399.9 13.4C399.9 13.4 396.2 12.7 394 10.5C391.8 8.30001 391.1 8.3 388.5 7.2C385.9 6.1 379.7 5.40001 379.7 5.40001L358.8 5.80001C358.8 5.80001 355.9 9.80001 354.4 12.4C352.9 15 350 16.4 348.5 17.9C347 19.4 344.5 28.5 344.5 28.5L335.3 31.1C335.3 31.1 326.1 24.1 324.3 21.6C322.5 19 319.2 18.7 318.8 17.9C318.4 17.2 310.4 14.6 308.9 13.9C307.4 13.2 305.6 12.1 305.6 12.1L303 9.00001C303 9.00001 297.5 8.10001 296.4 9.00001C295.3 9.90001 292.7 4.80001 292.7 4.80001L276.9 14C276.9 14 273.2 12.2 272.1 10.7C271 9.2 267.7 6.30001 267.7 6.30001C267.7 6.30001 264.8 8.90001 263.7 9.10001C262.6 9.30001 258.2 7.80001 256.7 7.40001C255.2 7.00001 253 6.30001 253 6.30001H250.4C250.4 6.30001 246.4 7.80001 245.3 9.10001C244.2 10.4 238.3 7.1 236.1 6.7C233.9 6.3 234.6 4.9 233.2 2.7C231.7 0.500005 227.7 0.100006 226.6 0.100006C225.5 0.100006 219.3 0.100006 219.3 0.100006L213.8 7.00001H204L197.4 8.50001C197.4 8.50001 197.4 8.50001 195.9 11.4C194.4 14.3 195.9 11.4 193.3 14C190.7 16.6 193.3 18 193.3 18H191.5C191.5 18 186.7 15.4 185.8 14.3C184.9 13.2 185.3 12.8 185.6 10.9C186 9.00001 185.6 8.90001 185.6 8.90001H183.4H178.6L167.6 9.50001C167.6 9.50001 167.6 9.5 165.8 7.7C164 5.9 162.1 7.7 162.1 7.7L158.4 10.9L156.2 10.1L138.5 10.9C138.5 10.9 130.7 9.50001 124.8 10.5C118.9 11.5 115 10.5 115 10.5L98.2 13.6L88.7 19.5C88.7 19.5 82.1 23.2 80.6 24.3C79.1 25.4 77.7 28 77.3 29.8C76.9 31.6 75.8 36.8 75.1 39C74.4 41.2 74.7 43 74.7 43C74.7 43 65.5 50 56 56.2C46.6 62.4 52.5 60.9 52.5 62.4Z" fill="#BCBEC0"/>
<path opacity="0.7" d="M713.2 59.8C713.2 62.4 708.8 62 712.8 66C715.2 68.4 716.2 69.4 716.6 69.8C717.1 69.2 717.7 68.2 718 67.5C718.4 66.4 716.9 63.5 716.9 63.5C716.9 63.5 716.8 63.5 713.2 59.8Z" fill="#BCBEC0"/>
<path d="M46.3 53.6H795V52.1H47.8C49.3 50.8 50.9 49.5 52.4 48.4C58.1 44.4 61.9 37.3 64.4 30.1H632.8V28.6H65C68.6 17.5 69.4 6.60001 69.4 6.60001H12.1C12.1 6.60001 1.79999 78.5 0.399993 85.1C-1.00001 91.4 6.19999 156.6 4.39999 163.1C7.79999 160.6 28.6 149.4 42.8 140.9H795V139.4H45.2C51.6 135.5 56.2 132.4 56.2 131.3C56.2 129.6 52.8 125 48.4 119H795V117.5H47.2C42.7 111.4 37.3 104.1 33.4 97.1H795V95.6H32.6C29.3 89.5 29.6 82.3 31.9 75.2H794.9V73.7H32.5C35.3 66.5 40.4 59.2 46.3 53.6Z" fill="#D1D3D4"/>
</svg>
