<svg width="699" height="157" viewBox="0 0 699 157" fill="none" xmlns="http://www.w3.org/2000/svg">
<path d="M62.1 9.60001H74.1H88.1L93.6 12.6C93.6 12.6 102.1 10.1 104.1 9.60001C106.1 9.10001 108.6 11.1 111.1 9.60001C113.6 8.10001 122.6 11.5 124.1 11.1C125.6 10.7 137.1 10.9 137.1 10.9L145.1 9.20002L152.6 10.9H161.6H172.1L177.6 9.20002C177.6 9.20002 183.4 7.20003 189 10.9C194.6 14.6 202.1 20.1 208.6 16.1C215.1 12.1 220.6 8.70002 220.6 8.70002C220.6 8.70002 218.1 9.30002 224.1 8.70002C230.1 8.10002 240.1 8.70002 240.1 8.70002L259.6 10.6L292.1 8.4C292.1 8.4 283.1 5.7 303.6 8.4C324.1 11.1 323.6 13.1 326.1 12.3C328.6 11.5 342.6 12.3 342.6 12.3H353.2C353.2 12.3 364.6 13.1 367.6 12.3C370.6 11.5 379.1 11.6 380.6 12.3C382.1 13 392.6 6.30002 394.6 7.20002C396.6 8.10002 406.6 7.10001 406.6 7.10001C406.6 7.10001 413.6 8.20001 415.6 7.10001C417.6 6.00001 435.1 8.70001 437.6 7.10001C440.1 5.50001 443.6 -0.499993 451.6 1.00001C459.6 2.50001 468.6 4.50001 472.6 5.50001C476.6 6.50001 491.8 9.10001 491.8 9.10001C491.8 9.10001 505.1 5.50001 509.1 5.00001C513.1 4.50001 526.6 4.00001 528.6 4.50001C530.6 5.00001 541.1 9.20001 543.6 9.10001C546.1 9.00001 557.1 9.20001 558.6 9.10001C560.1 9.00001 563.6 -1.29999 566.6 9.10001C569.6 19.5 570.6 19.5 569.1 22C567.6 24.5 563.1 22.5 567.6 28.5C572.1 34.5 575.6 34 575.6 37.5C575.6 41 566.1 49 566.1 49C566.1 49 553.1 50.5 545.6 51.5C538.1 52.5 530.1 48 525.6 51.5C521.1 55 491.8 54 491.8 54L497.9 61.5H504.1C504.1 61.5 509.6 63.5 512.1 61.5C514.6 59.5 522.1 59.5 522.1 59.5L530.6 62.4H548.6H553.6C553.6 62.4 560.6 61.3 561.1 62.4C561.6 63.5 561.1 59.5 561.6 63.5C562.1 67.5 559.1 69 559.1 71.5C559.1 74 561.1 75.5 561.1 78C561.1 80.5 562.1 83.5 562.1 85C562.1 86.5 562.1 75 560.6 90C559.1 105 558.6 98.5 559.1 105C559.6 111.5 559.1 107.5 559.6 111.5C560.1 115.5 555.1 121 555.1 121C555.1 121 536.6 114.5 537.6 121C538.6 127.5 527.6 129.5 527.6 129.5H517.6L484.1 132.5H480.1L460.6 135H441.1C441.1 135 432.1 134 417.6 135C403.1 136 384.1 138 384.1 138H345.4L318.8 136C318.8 136 314.6 139.5 313 138C311.4 136.5 297 138.4 297 138.4C297 138.4 303 133.5 292.5 134.5C282 135.5 276.5 138.4 276.5 138.4H269C269 138.4 250.5 127.5 248.5 127.5C246.5 127.5 228.5 128 228.5 128L218 128.5H203.5C203.5 128.5 200.5 128 198.5 128.5C196.5 129 173 130 171 130C169 130 135.5 130 135.5 130L122 130.5C122 130.5 109.5 125.5 104.5 126.5C99.5 127.5 98.5 125 96.5 124C94.5 123 71.5 117.5 71.5 117.5C71.5 117.5 68.5 118 58.5 117.5C48.5 117 8 121.5 8 121.5C8 121.5 9.5 114 11 110C12.5 106 16 100 16 100C16 100 24.5 91.5 29.5 92C34.5 92.5 41 94 42.5 94C44 94 53.5 94 55 93.5C56.5 93 60 98 56.5 93C53 88 64.5 88.5 49 87.5C33.5 86.5 30.5 84 30.5 82C30.5 80 29 75 29 75L33 69.6C33 69.6 39 71.7 40 69.6C41 67.5 43.5 64 43.5 64C43.5 64 41.5 57 41.5 55C41.5 53 40 51.5 41.5 48C43 44.5 45.5 42 45.5 42C45.5 42 38 40.5 35.3 40.5C32.6 40.5 18.5 36.5 18.5 36.5C18.5 36.5 18 32 20.5 28C23 24 25 20 26.5 18.5C28 17 29.5 14.5 32 14.5C34.5 14.5 62.1 9.60001 62.1 9.60001Z" fill="#F1F2F2"/>
<path opacity="0.7" d="M24.1 23.6C25.6 22.1 27.1 19.6 29.6 19.6C32.1 19.6 59.6 14.6 59.6 14.6H71.6H85.6L91.1 17.6C91.1 17.6 99.6 15.1 101.6 14.6C103.6 14.1 106.1 16.1 108.6 14.6C111.1 13.1 120.1 16.5 121.6 16.1C123.1 15.7 134.6 15.9 134.6 15.9L142.6 14.2L150.1 15.9H159.1H169.6L175.1 14.2C175.1 14.2 180.9 12.2 186.5 15.9C192.1 19.6 199.6 25.1 206.1 21.1C211.6 17.7 216.4 14.8 217.7 13.9C217.3 13.8 218.1 13.7 218.1 13.7C218.1 13.7 218 13.8 217.7 13.9C218 13.9 219 13.9 221.6 13.7C227.6 13.1 237.6 13.7 237.6 13.7L257.1 15.6L289.6 13.4C289.6 13.4 280.6 10.7 301.1 13.4C321.6 16.1 321.1 18.1 323.6 17.3C326.1 16.5 340.1 17.3 340.1 17.3H350.7C350.7 17.3 362.1 18.1 365.1 17.3C368.1 16.5 376.6 16.6 378.1 17.3C379.6 18 390.1 11.3 392.1 12.2C394.1 13.1 404.1 12.1 404.1 12.1C404.1 12.1 411.1 13.2 413.1 12.1C415.1 11 432.6 13.7 435.1 12.1C437.6 10.5 441.1 4.50001 449.1 6.00001C457.1 7.50001 466.1 9.50001 470.1 10.5C474.1 11.5 489.3 14.1 489.3 14.1C489.3 14.1 502.6 10.5 506.6 10C510.6 9.50001 524.1 9.00001 526.1 9.50001C528.1 10 538.6 14.2 541.1 14.1C543.6 14 554.6 14.2 556.1 14.1C557.6 14 561.1 3.69998 564.1 14.1C565.6 19.3 566.6 21.9 567 23.5C567.7 23.2 568.6 22.9 569.1 22C570.6 19.5 569.6 19.5 566.6 9.10001C563.6 -1.29999 560.1 9.00001 558.6 9.10001C557.1 9.20001 546.1 9.00001 543.6 9.10001C541.1 9.20001 530.6 5.00001 528.6 4.50001C526.6 4.00001 513.1 4.50001 509.1 5.00001C505.1 5.50001 491.8 9.10001 491.8 9.10001C491.8 9.10001 476.6 6.50001 472.6 5.50001C468.6 4.50001 459.6 2.50001 451.6 1.00001C443.6 -0.499993 440.1 5.50001 437.6 7.10001C435.1 8.70001 417.6 6.00001 415.6 7.10001C413.6 8.20001 406.6 7.10001 406.6 7.10001C406.6 7.10001 396.6 8.00002 394.6 7.20002C392.6 6.30002 382.1 13.1 380.6 12.3C379.1 11.5 370.6 11.5 367.6 12.3C364.6 13.1 353.2 12.3 353.2 12.3H342.6C342.6 12.3 328.6 11.5 326.1 12.3C323.6 13.1 324.1 11 303.6 8.4C283.1 5.7 292.1 8.4 292.1 8.4L259.6 10.6L240.1 8.70002C240.1 8.70002 230.1 8.10002 224.1 8.70002C221.5 8.90002 220.5 9 220.2 8.9C218.9 9.7 214.1 12.7 208.6 16.1C202.1 20.1 194.6 14.6 189 10.9C183.4 7.20003 177.6 9.20002 177.6 9.20002L172.1 10.9H161.6H152.6L145.1 9.20002L137.1 10.9C137.1 10.9 125.6 10.6 124.1 11.1C122.6 11.6 113.6 8.10001 111.1 9.60001C108.6 11.1 106.1 9.10001 104.1 9.60001C102.1 10.1 93.6 12.6 93.6 12.6L88.1 9.60001H74.1H62.1C62.1 9.60001 34.6 14.6 32.1 14.6C29.6 14.6 28.1 17.1 26.6 18.6C25.1 20.1 23.1 24.1 20.6 28.1C19.9 29.2 19.5 30.3 19.2 31.3C21.2 28 22.8 24.9 24.1 23.6Z" fill="#BCBEC0"/>
<path opacity="0.7" d="M37.6 74.7C38.6 72.6 41.1 69.1 41.1 69.1C41.1 69.1 41 68.8 40.9 68.3C40.6 68.8 40.3 69.3 40.1 69.7C39.1 71.8 33.1 69.7 33.1 69.7L29.1 75.1C29.1 75.1 29.2 75.6 29.4 76.3L30.6 74.7C30.6 74.7 36.6 76.7 37.6 74.7Z" fill="#BCBEC0"/>
<path opacity="0.7" d="M13.6 105.1C13.6 105.1 22.1 96.6 27.1 97.1C32.1 97.6 38.6 99.1 40.1 99.1C41.6 99.1 51.1 99.1 52.6 98.6C54.1 98.1 57.6 103.1 54.1 98.1C52.1 95.3 54.9 94.2 55 93.6C53.2 94.1 44.1 94.1 42.6 94.1C41.1 94.1 34.6 92.6 29.6 92.1C24.6 91.6 16.1 100.1 16.1 100.1C16.1 100.1 13.6 104.3 12 108C12.9 106.3 13.6 105.1 13.6 105.1Z" fill="#BCBEC0"/>
<path opacity="0.7" d="M41.2 49.5C42.3 48 43.2 47.1 43.2 47.1C43.2 47.1 42.8 47 42.3 46.9C42.1 47.3 41.9 47.7 41.7 48.1C41.4 48.6 41.3 49.1 41.2 49.5Z" fill="#BCBEC0"/>
<path opacity="0.7" d="M220.2 8.89999C220.4 8.69999 220.6 8.70001 220.6 8.70001C220.6 8.70001 219.8 8.79999 220.2 8.89999Z" fill="#BCBEC0"/>
<path opacity="0.7" d="M566.6 27.1C565.1 29.6 560.6 27.6 565.1 33.6C569.4 39.4 572.8 39.1 573.1 42.2C574.5 40.5 575.6 38.8 575.6 37.6C575.6 34.1 572.1 34.6 567.6 28.6C567.2 28 566.9 27.5 566.6 27.1Z" fill="#BCBEC0"/>
<path opacity="0.7" d="M561.7 82.4C561.9 83.4 562.1 84.4 562.1 85C562.1 84.2 562 81.7 561.7 82.4Z" fill="#BCBEC0"/>
<path opacity="0.7" d="M559.1 71.6C559.1 69.1 562.1 67.6 561.6 63.6C561.1 59.6 561.6 63.6 561.1 62.5C560.6 61.4 553.6 62.5 553.6 62.5H548.6H530.6L522.1 59.6C522.1 59.6 514.6 59.6 512.1 61.6C509.6 63.6 504.1 61.6 504.1 61.6H497.9L496 59.2C492.1 59.2 489.4 59.1 489.4 59.1L495.5 66.6H501.7C501.7 66.6 507.2 68.6 509.7 66.6C512.2 64.6 519.7 64.6 519.7 64.6L528.2 67.5H546.2H551.2C551.2 67.5 558.2 66.4 558.7 67.5C559.2 68.6 558.7 64.6 559.2 68.6C559.7 72.6 556.7 74.1 556.7 76.6C556.7 79.1 558.7 80.6 558.7 83.1C558.7 84.5 559 86 559.3 87.4C559.6 86.7 559.7 89.3 559.7 90V90.1C559.7 90.3 559.7 90.3 559.7 90C559.7 89.3 559.5 88.4 559.3 87.4C559.1 87.9 558.7 89.9 558.2 95.1C556.7 110.1 556.2 103.6 556.7 110.1C557.2 116.6 556.7 112.6 557.2 116.6C557.3 117.3 557.2 118 557 118.8C558.4 116.8 560 114 559.7 111.6C559.2 107.6 559.7 111.6 559.2 105.1C558.7 98.6 559.2 105.1 560.7 90.1C561.2 84.9 561.6 82.9 561.8 82.4C561.5 81 561.2 79.5 561.2 78.1C561.1 75.6 559.1 74.1 559.1 71.6Z" fill="#BCBEC0"/>
<path opacity="0.7" d="M535.1 126.1C535.1 126.2 535.1 126.3 535.1 126.4C536.2 125.6 537 124.6 537.4 123.3C535.9 123.6 534.9 124.4 535.1 126.1Z" fill="#BCBEC0"/>
<path d="M0.5 132.3H698.5V133.8H0.5V132.3Z" fill="#D1D3D4"/>
<path d="M0.5 154.9H698.5V156.4H0.5V154.9Z" fill="#D1D3D4"/>
<path d="M0.5 110.5H698.5V112H0.5V110.5Z" fill="#D1D3D4"/>
<path d="M676.6 21.5H7.60002L7.40002 23H676.6V21.5Z" fill="#D1D3D4"/>
<path d="M4.60002 45L4.40002 46.4H698.5V45H4.60002Z" fill="#D1D3D4"/>
<path d="M1.70001 68.3H698.5V66.8H1.90002L1.70001 68.3Z" fill="#D1D3D4"/>
<path d="M0.5 88.6H698.5V90.1H0.5V88.6Z" fill="#D1D3D4"/>
</svg>
