<svg width="302" height="301" viewBox="0 0 302 301" fill="none" xmlns="http://www.w3.org/2000/svg">
<path d="M1.00002 0.200012V11.4C3.10002 13 5.40002 11.5 7.90002 11.1C9.00002 10.9 10.1 10.9 11.2 10.8C11.8 8.69999 13.7 7.10001 16 7.10001C18.8 7.10001 21 9.30001 21 12.1C21 14.9 18.8 17.1 16 17.1C14.4 17.1 13 16.4 12.1 15.2C11.1 15.4 10 15.6 9.20002 16.1C7.90002 16.9 6.90002 18 5.40002 18.4C4.00002 18.8 2.60003 18.9 1.30003 19.9C1.20003 20 1.00002 20.1 0.900024 20.2V28.6C1.00002 28.6 1.10002 28.7 1.20002 28.7C2.60002 29 3.60002 28.8 4.60002 30C6.60002 32.3 8.40002 33.7 11.5 34.1C11.6 34.1 11.7 34.1 11.8 34.2C12.7 32.9 14.2 32 15.9 32C18.7 32 20.9 34.2 20.9 37C20.9 39.8 18.7 42 15.9 42C13.5 42 11.5 40.3 11 38C10.7 38 10.3 38 10 38.1C8.70002 38.3 8.00002 39.4 6.90002 40C5.60002 40.6 4.30002 40.4 2.90002 40.2C2.30002 40.1 1.60002 40 0.900024 39.9V55.9C1.30002 55.8 1.70002 55.9 2.20002 56C3.30002 56.3 3.60002 57 4.50002 57.6C5.30002 58.1 6.20002 58.3 7.10002 58.6C8.70002 59.1 10.2 59.4 11.7 59.5C12.6 58.1 14.1 57.2 15.9 57.2C18.7 57.2 20.9 59.4 20.9 62.2C20.9 65 18.7 67.2 15.9 67.2C14 67.2 12.4 66.2 11.5 64.6C11.1 64.8 10.6 65.1 10.3 65.2C8.90003 65.9 7.90002 65 6.40002 65C5.50002 65 4.90002 65.3 4.10002 65.4C3.10002 65.5 2.30003 65.6 1.30003 65.8C1.20003 65.8 1.00002 65.9 0.900024 65.9V82.4C1.40002 82.8 1.90002 83.3 2.50002 83.7C4.10002 84.8 6.10002 85.3 8.10002 85.3C9.40002 85.3 10.5 84.9 11.7 84.6C12.6 83.2 14.1 82.2 16 82.2C18.8 82.2 21 84.4 21 87.2C21 90 18.8 92.2 16 92.2C14.4 92.2 12.9 91.4 12 90.2C11.5 90.4 11 90.7 10.5 90.8C9.50002 91 8.70002 91.7 7.60002 91.8C6.60002 91.9 5.60002 91.6 4.50002 91.6C3.20002 91.6 2.10002 91.1 0.900024 90.8V105.1C1.10002 105.3 1.20002 105.4 1.40002 105.5C2.40002 106.1 3.00002 105.9 4.00002 105.7C4.90002 105.5 5.90002 105.7 6.70002 106.1C7.50002 106.4 7.80002 107.1 8.50002 107.6C9.30002 108.2 10.2 108.5 10.9 109.3C11.1 109.5 11.3 109.7 11.5 109.9C12.4 108.4 14 107.3 15.9 107.3C18.7 107.3 20.9 109.5 20.9 112.3C20.9 115.1 18.7 117.3 15.9 117.3C14.6 117.3 13.5 116.8 12.6 116C12.4 116.1 12.3 116.1 12.1 116.2C11 116.6 9.80003 116.4 8.80003 117C7.70003 117.6 7.10003 119 5.80003 119.3C4.30003 119.7 2.60002 118.4 1.00002 118.3V133.9C1.90002 134.2 3.10002 134.3 4.00002 134.3C5.30002 134.3 6.60002 134.3 7.90002 134.3C8.60002 134.3 9.30002 134.4 10 134.7C10.6 135 10.6 135.4 11.1 135.8C11.2 135.8 11.2 135.9 11.3 135.9C11.9 133.8 13.8 132.3 16.1 132.3C18.9 132.3 21.1 134.5 21.1 137.3C21.1 140.1 18.9 142.3 16.1 142.3C14.4 142.3 13 141.5 12.1 140.3C11.7 140.7 11.4 141 10.9 141.2C9.90002 141.6 9.10003 140.8 8.30003 140.6C7.70003 140.5 6.20002 140.5 5.70002 140.6C4.90002 140.8 4.30003 141.6 3.30003 141.9C2.50003 142.1 1.90002 142.2 1.10002 142.2V157.3C1.40002 157.3 1.70002 157.3 1.90002 157.4C3.20002 157.7 4.40002 158.5 5.70002 158.8C6.90002 159.1 8.20002 158.9 9.40002 158.9C10.3 158.9 11.2 159.1 12 159.4C12.9 158.1 14.4 157.3 16.1 157.3C18.9 157.3 21.1 159.5 21.1 162.3C21.1 165.1 18.9 167.3 16.1 167.3C13.9 167.3 12 165.8 11.3 163.8C10 164.5 8.70002 165.2 7.10002 165.2C5.10002 165.3 3.00002 164.5 1.00002 164.6V182.5C2.20002 183.1 3.70002 183.4 5.20002 183.5C7.10002 183.6 8.70002 184 10.4 184.6C10.8 184.7 11.2 184.9 11.6 184.9C12.4 183.3 14.1 182.2 16 182.2C18.8 182.2 21 184.4 21 187.2C21 190 18.8 192.2 16 192.2C14 192.2 12.3 191 11.5 189.4C10.4 189.6 9.20003 189.7 8.30003 190C5.80003 190.8 3.40002 192.1 1.00002 193.1V232.2C2.50002 232 4.10002 231.3 5.50002 231.5C7.80002 231.9 9.20002 234.5 11.5 234.8C11.6 234.8 11.6 234.8 11.6 234.8C12.1 233.9 12.8 233.3 13.7 232.8C13.9 231.9 13.9 230.8 13.8 230.1C13.5 227.9 13 226 13.4 223.8C13.7 221.7 13.9 220 13.5 217.9C13.4 217.4 13.3 216.9 13.3 216.4C12 215.5 11.1 214 11.1 212.3C11.1 209.5 13.3 207.3 16.1 207.3C18.9 207.3 21.1 209.5 21.1 212.3C21.1 214.3 19.9 216.1 18.1 216.9C18 218.4 18 219.9 18.2 221.4C18.6 223.6 18.4 225.4 17.9 227.5C17.5 229.5 17.9 231 18.4 232.9C20 233.7 21.1 235.4 21.1 237.3C21.1 240.1 18.9 242.3 16.1 242.3C14.5 242.3 13 241.5 12.1 240.3C11.7 240.4 11.3 240.4 11 240.5C7.70002 241.1 4.40002 242 1.20002 242.9V258.5C1.30002 258.5 1.40002 258.4 1.50002 258.4C2.20002 258.2 3.00002 258.2 3.70002 258.4C4.80002 258.8 5.50002 259.7 6.70002 259.7C7.20002 259.7 7.70002 259.7 8.20002 259.8C8.70002 259.9 9.10002 260.1 9.60002 260.2C10.3 260.4 11 260.1 11.7 260.1C12.5 258.4 14.2 257.3 16.2 257.3C19 257.3 21.2 259.5 21.2 262.3C21.2 265.1 19 267.3 16.2 267.3C14.2 267.3 12.4 266.1 11.7 264.4C11.1 264.6 10.7 265.1 10.1 265.4C9.30002 265.9 8.40002 265.8 7.40002 265.9C6.50002 266 5.50002 266.1 4.70002 266.3C4.00002 266.5 3.50003 266.9 2.80003 267.2C2.30003 267.4 1.80002 267.4 1.20002 267.5V281.6C1.80002 281.6 2.30002 281.6 2.90002 281.9C3.40002 282.1 3.80003 282.6 4.30003 283C5.40003 283.9 6.50003 283.4 7.80003 283.5C8.40003 283.5 8.90002 283.8 9.40002 284.2C9.70002 284.5 10 285 10.5 285.2C10.9 285.4 11.4 285.3 11.8 285.4C12.6 283.7 14.3 282.5 16.3 282.5C19.1 282.5 21.3 284.7 21.3 287.5C21.3 290.3 19.1 292.5 16.3 292.5C13.8 292.5 11.8 290.7 11.4 288.3C11.3 288.3 11.3 288.3 11.2 288.4C10.8 288.5 10.4 288.6 10 288.7C9.60002 288.8 9.20003 289 8.80003 289.1C7.90003 289.3 6.90002 289.1 6.00002 289.3C5.10002 289.6 4.30002 290.3 3.40002 290.6C2.70002 290.8 2.00003 290.9 1.30003 291V300.5H301.3V0.5H1.00002V0.200012Z" fill="#FBFBFB"/>
<path d="M50.5 0.100006H51.5V300.1H50.5V0.100006Z" fill="#F15B40"/>
<path opacity="0.04" d="M134.6 21.5C135.6 21.3 136.3 20.3 136.1 19.3C135.9 18.3 134.9 17.6 133.9 17.8C132.9 18 132.2 19 132.4 20C132.6 21 133.5 21.7 134.6 21.5ZM134.8 37.4C135.4 37.3 135.7 36.8 135.6 36.2C135.5 35.6 135 35.3 134.4 35.4C133.8 35.5 133.5 36 133.6 36.6C133.7 37.2 134.2 37.5 134.8 37.4ZM103.6 111.2C104.5 111 105.2 110.1 105 109.2C104.8 108.3 103.9 107.6 103 107.8C102.1 108 101.4 108.9 101.6 109.8C101.7 110.8 102.6 111.4 103.6 111.2ZM138.9 22.6C139.4 22.5 139.7 22.1 139.6 21.6C139.5 21.1 139.1 20.8 138.6 20.9C138.1 21 137.8 21.4 137.9 21.9C138 22.3 138.5 22.6 138.9 22.6ZM124.1 225.4C124.3 226.4 125.2 227 126.2 226.8C127.2 226.6 127.8 225.7 127.6 224.7C127.4 223.7 126.5 223.1 125.5 223.3C124.6 223.5 123.9 224.4 124.1 225.4ZM141.5 30.6C142.3 30.5 142.8 29.7 142.7 28.9C142.6 28.1 141.8 27.6 141 27.7C140.2 27.8 139.7 28.6 139.8 29.4C139.9 30.2 140.7 30.8 141.5 30.6ZM127.1 71.9C126 72.1 125.3 73.2 125.5 74.3C125.7 75.4 126.8 76.1 127.9 75.9C129 75.7 129.7 74.6 129.5 73.5C129.3 72.5 128.2 71.7 127.1 71.9ZM133.7 31.8C134.9 31.6 135.7 30.4 135.5 29.2C135.3 28 134.1 27.2 132.9 27.4C131.7 27.6 130.9 28.8 131.1 30C131.3 31.2 132.4 32 133.7 31.8ZM153.3 107.7C154.2 107.5 154.7 106.7 154.6 105.8C154.4 104.9 153.6 104.4 152.7 104.5C151.8 104.7 151.3 105.5 151.4 106.4C151.6 107.3 152.4 107.8 153.3 107.7ZM127 180.4C128 180.2 128.7 179.2 128.5 178.2C128.3 177.2 127.3 176.5 126.3 176.7C125.3 176.9 124.6 177.9 124.8 178.9C125 179.9 126 180.6 127 180.4ZM149.4 15.9C149.8 15.8 150.1 15.4 150 15C149.9 14.6 149.5 14.3 149.1 14.4C148.7 14.5 148.4 14.9 148.5 15.3C148.6 15.7 149 16 149.4 15.9ZM150.3 88.4C150.4 88.9 150.8 89.2 151.3 89.1C151.8 89 152.1 88.6 152 88.1C151.9 87.6 151.5 87.3 151 87.4C150.5 87.5 150.2 87.9 150.3 88.4ZM151.3 176.9C151.8 176.8 152.1 176.4 152 175.9C151.9 175.4 151.5 175.1 151 175.2C150.5 175.3 150.2 175.7 150.3 176.2C150.4 176.7 150.8 177 151.3 176.9ZM149.6 47.5C150.3 47.4 150.8 46.7 150.7 46C150.6 45.3 149.9 44.8 149.2 44.9C148.5 45 148 45.7 148.1 46.4C148.2 47.1 148.9 47.6 149.6 47.5ZM145.3 37.3C145.9 37.2 146.3 36.6 146.2 36.1C146.1 35.5 145.5 35.1 145 35.2C144.4 35.3 144 35.9 144.1 36.4C144.1 37.1 144.7 37.4 145.3 37.3ZM141.6 58.6C141.8 59.4 142.5 60 143.4 59.8C144.2 59.6 144.8 58.9 144.6 58C144.4 57.2 143.7 56.6 142.8 56.8C142 56.9 141.5 57.7 141.6 58.6ZM144.7 86.6C144.9 87.6 145.9 88.3 146.9 88.1C147.9 87.9 148.6 86.9 148.4 85.9C148.2 84.9 147.2 84.2 146.2 84.4C145.2 84.6 144.5 85.5 144.7 86.6ZM116.7 98.4C116.8 98.8 117.2 99.1 117.5 99C117.9 98.9 118.2 98.5 118.1 98.2C118 97.8 117.6 97.5 117.3 97.6C116.9 97.7 116.6 98 116.7 98.4ZM117.8 149.8C117.7 149.2 117.1 148.8 116.5 148.9C115.9 149 115.5 149.6 115.6 150.2C115.7 150.8 116.3 151.2 116.9 151.1C117.5 151 117.9 150.4 117.8 149.8ZM114.8 186.4C113.7 186.6 113 187.7 113.2 188.8C113.4 189.9 114.5 190.6 115.6 190.4C116.7 190.2 117.4 189.1 117.2 188C117 186.9 115.9 186.1 114.8 186.4ZM114.4 84.7C114.5 85.3 115.1 85.8 115.8 85.7C116.4 85.6 116.9 85 116.8 84.3C116.7 83.7 116.1 83.2 115.4 83.3C114.7 83.5 114.3 84.1 114.4 84.7ZM148.4 173.7C148.2 172.7 147.2 172 146.2 172.2C145.2 172.4 144.5 173.4 144.7 174.4C144.9 175.4 145.9 176.1 146.9 175.9C147.9 175.7 148.6 174.7 148.4 173.7ZM114.4 172.5C114.5 173.1 115.1 173.6 115.8 173.5C116.4 173.4 116.9 172.8 116.8 172.1C116.7 171.5 116.1 171 115.4 171.1C114.7 171.3 114.3 171.9 114.4 172.5ZM116.5 61.1C115.9 61.2 115.5 61.8 115.6 62.4C115.7 63 116.3 63.4 116.9 63.3C117.5 63.2 117.9 62.6 117.8 62C117.7 61.4 117.1 61 116.5 61.1ZM113.1 130.9C113.7 130.8 114.2 130.2 114.1 129.5C114 128.9 113.4 128.4 112.7 128.5C112.1 128.6 111.6 129.2 111.7 129.9C111.8 130.6 112.4 131 113.1 130.9ZM113.1 43.1C113.7 43 114.2 42.4 114.1 41.7C114 41.1 113.4 40.6 112.7 40.7C112.1 40.8 111.6 41.4 111.7 42.1C111.8 42.8 112.4 43.2 113.1 43.1ZM114.6 26.1C115.6 25.9 116.3 24.9 116.1 23.9C115.9 22.9 114.9 22.2 113.9 22.4C112.9 22.6 112.2 23.6 112.4 24.6C112.6 25.6 113.6 26.2 114.6 26.1ZM128.5 90.4C128.3 89.4 127.3 88.7 126.3 88.9C125.3 89.1 124.6 90.1 124.8 91.1C125 92.1 126 92.8 127 92.6C128 92.4 128.7 91.4 128.5 90.4ZM127.9 256.9C129 256.7 129.7 255.6 129.5 254.5C129.3 253.4 128.2 252.7 127.1 252.9C126 253.1 125.3 254.2 125.5 255.3C125.7 256.4 126.8 257.1 127.9 256.9ZM125.6 130.2C124.6 130.4 124 131.3 124.2 132.3C124.4 133.3 125.3 133.9 126.3 133.7C127.3 133.5 127.9 132.6 127.7 131.6C127.5 130.6 126.5 130 125.6 130.2ZM129.5 161.4C129.3 160.3 128.2 159.6 127.1 159.8C126 160 125.3 161.1 125.5 162.2C125.7 163.3 126.8 164 127.9 163.8C129 163.6 129.7 162.5 129.5 161.4ZM126.4 108.2C126.3 107.6 125.7 107.1 125 107.2C124.4 107.3 123.9 107.9 124 108.6C124.1 109.2 124.7 109.7 125.4 109.6C126 109.5 126.5 108.9 126.4 108.2ZM115.5 9.39999C116.6 9.19999 117.3 8.1 117.1 7C116.9 5.9 115.8 5.19999 114.7 5.39999C113.6 5.59999 112.9 6.69999 113.1 7.79999C113.4 8.89999 114.4 9.59999 115.5 9.39999ZM124.8 24.2C125.2 24.1 125.5 23.7 125.4 23.3C125.3 22.9 124.9 22.6 124.5 22.6C124.1 22.7 123.8 23.1 123.9 23.5C123.9 24 124.4 24.2 124.8 24.2ZM124.1 44.5C124.3 45.5 125.2 46.1 126.2 45.9C127.2 45.7 127.8 44.8 127.6 43.8C127.4 42.8 126.5 42.2 125.5 42.4C124.6 42.6 123.9 43.5 124.1 44.5ZM135.3 44.2C134.4 44.4 133.7 45.3 133.9 46.2C134.1 47.1 135 47.8 135.9 47.6C136.8 47.4 137.5 46.5 137.3 45.6C137.2 44.6 136.3 44 135.3 44.2ZM134.4 216.4C133.8 216.5 133.5 217 133.6 217.6C133.7 218.2 134.2 218.5 134.8 218.4C135.4 218.3 135.7 217.8 135.6 217.2C135.5 216.6 135 216.3 134.4 216.4ZM142.2 127.1C142 126.2 141.2 125.7 140.3 125.8C139.4 126 138.9 126.8 139 127.7C139.2 128.6 140 129.1 140.9 129C141.8 128.8 142.4 128 142.2 127.1ZM148.5 196.2C148.6 196.6 149 196.9 149.4 196.8C149.8 196.7 150.1 196.3 150 195.9C149.9 195.5 149.5 195.2 149.1 195.3C148.7 195.4 148.5 195.8 148.5 196.2ZM150.7 133.7C150.6 133 149.9 132.5 149.2 132.6C148.5 132.7 148 133.4 148.1 134.1C148.2 134.8 148.9 135.3 149.6 135.2C150.3 135.1 150.8 134.5 150.7 133.7ZM133.6 124.4C133.7 125 134.2 125.3 134.8 125.2C135.4 125.1 135.7 124.6 135.6 124C135.5 123.4 135 123.1 134.4 123.2C133.9 123.3 133.5 123.9 133.6 124.4ZM133.9 162.4C134.5 162.3 134.9 161.7 134.8 161.1C134.7 160.5 134.1 160.1 133.5 160.2C132.9 160.3 132.5 160.9 132.6 161.5C132.7 162.1 133.3 162.5 133.9 162.4ZM137.3 133.4C137.1 132.5 136.2 131.8 135.3 132C134.4 132.2 133.7 133.1 133.9 134C134.1 134.9 135 135.6 135.9 135.4C136.9 135.2 137.5 134.3 137.3 133.4ZM133.5 72.5C132.9 72.6 132.5 73.2 132.6 73.8C132.7 74.4 133.3 74.8 133.9 74.7C134.5 74.6 134.9 74 134.8 73.4C134.6 72.8 134.1 72.4 133.5 72.5ZM153.8 97.1C154.6 97 155.1 96.2 155 95.4C154.9 94.6 154.1 94.1 153.3 94.2C152.5 94.3 152 95.1 152.1 95.9C152.2 96.8 153 97.3 153.8 97.1ZM136 200.3C135.8 199.3 134.8 198.6 133.8 198.8C132.8 199 132.1 200 132.3 201C132.5 202 133.5 202.7 134.5 202.5C135.6 202.3 136.2 201.3 136 200.3ZM157.3 191.1C156.6 191.2 156.1 191.9 156.2 192.6C156.3 193.3 157 193.8 157.7 193.7C158.4 193.6 158.9 192.9 158.8 192.2C158.7 191.5 158 191 157.3 191.1ZM159.1 159.8C158.9 158.8 158 158.2 157 158.4C156 158.6 155.4 159.5 155.6 160.5C155.8 161.5 156.7 162.1 157.7 161.9C158.6 161.6 159.2 160.7 159.1 159.8ZM157.2 24.7C158 24.6 158.5 23.8 158.3 23C158.2 22.2 157.4 21.7 156.6 21.9C155.8 22 155.3 22.8 155.5 23.6C155.7 24.3 156.4 24.9 157.2 24.7ZM162.4 81.5C162.3 81.1 161.9 80.8 161.5 80.9C161.1 81 160.8 81.4 160.9 81.8C161 82.2 161.4 82.5 161.8 82.4C162.2 82.3 162.5 81.9 162.4 81.5ZM159.1 71.9C158.9 70.9 158 70.3 157 70.5C156 70.7 155.4 71.6 155.6 72.6C155.8 73.6 156.7 74.2 157.7 74C158.6 73.8 159.2 72.9 159.1 71.9ZM157.7 12.8C158.4 12.7 158.9 12 158.8 11.3C158.7 10.6 158 10.1 157.3 10.2C156.6 10.3 156.1 11 156.2 11.7C156.3 12.4 157 12.9 157.7 12.8ZM156.4 103C156.5 103.6 157.1 104 157.6 103.8C158.2 103.7 158.6 103.1 158.5 102.6C158.4 102 157.8 101.6 157.3 101.7C156.7 101.9 156.3 102.4 156.4 103ZM160.5 146C160.3 145.1 159.5 144.6 158.7 144.7C157.8 144.9 157.3 145.7 157.4 146.5C157.6 147.4 158.4 147.9 159.2 147.8C160.1 147.7 160.7 146.9 160.5 146ZM136.2 90C136.3 90.4 136.7 90.7 137.1 90.7C137.5 90.6 137.8 90.2 137.7 89.8C137.6 89.4 137.2 89.1 136.8 89.1C136.4 89.2 136.1 89.6 136.2 90ZM143.4 147.6C144.2 147.4 144.8 146.7 144.6 145.8C144.4 145 143.7 144.4 142.8 144.6C142 144.8 141.4 145.5 141.6 146.4C141.8 147.2 142.6 147.7 143.4 147.6ZM140.9 222.1C141.8 221.9 142.3 221.1 142.2 220.2C142 219.3 141.2 218.8 140.3 218.9C139.4 219.1 138.9 219.9 139 220.8C139.2 221.7 140.1 222.2 140.9 222.1ZM146.8 101.9C146.2 102 145.9 102.5 146 103.1C146.1 103.7 146.6 104 147.2 103.9C147.8 103.8 148.1 103.3 148 102.7C147.9 102.2 147.3 101.8 146.8 101.9ZM140.8 138.5C140.3 138.6 140 139.1 140.1 139.5C140.2 140 140.7 140.3 141.1 140.2C141.6 140.1 141.9 139.6 141.8 139.2C141.8 138.8 141.3 138.4 140.8 138.5ZM146.3 112.7C146.5 113.6 147.4 114.3 148.3 114.1C149.2 113.9 149.9 113 149.7 112.1C149.5 111.2 148.6 110.5 147.7 110.7C146.7 110.9 146.1 111.8 146.3 112.7ZM145.3 218.3C145.9 218.2 146.3 217.6 146.2 217.1C146.1 216.5 145.5 216.1 145 216.2C144.4 216.3 144 216.9 144.1 217.4C144.1 218 144.7 218.4 145.3 218.3ZM145.2 93.9C144 94.1 143.2 95.3 143.4 96.5C143.6 97.7 144.8 98.5 146 98.3C147.2 98.1 148 96.9 147.8 95.7C147.6 94.5 146.4 93.7 145.2 93.9ZM144.9 123C144.3 123.1 143.9 123.7 144 124.2C144.1 124.8 144.7 125.2 145.2 125.1C145.8 125 146.2 124.4 146.1 123.9C146 123.3 145.5 122.9 144.9 123ZM142.6 209.8C142.5 209 141.7 208.5 140.9 208.6C140.1 208.7 139.6 209.5 139.7 210.3C139.8 211.1 140.6 211.6 141.4 211.5C142.3 211.4 142.8 210.6 142.6 209.8ZM138.9 203.5C139.4 203.4 139.7 203 139.6 202.5C139.5 202 139.1 201.7 138.6 201.8C138.1 201.9 137.8 202.3 137.9 202.8C138 203.3 138.5 203.6 138.9 203.5ZM140.8 50.7C140.3 50.8 140 51.3 140.1 51.7C140.2 52.2 140.7 52.5 141.1 52.4C141.6 52.3 141.9 51.8 141.8 51.4C141.8 51 141.3 50.6 140.8 50.7ZM138.3 57C137.1 57.2 136.3 58.4 136.5 59.6C136.7 60.8 137.9 61.6 139.1 61.4C140.3 61.2 141.1 60 140.9 58.8C140.8 57.6 139.6 56.8 138.3 57ZM140 110.3C139.8 109.3 138.9 108.7 137.9 108.9C136.9 109.1 136.3 110 136.5 111C136.7 112 137.6 112.6 138.6 112.4C139.5 112.3 140.2 111.3 140 110.3ZM142.2 39.3C142 38.4 141.2 37.9 140.3 38C139.4 38.2 138.9 39 139 39.9C139.2 40.8 140 41.3 140.9 41.2C141.8 41 142.4 40.1 142.2 39.3ZM139.2 149.3C140.4 149.1 141.2 147.9 141 146.7C140.8 145.5 139.6 144.7 138.4 144.9C137.2 145.1 136.4 146.3 136.6 147.5C136.8 148.7 137.9 149.5 139.2 149.3ZM137.1 178.5C137.5 178.4 137.8 178 137.7 177.6C137.6 177.2 137.2 176.9 136.8 176.9C136.4 177 136.1 177.4 136.1 177.8C136.3 178.3 136.7 178.6 137.1 178.5ZM146.9 269C147.9 268.8 148.6 267.8 148.4 266.8C148.2 265.8 147.2 265.1 146.2 265.3C145.2 265.5 144.5 266.5 144.7 267.5C144.9 268.5 145.9 269.2 146.9 269ZM84.7 161.7C85.2 161.6 85.5 161.1 85.4 160.6C85.3 160.1 84.8 159.8 84.3 159.9C83.8 160 83.5 160.5 83.6 161C83.7 161.4 84.2 161.8 84.7 161.7ZM53.1 80.4C53.3 81.4 54.2 82 55.2 81.8C56.2 81.6 56.8 80.7 56.6 79.8C56.4 78.8 55.5 78.2 54.5 78.4C53.5 78.6 52.9 79.5 53.1 80.4ZM55.7 107.1C55.1 107.2 54.7 107.8 54.8 108.4C54.9 109 55.5 109.4 56.1 109.3C56.7 109.2 57.1 108.6 57 108C56.8 107.4 56.3 107 55.7 107.1ZM55.1 111.7C55.7 111.6 56.1 111 56 110.5C55.9 109.9 55.3 109.5 54.8 109.6C54.2 109.7 53.8 110.3 54 110.8C54 111.4 54.5 111.8 55.1 111.7ZM57.7 63.8C57.5 62.6 56.3 61.8 55.1 62C53.9 62.2 53.1 63.4 53.3 64.6C53.5 65.5 54.1 66.1 55 66.4C55 66.5 55 66.6 55 66.7C55.2 67.6 56 68.1 56.8 68C57.7 67.8 58.2 67 58.1 66.2C58 65.8 57.8 65.5 57.6 65.3C57.7 64.7 57.8 64.3 57.7 63.8ZM68.6 34.6C69.8 34.4 70.6 33.2 70.4 31.9C70.2 30.7 69 29.9 67.7 30.1C66.5 30.3 65.7 31.5 65.9 32.8C66.2 34 67.4 34.8 68.6 34.6ZM54.6 142.4C54.8 143.4 55.8 144.1 56.8 143.9C57.8 143.7 58.5 142.7 58.3 141.7C58.1 140.7 57.1 140 56.1 140.2C55.1 140.4 54.4 141.4 54.6 142.4ZM59.9 177.2C59.8 176.8 59.4 176.5 59 176.6C58.6 176.7 58.3 177.1 58.4 177.5C58.5 177.9 58.9 178.2 59.3 178.1C59.7 178 60 177.6 59.9 177.2ZM59.5 232.8C60.3 232.7 60.8 231.9 60.7 231.1C60.6 230.3 59.8 229.8 59 229.9C58.2 230 57.7 230.8 57.8 231.6C58 232.4 58.7 232.9 59.5 232.8ZM63.7 110.1C63.8 110.5 64.1 110.7 64.5 110.6C64.9 110.5 65.1 110.2 65 109.8C64.9 109.4 64.6 109.2 64.2 109.3C63.9 109.4 63.7 109.7 63.7 110.1ZM64.4 161.7C64.2 160.8 63.4 160.3 62.5 160.4C61.6 160.6 61.1 161.4 61.2 162.3C61.4 163.2 62.2 163.7 63.1 163.6C64 163.4 64.6 162.5 64.4 161.7ZM60.7 137.9C60.6 137.1 59.8 136.6 59 136.7C58.2 136.8 57.7 137.6 57.8 138.4C57.9 139.2 58.7 139.7 59.5 139.6C60.3 139.5 60.9 138.7 60.7 137.9ZM54.8 198.9C54.1 199 53.6 199.7 53.7 200.4C53.8 201.1 54.5 201.6 55.2 201.5C55.9 201.4 56.4 200.7 56.3 200C56.2 199.3 55.5 198.8 54.8 198.9ZM62.6 253.5C61.7 253.7 61.2 254.5 61.3 255.4C61.5 256.3 62.3 256.8 63.2 256.7C64.1 256.5 64.6 255.7 64.5 254.8C64.3 254 63.4 253.4 62.6 253.5ZM66 66.2C66.5 66.1 66.8 65.6 66.7 65.1C66.6 64.6 66.1 64.3 65.6 64.4C65.1 64.5 64.8 65 64.9 65.5C65 65.9 65.5 66.3 66 66.2ZM56.6 167.6C56.4 166.6 55.5 166 54.5 166.2C53.5 166.4 52.9 167.3 53.1 168.3C53.3 169.3 54.2 169.9 55.2 169.7C56.1 169.5 56.7 168.5 56.6 167.6ZM58.7 94.2C58.9 95.4 60.1 96.2 61.3 96C62.5 95.8 63.3 94.6 63.1 93.4C62.9 92.2 61.7 91.4 60.5 91.6C59.3 91.8 58.5 93 58.7 94.2ZM63.1 75.7C64 75.5 64.5 74.7 64.4 73.8C64.2 72.9 63.4 72.4 62.5 72.5C61.6 72.7 61.1 73.5 61.2 74.4C61.4 75.3 62.3 75.9 63.1 75.7ZM58 153.9C57.9 153.5 57.7 153.2 57.5 153C57.7 152.6 57.8 152.1 57.7 151.6C57.5 150.4 56.3 149.6 55.1 149.8C53.9 150 53.1 151.2 53.3 152.4C53.5 153.3 54.1 153.9 55 154.2C55 154.3 55 154.4 55 154.5C55.2 155.4 56 155.9 56.8 155.8C57.6 155.5 58.2 154.7 58 153.9ZM46.9 204.7C47.3 204.6 47.6 204.2 47.5 203.8C47.4 203.4 47 203.1 46.6 203.2C46.2 203.3 45.9 203.7 46 204.1C46.1 204.5 46.5 204.7 46.9 204.7ZM104.4 119.7C104.5 120.1 104.9 120.4 105.2 120.3C105.6 120.2 105.9 119.8 105.8 119.5C105.7 119.1 105.3 118.8 105 118.9C104.6 118.9 104.3 119.3 104.4 119.7ZM48.4 80.5C49.4 80.3 50 79.4 49.8 78.4C49.6 77.4 48.7 76.8 47.7 77C46.7 77.2 46.1 78.1 46.3 79.1C46.5 80 47.4 80.7 48.4 80.5ZM49 210.5C50.2 210.3 51 209.1 50.8 207.9C50.6 206.7 49.4 205.9 48.2 206.1C47 206.3 46.2 207.5 46.4 208.7C46.6 209.9 47.8 210.7 49 210.5ZM51.7 108.2C51.5 107.1 50.4 106.4 49.3 106.6C48.2 106.8 47.5 107.9 47.7 109C47.9 110.1 49 110.8 50.1 110.6C51.2 110.3 51.9 109.3 51.7 108.2ZM52.5 103.3C52.4 102.5 51.6 102 50.8 102.1C50 102.2 49.5 103 49.6 103.8C49.7 104.6 50.5 105.1 51.3 105C52.1 104.8 52.6 104.1 52.5 103.3ZM47.6 57.8C47.5 57.4 47.1 57.1 46.7 57.2C46.3 57.3 46 57.7 46.1 58.1C46.2 58.5 46.6 58.8 47 58.8C47.4 58.7 47.7 58.3 47.6 57.8ZM48.5 95.2C48 95.3 47.7 95.7 47.8 96.2C47.9 96.7 48.3 97 48.8 96.9C49.3 96.8 49.6 96.4 49.5 95.9C49.4 95.5 48.9 95.2 48.5 95.2ZM50.8 9.20001C51.7 9.00001 52.2 8.19999 52.1 7.29999C51.9 6.39999 51.1 5.9 50.2 6C49.3 6.2 48.8 6.99999 48.9 7.89999C49.1 8.79999 49.9 9.40001 50.8 9.20001ZM54.6 54.6C54.8 55.6 55.8 56.3 56.8 56.1C57.8 55.9 58.5 54.9 58.3 53.9C58.1 52.9 57.1 52.2 56.1 52.4C55.1 52.6 54.4 53.6 54.6 54.6ZM55.2 20.6C55.9 20.5 56.4 19.8 56.3 19.1C56.2 18.4 55.5 17.9 54.8 18C54.1 18.1 53.6 18.8 53.7 19.5C53.8 20.3 54.5 20.8 55.2 20.6ZM59.5 51.8C60.3 51.7 60.8 50.9 60.7 50.1C60.6 49.3 59.8 48.8 59 48.9C58.2 49 57.7 49.8 57.8 50.6C58 51.5 58.7 52 59.5 51.8ZM54.7 32.6C55.5 32.5 56 31.7 55.8 30.9C55.7 30.1 54.9 29.6 54.1 29.8C53.3 29.9 52.8 30.7 53 31.5C53.1 32.2 53.9 32.7 54.7 32.6ZM59.3 90.2C59.7 90.1 60 89.7 59.9 89.3C59.8 88.9 59.4 88.6 59 88.7C58.6 88.8 58.3 89.2 58.4 89.6C58.5 90 58.9 90.3 59.3 90.2ZM46.7 145C46.3 145.1 46 145.5 46.1 145.9C46.2 146.3 46.6 146.6 47 146.6C47.4 146.5 47.7 146.1 47.6 145.7C47.6 145.2 47.1 144.9 46.7 145ZM54.7 120.4C55.5 120.3 56 119.5 55.8 118.7C55.7 117.9 54.9 117.4 54.1 117.6C53.3 117.7 52.8 118.5 53 119.3C53.1 120 53.9 120.5 54.7 120.4ZM46.3 166.9C46.5 167.9 47.4 168.5 48.4 168.3C49.4 168.1 50 167.2 49.8 166.2C49.6 165.2 48.7 164.6 47.7 164.8C46.8 165 46.1 165.9 46.3 166.9ZM52.1 188.3C51.9 187.4 51.1 186.9 50.2 187C49.3 187.2 48.8 188 48.9 188.9C49.1 189.8 49.9 190.3 50.8 190.2C51.7 190 52.2 189.2 52.1 188.3ZM79.9 82.8C80.1 83.9 81.2 84.6 82.3 84.4C83.4 84.2 84.1 83.1 83.9 82C83.7 80.9 82.6 80.2 81.5 80.4C80.4 80.6 79.7 81.7 79.9 82.8ZM81.5 168.2C80.4 168.4 79.7 169.5 79.9 170.6C80.1 171.7 81.2 172.4 82.3 172.2C83.4 172 84.1 170.9 83.9 169.8C83.7 168.7 82.6 168 81.5 168.2ZM89.4 12.2C90 12.1 90.3 11.6 90.2 11C90.1 10.4 89.6 10.1 89 10.2C88.4 10.3 88.1 10.8 88.2 11.4C88.3 11.9 88.8 12.3 89.4 12.2ZM89.8 26C88.8 26.2 88.1 27.2 88.3 28.2C88.5 29.2 89.5 29.9 90.5 29.7C91.5 29.5 92.2 28.5 92 27.5C91.7 26.5 90.8 25.9 89.8 26ZM81.5 261.3C80.4 261.5 79.7 262.6 79.9 263.7C80.1 264.8 81.2 265.5 82.3 265.3C83.4 265.1 84.1 264 83.9 262.9C83.7 261.9 82.6 261.1 81.5 261.3ZM160.4 112.9C160.5 113.6 161.2 114.1 161.9 114C162.6 113.9 163.1 113.2 163 112.5C162.9 111.8 162.2 111.3 161.5 111.4C160.7 111.5 160.2 112.2 160.4 112.9ZM84.7 254.8C85.2 254.7 85.5 254.2 85.4 253.7C85.3 253.2 84.8 252.9 84.3 253C83.8 253.1 83.5 253.6 83.6 254.1C83.7 254.6 84.2 254.9 84.7 254.8ZM95.6 5.39999C96.2 5.29999 96.7 4.7 96.6 4C96.5 3.4 95.9 2.9 95.2 3C94.6 3.1 94.1 3.69999 94.2 4.39999C94.3 5.09999 94.9 5.49999 95.6 5.39999ZM101.7 166.5C102.3 166.4 102.6 165.9 102.5 165.3C102.4 164.7 101.9 164.4 101.3 164.5C100.7 164.6 100.4 165.1 100.5 165.7C100.6 166.3 101.2 166.6 101.7 166.5ZM79.2 242.7C78.7 242.8 78.3 243.3 78.4 243.8C78.5 244.3 79 244.7 79.5 244.6C80 244.5 80.4 244 80.3 243.5C80.2 243 79.7 242.6 79.2 242.7ZM106.8 165C106.7 164.3 106 163.8 105.2 163.9C104.5 164 104 164.7 104.1 165.5C104.2 166.2 104.9 166.7 105.7 166.6C106.5 166.4 107 165.7 106.8 165ZM102.1 199.2C102.2 199.9 102.8 200.3 103.5 200.2C104.1 200.1 104.6 199.5 104.5 198.8C104.4 198.1 103.8 197.7 103.1 197.8C102.4 197.9 102 198.5 102.1 199.2ZM106.8 77.2C106.7 76.5 106 76 105.2 76.1C104.5 76.2 104 76.9 104.1 77.7C104.2 78.4 104.9 78.9 105.7 78.8C106.5 78.6 107 77.9 106.8 77.2ZM105.2 213.4C105.6 213.3 105.9 212.9 105.8 212.6C105.7 212.2 105.3 211.9 105 212C104.6 212.1 104.3 212.5 104.4 212.8C104.4 213.2 104.8 213.5 105.2 213.4ZM101.7 78.7C102.3 78.6 102.6 78.1 102.5 77.5C102.4 76.9 101.9 76.6 101.3 76.7C100.7 76.8 100.4 77.3 100.5 77.9C100.6 78.5 101.2 78.8 101.7 78.7ZM103.5 19.2C104.1 19.1 104.6 18.5 104.5 17.8C104.4 17.1 103.8 16.7 103.1 16.8C102.4 16.9 102 17.5 102.1 18.2C102.2 18.9 102.8 19.3 103.5 19.2ZM105.2 32.5C105.6 32.4 105.9 32 105.8 31.7C105.7 31.3 105.3 31 105 31.1C104.6 31.2 104.3 31.6 104.4 31.9C104.4 32.3 104.8 32.6 105.2 32.5ZM84.4 72C83.9 72.1 83.6 72.6 83.7 73.1C83.8 73.6 84.3 73.9 84.8 73.8C85.3 73.7 85.6 73.2 85.5 72.7C85.4 72.3 84.9 71.9 84.4 72ZM67.8 117.9C66.6 118.1 65.8 119.3 66 120.6C66.2 121.8 67.4 122.6 68.7 122.4C69.9 122.2 70.7 121 70.5 119.7C70.2 118.5 69 117.7 67.8 117.9ZM72.4 188.3C72.9 188.2 73.2 187.7 73.1 187.2C73 186.7 72.5 186.4 72 186.5C71.5 186.6 71.2 187.1 71.3 187.6C71.4 188 71.9 188.4 72.4 188.3ZM64.9 153.2C65 153.7 65.5 154 66 153.9C66.5 153.8 66.8 153.3 66.7 152.8C66.6 152.3 66.1 152 65.6 152.1C65.1 152.2 64.8 152.7 64.9 153.2ZM67.1 84.5C66.4 84.6 65.9 85.3 66 86C66.1 86.7 66.8 87.2 67.5 87.1C68.2 87 68.7 86.3 68.6 85.6C68.5 84.9 67.8 84.4 67.1 84.5ZM65.3 97.9C65.4 98.7 66.2 99.2 67 99C67.8 98.9 68.3 98.1 68.1 97.3C68 96.5 67.2 96 66.4 96.2C65.7 96.4 65.2 97.2 65.3 97.9ZM67.6 175C68.3 174.9 68.8 174.2 68.7 173.5C68.6 172.8 67.9 172.3 67.2 172.4C66.5 172.5 66 173.2 66.1 173.9C66.2 174.6 66.9 175.1 67.6 175ZM72.4 7.29999C72.9 7.19999 73.2 6.70001 73.1 6.20001C73 5.70001 72.5 5.4 72 5.5C71.5 5.6 71.2 6.10001 71.3 6.60001C71.4 7.10001 71.9 7.39999 72.4 7.29999ZM72.4 138.4C73.2 138.2 73.8 137.5 73.6 136.6C73.4 135.8 72.6 135.2 71.8 135.4C71 135.6 70.4 136.4 70.6 137.2C70.7 138 71.5 138.6 72.4 138.4ZM79.2 149.6C78.7 149.7 78.3 150.2 78.4 150.7C78.5 151.2 79 151.6 79.5 151.5C80 151.4 80.4 150.9 80.3 150.4C80.2 149.8 79.7 149.5 79.2 149.6ZM69.2 194.8C68.1 195 67.4 196.1 67.6 197.2C67.8 198.3 68.9 199 70 198.8C71.1 198.6 71.8 197.5 71.6 196.4C71.3 195.3 70.3 194.6 69.2 194.8ZM84.7 117.1C85.5 116.9 86.1 116.2 85.9 115.3C85.7 114.5 84.9 113.9 84.1 114.1C83.3 114.3 82.7 115.1 82.9 115.9C83.1 116.8 83.9 117.3 84.7 117.1ZM81 101.1C82.2 100.9 83.1 99.7 82.8 98.5C82.6 97.3 81.4 96.5 80.1 96.7C78.9 96.9 78.1 98.1 78.3 99.4C78.5 100.5 79.7 101.3 81 101.1ZM79.2 61.8C78.7 61.9 78.3 62.4 78.4 62.9C78.5 63.4 79 63.8 79.5 63.7C80 63.6 80.4 63.1 80.3 62.6C80.2 62 79.7 61.7 79.2 61.8ZM69.9 17.9C71 17.7 71.7 16.6 71.5 15.5C71.3 14.4 70.2 13.7 69.1 13.9C68 14.1 67.3 15.2 67.5 16.3C67.7 17.4 68.8 18.1 69.9 17.9ZM71.8 47.6C71 47.8 70.4 48.6 70.6 49.4C70.8 50.2 71.5 50.8 72.4 50.6C73.2 50.4 73.8 49.7 73.6 48.8C73.4 48 72.6 47.5 71.8 47.6ZM79 126.9C79.7 126.8 80.1 126.1 80 125.5C79.9 124.8 79.2 124.4 78.6 124.5C77.9 124.6 77.5 125.3 77.6 125.9C77.7 126.6 78.4 127 79 126.9ZM79 39.1C79.7 39 80.1 38.3 80 37.7C79.9 37 79.2 36.6 78.6 36.7C77.9 36.8 77.5 37.5 77.6 38.1C77.7 38.8 78.4 39.2 79 39.1ZM245.7 161.5C246.6 161.3 247.3 160.4 247.1 159.5C246.9 158.6 246 157.9 245.1 158.1C244.2 158.3 243.5 159.2 243.7 160.1C243.9 161 244.8 161.6 245.7 161.5ZM248.7 136.5C249.2 136.4 249.5 136 249.4 135.5C249.3 135 248.9 134.7 248.4 134.8C247.9 134.9 247.6 135.3 247.7 135.8C247.8 136.2 248.2 136.5 248.7 136.5ZM252.4 142.8C252.3 142 251.5 141.5 250.7 141.6C249.9 141.7 249.4 142.5 249.5 143.3C249.6 144.1 250.4 144.6 251.2 144.5C252 144.4 252.5 143.6 252.4 142.8ZM251.6 77.5C251.5 77 251 76.7 250.6 76.8C250.5 76.8 250.4 76.9 250.3 76.9C249.9 76.6 249.4 76.4 248.8 76.5C247.8 76.7 247.1 77.7 247.3 78.7C247.5 79.7 248.5 80.4 249.5 80.2C250.3 80 250.9 79.4 251 78.6C251.4 78.5 251.7 78 251.6 77.5ZM247.2 166.5C247.4 167.5 248.4 168.2 249.4 168C250.2 167.8 250.8 167.2 250.9 166.4C251.4 166.3 251.7 165.8 251.6 165.4C251.5 164.9 251 164.6 250.6 164.7C250.5 164.7 250.4 164.8 250.3 164.8C249.9 164.5 249.4 164.3 248.8 164.4C247.7 164.5 247 165.5 247.2 166.5ZM253.8 243.5C253.9 244.1 254.5 244.5 255 244.3C255.6 244.2 256 243.6 255.9 243.1C255.8 242.5 255.2 242.1 254.7 242.2C254.1 242.4 253.7 242.9 253.8 243.5ZM241.7 141.4C242.9 141.2 243.7 140 243.5 138.8C243.3 137.6 242.1 136.8 240.9 137C239.7 137.2 238.9 138.4 239.1 139.6C239.3 140.8 240.4 141.6 241.7 141.4ZM245.9 88.7C246.1 89.9 247.3 90.7 248.5 90.5C249.7 90.3 250.5 89.1 250.3 87.9C250.1 86.7 248.9 85.9 247.7 86.1C246.5 86.3 245.7 87.5 245.9 88.7ZM241.1 104.6C242.1 104.4 242.7 103.5 242.5 102.5C242.3 101.5 241.4 100.9 240.4 101.1C239.4 101.3 238.8 102.2 239 103.2C239.2 104.1 240.1 104.8 241.1 104.6ZM244.5 151.3C245.1 151.2 245.4 150.7 245.3 150.1C245.2 149.5 244.7 149.2 244.1 149.3C243.5 149.4 243.2 149.9 243.3 150.5C243.4 151.1 244 151.5 244.5 151.3ZM245.1 70.3C244.2 70.5 243.5 71.4 243.7 72.3C243.9 73.2 244.8 73.9 245.7 73.7C246.6 73.5 247.3 72.6 247.1 71.7C246.9 70.7 246 70.1 245.1 70.3ZM264.4 150.2C264.8 150.1 265 149.8 264.9 149.4C264.8 149 264.5 148.8 264.1 148.9C263.7 149 263.5 149.3 263.6 149.7C263.7 150 264.1 150.2 264.4 150.2ZM257.8 72.5C257.9 73.2 258.6 73.7 259.3 73.6C260 73.5 260.5 72.8 260.4 72.1C260.3 71.4 259.6 70.9 258.9 71C258.1 71.1 257.7 71.8 257.8 72.5ZM256.6 19.6C257.5 19.4 258 18.6 257.9 17.8C257.7 16.9 256.9 16.4 256.1 16.5C255.2 16.7 254.7 17.5 254.8 18.3C255 19.2 255.8 19.8 256.6 19.6ZM256.5 212.5C256.3 211.5 255.4 210.9 254.4 211.1C253.4 211.3 252.8 212.2 253 213.1C253.2 214.1 254.1 214.7 255.1 214.5C256 214.3 256.6 213.4 256.5 212.5ZM264.4 62.4C264.8 62.3 265 62 264.9 61.6C264.8 61.2 264.5 61 264.1 61.1C263.7 61.2 263.5 61.5 263.6 61.9C263.7 62.2 264.1 62.4 264.4 62.4ZM259.8 128.9C259.7 128.5 259.3 128.2 258.9 128.3C258.5 128.4 258.2 128.8 258.3 129.2C258.4 129.6 258.8 129.9 259.2 129.8C259.6 129.7 259.9 129.3 259.8 128.9ZM259.8 41.1C259.7 40.7 259.3 40.4 258.9 40.5C258.5 40.6 258.2 41 258.3 41.4C258.4 41.8 258.8 42.1 259.2 42C259.6 41.9 259.9 41.5 259.8 41.1ZM257.8 160.3C257.9 161 258.6 161.5 259.3 161.4C260 161.3 260.5 160.6 260.4 159.9C260.3 159.2 259.6 158.7 258.9 158.8C258.1 158.9 257.7 159.6 257.8 160.3ZM253.2 173.7C254 173.5 254.6 172.8 254.4 171.9C254.2 171.1 253.5 170.5 252.6 170.7C251.8 170.9 251.2 171.6 251.4 172.5C251.5 173.3 252.3 173.8 253.2 173.7ZM265.9 17.9C266.4 17.8 266.7 17.3 266.6 16.8C266.5 16.3 266 16 265.5 16.1C265 16.2 264.7 16.7 264.8 17.2C264.9 17.7 265.4 18 265.9 17.9ZM255.9 150C255.8 149.4 255.2 149 254.7 149.1C254.1 149.2 253.7 149.8 253.8 150.3C253.9 150.9 254.5 151.3 255 151.1C255.6 151.1 256 150.6 255.9 150ZM256.5 119.3C256.3 118.3 255.4 117.7 254.4 117.9C253.4 118.1 252.8 119 253 119.9C253.2 120.9 254.1 121.5 255.1 121.3C256 121.2 256.6 120.3 256.5 119.3ZM251.2 237.6C252 237.5 252.5 236.7 252.4 235.9C252.3 235.1 251.5 234.6 250.7 234.7C249.9 234.8 249.4 235.6 249.5 236.4C249.6 237.3 250.4 237.8 251.2 237.6ZM257.1 98C256.9 97.1 256.1 96.6 255.2 96.7C254.3 96.9 253.8 97.7 253.9 98.6C254.1 99.5 254.9 100 255.8 99.9C256.7 99.7 257.2 98.8 257.1 98ZM255.1 33.6C256.1 33.4 256.7 32.5 256.5 31.6C256.3 30.6 255.4 30 254.4 30.2C253.4 30.4 252.8 31.3 253 32.2C253.2 33.1 254.1 33.7 255.1 33.6ZM255.9 62.2C255.8 61.6 255.2 61.2 254.7 61.3C254.1 61.4 253.7 62 253.8 62.5C253.9 63.1 254.5 63.5 255 63.3C255.6 63.3 256 62.8 255.9 62.2ZM250.3 175.7C250.1 174.5 248.9 173.7 247.7 173.9C246.5 174.1 245.7 175.3 245.9 176.5C246.1 177.7 247.3 178.5 248.5 178.3C249.8 178.1 250.6 176.9 250.3 175.7ZM243.4 214.2C244.3 214 244.8 213.2 244.7 212.3C244.5 211.4 243.7 210.9 242.8 211C241.9 211.2 241.4 212 241.5 212.9C241.8 213.8 242.6 214.4 243.4 214.2ZM157.4 58.8C157.6 59.7 158.4 60.2 159.2 60.1C160.1 59.9 160.6 59.1 160.5 58.3C160.3 57.4 159.5 56.9 158.7 57C157.8 57.1 157.2 57.9 157.4 58.8ZM238.7 82.2C238.8 82.6 239.2 82.9 239.6 82.9C240 82.8 240.3 82.4 240.2 82C240.1 81.6 239.7 81.3 239.3 81.3C238.9 81.3 238.6 81.8 238.7 82.2ZM239 199.1C239.2 199.9 239.9 200.5 240.8 200.3C241.6 200.1 242.2 199.4 242 198.5C241.8 197.7 241.1 197.1 240.2 197.3C239.4 197.4 238.9 198.2 239 199.1ZM251.4 84.7C251.6 85.5 252.3 86.1 253.2 85.9C254 85.7 254.6 85 254.4 84.1C254.2 83.3 253.5 82.7 252.6 82.9C251.8 83 251.2 83.8 251.4 84.7ZM247 188C247.7 187.9 248.2 187.2 248.1 186.5C248 185.8 247.3 185.3 246.6 185.4C245.9 185.5 245.4 186.2 245.5 186.9C245.6 187.6 246.3 188.1 247 188ZM248.7 229.6C249.2 229.5 249.5 229.1 249.4 228.6C249.3 228.1 248.9 227.8 248.4 227.9C247.9 228 247.6 228.4 247.7 228.9C247.8 229.4 248.2 229.7 248.7 229.6ZM46.4 27.7C46.6 28.9 47.8 29.7 49 29.5C50.2 29.3 51 28.1 50.8 26.9C50.6 25.7 49.4 24.9 48.2 25.1C47 25.3 46.2 26.5 46.4 27.7ZM242.9 118C242 118.2 241.5 119 241.6 119.9C241.8 120.8 242.6 121.3 243.5 121.2C244.4 121 244.9 120.2 244.8 119.3C244.6 118.4 243.7 117.8 242.9 118ZM243.5 51C243.3 49.8 242.1 49 240.9 49.2C239.7 49.4 238.9 50.6 239.1 51.8C239.3 53 240.5 53.8 241.7 53.6C242.9 53.4 243.7 52.2 243.5 51ZM282.2 217.1C283.3 216.9 284 215.8 283.8 214.7C283.6 213.6 282.5 212.9 281.4 213.1C280.3 213.3 279.6 214.4 279.8 215.5C280 216.6 281.1 217.3 282.2 217.1ZM284.6 206.5C285.1 206.4 285.4 205.9 285.3 205.4C285.2 204.9 284.7 204.6 284.2 204.7C283.7 204.8 283.4 205.3 283.5 205.8C283.6 206.3 284.1 206.6 284.6 206.5ZM280.9 140.6C282.1 140.4 283 139.2 282.7 138C282.5 136.8 281.3 136 280 136.2C278.8 136.4 278 137.6 278.2 138.8C278.5 140.1 279.6 140.9 280.9 140.6ZM278.3 195.6C278.4 196.1 278.9 196.5 279.4 196.4C279.9 196.3 280.3 195.8 280.2 195.3C280.1 194.8 279.6 194.4 279.1 194.5C278.6 194.6 278.2 195.1 278.3 195.6ZM284.1 153.7C283.3 153.9 282.7 154.7 282.9 155.5C283.1 156.3 283.8 156.9 284.7 156.7C285.5 156.5 286.1 155.7 285.9 154.9C285.7 154.1 284.9 153.5 284.1 153.7ZM285.9 202.5C285.8 201.7 285 201.2 284.2 201.3C283.4 201.4 282.9 202.2 283 203C283.1 203.8 283.9 204.3 284.7 204.2C285.5 204.1 286.1 203.3 285.9 202.5ZM281.4 119.9C280.3 120.1 279.6 121.2 279.8 122.3C280 123.4 281.1 124.1 282.2 123.9C283.3 123.7 284 122.6 283.8 121.5C283.6 120.5 282.5 119.7 281.4 119.9ZM284.7 23.3C285.5 23.2 286 22.4 285.9 21.6C285.8 20.8 285 20.3 284.2 20.4C283.4 20.5 282.9 21.3 283 22.1C283.2 22.9 283.9 23.4 284.7 23.3ZM296.6 16.5C297.7 16.3 298.5 15.2 298.3 14.1C298.1 13 297 12.2 295.9 12.4C294.8 12.6 294 13.7 294.2 14.8C294.4 15.9 295.5 16.7 296.6 16.5ZM295.4 176.4C295.5 177.2 296.3 177.7 297.1 177.6C297.9 177.5 298.4 176.7 298.3 175.9C298.2 175.1 297.4 174.6 296.6 174.7C295.7 174.9 295.2 175.6 295.4 176.4ZM297.1 89.8C297.9 89.7 298.4 88.9 298.3 88.1C298.2 87.3 297.4 86.8 296.6 86.9C295.8 87 295.3 87.8 295.4 88.6C295.5 89.4 296.3 89.9 297.1 89.8ZM291.2 214.1C291.7 214 292 213.5 291.9 213.1C291.8 212.6 291.3 212.3 290.9 212.4C290.4 212.5 290.1 213 290.2 213.4C290.3 213.9 290.7 214.2 291.2 214.1ZM291.2 33.1C291.7 33 292 32.5 291.9 32.1C291.8 31.6 291.3 31.3 290.9 31.4C290.4 31.5 290.1 32 290.2 32.4C290.3 32.9 290.7 33.2 291.2 33.1ZM265.9 37.8C266 38.5 266.7 39 267.4 38.9C268.1 38.8 268.6 38.1 268.5 37.4C268.4 36.7 267.7 36.2 267 36.3C266.3 36.4 265.8 37.1 265.9 37.8ZM291.3 145.2C292 145.1 292.4 144.4 292.3 143.8C292.2 143.1 291.5 142.7 290.9 142.8C290.2 142.9 289.8 143.6 289.9 144.2C290 144.9 290.6 145.3 291.3 145.2ZM291.2 121C291.7 120.9 292 120.4 291.9 120C291.8 119.5 291.3 119.2 290.9 119.3C290.4 119.4 290.1 119.9 290.2 120.3C290.3 120.7 290.7 121 291.2 121ZM291.3 57.4C292 57.3 292.4 56.6 292.3 56C292.2 55.3 291.5 54.9 290.9 55C290.2 55.1 289.8 55.8 289.9 56.4C290 57.1 290.6 57.5 291.3 57.4ZM284.6 68.9C285.4 68.7 286 67.9 285.8 67.1C285.6 66.3 284.8 65.7 284 65.9C283.2 66.1 282.6 66.9 282.8 67.7C283 68.5 283.8 69 284.6 68.9ZM267 124.1C266.3 124.2 265.8 124.9 265.9 125.6C266 126.3 266.7 126.8 267.4 126.7C268.1 126.6 268.6 125.9 268.5 125.2C268.4 124.4 267.7 123.9 267 124.1ZM268 49.2C267.9 48.4 267.1 47.9 266.3 48.1C265.5 48.2 265 49 265.2 49.8C265.3 50.6 266.1 51.1 266.9 50.9C267.7 50.7 268.2 49.9 268 49.2ZM268.8 98C268.6 97 267.7 96.4 266.7 96.6C265.7 96.8 265.1 97.7 265.3 98.7C265.5 99.7 266.4 100.3 267.4 100.1C268.4 99.9 269 99 268.8 98ZM265.3 137.5C265.4 138.3 266.2 138.8 267 138.6C267.8 138.5 268.3 137.7 268.1 136.9C268 136.1 267.2 135.6 266.4 135.8C265.6 136 265.1 136.7 265.3 137.5ZM271.7 180.3C270.9 180.5 270.3 181.2 270.5 182.1C270.7 182.9 271.5 183.5 272.3 183.3C273.1 183.1 273.7 182.4 273.5 181.5C273.3 180.7 272.5 180.1 271.7 180.3ZM265.9 218.8C266 219.5 266.7 220 267.4 219.9C268.1 219.8 268.6 219.1 268.5 218.4C268.4 217.7 267.7 217.2 267 217.3C266.3 217.3 265.8 218 265.9 218.8ZM267.1 84.9C267.3 85.8 268.1 86.3 268.9 86.2C269.8 86 270.3 85.2 270.2 84.4C270 83.5 269.2 83 268.4 83.1C267.6 83.2 267 84 267.1 84.9ZM269 174C269.9 173.8 270.4 173 270.3 172.2C270.1 171.3 269.3 170.8 268.5 170.9C267.6 171.1 267.1 171.9 267.2 172.7C267.3 173.5 268.1 174.1 269 174ZM278.2 172.2C278.7 172.1 279 171.6 278.9 171.1C278.8 170.6 278.3 170.3 277.8 170.4C277.3 170.5 277 171 277.1 171.5C277.3 172 277.7 172.3 278.2 172.2ZM279.4 15.4C279.9 15.3 280.3 14.8 280.2 14.3C280.1 13.8 279.6 13.4 279.1 13.5C278.6 13.6 278.2 14.1 278.3 14.6C278.4 15.1 278.9 15.5 279.4 15.4ZM271.3 155C270.5 155.1 270 155.9 270.1 156.7C270.2 157.5 271 158 271.8 157.9C272.6 157.8 273.1 157 273 156.2C272.8 155.4 272.1 154.9 271.3 155ZM279.8 34.5C280 35.6 281.1 36.3 282.2 36.1C283.3 35.9 284 34.8 283.8 33.7C283.6 32.6 282.5 31.9 281.4 32.1C280.3 32.3 279.6 33.4 279.8 34.5ZM278.2 84.4C278.7 84.3 279 83.8 278.9 83.3C278.8 82.8 278.3 82.5 277.8 82.6C277.3 82.7 277 83.2 277.1 83.7C277.3 84.2 277.7 84.5 278.2 84.4ZM280.9 52.8C282.1 52.6 283 51.4 282.7 50.2C282.5 49 281.3 48.2 280 48.4C278.8 48.6 278 49.8 278.2 51C278.5 52.3 279.6 53.1 280.9 52.8ZM271.8 70.1C272.6 70 273.1 69.2 273 68.4C272.9 67.6 272.1 67.1 271.3 67.2C270.5 67.3 270 68.1 270.1 68.9C270.2 69.7 271 70.2 271.8 70.1ZM272.3 2.39999C273.1 2.19999 273.7 1.50001 273.5 0.600006C273.5 0.400006 273.4 0.300012 273.3 0.200012H270.6C270.4 0.500012 270.4 0.800012 270.4 1.20001C270.6 2.00001 271.4 2.49999 272.3 2.39999ZM285.4 24.5C285.3 24 284.8 23.7 284.3 23.8C283.8 23.9 283.5 24.4 283.6 24.9C283.7 25.4 284.2 25.7 284.7 25.6C285.1 25.5 285.5 25 285.4 24.5ZM239.7 170.7C240.1 170.6 240.4 170.2 240.3 169.8C240.2 169.4 239.8 169.1 239.4 169.1C239 169.2 238.7 169.6 238.8 170C238.8 170.4 239.2 170.7 239.7 170.7ZM187.2 247C187.7 246.9 188 246.4 187.9 245.9C187.8 245.4 187.3 245.1 186.8 245.2C186.3 245.3 186 245.8 186.1 246.3C186.2 246.7 186.7 247 187.2 247ZM184 160.4C182.9 160.6 182.2 161.7 182.4 162.8C182.6 163.9 183.7 164.6 184.8 164.4C185.9 164.2 186.6 163.1 186.4 162C186.2 160.9 185.1 160.2 184 160.4ZM186.9 64.2C186.4 64.3 186.1 64.8 186.2 65.3C186.3 65.8 186.8 66.1 187.3 66C187.8 65.9 188.1 65.4 188 64.9C187.9 64.4 187.4 64.1 186.9 64.2ZM187.2 153.8C187.7 153.7 188 153.2 187.9 152.7C187.8 152.2 187.3 151.9 186.8 152C186.3 152.1 186 152.6 186.1 153.1C186.2 153.6 186.7 153.9 187.2 153.8ZM184 253.5C182.9 253.7 182.2 254.8 182.4 255.9C182.6 257 183.7 257.7 184.8 257.5C185.9 257.3 186.6 256.2 186.4 255.1C186.2 254 185.1 253.3 184 253.5ZM187.2 109.3C188 109.1 188.6 108.4 188.4 107.5C188.2 106.7 187.4 106.1 186.6 106.3C185.8 106.5 185.2 107.3 185.4 108.1C185.6 108.9 186.4 109.5 187.2 109.3ZM183.5 93.3C184.7 93.1 185.6 91.9 185.3 90.7C185.1 89.5 183.9 88.6 182.6 88.9C181.4 89.1 180.6 90.3 180.8 91.5C181.1 92.7 182.2 93.5 183.5 93.3ZM182.8 142.5C182.7 142 182.2 141.6 181.7 141.7C181.2 141.8 180.8 142.3 180.9 142.8C181 143.3 181.5 143.7 182 143.6C182.5 143.5 182.9 143 182.8 142.5ZM182.6 176.6C181.4 176.8 180.6 178 180.8 179.2C181 180.4 182.2 181.2 183.4 181C184.6 180.8 185.5 179.6 185.2 178.4C185.1 177.2 183.9 176.4 182.6 176.6ZM209.3 157.1C209.2 156.4 208.5 155.9 207.7 156C207 156.1 206.5 156.8 206.6 157.6C206.7 158.3 207.4 158.8 208.2 158.7C209 158.6 209.5 157.9 209.3 157.1ZM207.7 24.7C208.1 24.6 208.4 24.2 208.3 23.9C208.2 23.5 207.8 23.2 207.5 23.3C207.1 23.4 206.8 23.8 206.9 24.1C206.9 24.5 207.3 24.7 207.7 24.7ZM182.4 74.9C182.6 76 183.7 76.7 184.8 76.5C185.9 76.3 186.6 75.2 186.4 74.1C186.2 73 185.1 72.3 184 72.5C182.9 72.8 182.2 73.8 182.4 74.9ZM206 11.3C206.6 11.2 207.1 10.6 207 9.89999C206.9 9.29999 206.3 8.79999 205.6 8.89999C205 8.99999 204.5 9.59999 204.6 10.3C204.7 11 205.3 11.5 206 11.3ZM209.3 69.3C209.2 68.6 208.5 68.1 207.7 68.2C207 68.3 206.5 69 206.6 69.8C206.7 70.5 207.4 71 208.2 70.9C209 70.8 209.5 70.1 209.3 69.3ZM204.2 70.9C204.8 70.8 205.1 70.3 205 69.7C204.9 69.1 204.4 68.8 203.8 68.9C203.2 69 202.9 69.5 203 70.1C203.2 70.6 203.7 71 204.2 70.9ZM191.9 4.39999C192.5 4.29999 192.8 3.80001 192.7 3.20001C192.6 2.60001 192.1 2.29999 191.5 2.39999C190.9 2.49999 190.6 3.00001 190.7 3.60001C190.8 4.10001 191.3 4.49999 191.9 4.39999ZM192.3 18.2C191.3 18.4 190.6 19.4 190.8 20.4C191 21.4 192 22.1 193 21.9C194 21.7 194.7 20.7 194.5 19.7C194.2 18.7 193.3 18 192.3 18.2ZM204.2 158.7C204.8 158.6 205.1 158.1 205 157.5C204.9 156.9 204.4 156.6 203.8 156.7C203.2 156.8 202.9 157.3 203 157.9C203.2 158.4 203.7 158.8 204.2 158.7ZM181.7 234.9C181.2 235 180.8 235.5 180.9 236C181 236.5 181.5 236.9 182 236.8C182.5 236.7 182.9 236.2 182.8 235.7C182.7 235.1 182.2 234.8 181.7 234.9ZM167.4 145.4C167.5 145.9 168 146.2 168.5 146.1C169 146 169.3 145.5 169.2 145C169.1 144.5 168.6 144.2 168.1 144.3C167.7 144.4 167.3 144.9 167.4 145.4ZM181.7 54C181.2 54.1 180.8 54.6 180.9 55.1C181 55.6 181.5 56 182 55.9C182.5 55.8 182.9 55.3 182.8 54.8C182.7 54.2 182.2 53.9 181.7 54ZM174.9 130.6C175.7 130.4 176.3 129.7 176.1 128.8C175.9 128 175.1 127.4 174.3 127.6C173.5 127.8 172.9 128.5 173.1 129.4C173.2 130.2 174 130.7 174.9 130.6ZM169.5 179C170.3 178.9 170.8 178.1 170.6 177.3C170.5 176.5 169.7 176 168.9 176.2C168.1 176.3 167.6 177.1 167.8 177.9C168 178.7 168.7 179.2 169.5 179ZM173.9 107.6C173.1 107.7 172.6 108.5 172.7 109.3C172.8 110.1 173.6 110.6 174.4 110.5C175.2 110.4 175.7 109.6 175.6 108.8C175.4 108 174.7 107.5 173.9 107.6ZM167 102.8C167.4 102.7 167.6 102.4 167.5 102C167.4 101.6 167.1 101.4 166.7 101.5C166.3 101.6 166.1 101.9 166.2 102.3C166.3 102.6 166.7 102.9 167 102.8ZM171.1 26.7C172.3 26.5 173.2 25.3 172.9 24.1C172.7 22.9 171.5 22 170.2 22.3C169 22.5 168.2 23.7 168.4 25C168.7 26.2 169.9 27 171.1 26.7ZM168.5 58.3C169 58.2 169.3 57.7 169.2 57.2C169.1 56.7 168.6 56.4 168.1 56.5C167.6 56.6 167.3 57.1 167.4 57.6C167.5 58.1 168 58.4 168.5 58.3ZM172.4 10.1C173.5 9.90001 174.2 8.80001 174 7.70001C173.8 6.60001 172.7 5.90001 171.6 6.10001C170.5 6.30001 169.8 7.4 170 8.5C170.2 9.5 171.3 10.3 172.4 10.1ZM171.7 187C170.6 187.2 169.9 188.3 170.1 189.4C170.3 190.5 171.4 191.2 172.5 191C173.6 190.8 174.3 189.7 174.1 188.6C173.9 187.5 172.8 186.8 171.7 187ZM181.5 119.1C182.2 119 182.6 118.3 182.5 117.7C182.4 117 181.7 116.6 181.1 116.7C180.4 116.8 180 117.5 180.1 118.1C180.2 118.8 180.9 119.2 181.5 119.1ZM251.2 56.7C252 56.6 252.5 55.8 252.4 55C252.3 54.2 251.5 53.7 250.7 53.8C249.9 53.9 249.4 54.7 249.5 55.5C249.6 56.3 250.4 56.8 251.2 56.7ZM167.9 90.1C168 90.9 168.8 91.4 169.6 91.2C170.4 91.1 170.9 90.3 170.7 89.5C170.6 88.7 169.8 88.2 169 88.4C168.2 88.6 167.7 89.3 167.9 90.1ZM181.5 31.3C182.2 31.2 182.6 30.5 182.5 29.9C182.4 29.2 181.7 28.8 181.1 28.9C180.4 29 180 29.7 180.1 30.3C180.2 31 180.9 31.4 181.5 31.3ZM173.1 222.5C173.3 223.3 174 223.9 174.9 223.7C175.7 223.5 176.3 222.8 176.1 221.9C175.9 221.1 175.1 220.5 174.3 220.7C173.5 220.9 172.9 221.7 173.1 222.5ZM169.6 164.5C168.9 164.6 168.4 165.3 168.5 166C168.6 166.7 169.3 167.2 170.1 167.1C170.8 167 171.3 166.3 171.2 165.6C171 164.8 170.3 164.4 169.6 164.5ZM171.2 77.8C171.1 77.1 170.4 76.6 169.7 76.7C169 76.8 168.5 77.5 168.6 78.2C168.7 78.9 169.4 79.4 170.2 79.3C170.8 79.2 171.3 78.5 171.2 77.8ZM173.1 41.6C173.3 42.4 174 43 174.9 42.8C175.7 42.6 176.3 41.9 176.1 41C175.9 40.2 175.1 39.6 174.3 39.8C173.5 39.9 172.9 40.7 173.1 41.6ZM230.4 249.1C231.5 248.9 232.2 247.8 232 246.7C231.8 245.6 230.7 244.9 229.6 245.1C228.5 245.3 227.8 246.4 228 247.5C228.2 248.5 229.3 249.3 230.4 249.1ZM238 21.3C237.8 20.1 236.6 19.3 235.4 19.5C234.2 19.7 233.4 20.9 233.6 22.1C233.8 23.3 235 24.1 236.2 23.9C237.4 23.7 238.2 22.6 238 21.3ZM230.2 216.9C230 215.9 229.1 215.3 228.1 215.5C227.1 215.7 226.5 216.6 226.7 217.6C226.9 218.6 227.8 219.2 228.8 219C229.7 218.8 230.3 217.9 230.2 216.9ZM233.4 7.10001C234.3 6.90001 235 6.00001 234.8 5.10001C234.6 4.20001 233.7 3.50001 232.8 3.70001C231.9 3.90001 231.2 4.80001 231.4 5.70001C231.5 6.70001 232.4 7.30001 233.4 7.10001ZM228.8 168.9C227.8 169.1 227.1 170.1 227.3 171.1C227.5 172.1 228.5 172.8 229.5 172.6C230.5 172.4 231.2 171.4 231 170.4C230.8 169.3 229.8 168.7 228.8 168.9ZM226.5 100.8C226.6 101.5 227.2 101.9 227.9 101.8C228.6 101.7 229 101.1 228.9 100.4C228.8 99.7 228.2 99.3 227.5 99.4C226.8 99.5 226.4 100.2 226.5 100.8ZM230.4 68.1C231.5 67.9 232.2 66.8 232 65.7C231.8 64.6 230.7 63.9 229.6 64.1C228.5 64.3 227.8 65.4 228 66.5C228.2 67.6 229.3 68.3 230.4 68.1ZM227.3 83.2C227.5 84.2 228.5 84.9 229.5 84.7C230.5 84.5 231.2 83.5 231 82.5C230.8 81.5 229.8 80.8 228.8 81C227.8 81.2 227.1 82.2 227.3 83.2ZM243.3 62.7C243.4 63.3 243.9 63.6 244.5 63.5C245.1 63.4 245.4 62.9 245.3 62.3C245.2 61.7 244.7 61.4 244.1 61.5C243.6 61.6 243.2 62.2 243.3 62.7ZM247 7C247.7 6.9 248.2 6.2 248.1 5.5C248 4.8 247.3 4.29999 246.6 4.39999C245.9 4.49999 245.4 5.19999 245.5 5.89999C245.6 6.69999 246.3 7.2 247 7ZM228.7 125.9C229.7 125.7 230.3 124.8 230.1 123.8C229.9 122.8 229 122.2 228 122.4C227 122.6 226.4 123.5 226.6 124.5C226.8 125.4 227.7 126.1 228.7 125.9ZM236 152.5C235.4 152.6 235 153.2 235.1 153.8C235.2 154.4 235.8 154.8 236.4 154.7C237 154.6 237.4 154 237.3 153.4C237.2 152.7 236.6 152.4 236 152.5ZM247.7 48C247.8 48.5 248.2 48.8 248.7 48.7C249.2 48.6 249.5 48.2 249.4 47.7C249.3 47.2 248.9 46.9 248.4 47C247.9 47.1 247.6 47.5 247.7 48ZM241.6 32C241.8 32.9 242.6 33.4 243.5 33.3C244.4 33.1 244.9 32.3 244.8 31.4C244.6 30.5 243.8 30 242.9 30.1C242 30.3 241.4 31.2 241.6 32ZM236 64.7C235.4 64.8 235 65.4 235.1 66C235.2 66.6 235.8 67 236.4 66.9C237 66.8 237.4 66.2 237.3 65.6C237.2 64.9 236.6 64.5 236 64.7ZM237.1 13.7C237.9 13.5 238.5 12.9 238.6 12.1C239.1 12 239.4 11.5 239.3 11.1C239.2 10.6 238.7 10.3 238.3 10.4C238.2 10.4 238.1 10.5 238 10.5C237.6 10.2 237.1 10 236.5 10.1C235.5 10.3 234.8 11.3 235 12.3C235.1 13.2 236 13.9 237.1 13.7ZM239 18.1C239.2 18.9 239.9 19.5 240.8 19.3C241.6 19.1 242.2 18.4 242 17.5C241.8 16.7 241.1 16.1 240.2 16.3C239.4 16.5 238.9 17.3 239 18.1ZM220.1 179C220.5 178.9 220.8 178.5 220.7 178.2C220.6 177.8 220.2 177.5 219.9 177.6C219.5 177.7 219.2 178.1 219.3 178.4C219.3 178.8 219.7 179.1 220.1 179ZM206.1 103.4C207 103.2 207.7 102.3 207.5 101.4C207.3 100.5 206.4 99.8 205.5 100C204.6 100.2 203.9 101.1 204.1 102C204.2 102.9 205.1 103.6 206.1 103.4ZM215.6 123C216.2 122.9 216.7 122.3 216.6 121.6C216.5 121 215.9 120.5 215.2 120.6C214.6 120.7 214.1 121.3 214.2 122C214.3 122.7 214.9 123.2 215.6 123ZM215.6 35.2C216.2 35.1 216.7 34.5 216.6 33.8C216.5 33.2 215.9 32.7 215.2 32.8C214.6 32.9 214.1 33.5 214.2 34.2C214.3 34.9 214.9 35.4 215.6 35.2ZM216.9 76.9C217 77.5 217.6 78 218.3 77.9C218.9 77.8 219.4 77.2 219.3 76.5C219.2 75.9 218.6 75.4 217.9 75.5C217.3 75.6 216.8 76.2 216.9 76.9ZM204.6 172.5C203.6 172.7 202.9 173.7 203.1 174.7C203.3 175.7 204.3 176.4 205.3 176.2C206.3 176 207 175 206.8 174C206.6 173 205.6 172.3 204.6 172.5ZM205.3 88.4C206.3 88.2 207 87.2 206.8 86.2C206.6 85.2 205.6 84.5 204.6 84.7C203.6 84.9 202.9 85.9 203.1 86.9C203.3 87.9 204.3 88.6 205.3 88.4ZM206 192.3C206.6 192.2 207.1 191.6 207 190.9C206.9 190.3 206.3 189.8 205.6 189.9C205 190 204.5 190.6 204.6 191.3C204.7 192 205.3 192.4 206 192.3ZM219 53.2C218.4 53.3 218 53.9 218.1 54.5C218.2 55.1 218.8 55.5 219.4 55.4C220 55.3 220.4 54.7 220.3 54.1C220.2 53.5 219.6 53.1 219 53.2ZM207.7 205.6C208.1 205.5 208.4 205.1 208.3 204.8C208.2 204.4 207.8 204.1 207.5 204.2C207.1 204.3 206.8 204.7 206.9 205C206.9 205.4 207.3 205.7 207.7 205.6ZM226.6 36.6C226.8 37.6 227.7 38.2 228.7 38C229.7 37.8 230.3 36.9 230.1 35.9C229.9 34.9 229 34.3 228 34.5C227.1 34.7 226.4 35.7 226.6 36.6ZM227.3 16.3C227.7 16.2 228 15.8 227.9 15.4C227.8 15 227.4 14.7 227 14.7C226.6 14.8 226.3 15.2 226.3 15.6C226.4 16.1 226.9 16.4 227.3 16.3ZM219.8 89.7C219.4 89.8 219.1 90.2 219.2 90.5C219.3 90.9 219.7 91.2 220 91.1C220.4 91 220.7 90.6 220.6 90.3C220.6 89.9 220.2 89.7 219.8 89.7ZM233 93.4C232.9 92.6 232.1 92.1 231.3 92.2C230.5 92.3 230 93.1 230.1 93.9C230.2 94.7 231 95.2 231.8 95.1C232.6 94.9 233.1 94.2 233 93.4ZM217.1 18.2C218.1 18 218.8 17 218.6 16C218.4 15 217.4 14.3 216.4 14.5C215.4 14.7 214.7 15.7 214.9 16.7C215.2 17.7 216.1 18.4 217.1 18.2ZM232 153.5C231.8 152.4 230.7 151.7 229.6 151.9C228.5 152.1 227.8 153.2 228 154.3C228.2 155.4 229.3 156.1 230.4 155.9C231.5 155.7 232.2 154.7 232 153.5ZM216.9 164.7C217 165.3 217.6 165.8 218.3 165.7C218.9 165.6 219.4 165 219.3 164.3C219.2 163.7 218.6 163.2 217.9 163.3C217.3 163.4 216.8 164.1 216.9 164.7ZM220.3 141.9C220.2 141.3 219.6 140.9 219 141C218.4 141.1 218 141.7 218.1 142.3C218.2 142.9 218.8 143.3 219.4 143.2C220 143.1 220.4 142.6 220.3 141.9ZM102.8 96.2C103.8 96 104.5 95 104.3 94C104.1 93 103.1 92.3 102.1 92.5C101.1 92.7 100.4 93.7 100.6 94.7C100.8 95.8 101.8 96.4 102.8 96.2ZM166.8 282.4C166.4 282.5 166.2 282.8 166.3 283.2C166.4 283.6 166.7 283.8 167.1 283.7C167.5 283.6 167.7 283.3 167.6 282.9C167.5 282.6 167.1 282.4 166.8 282.4ZM169 269.4C168.2 269.5 167.7 270.3 167.9 271.1C168 271.9 168.8 272.4 169.6 272.2C170.4 272.1 170.9 271.3 170.7 270.5C170.5 269.8 169.8 269.2 169 269.4ZM169.2 238.2C169.1 237.7 168.6 237.4 168.1 237.5C167.6 237.6 167.3 238.1 167.4 238.6C167.5 239.1 168 239.4 168.5 239.3C169 239.2 169.3 238.7 169.2 238.2ZM173 205C172.8 203.8 171.6 202.9 170.3 203.2C169.1 203.4 168.3 204.6 168.5 205.9C168.7 207.1 169.9 207.9 171.2 207.7C172.4 207.5 173.2 206.3 173 205ZM169.6 257.6C168.9 257.7 168.4 258.4 168.5 259.1C168.6 259.8 169.3 260.3 170.1 260.2C170.8 260.1 171.3 259.4 171.2 258.7C171 258 170.3 257.5 169.6 257.6ZM182.5 210.8C182.4 210.1 181.7 209.7 181.1 209.8C180.4 209.9 180 210.6 180.1 211.2C180.2 211.9 180.9 212.3 181.5 212.2C182.2 212.1 182.7 211.4 182.5 210.8ZM175.2 158.5C174.2 158.7 173.6 159.6 173.8 160.5C174 161.5 174.9 162.1 175.8 161.9C176.8 161.7 177.4 160.8 177.2 159.9C177.1 159 176.1 158.4 175.2 158.5ZM173.9 288.6C173.1 288.7 172.6 289.5 172.7 290.3C172.8 291.1 173.6 291.6 174.4 291.5C175.2 291.4 175.7 290.6 175.6 289.8C175.4 289 174.7 288.4 173.9 288.6ZM175.2 251.7C174.2 251.9 173.6 252.8 173.8 253.7C174 254.7 174.9 255.3 175.8 255.1C176.8 254.9 177.4 254 177.2 253.1C177.1 252.1 176.1 251.5 175.2 251.7ZM175.2 70.7C174.2 70.9 173.6 71.8 173.8 72.7C174 73.7 174.9 74.3 175.8 74.1C176.8 73.9 177.4 73 177.2 72.1C177.1 71.2 176.1 70.6 175.2 70.7ZM161.4 292.3C160.7 292.4 160.2 293.1 160.3 293.8C160.4 294.5 161.1 295 161.8 294.9C162.5 294.8 163 294.1 162.9 293.4C162.9 292.7 162.2 292.2 161.4 292.3ZM162.4 262.5C162.3 262.1 161.9 261.8 161.5 261.9C161.1 262 160.8 262.4 160.9 262.8C161 263.2 161.4 263.5 161.8 263.4C162.2 263.3 162.5 262.9 162.4 262.5ZM160.5 239.2C160.3 238.3 159.5 237.8 158.7 237.9C157.8 238.1 157.3 238.9 157.4 239.7C157.6 240.6 158.4 241.1 159.2 241C160.1 240.8 160.7 240 160.5 239.2ZM161.5 41.1C160.7 41.2 160.2 42 160.3 42.8C160.4 43.6 161.2 44.1 162 44C162.8 43.9 163.3 43.1 163.2 42.3C163.1 41.5 162.3 41 161.5 41.1ZM157 251.5C156 251.7 155.4 252.6 155.6 253.6C155.8 254.6 156.7 255.2 157.7 255C158.7 254.8 159.3 253.9 159.1 253C158.9 251.9 158 251.3 157 251.5ZM161.5 222.1C160.7 222.2 160.2 223 160.3 223.8C160.4 224.6 161.2 225.1 162 225C162.8 224.9 163.3 224.1 163.2 223.3C163.1 222.4 162.3 221.9 161.5 222.1ZM161.5 128.9C160.7 129 160.2 129.8 160.3 130.6C160.4 131.4 161.2 131.9 162 131.8C162.8 131.7 163.3 130.9 163.2 130.1C163.1 129.3 162.3 128.8 161.5 128.9ZM162.4 169.3C162.3 168.9 161.9 168.6 161.5 168.7C161.1 168.8 160.8 169.2 160.9 169.6C161 170 161.4 170.3 161.8 170.2C162.2 170.1 162.5 169.7 162.4 169.3ZM186.8 60.8C186 60.9 185.5 61.7 185.6 62.5C185.7 63.3 186.5 63.8 187.3 63.7C188.1 63.6 188.6 62.8 188.5 62C188.4 61.2 187.6 60.7 186.8 60.8ZM192.5 96.8C192.6 97.5 193.3 97.9 193.9 97.8C194.6 97.7 195 97 194.9 96.4C194.8 95.7 194.1 95.3 193.5 95.4C192.8 95.5 192.3 96.1 192.5 96.8ZM193.1 121.3C192.2 121.5 191.5 122.4 191.7 123.3C191.9 124.2 192.8 124.9 193.7 124.7C194.6 124.5 195.3 123.6 195.1 122.7C194.9 121.7 194 121.1 193.1 121.3ZM194.5 253.5C194.4 253 194 252.7 193.5 252.8C193 252.9 192.7 253.4 192.8 253.8C192.9 254.3 193.4 254.6 193.8 254.5C194.3 254.4 194.6 254 194.5 253.5ZM193.1 214.4C192.2 214.6 191.5 215.5 191.7 216.4C191.9 217.3 192.8 218 193.7 217.8C194.6 217.6 195.3 216.7 195.1 215.8C194.9 214.8 194 214.2 193.1 214.4ZM194.5 72.6C194.4 72.1 194 71.8 193.5 71.9C193 72 192.7 72.5 192.8 72.9C192.9 73.4 193.4 73.7 193.8 73.6C194.3 73.5 194.6 73 194.5 72.6ZM198.4 140.6C197.3 140.8 196.5 141.9 196.7 143C196.9 144.1 198 144.9 199.1 144.7C200.2 144.5 201 143.4 200.8 142.3C200.7 141.1 199.6 140.4 198.4 140.6ZM193.1 33.5C192.2 33.7 191.5 34.6 191.7 35.5C191.9 36.4 192.8 37.1 193.7 36.9C194.6 36.7 195.3 35.8 195.1 34.9C194.9 33.9 194 33.3 193.1 33.5ZM198.4 233.7C197.3 233.9 196.5 235 196.7 236.1C196.9 237.2 198 238 199.1 237.8C200.2 237.6 201 236.5 200.8 235.4C200.7 234.3 199.6 233.5 198.4 233.7ZM191.9 185.3C192.5 185.2 192.8 184.7 192.7 184.1C192.6 183.5 192.1 183.2 191.5 183.3C190.9 183.4 190.6 183.9 190.7 184.5C190.8 185 191.3 185.4 191.9 185.3ZM186.8 148.6C186 148.7 185.5 149.5 185.6 150.3C185.7 151.1 186.5 151.6 187.3 151.5C188.1 151.4 188.6 150.6 188.5 149.8C188.4 149 187.6 148.5 186.8 148.6ZM186.8 241.8C186 241.9 185.5 242.7 185.6 243.5C185.7 244.3 186.5 244.8 187.3 244.7C188.1 244.6 188.6 243.8 188.5 243C188.4 242.1 187.6 241.6 186.8 241.8ZM157.2 282.7C156.6 282.8 156.2 283.4 156.3 283.9C156.4 284.5 157 284.9 157.5 284.7C158.1 284.6 158.5 284 158.4 283.5C158.4 283 157.8 282.6 157.2 282.7ZM186.7 287.3C185.9 287.5 185.3 288.3 185.5 289.1C185.7 289.9 186.4 290.5 187.3 290.3C188.1 290.1 188.7 289.4 188.5 288.5C188.3 287.6 187.5 287.1 186.7 287.3ZM194.5 160.4C194.4 159.9 194 159.6 193.5 159.7C193 159.8 192.7 160.3 192.8 160.7C192.9 161.2 193.4 161.5 193.8 161.4C194.3 161.3 194.6 160.8 194.5 160.4ZM193.4 276.3C192.7 276.4 192.3 277.1 192.4 277.7C192.5 278.4 193.2 278.8 193.8 278.7C194.5 278.6 194.9 277.9 194.8 277.3C194.8 276.6 194.1 276.2 193.4 276.3ZM182.6 269.7C181.4 269.9 180.6 271.1 180.8 272.3C181 273.5 182.2 274.3 183.4 274.1C184.6 273.9 185.5 272.7 185.2 271.5C185.1 270.3 183.9 269.5 182.6 269.7ZM192.9 202.8C193.9 202.6 194.6 201.6 194.4 200.6C194.2 199.6 193.2 198.9 192.2 199.1C191.2 199.3 190.5 200.3 190.7 201.3C191 202.3 191.9 203 192.9 202.8ZM133.7 212.8C134.9 212.6 135.7 211.4 135.5 210.2C135.3 209 134.1 208.2 132.9 208.4C131.7 208.6 130.9 209.8 131.1 211C131.3 212.2 132.4 213 133.7 212.8ZM124.8 205.1C125.2 205 125.5 204.6 125.4 204.2C125.3 203.8 124.9 203.5 124.5 203.5C124.1 203.6 123.8 204 123.9 204.4C123.9 204.9 124.4 205.2 124.8 205.1ZM125 288.2C124.4 288.3 123.9 288.9 124 289.6C124.1 290.2 124.7 290.7 125.4 290.6C126 290.5 126.5 289.9 126.4 289.2C126.2 288.5 125.6 288.1 125 288.2ZM198.4 52.8C197.3 53 196.5 54.1 196.7 55.2C196.9 56.3 198 57.1 199.1 56.9C200.2 56.7 201 55.6 200.8 54.5C200.7 53.3 199.6 52.6 198.4 52.8ZM121.2 159.3C120.3 159.5 119.8 160.3 119.9 161.2C120.1 162.1 120.9 162.6 121.8 162.5C122.7 162.3 123.2 161.5 123.1 160.6C122.9 159.8 122 159.2 121.2 159.3ZM121.2 71.5C120.3 71.7 119.8 72.5 119.9 73.4C120.1 74.3 120.9 74.8 121.8 74.7C122.7 74.5 123.2 73.7 123.1 72.8C122.9 71.9 122 71.4 121.2 71.5ZM128.8 100.1C128 100.2 127.5 101 127.6 101.8C127.7 102.6 128.5 103.1 129.3 103C130.1 102.9 130.6 102.1 130.5 101.3C130.3 100.4 129.6 99.9 128.8 100.1ZM128.8 281C128 281.1 127.5 281.9 127.6 282.7C127.7 283.5 128.5 284 129.3 283.9C130.1 283.8 130.6 283 130.5 282.2C130.3 281.4 129.6 280.8 128.8 281ZM128.5 271.3C128.3 270.3 127.3 269.6 126.3 269.8C125.3 270 124.6 271 124.8 272C125 273 126 273.7 127 273.5C128 273.3 128.7 272.4 128.5 271.3ZM121.2 252.5C120.3 252.7 119.8 253.5 119.9 254.4C120.1 255.3 120.9 255.8 121.8 255.7C122.7 255.5 123.2 254.7 123.1 253.8C122.9 252.9 122 252.3 121.2 252.5ZM116.1 204.8C115.9 203.8 114.9 203.1 113.9 203.3C112.9 203.5 112.2 204.5 112.4 205.5C112.6 206.5 113.6 207.2 114.6 207C115.7 206.8 116.3 205.8 116.1 204.8ZM116.4 33.5C115.6 33.6 115.1 34.4 115.2 35.2C115.3 36 116.1 36.5 116.9 36.4C117.7 36.3 118.2 35.5 118.1 34.7C118 33.9 117.2 33.4 116.4 33.5ZM112.6 221.7C112 221.8 111.5 222.4 111.6 223.1C111.7 223.7 112.3 224.2 113 224.1C113.6 224 114.1 223.4 114 222.7C113.9 222 113.3 221.5 112.6 221.7ZM117.8 242.9C117.7 242.3 117.1 241.9 116.5 242C115.9 242.1 115.5 242.7 115.6 243.3C115.7 243.9 116.3 244.3 116.9 244.2C117.5 244.1 117.9 243.5 117.8 242.9ZM115.4 264.3C114.8 264.4 114.3 265 114.4 265.7C114.5 266.3 115.1 266.8 115.8 266.7C116.4 266.6 116.9 266 116.8 265.3C116.7 264.6 116 264.2 115.4 264.3ZM116.4 121.3C115.6 121.4 115.1 122.2 115.2 123C115.3 123.8 116.1 124.3 116.9 124.2C117.7 124.1 118.2 123.3 118.1 122.5C118 121.7 117.2 121.2 116.4 121.3ZM117.3 278.5C116.9 278.6 116.6 279 116.7 279.3C116.8 279.7 117.2 280 117.5 279.9C117.9 279.8 118.2 279.4 118.1 279.1C118.1 278.7 117.7 278.5 117.3 278.5ZM116.4 214.5C115.6 214.6 115.1 215.4 115.2 216.2C115.3 217 116.1 217.5 116.9 217.4C117.7 217.3 118.2 216.5 118.1 215.7C118 214.8 117.2 214.3 116.4 214.5ZM154.4 122.8C154 122.9 153.8 123.2 153.9 123.6C154 124 154.3 124.2 154.7 124.1C155.1 124 155.3 123.7 155.2 123.3C155.1 122.9 154.8 122.7 154.4 122.8ZM152.7 285.5C151.8 285.7 151.3 286.5 151.4 287.4C151.6 288.3 152.4 288.8 153.3 288.7C154.2 288.5 154.7 287.7 154.6 286.8C154.4 285.9 153.6 285.3 152.7 285.5ZM153.3 275.2C152.5 275.3 152 276.1 152.1 276.9C152.2 277.7 153 278.2 153.8 278.1C154.6 278 155.1 277.2 155 276.4C154.8 275.6 154.1 275 153.3 275.2ZM152 269C151.9 268.5 151.5 268.2 151 268.3C150.5 268.4 150.2 268.8 150.3 269.3C150.4 269.8 150.8 270.1 151.3 270C151.7 269.9 152 269.5 152 269ZM150.7 226.9C150.6 226.2 149.9 225.7 149.2 225.8C148.5 225.9 148 226.6 148.1 227.3C148.2 228 148.9 228.5 149.6 228.4C150.3 228.3 150.8 227.6 150.7 226.9ZM157.2 205.7C158 205.6 158.5 204.8 158.3 204C158.2 203.2 157.4 202.7 156.6 202.9C155.8 203 155.3 203.8 155.5 204.6C155.7 205.3 156.4 205.8 157.2 205.7ZM154.4 35C154 35.1 153.8 35.4 153.9 35.8C154 36.2 154.3 36.4 154.7 36.3C155.1 36.2 155.3 35.9 155.2 35.5C155.1 35.1 154.8 34.9 154.4 35ZM154.4 215.9C154 216 153.8 216.3 153.9 216.7C154 217.1 154.3 217.3 154.7 217.2C155.1 217.1 155.3 216.8 155.2 216.4C155.1 216.1 154.8 215.8 154.4 215.9ZM147.7 291.6C146.8 291.8 146.1 292.7 146.3 293.6C146.5 294.5 147.4 295.2 148.3 295C149.2 294.8 149.9 293.9 149.7 293C149.5 292.1 148.6 291.5 147.7 291.6ZM137.9 289.8C136.9 290 136.3 290.9 136.5 291.9C136.7 292.9 137.6 293.5 138.6 293.3C139.6 293.1 140.2 292.2 140 291.2C139.8 290.3 138.9 289.7 137.9 289.8ZM147.1 284.9C147.7 284.8 148 284.3 147.9 283.7C147.8 283.1 147.3 282.8 146.7 282.9C146.1 283 145.8 283.5 145.9 284.1C146 284.6 146.6 285 147.1 284.9ZM133.5 253.4C132.9 253.5 132.5 254.1 132.6 254.7C132.7 255.3 133.3 255.7 133.9 255.6C134.5 255.5 134.9 254.9 134.8 254.3C134.6 253.7 134.1 253.3 133.5 253.4ZM137.3 226.5C137.1 225.6 136.2 224.9 135.3 225.1C134.4 225.3 133.7 226.2 133.9 227.1C134.1 228 135 228.7 135.9 228.5C136.9 228.3 137.5 227.4 137.3 226.5ZM138.3 237.9C137.1 238.1 136.3 239.3 136.5 240.5C136.7 241.7 137.9 242.5 139.1 242.3C140.3 242.1 141.1 240.9 140.9 239.7C140.8 238.5 139.6 237.7 138.3 237.9ZM137.1 271.6C137.5 271.5 137.8 271.1 137.7 270.7C137.6 270.3 137.2 270 136.8 270C136.4 270.1 136.1 270.5 136.1 270.9C136.3 271.4 136.7 271.7 137.1 271.6ZM141.9 232.4C141.8 231.9 141.3 231.6 140.9 231.7C140.4 231.8 140.1 232.3 140.2 232.7C140.3 233.2 140.8 233.5 141.2 233.4C141.6 233.3 142 232.9 141.9 232.4ZM147.8 276.6C147.6 275.4 146.4 274.6 145.2 274.8C144 275 143.2 276.2 143.4 277.4C143.6 278.6 144.8 279.4 146 279.2C147.2 279.1 148.1 277.9 147.8 276.6ZM144.6 238.9C144.4 238.1 143.7 237.5 142.8 237.7C142 237.9 141.4 238.6 141.6 239.5C141.8 240.3 142.5 240.9 143.4 240.7C144.2 240.6 144.8 239.8 144.6 238.9ZM235.4 200.5C234.2 200.7 233.4 201.9 233.6 203.1C233.8 204.3 235 205.1 236.2 204.9C237.4 204.7 238.2 203.5 238 202.3C237.8 201.1 236.6 200.2 235.4 200.5ZM272.6 118.1C271.6 118.3 271 119.2 271.2 120.1C271.4 121.1 272.3 121.7 273.2 121.5C274.2 121.3 274.8 120.4 274.6 119.5C274.5 118.6 273.6 117.9 272.6 118.1ZM277.9 263.5C277.4 263.6 277.1 264.1 277.2 264.6C277.3 265.1 277.8 265.4 278.3 265.3C278.8 265.2 279.1 264.7 279 264.2C278.9 263.8 278.4 263.4 277.9 263.5ZM272.6 30.3C271.6 30.5 271 31.4 271.2 32.3C271.4 33.3 272.3 33.9 273.2 33.7C274.2 33.5 274.8 32.6 274.6 31.7C274.5 30.8 273.6 30.1 272.6 30.3ZM292.3 236.9C292.2 236.2 291.5 235.8 290.9 235.9C290.2 236 289.8 236.7 289.9 237.3C290 238 290.7 238.4 291.3 238.3C292 238.2 292.4 237.5 292.3 236.9ZM272.6 211.2C271.6 211.4 271 212.3 271.2 213.2C271.4 214.2 272.3 214.8 273.2 214.6C274.2 214.4 274.8 213.5 274.6 212.6C274.5 211.7 273.6 211.1 272.6 211.2ZM284.9 277.8C283.9 278 283.3 278.9 283.5 279.8C283.7 280.8 284.6 281.4 285.5 281.2C286.5 281 287.1 280.1 286.9 279.2C286.8 278.2 285.9 277.6 284.9 277.8ZM284.9 96.8C283.9 97 283.3 97.9 283.5 98.8C283.7 99.8 284.6 100.4 285.5 100.2C286.5 100 287.1 99.1 286.9 98.2C286.8 97.3 285.9 96.7 284.9 96.8ZM204.2 251.8C204.8 251.7 205.1 251.2 205 250.6C204.9 250 204.4 249.7 203.8 249.8C203.2 249.9 202.9 250.4 203 251C203.2 251.6 203.7 251.9 204.2 251.8ZM284.6 249.8C285.4 249.6 286 248.8 285.8 248C285.6 247.2 284.8 246.6 284 246.8C283.2 247 282.6 247.8 282.8 248.6C283 249.4 283.8 250 284.6 249.8ZM271.7 299.4C271.2 299.5 270.9 299.8 270.7 300.2H273.4C273 299.6 272.4 299.2 271.7 299.4ZM271.8 251C272.6 250.9 273.1 250.1 273 249.3C272.9 248.5 272.1 248 271.3 248.1C270.5 248.2 270 249 270.1 249.8C270.2 250.7 271 251.2 271.8 251ZM264.2 242C263.8 242.1 263.6 242.4 263.7 242.8C263.8 243.2 264.1 243.4 264.5 243.3C264.9 243.2 265.1 242.9 265 242.5C264.9 242.2 264.5 241.9 264.2 242ZM258.9 0.700012C258.1 0.800012 257.6 1.59999 257.7 2.39999C257.8 3.19999 258.6 3.70001 259.4 3.60001C260.2 3.50001 260.7 2.69999 260.6 1.89999C260.5 1.09999 259.7 0.500012 258.9 0.700012ZM258.9 181.6C258.1 181.7 257.6 182.5 257.7 183.3C257.8 184.1 258.6 184.6 259.4 184.5C260.2 184.4 260.7 183.6 260.6 182.8C260.5 182 259.7 181.5 258.9 181.6ZM266.6 197.8C266.5 197.3 266 197 265.5 197.1C265 197.2 264.7 197.7 264.8 198.2C264.9 198.7 265.4 199 265.9 198.9C266.4 198.8 266.7 198.3 266.6 197.8ZM266.9 231.8C267.7 231.7 268.2 230.9 268 230.1C267.9 229.3 267.1 228.8 266.3 229C265.5 229.1 265 229.9 265.2 230.7C265.4 231.4 266.1 231.9 266.9 231.8ZM268.4 264C267.5 264.2 267 265 267.1 265.8C267.3 266.7 268.1 267.2 268.9 267.1C269.8 266.9 270.3 266.1 270.2 265.3C270.1 264.4 269.3 263.8 268.4 264ZM266.8 277.6C265.8 277.8 265.2 278.7 265.4 279.7C265.6 280.7 266.5 281.3 267.5 281.1C268.5 280.9 269.1 280 268.9 279C268.6 278 267.7 277.4 266.8 277.6ZM299.8 253.7C299.9 254.3 300.4 254.7 301 254.7V252.3C300.9 252.3 300.9 252.3 300.8 252.3C300.1 252.3 299.7 253 299.8 253.7ZM300.6 97.5C300.6 97.8 300.8 97.9 301 98.1V96.6C300.7 96.8 300.5 97.1 300.6 97.5ZM291.4 261C290.9 261.1 290.5 261.6 290.6 262.1C290.7 262.6 291.2 263 291.7 262.9C292.2 262.8 292.6 262.3 292.5 261.8C292.4 261.2 291.9 260.9 291.4 261ZM300.1 136.6C300.2 137 300.6 137.3 301 137.3V135.6C300.9 135.6 300.9 135.6 300.8 135.6C300.3 135.6 300 136.1 300.1 136.6ZM300.4 190.3C299.5 190.5 298.8 191.4 299 192.3C299.2 193.2 300 193.8 300.9 193.7V190.3C300.8 190.3 300.6 190.3 300.4 190.3ZM299.8 160.5C299.9 161.1 300.4 161.5 301 161.5V159.1C300.9 159.1 300.9 159.1 300.8 159.1C300.1 159.2 299.7 159.9 299.8 160.5ZM300.4 9.39999C299.5 9.59999 298.8 10.5 299 11.4C299.2 12.3 300 12.9 300.9 12.8V9.39999C300.8 9.29999 300.6 9.29999 300.4 9.39999ZM299.8 72.7C299.9 73.3 300.4 73.7 301 73.7V71.3C300.9 71.3 300.9 71.3 300.8 71.3C300.1 71.4 299.7 72.1 299.8 72.7ZM300.1 48.8C300.2 49.2 300.6 49.5 301 49.5V47.8C300.9 47.8 300.9 47.8 300.8 47.8C300.3 47.8 300 48.3 300.1 48.8ZM300.1 229.7C300.2 230.1 300.6 230.4 301 230.4V228.7C300.9 228.7 300.9 228.7 300.8 228.7C300.3 228.8 300 229.2 300.1 229.7ZM296.6 197.4C297.7 197.2 298.5 196.1 298.3 195C298.1 193.9 297 193.1 295.9 193.3C294.8 193.5 294 194.6 294.2 195.7C294.4 196.9 295.5 197.6 296.6 197.4ZM291.4 80C290.9 80.1 290.5 80.6 290.6 81.1C290.7 81.6 291.2 82 291.7 81.9C292.2 81.8 292.6 81.3 292.5 80.8C292.4 80.3 291.9 80 291.4 80ZM291.4 167.9C290.9 168 290.5 168.5 290.6 169C290.7 169.5 291.2 169.9 291.7 169.8C292.2 169.7 292.6 169.2 292.5 168.7C292.4 168.1 291.9 167.8 291.4 167.9ZM297.1 270.7C297.9 270.6 298.4 269.8 298.3 269C298.2 268.2 297.4 267.7 296.6 267.8C295.8 267.9 295.3 268.7 295.4 269.5C295.5 270.4 296.3 270.9 297.1 270.7ZM297.5 287.6C297 287.7 296.7 288.2 296.8 288.7C296.9 289.2 297.4 289.5 297.9 289.4C298.4 289.3 298.7 288.8 298.6 288.3C298.5 287.8 298 287.5 297.5 287.6ZM300.6 278.4C300.6 278.7 300.8 278.8 301 279V277.5C300.7 277.7 300.5 278.1 300.6 278.4ZM297.5 106.6C297 106.7 296.7 107.2 296.8 107.7C296.9 108.2 297.4 108.5 297.9 108.4C298.4 108.3 298.7 107.8 298.6 107.3C298.5 106.9 298 106.5 297.5 106.6ZM259.8 222C259.7 221.6 259.3 221.3 258.9 221.4C258.5 221.5 258.2 221.9 258.3 222.3C258.4 222.7 258.8 223 259.2 222.9C259.6 222.8 259.9 222.4 259.8 222ZM280 229.3C278.8 229.5 278 230.7 278.2 231.9C278.4 233.1 279.6 233.9 280.8 233.7C282 233.5 282.9 232.3 282.6 231.1C282.5 229.9 281.3 229.1 280 229.3ZM219.8 270.7C219.4 270.8 219.1 271.2 219.2 271.5C219.3 271.9 219.7 272.2 220 272.1C220.4 272 220.7 271.6 220.6 271.3C220.6 270.9 220.2 270.6 219.8 270.7ZM218.9 206.6C218.1 206.7 217.6 207.5 217.7 208.3C217.8 209.1 218.6 209.6 219.4 209.5C220.2 209.4 220.7 208.6 220.6 207.8C220.5 207 219.7 206.5 218.9 206.6ZM220.3 235.1C220.2 234.5 219.6 234.1 219 234.2C218.4 234.3 218 234.9 218.1 235.5C218.2 236.1 218.8 236.5 219.4 236.4C220 236.3 220.4 235.7 220.3 235.1ZM218.9 25.7C218.1 25.8 217.6 26.6 217.7 27.4C217.8 28.2 218.6 28.7 219.4 28.6C220.2 28.5 220.7 27.7 220.6 26.9C220.5 26.1 219.7 25.5 218.9 25.7ZM227.3 197.3C227.7 197.2 228 196.8 227.9 196.4C227.8 196 227.4 195.7 227 195.7C226.6 195.8 226.3 196.2 226.3 196.6C226.4 197.1 226.9 197.3 227.3 197.3ZM223.7 63.7C222.8 63.9 222.3 64.7 222.4 65.6C222.6 66.5 223.4 67 224.3 66.9C225.2 66.7 225.7 65.9 225.6 65C225.4 64.1 224.6 63.5 223.7 63.7ZM223.7 151.5C222.8 151.7 222.3 152.5 222.4 153.4C222.6 154.3 223.4 154.8 224.3 154.7C225.2 154.5 225.7 153.7 225.6 152.8C225.4 151.9 224.6 151.3 223.7 151.5ZM217.9 256.4C217.3 256.5 216.8 257.1 216.9 257.8C217 258.4 217.6 258.9 218.3 258.8C218.9 258.7 219.4 258.1 219.3 257.4C219.2 256.8 218.5 256.3 217.9 256.4ZM223.7 244.6C222.8 244.8 222.3 245.6 222.4 246.5C222.6 247.4 223.4 247.9 224.3 247.8C225.2 247.6 225.7 246.8 225.6 245.9C225.4 245 224.6 244.5 223.7 244.6ZM205.4 280.9C204.5 281.1 203.8 282 204 282.9C204.2 283.8 205.1 284.5 206 284.3C206.9 284.1 207.6 283.2 207.4 282.3C207.3 281.4 206.4 280.7 205.4 280.9ZM210 242.7C209.4 242.8 208.9 243.4 209 244.1C209.1 244.7 209.7 245.2 210.4 245.1C211 245 211.5 244.4 211.4 243.7C211.3 243 210.7 242.6 210 242.7ZM207.8 249.2C207.1 249.3 206.6 250 206.7 250.8C206.8 251.5 207.5 252 208.3 251.9C209 251.8 209.5 251.1 209.4 250.3C209.2 249.6 208.5 249.1 207.8 249.2ZM205.3 269.3C206.3 269.1 207 268.1 206.8 267.1C206.6 266.1 205.6 265.4 204.6 265.6C203.6 265.8 202.9 266.8 203.1 267.8C203.3 268.9 204.3 269.5 205.3 269.3ZM218.6 197C218.4 196 217.4 195.3 216.4 195.5C215.4 195.7 214.7 196.7 214.9 197.7C215.1 198.7 216.1 199.4 217.1 199.2C218.2 199 218.8 198 218.6 197ZM215.1 213.8C214.5 213.9 214 214.5 214.1 215.2C214.2 215.9 214.8 216.3 215.5 216.2C216.1 216.1 216.6 215.5 216.5 214.8C216.4 214.1 215.8 213.7 215.1 213.8ZM210 61.8C209.4 61.9 208.9 62.5 209 63.2C209.1 63.8 209.7 64.3 210.4 64.2C211 64.1 211.5 63.5 211.4 62.8C211.3 62.1 210.7 61.6 210 61.8ZM210 149.6C209.4 149.7 208.9 150.3 209 151C209.1 151.6 209.7 152.1 210.4 152C211 151.9 211.5 151.3 211.4 150.6C211.3 149.9 210.7 149.5 210 149.6ZM243.5 231.9C243.3 230.7 242.1 229.9 240.9 230.1C239.7 230.3 238.9 231.5 239.1 232.7C239.3 233.9 240.5 234.7 241.7 234.5C242.9 234.3 243.7 233.1 243.5 231.9ZM247.7 267C246.5 267.2 245.7 268.4 245.9 269.6C246.1 270.8 247.3 271.6 248.5 271.4C249.7 271.2 250.5 270 250.3 268.8C250.1 267.6 248.9 266.8 247.7 267ZM258.9 251.9C258.2 252 257.7 252.7 257.8 253.4C257.9 254.1 258.6 254.6 259.3 254.5C260 254.4 260.5 253.7 260.4 253C260.3 252.2 259.6 251.8 258.9 251.9ZM244.5 244.5C245.1 244.4 245.4 243.9 245.3 243.3C245.2 242.7 244.7 242.4 244.1 242.5C243.5 242.6 243.2 243.1 243.3 243.7C243.4 244.2 244 244.6 244.5 244.5ZM251.6 258.5C251.5 258 251 257.7 250.6 257.8C250.5 257.8 250.4 257.9 250.3 257.9C249.9 257.6 249.4 257.4 248.8 257.5C247.8 257.7 247.1 258.7 247.3 259.7C247.5 260.7 248.5 261.4 249.5 261.2C250.3 261 250.9 260.4 251 259.6C251.4 259.4 251.7 259 251.6 258.5ZM247.1 252.6C246.9 251.7 246 251 245.1 251.2C244.2 251.4 243.5 252.3 243.7 253.2C243.9 254.1 244.8 254.8 245.7 254.6C246.6 254.4 247.3 253.5 247.1 252.6ZM257.9 198.7C257.7 197.8 256.9 197.3 256.1 197.4C255.2 197.6 254.7 198.4 254.8 199.2C255 200.1 255.8 200.6 256.6 200.5C257.5 200.4 258.1 199.6 257.9 198.7ZM255.2 277.6C254.3 277.8 253.8 278.6 253.9 279.5C254.1 280.4 254.9 280.9 255.8 280.8C256.7 280.6 257.2 279.8 257.1 278.9C256.9 278 256.1 277.5 255.2 277.6ZM254.4 265C254.2 264.2 253.5 263.6 252.6 263.8C251.8 264 251.2 264.7 251.4 265.6C251.6 266.4 252.3 267 253.2 266.8C254 266.7 254.5 265.9 254.4 265ZM239.3 192C239.2 191.5 238.7 191.2 238.3 191.3C238.2 191.3 238.1 191.4 238 191.4C237.6 191.1 237.1 190.9 236.5 191C235.5 191.2 234.8 192.2 235 193.2C235.2 194.2 236.2 194.9 237.2 194.7C238 194.5 238.6 193.9 238.7 193.1C239 192.9 239.4 192.4 239.3 192ZM240.4 282C239.4 282.2 238.8 283.1 239 284.1C239.2 285.1 240.1 285.7 241.1 285.5C242.1 285.3 242.7 284.4 242.5 283.4C242.3 282.5 241.4 281.8 240.4 282ZM234.7 186.1C234.5 185.2 233.6 184.5 232.7 184.7C231.8 184.9 231.1 185.8 231.3 186.7C231.5 187.6 232.4 188.3 233.3 188.1C234.3 187.9 234.9 187 234.7 186.1ZM236 245.6C235.4 245.7 235 246.3 235.1 246.9C235.2 247.5 235.8 247.9 236.4 247.8C237 247.7 237.4 247.1 237.3 246.5C237.2 245.9 236.6 245.5 236 245.6ZM231 263.5C230.8 262.5 229.8 261.8 228.8 262C227.8 262.2 227.1 263.2 227.3 264.2C227.5 265.2 228.5 265.9 229.5 265.7C230.5 265.5 231.2 264.5 231 263.5ZM231.3 273.2C230.5 273.3 230 274.1 230.1 274.9C230.2 275.7 231 276.2 231.8 276.1C232.6 276 233.1 275.2 233 274.4C232.8 273.5 232.1 273 231.3 273.2ZM107.5 69.6C106.9 69.7 106.4 70.3 106.5 71C106.6 71.6 107.2 72.1 107.9 72C108.5 71.9 109 71.3 108.9 70.6C108.8 69.9 108.1 69.5 107.5 69.6ZM239.7 263.8C240.1 263.7 240.4 263.3 240.3 262.9C240.2 262.5 239.8 262.2 239.4 262.2C239 262.3 238.7 262.7 238.8 263.1C238.8 263.6 239.2 263.9 239.7 263.8ZM227.5 280.3C226.8 280.4 226.4 281 226.5 281.7C226.6 282.4 227.2 282.8 227.9 282.7C228.6 282.6 229 282 228.9 281.3C228.7 280.7 228.1 280.2 227.5 280.3ZM26.6 233.3C26.5 232.6 25.9 232.2 25.2 232.3C24.5 232.4 24.1 233 24.2 233.7C24.3 234.3 24.9 234.8 25.6 234.7C26.3 234.6 26.8 234 26.6 233.3ZM22.9 11.1C23.5 11 24 10.4 23.9 9.70001C23.8 9.10001 23.2 8.60001 22.5 8.70001C21.9 8.80001 21.4 9.40001 21.5 10.1C21.6 10.8 22.3 11.3 22.9 11.1ZM11.6 46.8C12.2 46.7 12.5 46.2 12.4 45.6C12.3 45 11.8 44.7 11.2 44.8C10.6 44.9 10.3 45.4 10.4 46C10.5 46.5 11 46.9 11.6 46.8ZM15.1 0.600006C15.3 0.600006 15.5 0.400012 15.6 0.200012H14.3C14.4 0.400012 14.7 0.600006 15.1 0.600006ZM26.8 4.5C27.6 4.4 28.1 3.59999 28 2.79999C27.9 1.99999 27.1 1.50001 26.3 1.60001C25.5 1.70001 25 2.49999 25.1 3.29999C25.3 4.09999 26 4.6 26.8 4.5ZM14.1 149.9C13.9 148.9 12.9 148.2 11.9 148.4C10.9 148.6 10.2 149.6 10.4 150.6C10.6 151.6 11.6 152.3 12.6 152.1C13.6 151.9 14.3 151 14.1 149.9ZM30.1 106.5C30.7 106.4 31.2 105.8 31.1 105.1C31 104.5 30.4 104 29.7 104.1C29.1 104.2 28.6 104.8 28.7 105.5C28.9 106.2 29.5 106.7 30.1 106.5ZM11.6 164.5C11.4 164.8 11.3 165.3 11.4 165.7C11.6 166.6 12.5 167.3 13.4 167.1C13.7 167.1 13.9 166.9 14.1 166.8C13.1 166.3 12.2 165.5 11.6 164.5ZM27.6 30C27.5 29.4 26.9 29 26.3 29.1C25.7 29.2 25.3 29.8 25.4 30.4C25.5 31 26.1 31.4 26.7 31.3C27.3 31.2 27.7 30.7 27.6 30ZM15.1 181.5C15.5 181.4 15.8 181 15.7 180.7C15.6 180.3 15.2 180 14.9 180.1C14.5 180.2 14.2 180.6 14.3 180.9C14.3 181.3 14.7 181.6 15.1 181.5ZM25.7 53.8C26.3 53.7 26.8 53.1 26.7 52.4C26.6 51.7 26 51.3 25.3 51.4C24.6 51.5 24.2 52.1 24.3 52.8C24.4 53.5 25 53.9 25.7 53.8ZM27.4 248C27.8 247.9 28.1 247.5 28 247.1C27.9 246.7 27.5 246.4 27.2 246.5C26.8 246.6 26.5 247 26.6 247.3C26.6 247.8 27 248.1 27.4 248ZM27.4 67.1C27.8 67 28.1 66.6 28 66.2C27.9 65.8 27.5 65.5 27.2 65.6C26.8 65.7 26.5 66.1 26.6 66.4C26.6 66.9 27 67.2 27.4 67.1ZM28 183.7C27.9 182.9 27.1 182.4 26.3 182.5C25.5 182.6 25 183.4 25.1 184.2C25.2 185 26 185.5 26.8 185.4C27.6 185.3 28.1 184.5 28 183.7ZM27.5 110.7C26.8 110.8 26.3 111.5 26.4 112.3C26.5 113 27.2 113.5 28 113.4C28.7 113.3 29.2 112.6 29.1 111.8C28.9 111 28.2 110.6 27.5 110.7ZM27.6 211C27.5 210.4 26.9 210 26.3 210.1C25.7 210.2 25.3 210.8 25.4 211.4C25.5 212 26.1 212.4 26.7 212.3C27.3 212.2 27.7 211.6 27.6 211ZM27.4 154.9C27.8 154.8 28.1 154.4 28 154C27.9 153.6 27.5 153.3 27.2 153.4C26.8 153.5 26.5 153.9 26.6 154.2C26.6 154.7 27 155 27.4 154.9ZM25.7 141.6C26.3 141.5 26.8 140.9 26.7 140.2C26.6 139.5 26 139.1 25.3 139.2C24.6 139.3 24.2 139.9 24.3 140.6C24.4 141.3 25 141.7 25.7 141.6ZM24.8 112.1C24.7 111.5 24.2 111.2 23.6 111.3C23 111.4 22.7 111.9 22.8 112.5C22.9 113.1 23.4 113.4 24 113.3C24.5 113.2 24.9 112.7 24.8 112.1ZM11.4 77.9C11.6 78.8 12.5 79.5 13.4 79.3C14.3 79.1 15 78.2 14.8 77.3C14.6 76.4 13.7 75.7 12.8 75.9C11.9 76.1 11.2 77 11.4 77.9ZM14.8 299.1C14.4 299.2 14.1 299.6 14.2 299.9C14.2 300 14.2 300 14.3 300H15.6C15.7 299.9 15.7 299.7 15.7 299.6C15.6 299.3 15.2 299.1 14.8 299.1ZM11.6 134.6C11.7 134.6 11.7 134.6 11.8 134.5C12 134.2 12.2 134 12.4 133.7C12.4 133.6 12.4 133.5 12.4 133.4C12.3 132.8 11.8 132.5 11.2 132.6C10.6 132.7 10.3 133.2 10.4 133.8C10.5 134.3 11 134.7 11.6 134.6ZM6.9 289.4C7.2 289.3 7.4 289.1 7.6 288.8C7.1 288.8 6.5 288.8 6 288.9C6.1 289.3 6.5 289.5 6.9 289.4ZM1 9.39999V11.4C1.4 11.7 1.8 11.9 2.2 12C2.4 11.6 2.5 11.2 2.4 10.8C2.3 9.99999 1.7 9.49999 1 9.39999ZM107.5 157.4C106.9 157.5 106.4 158.1 106.5 158.8C106.6 159.4 107.2 159.9 107.9 159.8C108.5 159.7 109 159.1 108.9 158.4C108.8 157.7 108.1 157.3 107.5 157.4ZM13.2 295.2C12.7 295.3 12.4 295.8 12.5 296.2C12.6 296.7 13 297 13.5 296.9C14 296.8 14.3 296.4 14.2 295.9C14.1 295.4 13.6 295.1 13.2 295.2ZM12.6 245.2C13.6 245 14.3 244 14.1 243C13.9 242 12.9 241.3 11.9 241.5C10.9 241.7 10.2 242.7 10.4 243.7C10.6 244.8 11.6 245.4 12.6 245.2ZM13 258.2C13.2 258.1 13.4 257.9 13.5 257.8C13.6 257.8 13.6 257.7 13.7 257.7C13.9 257.6 14 257.5 14.2 257.5C14.3 257.5 14.3 257.4 14.4 257.4C14 256.9 13.4 256.7 12.8 256.8C11.9 257 11.2 257.9 11.4 258.8C11.5 259.1 11.6 259.3 11.7 259.5C12 259.1 12.4 258.6 13 258.2C12.9 258.2 12.9 258.3 13 258.2ZM5.8 209.6C4.7 209.8 3.9 210.9 4.1 212C4.3 213.1 5.4 213.9 6.5 213.7C7.6 213.5 8.4 212.4 8.2 211.3C8 210.2 6.9 209.4 5.8 209.6ZM1.9 48.5C1.8 48.1 1.5 47.8 1.1 47.8V49.5H1.2C1.6 49.4 1.9 48.9 1.9 48.5ZM6.5 103.3C5.7 103.4 5.2 104.2 5.3 105C5.3 105.2 5.4 105.4 5.6 105.6C6.1 105.7 6.5 105.8 6.9 106C7 106 7.1 106.1 7.1 106.1C7.8 105.9 8.3 105.2 8.1 104.4C8 103.6 7.3 103.1 6.5 103.3ZM7.2 32.6C8 32.2 8.4 31.3 8.2 30.4C8 29.3 6.9 28.5 5.8 28.7C5.1 28.8 4.6 29.3 4.3 29.8C4.4 29.9 4.5 30 4.6 30.1C5.5 31.1 6.3 31.9 7.2 32.6ZM2.2 72.3C2.1 71.7 1.6 71.3 1 71.3V73.7C1.1 73.7 1.1 73.7 1.2 73.7C1.9 73.6 2.3 72.9 2.2 72.3ZM2.4 192.4C1.9 192.6 1.5 192.8 1 193V193.7C1.8 193.6 2.3 193 2.4 192.4ZM1.4 277.3C1.3 277.3 1.2 277.4 1.1 277.4V279C1.3 279.1 1.5 279.2 1.8 279.1C2.3 279 2.7 278.5 2.6 278C2.4 277.6 1.9 277.2 1.4 277.3ZM2.2 253.2C2.1 252.6 1.6 252.2 1 252.2V254.6C1.1 254.6 1.1 254.6 1.2 254.6C1.9 254.5 2.3 253.9 2.2 253.2ZM1.9 229.4C1.8 229 1.5 228.7 1.1 228.7V230.4H1.2C1.6 230.3 1.9 229.9 1.9 229.4ZM1.4 96.4C1.3 96.4 1.2 96.5 1.1 96.5V98.1C1.3 98.2 1.5 98.3 1.8 98.2C2.3 98.1 2.7 97.6 2.6 97.1C2.4 96.6 1.9 96.3 1.4 96.4ZM37.1 29.4C37 28.9 36.6 28.6 36.1 28.7C35.6 28.8 35.3 29.2 35.4 29.7C35.5 30.2 35.9 30.5 36.4 30.4C36.9 30.3 37.2 29.9 37.1 29.4ZM35.3 165.5C35.9 165.4 36.4 164.8 36.3 164.1C36.2 163.5 35.6 163 34.9 163.1C34.2 163.2 33.8 163.8 33.9 164.5C34 165.2 34.6 165.6 35.3 165.5ZM39.4 129.4C39.2 128.3 38.1 127.6 37 127.8C35.9 128 35.2 129.1 35.4 130.2C35.6 131.3 36.7 132 37.8 131.8C38.8 131.6 39.6 130.6 39.4 129.4ZM34.7 59.1C34.9 60.1 35.9 60.8 36.9 60.6C37.3 60.5 37.6 60.3 37.9 60C38.1 60.2 38.4 60.3 38.7 60.3C39.2 60.2 39.5 59.7 39.4 59.3C39.3 58.8 38.8 58.5 38.4 58.6V58.5C38.2 57.5 37.2 56.8 36.2 57C35.1 57.2 34.5 58.1 34.7 59.1ZM36.1 144.8C35.1 145 34.4 146 34.6 147C34.8 148 35.8 148.7 36.8 148.5C37.2 148.4 37.5 148.2 37.8 147.9C38 148.1 38.3 148.2 38.6 148.2C39.1 148.1 39.4 147.6 39.3 147.2C39.2 146.7 38.7 146.4 38.3 146.5V146.4C38.1 145.3 37.2 144.6 36.1 144.8ZM33.9 76.7C34 77.4 34.6 77.8 35.3 77.7C35.9 77.6 36.4 77 36.3 76.3C36.2 75.7 35.6 75.2 34.9 75.3C34.2 75.4 33.7 76.1 33.9 76.7ZM40 96.6C39.9 96 39.3 95.6 38.7 95.7C38.1 95.8 37.7 96.4 37.8 97C37.9 97.6 38.5 98 39.1 97.9C39.7 97.8 40.1 97.2 40 96.6ZM40.3 69.3C40.2 68.5 39.4 68 38.6 68.1C37.8 68.2 37.3 69 37.4 69.8C37.5 70.6 38.3 71.1 39.1 71C40 70.8 40.5 70.1 40.3 69.3ZM40.1 124.5C40 123.7 39.2 123.2 38.4 123.3C37.6 123.4 37.1 124.2 37.2 125C37.3 125.8 38.1 126.3 38.9 126.2C39.7 126.1 40.3 125.3 40.1 124.5ZM43.4 106.1C42.5 106.3 42 107.1 42.1 108C42.3 108.9 43.1 109.4 44 109.3C44.9 109.1 45.4 108.3 45.3 107.4C45.1 106.5 44.2 106 43.4 106.1ZM47.1 143.1C47.8 143 48.3 142.3 48.2 141.6C48.1 140.9 47.4 140.4 46.7 140.5C46 140.6 45.5 141.3 45.6 142C45.7 142.8 46.4 143.3 47.1 143.1ZM35.3 42.4C35.5 43.5 36.6 44.2 37.7 44C38.8 43.8 39.5 42.7 39.3 41.6C39.1 40.5 38 39.8 36.9 40C35.9 40.2 35.1 41.3 35.3 42.4ZM47.1 55.3C47.8 55.2 48.3 54.5 48.2 53.8C48.1 53.1 47.4 52.6 46.7 52.7C46 52.8 45.5 53.5 45.6 54.2C45.7 55 46.4 55.4 47.1 55.3ZM31 127.4C30.1 127.6 29.6 128.4 29.7 129.3C29.9 130.2 30.7 130.7 31.6 130.6C32.5 130.4 33 129.6 32.9 128.7C32.7 127.8 31.9 127.2 31 127.4ZM31.1 132.3C31.2 132.9 31.7 133.2 32.3 133.1C32.9 133 33.2 132.5 33.1 131.9C33 131.3 32.5 131 31.9 131.1C31.3 131.2 31 131.7 31.1 132.3ZM33.5 143.2C34.4 143 35.1 142.1 34.9 141.2C34.7 140.3 33.8 139.6 32.9 139.8C32 140 31.3 140.9 31.5 141.8C31.6 142.8 32.5 143.4 33.5 143.2ZM29.7 222.4C29.9 223.3 30.7 223.8 31.6 223.7C32.5 223.5 33 222.7 32.9 221.8C32.7 220.9 31.9 220.4 31 220.5C30.2 220.7 29.6 221.5 29.7 222.4ZM31.6 42.7C32.5 42.5 33 41.7 32.9 40.8C32.7 39.9 31.9 39.4 31 39.5C30.1 39.7 29.6 40.5 29.7 41.4C29.9 42.3 30.7 42.9 31.6 42.7ZM39.1 66.4C39.3 67.2 40 67.8 40.9 67.6C41.7 67.4 42.3 66.7 42.1 65.8C41.9 65 41.2 64.4 40.3 64.6C39.5 64.8 39 65.6 39.1 66.4ZM37.2 37.3C37.3 38.1 38.1 38.6 38.9 38.5C39.7 38.4 40.2 37.6 40.1 36.8C40 36 39.2 35.5 38.4 35.6C37.6 35.7 37.1 36.5 37.2 37.3ZM42.8 45.2C43.4 45.1 43.8 44.5 43.7 44C43.6 43.4 43 43 42.5 43.1C41.9 43.2 41.5 43.8 41.6 44.3C41.6 44.9 42.2 45.3 42.8 45.2ZM43.4 128.4C42.8 128.5 42.4 129.1 42.5 129.7C42.6 130.3 43.2 130.7 43.8 130.6C44.4 130.5 44.8 129.9 44.7 129.3C44.5 128.6 43.9 128.3 43.4 128.4ZM43.7 42.7C44.3 42.6 44.7 42 44.6 41.4C44.5 40.8 43.9 40.4 43.3 40.5C42.7 40.6 42.3 41.2 42.4 41.8C42.6 42.4 43.2 42.8 43.7 42.7ZM36.1 14C37.1 13.8 37.7 12.9 37.5 11.9C37.3 10.9 36.4 10.3 35.4 10.5C34.4 10.7 33.8 11.6 34 12.6C34.2 13.5 35.1 14.2 36.1 14ZM31.9 43.3C31.3 43.4 31 43.9 31.1 44.5C31.2 45.1 31.7 45.4 32.3 45.3C32.9 45.2 33.2 44.7 33.1 44.1C33 43.5 32.5 43.2 31.9 43.3ZM31.4 54C31.6 54.9 32.5 55.6 33.4 55.4C34.3 55.2 35 54.3 34.8 53.4C34.6 52.5 33.7 51.8 32.8 52C31.9 52.2 31.3 53.1 31.4 54ZM42.8 226.1C43.4 226 43.8 225.4 43.7 224.9C43.6 224.3 43 223.9 42.5 224C41.9 224.1 41.5 224.7 41.6 225.2C41.6 225.8 42.2 226.2 42.8 226.1ZM44.6 222.4C44.5 221.8 43.9 221.4 43.3 221.5C42.7 221.6 42.3 222.2 42.4 222.8C42.5 223.4 43.1 223.8 43.7 223.7C44.3 223.5 44.7 223 44.6 222.4ZM40.3 157.1C40.2 156.3 39.4 155.8 38.6 155.9C37.8 156 37.3 156.8 37.4 157.6C37.5 158.4 38.3 158.9 39.1 158.8C40 158.7 40.5 157.9 40.3 157.1ZM37.7 225C38.8 224.8 39.5 223.7 39.3 222.6C39.1 221.5 38 220.8 36.9 221C35.8 221.2 35.1 222.3 35.3 223.4C35.6 224.4 36.6 225.2 37.7 225ZM36.1 209.7C35.6 209.8 35.3 210.2 35.4 210.7C35.5 211.2 35.9 211.5 36.4 211.4C36.9 211.3 37.2 210.9 37.1 210.4C37 209.9 36.6 209.6 36.1 209.7ZM40.1 217.7C40 216.9 39.2 216.4 38.4 216.5C37.6 216.6 37.1 217.4 37.2 218.2C37.3 219 38.1 219.5 38.9 219.4C39.7 219.2 40.3 218.5 40.1 217.7ZM40.9 155.4C41.7 155.2 42.3 154.5 42.1 153.6C41.9 152.8 41.2 152.2 40.3 152.4C39.5 152.6 38.9 153.3 39.1 154.2C39.3 155 40.1 155.6 40.9 155.4ZM36.1 194.9C37.1 194.7 37.7 193.8 37.5 192.8C37.3 191.8 36.4 191.2 35.4 191.4C34.4 191.6 33.8 192.5 34 193.5C34.2 194.5 35.1 195.1 36.1 194.9ZM42.8 133C43.4 132.9 43.8 132.3 43.7 131.8C43.6 131.2 43 130.8 42.5 130.9C41.9 131 41.5 131.6 41.6 132.1C41.6 132.7 42.2 133.1 42.8 133ZM11.6 227.7C12.2 227.6 12.5 227.1 12.4 226.5C12.3 225.9 11.8 225.6 11.2 225.7C10.6 225.8 10.3 226.3 10.4 226.9C10.5 227.5 11 227.8 11.6 227.7ZM84.1 295.1C83.3 295.3 82.7 296.1 82.9 296.9C83.1 297.7 83.8 298.3 84.7 298.1C85.5 297.9 86.1 297.2 85.9 296.3C85.8 295.5 85 294.9 84.1 295.1ZM80.1 277.6C78.9 277.8 78.1 279 78.3 280.3C78.5 281.5 79.7 282.3 81 282.1C82.2 281.9 83.1 280.7 82.8 279.5C82.6 278.2 81.4 277.4 80.1 277.6ZM80 218.6C79.9 217.9 79.2 217.5 78.6 217.6C77.9 217.7 77.5 218.4 77.6 219C77.7 219.7 78.4 220.1 79 220C79.7 219.9 80.2 219.3 80 218.6ZM72.7 78.6C71.7 78.8 71.1 79.7 71.3 80.6C71.5 81.6 72.4 82.2 73.3 82C74.3 81.8 74.9 80.9 74.7 80C74.6 79 73.6 78.4 72.7 78.6ZM84.3 68.7C83.5 68.8 83 69.6 83.1 70.4C83.2 71.2 84 71.7 84.8 71.6C85.6 71.5 86.1 70.7 86 69.9C85.8 69 85.1 68.5 84.3 68.7ZM59.3 271.2C59.7 271.1 60 270.7 59.9 270.3C59.8 269.9 59.4 269.6 59 269.7C58.6 269.8 58.3 270.2 58.4 270.6C58.5 271 58.9 271.3 59.3 271.2ZM72.7 166.4C71.7 166.6 71.1 167.5 71.3 168.4C71.5 169.4 72.4 170 73.3 169.8C74.3 169.6 74.9 168.7 74.7 167.8C74.6 166.8 73.6 166.2 72.7 166.4ZM90.4 210.7C91.4 210.5 92.1 209.5 91.9 208.5C91.7 207.5 90.7 206.8 89.7 207C88.7 207.2 88 208.2 88.2 209.2C88.4 210.2 89.4 210.8 90.4 210.7ZM84.3 156.5C83.5 156.6 83 157.4 83.1 158.2C83.2 159 84 159.5 84.8 159.4C85.6 159.3 86.1 158.5 86 157.7C85.8 156.8 85.1 156.3 84.3 156.5ZM89.4 193.1C90 193 90.3 192.5 90.2 191.9C90.1 191.3 89.6 191 89 191.1C88.4 191.2 88.1 191.7 88.2 192.3C88.3 192.9 88.8 193.2 89.4 193.1ZM64.3 290.3C63.9 290.4 63.7 290.7 63.8 291.1C63.9 291.5 64.2 291.7 64.6 291.6C65 291.5 65.2 291.2 65.1 290.8C65 290.4 64.6 290.2 64.3 290.3ZM72.7 259.5C71.7 259.7 71.1 260.6 71.3 261.5C71.5 262.5 72.4 263.1 73.3 262.9C74.3 262.7 74.9 261.8 74.7 260.9C74.6 260 73.6 259.3 72.7 259.5ZM60.5 272.5C59.3 272.7 58.5 273.9 58.7 275.1C58.9 276.3 60.1 277.1 61.3 276.9C62.5 276.7 63.3 275.5 63.1 274.3C62.9 273.1 61.8 272.3 60.5 272.5ZM66.5 277.2C65.7 277.3 65.2 278.1 65.4 278.9C65.5 279.7 66.3 280.2 67.1 280C67.9 279.9 68.4 279.1 68.2 278.3C68 277.6 67.3 277.1 66.5 277.2ZM66.7 246C66.6 245.5 66.1 245.2 65.6 245.3C65.1 245.4 64.8 245.9 64.9 246.4C65 246.9 65.5 247.2 66 247.1C66.5 247 66.8 246.5 66.7 246ZM72.4 231.6C73.2 231.4 73.8 230.7 73.6 229.8C73.4 229 72.6 228.4 71.8 228.6C71 228.8 70.4 229.6 70.6 230.4C70.7 231.2 71.5 231.7 72.4 231.6ZM67.1 265.5C66.4 265.6 65.9 266.3 66 267C66.1 267.7 66.8 268.2 67.5 268.1C68.2 268 68.7 267.3 68.6 266.6C68.5 265.8 67.8 265.3 67.1 265.5ZM67.8 211.1C66.6 211.3 65.8 212.5 66 213.8C66.2 215 67.4 215.8 68.7 215.6C69.9 215.4 70.7 214.2 70.5 212.9C70.2 211.6 69 210.8 67.8 211.1ZM84.3 249.6C83.5 249.7 83 250.5 83.1 251.3C83.2 252.1 84 252.6 84.8 252.5C85.6 252.4 86.1 251.6 86 250.8C85.8 250 85.1 249.5 84.3 249.6ZM101.7 259.7C102.3 259.6 102.6 259.1 102.5 258.5C102.4 257.9 101.9 257.6 101.3 257.7C100.7 257.8 100.4 258.3 100.5 258.9C100.6 259.4 101.2 259.8 101.7 259.7ZM102.8 277.2C103.8 277 104.5 276 104.3 275C104.1 274 103.1 273.3 102.1 273.5C101.1 273.7 100.4 274.7 100.6 275.7C100.8 276.7 101.8 277.4 102.8 277.2ZM95.9 60.6C94.8 60.8 94 61.9 94.2 63C94.4 64.1 95.5 64.9 96.6 64.7C97.7 64.5 98.5 63.4 98.3 62.3C98.2 61.2 97.1 60.4 95.9 60.6ZM95.9 148.4C94.8 148.6 94 149.7 94.2 150.8C94.4 151.9 95.5 152.7 96.6 152.5C97.7 152.3 98.5 151.2 98.3 150.1C98.2 149 97.1 148.2 95.9 148.4ZM107.5 250.5C106.9 250.6 106.4 251.2 106.5 251.9C106.6 252.5 107.2 253 107.9 252.9C108.5 252.8 109 252.2 108.9 251.5C108.8 250.9 108.1 250.4 107.5 250.5ZM92 168.2C91.9 167.7 91.4 167.4 91 167.5C90.5 167.6 90.2 168.1 90.3 168.5C90.4 169 90.9 169.3 91.3 169.2C91.8 169.1 92.1 168.7 92 168.2ZM102.9 288.8C102 289 101.3 289.9 101.5 290.8C101.7 291.7 102.6 292.4 103.5 292.2C104.4 292 105.1 291.1 104.9 290.2C104.8 289.2 103.9 288.6 102.9 288.8ZM105.3 257.1C104.6 257.2 104.1 257.9 104.2 258.7C104.3 259.4 105 259.9 105.8 259.8C106.5 259.7 107 259 106.9 258.2C106.7 257.4 106 256.9 105.3 257.1ZM95.9 241.6C94.8 241.8 94 242.9 94.2 244C94.4 245.1 95.5 245.9 96.6 245.7C97.7 245.5 98.5 244.4 98.3 243.3C98.2 242.1 97.1 241.3 95.9 241.6ZM95.6 186.4C96.2 186.3 96.7 185.7 96.6 185C96.5 184.4 95.9 183.9 95.2 184C94.6 184.1 94.1 184.7 94.2 185.4C94.3 186.1 94.9 186.5 95.6 186.4ZM92 261.3C91.9 260.8 91.4 260.5 91 260.6C90.5 260.7 90.2 261.2 90.3 261.6C90.4 262.1 90.9 262.4 91.3 262.3C91.8 262.3 92.1 261.8 92 261.3ZM90.9 284.2C90.2 284.3 89.8 285 89.9 285.6C90 286.3 90.7 286.7 91.3 286.6C92 286.5 92.4 285.8 92.3 285.2C92.2 284.5 91.6 284 90.9 284.2ZM90.6 129.1C89.7 129.3 89 130.2 89.2 131.1C89.4 132 90.3 132.7 91.2 132.5C92.1 132.3 92.8 131.4 92.6 130.5C92.4 129.5 91.5 128.9 90.6 129.1ZM90.6 222.2C89.7 222.4 89 223.3 89.2 224.2C89.4 225.1 90.3 225.8 91.2 225.6C92.1 225.4 92.8 224.5 92.6 223.6C92.4 222.7 91.5 222.1 90.6 222.2ZM90.6 41.3C89.7 41.5 89 42.4 89.2 43.3C89.4 44.2 90.3 44.9 91.2 44.7C92.1 44.5 92.8 43.6 92.6 42.7C92.4 41.7 91.5 41.1 90.6 41.3ZM89.9 104.7C90 105.4 90.7 105.8 91.3 105.7C92 105.6 92.4 104.9 92.3 104.3C92.2 103.6 91.5 103.2 90.9 103.3C90.3 103.3 89.8 104 89.9 104.7ZM92 80.4C91.9 79.9 91.4 79.6 91 79.7C90.5 79.8 90.2 80.3 90.3 80.7C90.4 81.2 90.9 81.5 91.3 81.4C91.8 81.3 92.1 80.9 92 80.4ZM44.2 290.7C43.6 290.8 43.3 291.3 43.4 291.9C43.5 292.5 44 292.8 44.6 292.7C45.2 292.6 45.5 292.1 45.4 291.5C45.3 291 44.8 290.6 44.2 290.7ZM32.3 226.2C32.9 226.1 33.2 225.6 33.1 225C33 224.4 32.5 224.1 31.9 224.2C31.3 224.3 31 224.8 31.1 225.4C31.2 226 31.7 226.3 32.3 226.2ZM34.8 234.3C34.6 233.4 33.7 232.7 32.8 232.9C31.9 233.1 31.2 234 31.4 234.9C31.6 235.8 32.5 236.5 33.4 236.3C34.4 236.2 35 235.3 34.8 234.3ZM29.7 285.1C29.1 285.2 28.6 285.8 28.7 286.5C28.8 287.1 29.4 287.6 30.1 287.5C30.7 287.4 31.2 286.8 31.1 286.1C31 285.4 30.3 285 29.7 285.1ZM34.8 256.3C34.1 256.4 33.7 257 33.8 257.7C33.9 258.4 34.5 258.8 35.2 258.7C35.8 258.6 36.3 258 36.2 257.3C36.1 256.6 35.5 256.1 34.8 256.3ZM38.6 241.3C39.1 241.2 39.4 240.7 39.3 240.3C39.2 239.8 38.7 239.5 38.3 239.6V239.5C38.1 238.5 37.1 237.8 36.1 238C35.1 238.2 34.4 239.2 34.6 240.2C34.8 241.2 35.8 241.9 36.8 241.7C37.2 241.6 37.5 241.4 37.8 241.1C38 241.2 38.3 241.3 38.6 241.3ZM27.5 291.6C26.8 291.7 26.3 292.4 26.4 293.2C26.5 293.9 27.2 294.4 28 294.3C28.7 294.2 29.2 293.5 29.1 292.7C28.9 292 28.2 291.5 27.5 291.6ZM38.6 249.1C37.8 249.2 37.3 250 37.4 250.8C37.5 251.6 38.3 252.1 39.1 252C39.9 251.9 40.4 251.1 40.3 250.3C40.2 249.4 39.4 248.9 38.6 249.1ZM42.1 246.8C41.9 246 41.2 245.4 40.3 245.6C39.5 245.8 38.9 246.5 39.1 247.4C39.3 248.2 40 248.8 40.9 248.6C41.7 248.4 42.3 247.6 42.1 246.8ZM38.7 276.6C38.1 276.7 37.7 277.3 37.8 277.9C37.9 278.5 38.5 278.9 39.1 278.8C39.7 278.7 40.1 278.1 40 277.5C39.9 276.9 39.3 276.5 38.7 276.6ZM18.1 276.2C17 276.4 16.2 277.5 16.4 278.6C16.6 279.7 17.7 280.5 18.8 280.3C19.9 280.1 20.7 279 20.5 277.9C20.4 276.7 19.3 275.9 18.1 276.2ZM17.3 125.5C16.7 125.6 16.2 126.2 16.3 126.9C16.4 127.5 17 128 17.7 127.9C18.3 127.8 18.8 127.2 18.7 126.5C18.6 125.8 18 125.4 17.3 125.5ZM18 218.7C18 219.4 18 220.1 18.1 220.8C18.5 220.6 18.8 220.1 18.7 219.5C18.7 219.1 18.4 218.8 18 218.7ZM46.9 23.7C47.3 23.6 47.6 23.2 47.5 22.8C47.4 22.4 47 22.1 46.6 22.2C46.2 22.3 45.9 22.7 46 23.1C46.1 23.5 46.5 23.8 46.9 23.7ZM16.7 45.2C16.6 44.5 15.9 44 15.1 44.1C14.4 44.2 13.9 44.9 14 45.7C14.1 46.4 14.8 46.9 15.6 46.8C16.3 46.7 16.8 46 16.7 45.2ZM23.6 292.3C23 292.4 22.7 292.9 22.8 293.5C22.9 294.1 23.4 294.4 24 294.3C24.6 294.2 24.9 293.7 24.8 293.1C24.6 292.5 24.1 292.1 23.6 292.3ZM23.9 190.7C23.8 190.1 23.2 189.6 22.5 189.7C21.9 189.8 21.4 190.4 21.5 191.1C21.6 191.8 22.2 192.2 22.9 192.1C23.6 192 24 191.3 23.9 190.7ZM18.1 95.2C17 95.4 16.2 96.5 16.4 97.6C16.6 98.7 17.7 99.5 18.8 99.3C19.9 99.1 20.7 98 20.5 96.9C20.4 95.7 19.3 95 18.1 95.2ZM15.1 132C14.8 132.1 14.5 132.2 14.3 132.4C14.8 132.2 15.4 132.1 15.9 132.1C15.7 132 15.4 131.9 15.1 132ZM51.9 223.7C51.5 223.8 51.3 224.1 51.4 224.5C51.5 224.9 51.8 225.1 52.2 225C52.6 224.9 52.8 224.6 52.7 224.2C52.6 223.9 52.3 223.7 51.9 223.7ZM55.1 262.8C56.1 262.6 56.7 261.7 56.5 260.8C56.3 259.8 55.4 259.2 54.4 259.4C53.4 259.6 52.8 260.5 53 261.5C53.3 262.3 54.2 263 55.1 262.8ZM51.9 42.8C51.5 42.9 51.3 43.2 51.4 43.6C51.5 44 51.8 44.2 52.2 44.1C52.6 44 52.8 43.7 52.7 43.3C52.6 43 52.3 42.7 51.9 42.8ZM51.9 130.6C51.5 130.7 51.3 131 51.4 131.4C51.5 131.8 51.8 132 52.2 131.9C52.6 131.8 52.8 131.5 52.7 131.1C52.6 130.8 52.3 130.5 51.9 130.6ZM54.7 213.5C55.5 213.4 56 212.6 55.8 211.8C55.7 211 54.9 210.5 54.1 210.7C53.3 210.8 52.8 211.6 53 212.4C53.1 213.1 53.9 213.6 54.7 213.5ZM54.7 290.5C54.1 290.6 53.7 291.2 53.9 291.7C54 292.3 54.6 292.7 55.1 292.6C55.7 292.5 56.1 291.9 56 291.4C55.9 290.8 55.3 290.4 54.7 290.5ZM44 290.2C44.9 290 45.4 289.2 45.3 288.3C45.1 287.4 44.3 286.9 43.4 287C42.5 287.2 42 288 42.1 288.9C42.3 289.8 43.1 290.4 44 290.2ZM55.7 288C55.1 288.1 54.7 288.7 54.8 289.3C54.9 289.9 55.5 290.3 56.1 290.2C56.7 290.1 57.1 289.5 57 288.9C56.8 288.3 56.3 287.9 55.7 288ZM57.5 246.1C57.7 245.7 57.8 245.2 57.7 244.7C57.5 243.5 56.3 242.7 55.1 242.9C53.9 243.1 53.1 244.3 53.3 245.5C53.5 246.4 54.1 247 55 247.3C55 247.4 55 247.5 55 247.6C55.2 248.5 56 249 56.8 248.9C57.7 248.7 58.2 247.9 58.1 247.1C57.9 246.6 57.7 246.3 57.5 246.1ZM47.1 236.3C47.8 236.2 48.3 235.5 48.2 234.8C48.1 234.1 47.4 233.6 46.7 233.7C46 233.8 45.5 234.5 45.6 235.2C45.7 235.9 46.4 236.4 47.1 236.3ZM44.2 109.8C43.6 109.9 43.3 110.4 43.4 111C43.5 111.6 44 111.9 44.6 111.8C45.2 111.7 45.5 111.2 45.4 110.6C45.3 110.1 44.8 109.7 44.2 109.8ZM50.8 283C50 283.1 49.5 283.9 49.6 284.7C49.7 285.5 50.5 286 51.3 285.9C52.1 285.8 52.6 285 52.5 284.2C52.3 283.4 51.6 282.9 50.8 283ZM47 239.7C47.4 239.6 47.7 239.2 47.6 238.8C47.5 238.4 47.1 238.1 46.7 238.2C46.3 238.3 46 238.7 46.1 239.1C46.1 239.5 46.6 239.8 47 239.7ZM56.1 233.4C55.1 233.6 54.4 234.6 54.6 235.6C54.8 236.6 55.8 237.3 56.8 237.1C57.8 236.9 58.5 235.9 58.3 234.9C58.1 233.9 57.1 233.2 56.1 233.4ZM49.3 287.5C48.2 287.7 47.5 288.8 47.7 289.9C47.9 291 49 291.7 50.1 291.5C51.2 291.3 51.9 290.2 51.7 289.1C51.5 288 50.4 287.3 49.3 287.5ZM48.4 261.4C49.4 261.2 50 260.3 49.8 259.3C49.6 258.3 48.7 257.7 47.7 257.9C46.7 258.1 46.1 259 46.3 260C46.5 261 47.4 261.6 48.4 261.4ZM48.5 276.2C48 276.3 47.7 276.7 47.8 277.2C47.9 277.7 48.3 278 48.8 277.9C49.3 277.8 49.6 277.4 49.5 276.9C49.4 276.4 48.9 276.1 48.5 276.2Z" fill="black"/>
<path d="M50.5 0.100006H51.5V300.1H50.5V0.100006Z" fill="#F15B40"/>
<path d="M19.6 190.6H301V189.6H20.3C20.1 190 19.9 190.3 19.6 190.6ZM19.6 290.6H301V289.6H20.3C20.1 290 19.9 290.3 19.6 290.6ZM11.7 9.60001H1V10.6H11.3C11.4 10.3 11.5 9.90001 11.7 9.60001ZM20.7 210.6H301V209.6H20.3C20.5 209.9 20.6 210.3 20.7 210.6ZM17.8 230.6H301V229.6H17.7C17.7 230 17.8 230.3 17.8 230.6ZM1 270.6H301V269.6H1V270.6ZM11.7 209.6H1V210.6H11.3C11.4 210.3 11.5 209.9 11.7 209.6ZM13.8 230C13.8 229.9 13.8 229.7 13.7 229.6H1V230.6H13.8C13.8 230.4 13.8 230.2 13.8 230ZM11.7 189.6H9.6C9.1 189.7 8.7 189.7 8.3 189.9C7.6 190.1 7 190.4 6.3 190.6H12.4C12.1 190.3 11.9 190 11.7 189.6ZM4.5 289.6C4.1 289.8 3.6 290.1 3.2 290.2C2.6 290.4 2 290.5 1.4 290.6H12.5C12.2 290.3 11.9 290 11.7 289.6H4.5ZM1 250.6H301V249.6H1V250.6ZM1 70.6H301V69.6H1V70.6ZM1 50.6H301V49.6H1V50.6ZM1 170.6H301V169.6H1V170.6ZM4.6 30.1C4.7 30.3 4.9 30.4 5 30.6H301V29.6H4.1C4.3 29.8 4.5 29.9 4.6 30.1ZM19.6 90.6H301V89.6H20.3C20.1 90 19.9 90.3 19.6 90.6ZM20.3 9.60001C20.5 9.90001 20.6 10.2 20.7 10.6H301V9.60001H20.3ZM1 150.6H301V149.6H1V150.6ZM1 130.6H301V129.6H1V130.6ZM20.7 110.6H301V109.6H20.3C20.5 109.9 20.6 110.3 20.7 110.6ZM11.7 109.6H11.5L11.6 109.7C11.7 109.7 11.7 109.7 11.7 109.6ZM12 90.1C11.6 90.3 11.2 90.5 10.8 90.6H12.4C12.3 90.5 12.1 90.3 12 90.1Z" fill="#75BEE9"/>
</svg>
