<svg width="102" height="111" viewBox="0 0 102 111" fill="none" xmlns="http://www.w3.org/2000/svg">
<path d="M73.3 106.4C79.5 105.6 85 103.2 90.8 101.3C90.7 101 90.6 100.8 90.5 100.5C90.3 99.4 91.7 98.2 92.6 99.3C93.6 100.5 94.9 101.8 96.4 102.2C96.8 102.3 97.9 102.6 98.2 102C98.5 101.4 98 100.5 97.8 100C97.7 99.7 97.4 99.4 97.1 98.9C96.1 100.2 93.9 98.8 94.7 97.2C100 87.1 96.8 76.8 97.2 66.2C97 66.4 96.7 66.6 96.5 66.8C95.4 67.5 93.7 67.7 93.5 66C93.3 64.5 95.4 63.3 96.2 62.3C96.9 61.4 99.3 58.4 98.4 57.1C98 56.6 97.2 56.4 96.2 56.4C96 56.5 95.9 56.5 95.7 56.5C90.4 56.4 85.4 55 80.3 53.7C77.6 59.5 74.8 65.2 72.7 71.2C73.9 71.8 74.9 72.7 75.5 73.9C76.2 75.4 74.3 76.5 73.3 75.2C71.9 73.3 70.1 72.9 67.9 72.8C66.7 72.8 66.4 70.8 67.6 70.6C68.4 70.4 69.3 70.4 70.2 70.5C71.4 65 74 60 76.5 55C76.8 54.3 77.1 53.7 77.4 53C74.7 52.3 72 51.8 69.2 51.5C67.5 55.6 65.7 59.5 63.4 63.2L63.3 63.3C64.5 64 66.2 65.3 65.8 66.7C65.6 67.4 65.1 67.7 64.5 67.7C63.6 67.8 63.2 66.7 62.6 66.2C61.4 65.1 59.9 64.6 58.2 64.6C56.9 64.6 56.6 62.5 57.9 62.3C58.7 62.2 59.4 62.2 60.2 62.2V62.1C61 58.1 62 54.1 63 50.2C59 49.9 55.1 49.7 51.1 49.8C51.6 57.2 52.2 64.5 53.3 71.8C53.4 71.8 53.6 71.8 53.7 71.8C55.7 71.8 58 72.8 58.1 75.2C58.1 75.8 57.5 76.2 57 76C55.4 75.5 54.5 74.2 52.7 74.8C51.3 75.2 50.2 76.1 48.9 76.6C47.8 77 47 75.4 47.8 74.6C48.4 74 49.2 73.4 50 72.9C48.8 65.4 47.6 57.6 47.3 49.9C43.1 50 38.9 50.4 34.7 50.8C36.2 55.7 37.8 60.7 39.7 65.5C41.3 65.9 43.8 66.7 44.5 68C44.7 68.4 44.6 69.1 44.2 69.4C42.7 70.1 41.2 69 39.7 68.5C37.7 67.8 36.7 68.5 35 69.6C33.8 70.4 32.8 68.7 33.6 67.7C34.3 66.8 35.2 66.1 36.2 65.7C34.1 60.9 32.5 56 30.9 51C28.9 51.8 26.5 52.2 24.5 53C22.3 53.8 19.9 54.9 17.6 54.7C14.7 54.5 11.1 54 12.5 58.3C13.1 60.1 14.1 61.7 14.7 63.5C15 64.4 14 65 13.2 64.7L13.1 64.6C12.6 65.9 12 67.2 11.8 68.6C11.4 71.6 11 74.6 10.6 77.5C9.89998 82.4 8.99998 87.2 7.09998 91.8C7.59998 91.7 8 91.7 8.5 91.8C9.2 91.9 9.80002 93 8.90002 93.4C7.20002 94.2 2.79999 95.8 2.79999 98.2C2.79999 100 4.39999 99.9 5.79999 99.7C7.69999 99.4 9.40001 98.8 11.2 98.3C12.1 98.1 13.6 97.6 14.4 98.4C14.6 98.6 14.7 99 14.6 99.3C14.4 100.1 13.5 100.7 12.4 101.1C14 101.8 15.6 102.7 17.3 103C21.3 103.8 25.4 104.5 29.5 105.1C36.4 106 43.3 106.7 50.3 107C58.2 107.1 65.8 107.3 73.3 106.4ZM79.4 65.8C81.5 66.6 83.4 68.1 84.9 69.7C85.4 70.2 84.9 71.4 84.1 71.1C82.1 70.3 80.3 69 78.6 67.8C77.7 67.2 78.3 65.4 79.4 65.8ZM73.6 80.2C74.6 80.3 75.3 80.6 76.2 81.1C77 81.6 77.9 81.9 78.8 82.3C79.5 82.6 79.6 83.6 78.8 83.9C76.7 84.6 75.3 82.7 73.4 82.1C72.4 81.7 72.5 80 73.6 80.2ZM91.3 84.4C91.7 83.6 92.8 83.9 93.1 84.6C95 90.4 84.8 97.3 80.6 99.1C73.7 102.1 62 104 55.1 100.8C54.2 100.4 54.9 99.2 55.7 99.3C69.3 101.5 84.5 97.4 91.3 84.4ZM58.5 82.7C60.4 83.2 62.2 83.9 63.7 85.3C64.3 85.8 63.7 86.9 63 86.6C61.3 86 59.7 85.2 58 84.5C56.9 84.1 57.3 82.4 58.5 82.7ZM35.7 75.7C38.3 78.8 42.4 80.5 45.8 82.5C49.3 84.6 52.8 86.5 56.2 88.9C56.9 89.4 56.5 90.8 55.6 90.4C50.8 88.7 46.5 85.7 42.1 83C39.3 81.3 35.8 79.9 34.4 76.7C34 76 35 74.9 35.7 75.7ZM28 76.1C29.3 77.7 30.7 78.9 32.4 79.9C33.9 80.8 35.3 81.6 36.6 82.7C37.2 83.2 36.6 84.4 35.8 84.1C33.8 83.3 31.9 82.3 30.1 81C28.7 80 27 78.7 26.6 76.9C26.5 76.1 27.4 75.4 28 76.1ZM18.9 62.8C19.4 62.4 20.4 62.7 20.1 63.5C18.9 66.6 16.7 69.4 16.7 72.8C16.7 74.2 14.7 74.2 14.6 72.8C14.3 69.2 16.1 65.1 18.9 62.8ZM47.7 100.7C43.3 100.5 37.9 101.2 33.9 99.2C29.6 97 25.3 99.8 20.8 98C13.2 94.9 11 91 12.2 82.8C12.4 81.6 14.2 81.9 14.2 83.1C14.4 89.4 16.7 94.1 23 95.6C25.9 96.3 27.9 94.5 30.5 95C34.5 95.7 37.7 97.5 41.9 97.7C44.2 97.8 46 98.1 48.1 99.1C49 99.4 48.6 100.7 47.7 100.7Z" fill="#CCDFE3"/>
<path d="M78.1 16C78.6 13.6 79 11.1 79.2 8.59996C79.2 8.49996 79.2 1.39997 77.4 3.79997C71.4 11.5 71.4 23.1 69.9 32.3C68.7 39.4 67.2 46.5 65.4 53.5C68.4 46.3 70.6 38.8 73.2 31.5C75 26.4 77 21.3 78.1 16ZM75.2 10.9C75.3 10.7 75.4 10.5 75.6 10.3C76.2 9.49997 77.5 9.69997 77.5 10.8C77.5 13 76.8 15.2 75.6 17.1C75 18.1 73.4 17.7 73.5 16.5C73.5 14.6 73.8 12.3 75.2 10.9Z" fill="#ABF7E3"/>
<path d="M27.8 13.3C26.8 11.3 24.6 9.69996 22.3 10.3C22.2 10.3 22 10.4 21.9 10.4C19.1 12.1 16.6 15.8 17.9 19.3C19.1 22.4 23.3 23.9 25.8 21.4C27.8 19.5 29.3 16 27.8 13.3Z" fill="#FF719A"/>
<path d="M51.3 39C54.3 37.8 56 34.3 54.2 31.3C52.4 28.2 49.5 28.7 46.6 29.1C44.9 30.6 43.7 32.7 44.2 34.9C45 38.1 48.3 40.2 51.3 39Z" fill="#FFE785"/>
<path d="M75.5 17.1C76.6 15.2 77.3 13 77.4 10.8C77.4 9.70002 76.1 9.50002 75.5 10.3C75.4 10.5 75.3 10.7001 75.1 10.9001C73.7 12.3001 73.4 14.6 73.3 16.5C73.4 17.7 75 18.1 75.5 17.1Z" fill="#5F787D"/>
<path d="M92.5 103.3C92.8 103.5 93.1001 103.8 93.3001 103.9C94.7001 105 96.6 105.7 98.4 105.3C99.9 105 101.2 103.4 101.2 101.8C101.2 99.9 100.2 98.2 99.3001 96.7C99.1001 96.4 98.9 96.1 98.7 95.8C102.9 85.9 101.1 73.9 99.7 63.5C101 61.7 101.8 59.5 101.9 57.5C101.9 54.2 99.4001 53.7 96.8001 53.6C96.6001 53.4 96.2001 53.2 95.8001 53.2C91.1001 52.9 86.5 51.7 81.9 50.5C83.2 47.6 84.5 44.8 85.7 41.8C85.9 41.7 86.1001 41.5 86.3001 41.2C88.4001 38 92 36.2 94 32.8C95.9 29.6 93.8001 25.8 90.3001 25.1C84.4001 24 79.7 35.2 83.9 39.2C82.1 42.6 80.6 46.2 79.1 49.7C76.3 49.1 73.4 48.6 70.6 48.6C73.5 41 75.8 33 78.3 25.5C79.6 21.5 85.7 4.40002 80 0.900021C74.2 -2.59998 70.6 12.7 69.9 15.6C68 23 67.6 30.8 66.1 38.3C65.5 41.3 64.8 44.3 64.1 47.3C59.9 46.9 55.6 46.7 51.3 46.7C51.2 45.6 51.1 44.4 51.1 43.3C51.6 43.2 52.1 43.1 52.6 43C57.9 41.2 60 35.1 57.8 30.1C56.3 26.5 49.6 23.4 46.3 25.9C42.8 27 40.5 31.2 40.6 35C40.7 39.4 44 42.5 47.9 43.3C47.8 44.5 47.8 45.6 47.8 46.8C43.3 46.9 38.9 47.4 34.5 48.3C33.6 45.5 32.7 42.6 31.7 39.8C30.1 35.4 27.7 30.5 27.1 25.7C27.5 25.5 27.8 25.3 28.1 25C32.3 21.7 33.7 15.4 31.1 10.7C27.7 4.50001 17.2 5.09997 15 12.1C14.9 12.4 15 12.6 15.1 12.8C13.8 15.2 13.5 18.2 14.3 20.9C15.6 25.2 20.1 27.3 24.2 26.7C24.7 31.2 26.5 35.7 28 39.9C28.9 42.6 29.8 45.3 30.7 48C28.1 47.9 25.4 49.4 23.1 50.2C20.8 51.1 18.6 51.3 16.1 51.1C14.9 51 13.4 50.8 12.3 51.4C9.00001 53.2 9.50002 58.5 11.5 61.9C9.20002 64.7 9.10002 69.3 8.50002 72.6C7.30002 79.4 6.80001 86.2 3.80001 92.5C3.70001 92.8 3.6 93.1 3.6 93.3C2.7 94 1.90001 94.8 1.30001 95.7C-0.0999889 97.7 0.600036 100.7 2.70004 101.8C4.50004 102.8 6.90005 102.3 8.90005 101.8C9.00005 101.9 9.10004 102 9.20004 102C21.9 108.7 36.9 109.2 51 110C63.9 110.9 81.1 111.5 92.5 103.3ZM90.7 28.6C93.8 30.5 89 34.8 85.9 37.7C84.1 34.5 86.9 26.2 90.7 28.6ZM17.9 19.3C16.6 15.9 19.1 12.2 21.9 10.4C22 10.4 22.2 10.3 22.3 10.3C24.6 9.69998 26.7 11.3 27.8 13.3C29.2 16 27.8 19.5 25.8 21.4C23.3 23.9 19.1 22.4 17.9 19.3ZM69.9 32.4C71.4 23.1 71.3 11.6 77.4 3.90002C79.2 1.60002 79.2 8.60001 79.2 8.70001C79 11.2 78.6 13.6 78.1 16.1C77 21.4 75.1 26.5 73.2 31.6C70.6 38.9 68.4 46.5 65.4 53.6C67.2 46.5 68.8 39.5 69.9 32.4ZM44.3 35C43.8 32.7 45 30.6 46.7 29.2C49.6 28.8 52.4 28.3 54.3 31.4C56.1 34.4 54.4 37.9 51.4 39.1C48.3 40.2 45 38.1 44.3 35ZM17.8 102.8C16 102.5 14.5 101.6 12.9 100.9C13.9 100.5 14.8 99.9 15.1 99.1C15.2 98.8 15.1 98.5 14.9 98.2C14.1 97.4 12.6 97.9 11.7 98.1C9.90004 98.6 8.10001 99.3 6.30001 99.5C4.90001 99.7 3.30001 99.8 3.30001 98C3.30001 95.6 7.70005 94 9.40005 93.2C10.2 92.8 9.70002 91.7 9.00002 91.6C8.50002 91.5 8.1 91.6 7.6 91.6C9.5 87.1 10.4 82.3 11.1 77.3C11.5 74.3 11.9 71.3 12.3 68.4C12.5 67 13.1 65.7 13.6 64.4L13.7 64.5C14.4 64.9 15.5 64.3 15.2 63.3C14.6 61.5 13.6 59.9 13 58.1C11.5 53.8 15.1 54.3 18.1 54.5C20.5 54.7 22.9 53.6 25 52.8C27 52 29.4 51.7 31.4 50.8C33 55.7 34.6 60.7 36.7 65.5C35.7 65.9 34.8 66.6 34.1 67.5C33.3 68.5 34.3 70.1 35.5 69.4C37.2 68.3 38.2 67.6 40.2 68.3C41.7 68.9 43.1 70 44.7 69.2C45.2 69 45.3 68.3 45 67.8C44.3 66.4 41.8 65.7 40.2 65.3C38.2 60.5 36.7 55.5 35.2 50.6C39.4 50.2 43.6 49.9 47.8 49.7C48.1 57.4 49.3 65.2 50.5 72.7C49.6 73.2 48.9 73.8 48.3 74.4C47.6 75.2 48.3 76.8 49.4 76.4C50.7 75.9 51.9 75 53.2 74.6C55 74 55.9 75.3 57.5 75.8C58 75.9 58.6 75.5 58.6 75C58.5 72.7 56.2 71.6 54.2 71.6C54.1 71.6 53.9 71.6 53.8 71.6C52.7 64.3 52.1 56.9 51.6 49.6C55.5 49.6 59.5 49.7 63.5 50C62.5 54 61.5 57.9 60.7 61.9V62C60 61.9 59.2 61.9 58.4 62.1C57.1 62.3 57.4 64.5 58.7 64.4C60.3 64.3 61.8 64.9 63.1 66C63.7 66.5 64.1 67.6 65 67.5C65.6 67.4 66.1 67.2 66.3 66.5C66.7 65.1 65 63.8 63.8 63.1L63.9 63C66.1 59.3 68 55.4 69.7 51.3C72.5 51.6 75.2 52.1 77.9 52.8C77.6 53.5 77.3 54.1 77 54.8C74.5 59.8 71.9 64.8 70.7 70.3C69.8 70.2 68.9 70.2 68.1 70.4C66.8 70.7 67.2 72.6 68.4 72.6C70.6 72.6 72.4 73.1 73.8 75C74.8 76.3 76.7 75.2 76 73.7C75.4 72.5 74.4 71.6 73.2 71C75.3 65 78.1001 59.2 80.8001 53.5C85.9001 54.8 90.9 56.3 96.2 56.3C96.4 56.3 96.6 56.3 96.7 56.2C97.6 56.3 98.5 56.4 98.9 56.9C99.9 58.2 97.5 61.2 96.7 62.1C95.9 63.1 93.8 64.3 94 65.8C94.2 67.5 95.9 67.3 97 66.6C97.2 66.4 97.5 66.2 97.7 66C97.4 76.6 100.5 86.9 95.2 97C94.3 98.6 96.5 100 97.6 98.7C97.9 99.1 98.1001 99.5 98.3001 99.8C98.6001 100.3 99 101.2 98.7 101.8C98.4 102.4 97.3 102.1 96.9 102C95.4 101.6 94.1 100.3 93.1 99.1C92.2 98 90.9 99.2 91 100.3C91 100.6 91.1001 100.9 91.3001 101.1C85.4001 103 80 105.4 73.8 106.2C66.3 107.1 58.7 107 51.2 106.6C44.2 106.3 37.3 105.6 30.4 104.7C25.8 104.3 21.8 103.6 17.8 102.8Z" fill="#5F787D"/>
<path d="M48.2 99C46.1 98 44.4 97.7 42 97.6C37.7 97.4 34.5 95.5 30.6 94.9C28 94.5 26 96.2 23.1 95.5C16.8 94 14.5 89.3 14.3 83C14.3 81.8 12.4 81.5 12.3 82.7C11.1 90.9 13.4 94.8 20.9 97.9C25.4 99.7 29.6 96.9 34 99.1C38 101.2 43.4 100.5 47.8 100.6C48.6 100.7 49 99.4 48.2 99Z" fill="#5F787D"/>
<path d="M55.7 99.3C54.9 99.2 54.1999 100.4 55.0999 100.8C62.0999 104 73.7999 102.1 80.5999 99.1C84.7999 97.3 94.9999 90.4 93.0999 84.6C92.7999 83.8 91.8 83.6 91.3 84.4C84.5 97.4 69.3 101.5 55.7 99.3Z" fill="#5F787D"/>
<path d="M16.8 72.9C16.7 69.5 19 66.7 20.2 63.6C20.5 62.8 19.5 62.4 19 62.9C16.2 65.2 14.4 69.3 14.8 72.9C14.8 74.2 16.8 74.3 16.8 72.9Z" fill="#5F787D"/>
<path d="M30.1 81C31.9 82.3 33.8 83.3 35.8 84.1C36.6 84.4 37.2 83.2 36.6 82.7C35.3 81.6 33.9 80.7 32.4 79.9C30.6 78.9 29.3 77.7 28 76.1C27.4 75.4 26.5 76.2 26.6 76.9C27 78.7 28.7 80 30.1 81Z" fill="#5F787D"/>
<path d="M42 83.1C46.4 85.8 50.7 88.7 55.5 90.5C56.4 90.8 56.9 89.5 56.1 89C52.8 86.7 49.2 84.7 45.7 82.6C42.3 80.6 38.2 78.9 35.6 75.8C34.9 75 33.8 76 34.2 76.9C35.8 80 39.3 81.4 42 83.1Z" fill="#5F787D"/>
<path d="M58 84.6C59.7 85.3 61.3 86 63 86.7C63.7 87 64.3 85.9 63.7 85.4C62.2 84.1 60.4 83.4 58.5 82.8C57.3 82.4 56.9 84.1 58 84.6Z" fill="#5F787D"/>
<path d="M73.4 82C75.2 82.6 76.7 84.5 78.8 83.8C79.6 83.5 79.5 82.5 78.8 82.2C77.9 81.8 77.1 81.5 76.2 81C75.4 80.5 74.6 80.2 73.6 80.1C72.5 80 72.4 81.7 73.4 82Z" fill="#5F787D"/>
<path d="M78.5999 67.8C80.3999 69 82.1999 70.3 84.0999 71.1C84.8999 71.4 85.4 70.3 84.9 69.7C83.4 68.1 81.4 66.6 79.4 65.8C78.3 65.4 77.6999 67.2 78.5999 67.8Z" fill="#5F787D"/>
<path d="M73.3 106.4C79.5 105.6 85 103.2 90.8 101.3C90.7 101 90.6 100.8 90.5 100.5C90.3 99.4 91.7 98.2 92.6 99.3C93.6 100.5 94.9 101.8 96.4 102.2C96.8 102.3 97.9 102.6 98.2 102C98.5 101.4 98 100.5 97.8 100C97.7 99.7 97.4 99.4 97.1 98.9C96.1 100.2 93.9 98.8 94.7 97.2C100 87.1 96.8 76.8 97.2 66.2C97 66.4 96.7 66.6 96.5 66.8C95.4 67.5 93.7 67.7 93.5 66C93.3 64.5 95.4 63.3 96.2 62.3C96.9 61.4 99.3 58.4 98.4 57.1C98 56.6 97.2 56.4 96.2 56.4C96 56.5 95.9 56.5 95.7 56.5C90.4 56.4 85.4 55 80.3 53.7C77.6 59.5 74.8 65.2 72.7 71.2C73.9 71.8 74.9 72.7 75.5 73.9C76.2 75.4 74.3 76.5 73.3 75.2C71.9 73.3 70.1 72.9 67.9 72.8C66.7 72.8 66.4 70.8 67.6 70.6C68.4 70.4 69.3 70.4 70.2 70.5C71.4 65 74 60 76.5 55C76.8 54.3 77.1 53.7 77.4 53C74.7 52.3 72 51.8 69.2 51.5C67.5 55.6 65.7 59.5 63.4 63.2L63.3 63.3C64.5 64 66.2 65.3 65.8 66.7C65.6 67.4 65.1 67.7 64.5 67.7C63.6 67.8 63.2 66.7 62.6 66.2C61.4 65.1 59.9 64.6 58.2 64.6C56.9 64.6 56.6 62.5 57.9 62.3C58.7 62.2 59.4 62.2 60.2 62.2V62.1C61 58.1 62 54.1 63 50.2C59 49.9 55.1 49.7 51.1 49.8C51.6 57.2 52.2 64.5 53.3 71.8C53.4 71.8 53.6 71.8 53.7 71.8C55.7 71.8 58 72.8 58.1 75.2C58.1 75.8 57.5 76.2 57 76C55.4 75.5 54.5 74.2 52.7 74.8C51.3 75.2 50.2 76.1 48.9 76.6C47.8 77 47 75.4 47.8 74.6C48.4 74 49.2 73.4 50 72.9C48.8 65.4 47.6 57.6 47.3 49.9C43.1 50 38.9 50.4 34.7 50.8C36.2 55.7 37.8 60.7 39.7 65.5C41.3 65.9 43.8 66.7 44.5 68C44.7 68.4 44.6 69.1 44.2 69.4C42.7 70.1 41.2 69 39.7 68.5C37.7 67.8 36.7 68.5 35 69.6C33.8 70.4 32.8 68.7 33.6 67.7C34.3 66.8 35.2 66.1 36.2 65.7C34.1 60.9 32.5 56 30.9 51C28.9 51.8 26.5 52.2 24.5 53C22.3 53.8 19.9 54.9 17.6 54.7C14.7 54.5 11.1 54 12.5 58.3C13.1 60.1 14.1 61.7 14.7 63.5C15 64.4 14 65 13.2 64.7L13.1 64.6C12.6 65.9 12 67.2 11.8 68.6C11.4 71.6 11 74.6 10.6 77.5C9.89998 82.4 8.99998 87.2 7.09998 91.8C7.59998 91.7 8 91.7 8.5 91.8C9.2 91.9 9.80002 93 8.90002 93.4C7.20002 94.2 2.79999 95.8 2.79999 98.2C2.79999 100 4.39999 99.9 5.79999 99.7C7.69999 99.4 9.40001 98.8 11.2 98.3C12.1 98.1 13.6 97.6 14.4 98.4C14.6 98.6 14.7 99 14.6 99.3C14.4 100.1 13.5 100.7 12.4 101.1C14 101.8 15.6 102.7 17.3 103C21.3 103.8 25.4 104.5 29.5 105.1C36.4 106 43.3 106.7 50.3 107C58.2 107.1 65.8 107.3 73.3 106.4ZM79.4 65.8C81.5 66.6 83.4 68.1 84.9 69.7C85.4 70.2 84.9 71.4 84.1 71.1C82.1 70.3 80.3 69 78.6 67.8C77.7 67.2 78.3 65.4 79.4 65.8ZM73.6 80.2C74.6 80.3 75.3 80.6 76.2 81.1C77 81.6 77.9 81.9 78.8 82.3C79.5 82.6 79.6 83.6 78.8 83.9C76.7 84.6 75.3 82.7 73.4 82.1C72.4 81.7 72.5 80 73.6 80.2ZM91.3 84.4C91.7 83.6 92.8 83.9 93.1 84.6C95 90.4 84.8 97.3 80.6 99.1C73.7 102.1 62 104 55.1 100.8C54.2 100.4 54.9 99.2 55.7 99.3C69.3 101.5 84.5 97.4 91.3 84.4ZM58.5 82.7C60.4 83.2 62.2 83.9 63.7 85.3C64.3 85.8 63.7 86.9 63 86.6C61.3 86 59.7 85.2 58 84.5C56.9 84.1 57.3 82.4 58.5 82.7ZM35.7 75.7C38.3 78.8 42.4 80.5 45.8 82.5C49.3 84.6 52.8 86.5 56.2 88.9C56.9 89.4 56.5 90.8 55.6 90.4C50.8 88.7 46.5 85.7 42.1 83C39.3 81.3 35.8 79.9 34.4 76.7C34 76 35 74.9 35.7 75.7ZM28 76.1C29.3 77.7 30.7 78.9 32.4 79.9C33.9 80.8 35.3 81.6 36.6 82.7C37.2 83.2 36.6 84.4 35.8 84.1C33.8 83.3 31.9 82.3 30.1 81C28.7 80 27 78.7 26.6 76.9C26.5 76.1 27.4 75.4 28 76.1ZM18.9 62.8C19.4 62.4 20.4 62.7 20.1 63.5C18.9 66.6 16.7 69.4 16.7 72.8C16.7 74.2 14.7 74.2 14.6 72.8C14.3 69.2 16.1 65.1 18.9 62.8ZM47.7 100.7C43.3 100.5 37.9 101.2 33.9 99.2C29.6 97 25.3 99.8 20.8 98C13.2 94.9 11 91 12.2 82.8C12.4 81.6 14.2 81.9 14.2 83.1C14.4 89.4 16.7 94.1 23 95.6C25.9 96.3 27.9 94.5 30.5 95C34.5 95.7 37.7 97.5 41.9 97.7C44.2 97.8 46 98.1 48.1 99.1C49 99.4 48.6 100.7 47.7 100.7Z" fill="#CCDFE3"/>
<path d="M78.1 16C78.6 13.6 79 11.1 79.2 8.59996C79.2 8.49996 79.2 1.39997 77.4 3.79997C71.4 11.5 71.4 23.1 69.9 32.3C68.7 39.4 67.2 46.5 65.4 53.5C68.4 46.3 70.6 38.8 73.2 31.5C75 26.4 77 21.3 78.1 16ZM75.2 10.9C75.3 10.7 75.4 10.5 75.6 10.3C76.2 9.49997 77.5 9.69997 77.5 10.8C77.5 13 76.8 15.2 75.6 17.1C75 18.1 73.4 17.7 73.5 16.5C73.5 14.6 73.8 12.3 75.2 10.9Z" fill="#ABF7E3"/>
<path d="M27.8 13.3C26.8 11.3 24.6 9.69996 22.3 10.3C22.2 10.3 22 10.4 21.9 10.4C19.1 12.1 16.6 15.8 17.9 19.3C19.1 22.4 23.3 23.9 25.8 21.4C27.8 19.5 29.3 16 27.8 13.3Z" fill="#FF719A"/>
<path d="M51.3 39C54.3 37.8 56 34.3 54.2 31.3C52.4 28.2 49.5 28.7 46.6 29.1C44.9 30.6 43.7 32.7 44.2 34.9C45 38.1 48.3 40.2 51.3 39Z" fill="#FFE785"/>
<path d="M75.5 17.1C76.6 15.2 77.3 13 77.4 10.8C77.4 9.70002 76.1 9.50002 75.5 10.3C75.4 10.5 75.3 10.7001 75.1 10.9001C73.7 12.3001 73.4 14.6 73.3 16.5C73.4 17.7 75 18.1 75.5 17.1Z" fill="#5F787D"/>
<path d="M92.5 103.3C92.8 103.5 93.1001 103.8 93.3001 103.9C94.7001 105 96.6 105.7 98.4 105.3C99.9 105 101.2 103.4 101.2 101.8C101.2 99.9 100.2 98.2 99.3001 96.7C99.1001 96.4 98.9 96.1 98.7 95.8C102.9 85.9 101.1 73.9 99.7 63.5C101 61.7 101.8 59.5 101.9 57.5C101.9 54.2 99.4001 53.7 96.8001 53.6C96.6001 53.4 96.2001 53.2 95.8001 53.2C91.1001 52.9 86.5 51.7 81.9 50.5C83.2 47.6 84.5 44.8 85.7 41.8C85.9 41.7 86.1001 41.5 86.3001 41.2C88.4001 38 92 36.2 94 32.8C95.9 29.6 93.8001 25.8 90.3001 25.1C84.4001 24 79.7 35.2 83.9 39.2C82.1 42.6 80.6 46.2 79.1 49.7C76.3 49.1 73.4 48.6 70.6 48.6C73.5 41 75.8 33 78.3 25.5C79.6 21.5 85.7 4.40002 80 0.900021C74.2 -2.59998 70.6 12.7 69.9 15.6C68 23 67.6 30.8 66.1 38.3C65.5 41.3 64.8 44.3 64.1 47.3C59.9 46.9 55.6 46.7 51.3 46.7C51.2 45.6 51.1 44.4 51.1 43.3C51.6 43.2 52.1 43.1 52.6 43C57.9 41.2 60 35.1 57.8 30.1C56.3 26.5 49.6 23.4 46.3 25.9C42.8 27 40.5 31.2 40.6 35C40.7 39.4 44 42.5 47.9 43.3C47.8 44.5 47.8 45.6 47.8 46.8C43.3 46.9 38.9 47.4 34.5 48.3C33.6 45.5 32.7 42.6 31.7 39.8C30.1 35.4 27.7 30.5 27.1 25.7C27.5 25.5 27.8 25.3 28.1 25C32.3 21.7 33.7 15.4 31.1 10.7C27.7 4.50001 17.2 5.09997 15 12.1C14.9 12.4 15 12.6 15.1 12.8C13.8 15.2 13.5 18.2 14.3 20.9C15.6 25.2 20.1 27.3 24.2 26.7C24.7 31.2 26.5 35.7 28 39.9C28.9 42.6 29.8 45.3 30.7 48C28.1 47.9 25.4 49.4 23.1 50.2C20.8 51.1 18.6 51.3 16.1 51.1C14.9 51 13.4 50.8 12.3 51.4C9.00001 53.2 9.50002 58.5 11.5 61.9C9.20002 64.7 9.10002 69.3 8.50002 72.6C7.30002 79.4 6.80001 86.2 3.80001 92.5C3.70001 92.8 3.6 93.1 3.6 93.3C2.7 94 1.90001 94.8 1.30001 95.7C-0.0999889 97.7 0.600036 100.7 2.70004 101.8C4.50004 102.8 6.90005 102.3 8.90005 101.8C9.00005 101.9 9.10004 102 9.20004 102C21.9 108.7 36.9 109.2 51 110C63.9 110.9 81.1 111.5 92.5 103.3ZM90.7 28.6C93.8 30.5 89 34.8 85.9 37.7C84.1 34.5 86.9 26.2 90.7 28.6ZM17.9 19.3C16.6 15.9 19.1 12.2 21.9 10.4C22 10.4 22.2 10.3 22.3 10.3C24.6 9.69998 26.7 11.3 27.8 13.3C29.2 16 27.8 19.5 25.8 21.4C23.3 23.9 19.1 22.4 17.9 19.3ZM69.9 32.4C71.4 23.1 71.3 11.6 77.4 3.90002C79.2 1.60002 79.2 8.60001 79.2 8.70001C79 11.2 78.6 13.6 78.1 16.1C77 21.4 75.1 26.5 73.2 31.6C70.6 38.9 68.4 46.5 65.4 53.6C67.2 46.5 68.8 39.5 69.9 32.4ZM44.3 35C43.8 32.7 45 30.6 46.7 29.2C49.6 28.8 52.4 28.3 54.3 31.4C56.1 34.4 54.4 37.9 51.4 39.1C48.3 40.2 45 38.1 44.3 35ZM17.8 102.8C16 102.5 14.5 101.6 12.9 100.9C13.9 100.5 14.8 99.9 15.1 99.1C15.2 98.8 15.1 98.5 14.9 98.2C14.1 97.4 12.6 97.9 11.7 98.1C9.90004 98.6 8.10001 99.3 6.30001 99.5C4.90001 99.7 3.30001 99.8 3.30001 98C3.30001 95.6 7.70005 94 9.40005 93.2C10.2 92.8 9.70002 91.7 9.00002 91.6C8.50002 91.5 8.1 91.6 7.6 91.6C9.5 87.1 10.4 82.3 11.1 77.3C11.5 74.3 11.9 71.3 12.3 68.4C12.5 67 13.1 65.7 13.6 64.4L13.7 64.5C14.4 64.9 15.5 64.3 15.2 63.3C14.6 61.5 13.6 59.9 13 58.1C11.5 53.8 15.1 54.3 18.1 54.5C20.5 54.7 22.9 53.6 25 52.8C27 52 29.4 51.7 31.4 50.8C33 55.7 34.6 60.7 36.7 65.5C35.7 65.9 34.8 66.6 34.1 67.5C33.3 68.5 34.3 70.1 35.5 69.4C37.2 68.3 38.2 67.6 40.2 68.3C41.7 68.9 43.1 70 44.7 69.2C45.2 69 45.3 68.3 45 67.8C44.3 66.4 41.8 65.7 40.2 65.3C38.2 60.5 36.7 55.5 35.2 50.6C39.4 50.2 43.6 49.9 47.8 49.7C48.1 57.4 49.3 65.2 50.5 72.7C49.6 73.2 48.9 73.8 48.3 74.4C47.6 75.2 48.3 76.8 49.4 76.4C50.7 75.9 51.9 75 53.2 74.6C55 74 55.9 75.3 57.5 75.8C58 75.9 58.6 75.5 58.6 75C58.5 72.7 56.2 71.6 54.2 71.6C54.1 71.6 53.9 71.6 53.8 71.6C52.7 64.3 52.1 56.9 51.6 49.6C55.5 49.6 59.5 49.7 63.5 50C62.5 54 61.5 57.9 60.7 61.9V62C60 61.9 59.2 61.9 58.4 62.1C57.1 62.3 57.4 64.5 58.7 64.4C60.3 64.3 61.8 64.9 63.1 66C63.7 66.5 64.1 67.6 65 67.5C65.6 67.4 66.1 67.2 66.3 66.5C66.7 65.1 65 63.8 63.8 63.1L63.9 63C66.1 59.3 68 55.4 69.7 51.3C72.5 51.6 75.2 52.1 77.9 52.8C77.6 53.5 77.3 54.1 77 54.8C74.5 59.8 71.9 64.8 70.7 70.3C69.8 70.2 68.9 70.2 68.1 70.4C66.8 70.7 67.2 72.6 68.4 72.6C70.6 72.6 72.4 73.1 73.8 75C74.8 76.3 76.7 75.2 76 73.7C75.4 72.5 74.4 71.6 73.2 71C75.3 65 78.1001 59.2 80.8001 53.5C85.9001 54.8 90.9 56.3 96.2 56.3C96.4 56.3 96.6 56.3 96.7 56.2C97.6 56.3 98.5 56.4 98.9 56.9C99.9 58.2 97.5 61.2 96.7 62.1C95.9 63.1 93.8 64.3 94 65.8C94.2 67.5 95.9 67.3 97 66.6C97.2 66.4 97.5 66.2 97.7 66C97.4 76.6 100.5 86.9 95.2 97C94.3 98.6 96.5 100 97.6 98.7C97.9 99.1 98.1001 99.5 98.3001 99.8C98.6001 100.3 99 101.2 98.7 101.8C98.4 102.4 97.3 102.1 96.9 102C95.4 101.6 94.1 100.3 93.1 99.1C92.2 98 90.9 99.2 91 100.3C91 100.6 91.1001 100.9 91.3001 101.1C85.4001 103 80 105.4 73.8 106.2C66.3 107.1 58.7 107 51.2 106.6C44.2 106.3 37.3 105.6 30.4 104.7C25.8 104.3 21.8 103.6 17.8 102.8Z" fill="#5F787D"/>
<path d="M48.2 99C46.1 98 44.4 97.7 42 97.6C37.7 97.4 34.5 95.5 30.6 94.9C28 94.5 26 96.2 23.1 95.5C16.8 94 14.5 89.3 14.3 83C14.3 81.8 12.4 81.5 12.3 82.7C11.1 90.9 13.4 94.8 20.9 97.9C25.4 99.7 29.6 96.9 34 99.1C38 101.2 43.4 100.5 47.8 100.6C48.6 100.7 49 99.4 48.2 99Z" fill="#5F787D"/>
<path d="M55.7 99.3C54.9 99.2 54.1999 100.4 55.0999 100.8C62.0999 104 73.7999 102.1 80.5999 99.1C84.7999 97.3 94.9999 90.4 93.0999 84.6C92.7999 83.8 91.8 83.6 91.3 84.4C84.5 97.4 69.3 101.5 55.7 99.3Z" fill="#5F787D"/>
<path d="M16.8 72.9C16.7 69.5 19 66.7 20.2 63.6C20.5 62.8 19.5 62.4 19 62.9C16.2 65.2 14.4 69.3 14.8 72.9C14.8 74.2 16.8 74.3 16.8 72.9Z" fill="#5F787D"/>
<path d="M30.1 81C31.9 82.3 33.8 83.3 35.8 84.1C36.6 84.4 37.2 83.2 36.6 82.7C35.3 81.6 33.9 80.7 32.4 79.9C30.6 78.9 29.3 77.7 28 76.1C27.4 75.4 26.5 76.2 26.6 76.9C27 78.7 28.7 80 30.1 81Z" fill="#5F787D"/>
<path d="M42 83.1C46.4 85.8 50.7 88.7 55.5 90.5C56.4 90.8 56.9 89.5 56.1 89C52.8 86.7 49.2 84.7 45.7 82.6C42.3 80.6 38.2 78.9 35.6 75.8C34.9 75 33.8 76 34.2 76.9C35.8 80 39.3 81.4 42 83.1Z" fill="#5F787D"/>
<path d="M58 84.6C59.7 85.3 61.3 86 63 86.7C63.7 87 64.3 85.9 63.7 85.4C62.2 84.1 60.4 83.4 58.5 82.8C57.3 82.4 56.9 84.1 58 84.6Z" fill="#5F787D"/>
<path d="M73.4 82C75.2 82.6 76.7 84.5 78.8 83.8C79.6 83.5 79.5 82.5 78.8 82.2C77.9 81.8 77.1 81.5 76.2 81C75.4 80.5 74.6 80.2 73.6 80.1C72.5 80 72.4 81.7 73.4 82Z" fill="#5F787D"/>
<path d="M78.5999 67.8C80.3999 69 82.1999 70.3 84.0999 71.1C84.8999 71.4 85.4 70.3 84.9 69.7C83.4 68.1 81.4 66.6 79.4 65.8C78.3 65.4 77.6999 67.2 78.5999 67.8Z" fill="#5F787D"/>
</svg>
