<svg width="71" height="78" viewBox="0 0 71 78" fill="none" xmlns="http://www.w3.org/2000/svg">
<path d="M57.6 26.8C59.6 24.3 61.9 22.1 63.8 19.5C66.6 15.7 68.8 8.69998 63.7 5.39998C56.7 0.699985 47.1 10.8 42.5 15.9C47.8 18.2 51.9 8.99998 58.1 10.9C61.3 11.9 61.9 14.5 60.8 17.4C60.1 19.3 58 20.4 56.6 21.6C54.5 23.8 56.1 25.4 57.6 26.8Z" fill="#ABF7E3"/>
<path d="M58.6 30.2C62.4 25.6 67.3 21.8 69.5 16.2C71.3 11.5 69.4 6 65.7 2.9C57.1 -4.5 44 9.10002 39 14.7C38.5 15.2 38.5 15.8 38.7 16.3C28.6 26.2 21 38.4 11.7 49.1C7.20003 54.3 3.40004 59.6 0.900043 66.1C-0.199957 69 -0.799994 74.1 2.30001 76.2C10.9 81.8 22.3 70.6 27.8 65.1C33.1 59.9 37.5 54 42.4 48.4C47.5 42.6 52.4 36.8 56.3 30.1C56.6 30.7 57.8 31.1 58.6 30.2ZM9.40004 73.3C8.50004 73.5 7.60003 73.7 6.70003 73.7C2.30003 73.8 3.10001 69.4 4.80001 65.2C6.90001 63.1 10.5 62.8 13 65.6C15.5 68.6 11.6 71.2 9.40004 73.3ZM32.9 53.5C28.7 58.4 24.4 63.1 19.5 67.3C18.5 68.2 17.3 69.1 16.1 70C17.1 67.5 16.4 65 14.4 63.1C12.4 61.2 9.40001 60.7 6.80001 61.3C7.60001 59.9 8.20002 58.8 8.50002 58.4C11.6 53.7 15.6 49.6 19.2 45.3C26.5 36.5 32.8 27 40 18.1C44.3 21.9 48.8 18.4 53 15.4C53.5 15 54 14.7 54.6 14.5C57.5 13.1 57.5 17 55.8 18.4C54.2 19.7 52.9 20.8 52.3 22.7C51.6 24.7 52.8 26.4 54.3 27.9C48 37.1 40 45 32.9 53.5ZM56.7 21.6C58.1 20.3 60.2 19.3 60.9 17.4C62 14.5 61.4 11.9 58.2 10.9C52 9 47.9 18.2 42.6 15.9C47.2 10.8 56.8001 0.7 63.8001 5.4C68.9001 8.8 66.7 15.7 63.9 19.5C62 22.1 59.7 24.3 57.7 26.8C56.1 25.4 54.5 23.8 56.7 21.6Z" fill="#5F787D"/>
<path d="M57.6 26.8C59.6 24.3 61.9 22.1 63.8 19.5C66.6 15.7 68.8 8.69998 63.7 5.39998C56.7 0.699985 47.1 10.8 42.5 15.9C47.8 18.2 51.9 8.99998 58.1 10.9C61.3 11.9 61.9 14.5 60.8 17.4C60.1 19.3 58 20.4 56.6 21.6C54.5 23.8 56.1 25.4 57.6 26.8Z" fill="#ABF7E3"/>
<path d="M58.6 30.2C62.4 25.6 67.3 21.8 69.5 16.2C71.3 11.5 69.4 6 65.7 2.9C57.1 -4.5 44 9.10002 39 14.7C38.5 15.2 38.5 15.8 38.7 16.3C28.6 26.2 21 38.4 11.7 49.1C7.20003 54.3 3.40004 59.6 0.900043 66.1C-0.199957 69 -0.799994 74.1 2.30001 76.2C10.9 81.8 22.3 70.6 27.8 65.1C33.1 59.9 37.5 54 42.4 48.4C47.5 42.6 52.4 36.8 56.3 30.1C56.6 30.7 57.8 31.1 58.6 30.2ZM9.40004 73.3C8.50004 73.5 7.60003 73.7 6.70003 73.7C2.30003 73.8 3.10001 69.4 4.80001 65.2C6.90001 63.1 10.5 62.8 13 65.6C15.5 68.6 11.6 71.2 9.40004 73.3ZM32.9 53.5C28.7 58.4 24.4 63.1 19.5 67.3C18.5 68.2 17.3 69.1 16.1 70C17.1 67.5 16.4 65 14.4 63.1C12.4 61.2 9.40001 60.7 6.80001 61.3C7.60001 59.9 8.20002 58.8 8.50002 58.4C11.6 53.7 15.6 49.6 19.2 45.3C26.5 36.5 32.8 27 40 18.1C44.3 21.9 48.8 18.4 53 15.4C53.5 15 54 14.7 54.6 14.5C57.5 13.1 57.5 17 55.8 18.4C54.2 19.7 52.9 20.8 52.3 22.7C51.6 24.7 52.8 26.4 54.3 27.9C48 37.1 40 45 32.9 53.5ZM56.7 21.6C58.1 20.3 60.2 19.3 60.9 17.4C62 14.5 61.4 11.9 58.2 10.9C52 9 47.9 18.2 42.6 15.9C47.2 10.8 56.8001 0.7 63.8001 5.4C68.9001 8.8 66.7 15.7 63.9 19.5C62 22.1 59.7 24.3 57.7 26.8C56.1 25.4 54.5 23.8 56.7 21.6Z" fill="#5F787D"/>
<path d="M57.6 26.8C59.6 24.3 61.9 22.1 63.8 19.5C66.6 15.7 68.8 8.69998 63.7 5.39998C56.7 0.699985 47.1 10.8 42.5 15.9C47.8 18.2 51.9 8.99998 58.1 10.9C61.3 11.9 61.9 14.5 60.8 17.4C60.1 19.3 58 20.4 56.6 21.6C54.5 23.8 56.1 25.4 57.6 26.8Z" fill="#ABF7E3"/>
<path d="M58.6 30.2C62.4 25.6 67.3 21.8 69.5 16.2C71.3 11.5 69.4 6 65.7 2.9C57.1 -4.5 44 9.10002 39 14.7C38.5 15.2 38.5 15.8 38.7 16.3C28.6 26.2 21 38.4 11.7 49.1C7.20003 54.3 3.40004 59.6 0.900043 66.1C-0.199957 69 -0.799994 74.1 2.30001 76.2C10.9 81.8 22.3 70.6 27.8 65.1C33.1 59.9 37.5 54 42.4 48.4C47.5 42.6 52.4 36.8 56.3 30.1C56.6 30.7 57.8 31.1 58.6 30.2ZM9.40004 73.3C8.50004 73.5 7.60003 73.7 6.70003 73.7C2.30003 73.8 3.10001 69.4 4.80001 65.2C6.90001 63.1 10.5 62.8 13 65.6C15.5 68.6 11.6 71.2 9.40004 73.3ZM32.9 53.5C28.7 58.4 24.4 63.1 19.5 67.3C18.5 68.2 17.3 69.1 16.1 70C17.1 67.5 16.4 65 14.4 63.1C12.4 61.2 9.40001 60.7 6.80001 61.3C7.60001 59.9 8.20002 58.8 8.50002 58.4C11.6 53.7 15.6 49.6 19.2 45.3C26.5 36.5 32.8 27 40 18.1C44.3 21.9 48.8 18.4 53 15.4C53.5 15 54 14.7 54.6 14.5C57.5 13.1 57.5 17 55.8 18.4C54.2 19.7 52.9 20.8 52.3 22.7C51.6 24.7 52.8 26.4 54.3 27.9C48 37.1 40 45 32.9 53.5ZM56.7 21.6C58.1 20.3 60.2 19.3 60.9 17.4C62 14.5 61.4 11.9 58.2 10.9C52 9 47.9 18.2 42.6 15.9C47.2 10.8 56.8001 0.7 63.8001 5.4C68.9001 8.8 66.7 15.7 63.9 19.5C62 22.1 59.7 24.3 57.7 26.8C56.1 25.4 54.5 23.8 56.7 21.6Z" fill="#5F787D"/>
<path d="M57.6 26.8C59.6 24.3 61.9 22.1 63.8 19.5C66.6 15.7 68.8 8.69998 63.7 5.39998C56.7 0.699985 47.1 10.8 42.5 15.9C47.8 18.2 51.9 8.99998 58.1 10.9C61.3 11.9 61.9 14.5 60.8 17.4C60.1 19.3 58 20.4 56.6 21.6C54.5 23.8 56.1 25.4 57.6 26.8Z" fill="#ABF7E3"/>
<path d="M58.6 30.2C62.4 25.6 67.3 21.8 69.5 16.2C71.3 11.5 69.4 6 65.7 2.9C57.1 -4.5 44 9.10002 39 14.7C38.5 15.2 38.5 15.8 38.7 16.3C28.6 26.2 21 38.4 11.7 49.1C7.20003 54.3 3.40004 59.6 0.900043 66.1C-0.199957 69 -0.799994 74.1 2.30001 76.2C10.9 81.8 22.3 70.6 27.8 65.1C33.1 59.9 37.5 54 42.4 48.4C47.5 42.6 52.4 36.8 56.3 30.1C56.6 30.7 57.8 31.1 58.6 30.2ZM9.40004 73.3C8.50004 73.5 7.60003 73.7 6.70003 73.7C2.30003 73.8 3.10001 69.4 4.80001 65.2C6.90001 63.1 10.5 62.8 13 65.6C15.5 68.6 11.6 71.2 9.40004 73.3ZM32.9 53.5C28.7 58.4 24.4 63.1 19.5 67.3C18.5 68.2 17.3 69.1 16.1 70C17.1 67.5 16.4 65 14.4 63.1C12.4 61.2 9.40001 60.7 6.80001 61.3C7.60001 59.9 8.20002 58.8 8.50002 58.4C11.6 53.7 15.6 49.6 19.2 45.3C26.5 36.5 32.8 27 40 18.1C44.3 21.9 48.8 18.4 53 15.4C53.5 15 54 14.7 54.6 14.5C57.5 13.1 57.5 17 55.8 18.4C54.2 19.7 52.9 20.8 52.3 22.7C51.6 24.7 52.8 26.4 54.3 27.9C48 37.1 40 45 32.9 53.5ZM56.7 21.6C58.1 20.3 60.2 19.3 60.9 17.4C62 14.5 61.4 11.9 58.2 10.9C52 9 47.9 18.2 42.6 15.9C47.2 10.8 56.8001 0.7 63.8001 5.4C68.9001 8.8 66.7 15.7 63.9 19.5C62 22.1 59.7 24.3 57.7 26.8C56.1 25.4 54.5 23.8 56.7 21.6Z" fill="#5F787D"/>
<path d="M57.6 26.8C59.6 24.3 61.9 22.1 63.8 19.5C66.6 15.7 68.8 8.69998 63.7 5.39998C56.7 0.699985 47.1 10.8 42.5 15.9C47.8 18.2 51.9 8.99998 58.1 10.9C61.3 11.9 61.9 14.5 60.8 17.4C60.1 19.3 58 20.4 56.6 21.6C54.5 23.8 56.1 25.4 57.6 26.8Z" fill="#ABF7E3"/>
<path d="M58.6 30.2C62.4 25.6 67.3 21.8 69.5 16.2C71.3 11.5 69.4 6 65.7 2.9C57.1 -4.5 44 9.10002 39 14.7C38.5 15.2 38.5 15.8 38.7 16.3C28.6 26.2 21 38.4 11.7 49.1C7.20003 54.3 3.40004 59.6 0.900043 66.1C-0.199957 69 -0.799994 74.1 2.30001 76.2C10.9 81.8 22.3 70.6 27.8 65.1C33.1 59.9 37.5 54 42.4 48.4C47.5 42.6 52.4 36.8 56.3 30.1C56.6 30.7 57.8 31.1 58.6 30.2ZM9.40004 73.3C8.50004 73.5 7.60003 73.7 6.70003 73.7C2.30003 73.8 3.10001 69.4 4.80001 65.2C6.90001 63.1 10.5 62.8 13 65.6C15.5 68.6 11.6 71.2 9.40004 73.3ZM32.9 53.5C28.7 58.4 24.4 63.1 19.5 67.3C18.5 68.2 17.3 69.1 16.1 70C17.1 67.5 16.4 65 14.4 63.1C12.4 61.2 9.40001 60.7 6.80001 61.3C7.60001 59.9 8.20002 58.8 8.50002 58.4C11.6 53.7 15.6 49.6 19.2 45.3C26.5 36.5 32.8 27 40 18.1C44.3 21.9 48.8 18.4 53 15.4C53.5 15 54 14.7 54.6 14.5C57.5 13.1 57.5 17 55.8 18.4C54.2 19.7 52.9 20.8 52.3 22.7C51.6 24.7 52.8 26.4 54.3 27.9C48 37.1 40 45 32.9 53.5ZM56.7 21.6C58.1 20.3 60.2 19.3 60.9 17.4C62 14.5 61.4 11.9 58.2 10.9C52 9 47.9 18.2 42.6 15.9C47.2 10.8 56.8001 0.7 63.8001 5.4C68.9001 8.8 66.7 15.7 63.9 19.5C62 22.1 59.7 24.3 57.7 26.8C56.1 25.4 54.5 23.8 56.7 21.6Z" fill="#5F787D"/>
</svg>
