<svg width="51" height="89" viewBox="0 0 51 89" fill="none" xmlns="http://www.w3.org/2000/svg">
<path d="M8.7 88C17.6 91.3 25.6 76.3 28.1 70.2C33.7 56.6 37.7001 42.8 44.3001 29.5C44.3001 29.5 44.3001 29.4 44.4001 29.4C44.6001 29.3 44.9001 29.2 45.0001 29.1C47.9001 27.9 49.3 18.8 49.7 16.9C51 11.2 49.3001 4.99998 43.8001 2.29998C32.5001 -3.40002 22.8001 9.80001 20.0001 18.7C19.5001 19.2 19.4001 20 20.0001 20.6C24.8001 24.9 31.3001 23 34.4001 17.8C34.7001 17.2 35.1001 16.5 35.4001 15.9C36.1001 14.6 41.9001 10.6 40.5001 16.3C40.0001 18.2 38.5001 19.6 38.5001 21.7C38.4001 24.4 39.6001 26.2 41.3001 28C36.6001 37.6 32.4001 47.4 29.0001 57.6C26.7001 64.4 24.2 72.1 19.7 78C19.7 78 19.7 78 19.7 77.9C19.9 74.7 17.9001 71.4 14.8001 70.4C11.9001 69.4 7.2001 70.6 4.3001 72.9C4.3001 72.3 4.2 71.8 4.2 71.4C4 65.1 5.2 58.7 6.2 52.5C8.2 40.6 9.50008 28.7 12.4001 17C12.7001 15.7 10.9001 15.2 10.4001 16.4C5.20008 29.9 3.6 45.4 1.7 59.7C0.600004 68 -1.9 84 8.7 88ZM42.2 20.8C42.6 19 44.4 17.3 44.2 15.4C43.9 12.5 42.4001 10.3 39.4001 9.79998C37.0001 9.39998 34.8 10.9 33.2 12.6C32.1 13.7 31.5 15.4 30.7 16.8C29.2 19.5 26.1001 19.9 23.5001 19.1C26.2001 11.6 31.2001 3.39998 40.5001 4.79998C46.8001 5.69998 46.6 12.8 45.6 17.5C45.2 19.4 44.6 21.2 44.1 23.1C44 23.3 43.6001 24.4 43.4001 25.2C42.4001 24 41.7 22.8 42.2 20.8ZM14.2 73.3C16.3 74.3 16.8001 76.8 16.5001 78.9C16.3001 80.3 15.5001 81.5 14.9001 82.7C14.4001 83.1 13.8 83.5 13.2 83.8C8.3 86.8 6.00005 81.5 5.00005 76.7C6.20005 73.5 11 71.7 14.2 73.3Z" fill="#5F787D"/>
<path d="M43.5 25.1C43.7 24.3 44.1 23.2 44.2 23C44.8 21.2 45.3 19.3 45.7 17.4C46.7 12.7 46.9 5.60001 40.6 4.70001C31.3 3.30001 26.3 11.5 23.6 19C26.3 19.8 29.3 19.4 30.8 16.7C31.6 15.3 32.2 13.7 33.3 12.5C34.8 10.8 37.1 9.30001 39.5 9.70001C42.5 10.2 44 12.4 44.3 15.3C44.5 17.2 42.7 19 42.3 20.7C41.7 22.8 42.4 24 43.5 25.1Z" fill="#FF719A"/>
</svg>
