<svg width="191" height="313" viewBox="0 0 191 313" fill="none" xmlns="http://www.w3.org/2000/svg">
<path d="M45.7 209.4C23.4 201.4 0.900007 235.6 19.3 252C31.2 262.6 45 244.5 49.4 235.3C52 230 58.1 212.4 45.7 209.4ZM41.4 241.1C38.3 245.5 34.1 249.4 28.8 250.7C21.8 252.4 18.1 245.2 16.9 239.8C15.2 232 19.1 224.1 24.4 218.7C29.8 213 36.9 211.4 44.3 212.5C56.4 214.9 44.5 236.8 41.4 241.1Z" fill="#5F787D"/>
<path d="M104.6 172C99.8 173.7 96.8 178.3 94.2 182.4C84.5 198.1 72.2 206 55.2 205.8C53.4 205.7 51.5 205.7 49.5 205.3C31.8 201.9 15.6 208.9 7.69999 225.8C0.399992 241.5 6.6 265.8 27.9 264.4C39.8 263.6 48.6 254.8 52.7 244.1C55.5 236.8 56.5 228.7 59.8 221.6C64.4 211.5 73.6 206.6 83.9 204.4C84 204.4 84 204.3 84.1 204.3C84.4 204.2 84.7 204.2 85 204.2C86.8 203.8 88.7 203.5 90.5 203.3C90.7 203.3 90.8 203.3 91 203.3C94.9 202.8 98.7 202.1 102.1 200C107.4 196.8 111.5 192 113.3 186C113.5 185.4 114.1 183 114.2 181.1C114.3 175.4 111.9 169.4 104.6 172ZM49.4 235.3C45 244.5 31.2 262.5 19.3 252C0.899968 235.7 23.4 201.4 45.7 209.4C58.1 212.4 52 230 49.4 235.3ZM108.1 182.3C105.8 186 100 182.4 102.3 178.7C104.6 175 110.4 178.6 108.1 182.3Z" fill="#ABF7E3"/>
<path d="M95.3 206.5C93.1 216.5 89.8 226.8 84.4 235.5C79 244.3 71.7 250.7 64.1 257.5C56.1 264.6 46.4 273.3 46.1 284.9C45.7 298.4 55.1 311.4 70 307.4C90.3 302 110.1 282 110.9 260.4C111.6 241 105.1 222.6 103.3 203.5C100.8 204.8 98.1 205.8 95.3 206.5ZM104.9 274.3C98.7 290 79.1 307.3 60.9 300C54.4 297.4 51.7 291 52.1 284.5C52.9 274.2 61.5 266.5 68.6 260C72.8 256.2 76.9 252.4 79.8 247.6C81.6 244.5 83.5 241.4 85.7 238.5C87.6 236.1 92.3 230.9 95.3 231.5C112.4 235 109.7 261.9 104.9 274.3Z" fill="#ABF7E3"/>
<path d="M182.3 51.8C182.3 52.1 182.2 52.4 182 52.7C168.8 73.5 156.7 94.8 143.4 115.5C136.7 125.9 130.4 136.4 123 146.2C117.6 153.4 112 160.4 106.6 167.6C108.1 167.7 109.6 168 111.2 168.8C114.9 170.7 116.8 173.6 117.6 176.8C120.4 173.8 123.6 171.1 126.4 168C131.5 162.1 136.4 155.9 140.8 149.4C148.3 138.5 155.7 127.4 162.5 116C170 103.5 177.2 90.4 181.5 76.4C183.6 69.8 184.9 63 185.4 56.1C185.6 53.8 185.6 47.7 182.3 51.8Z" fill="#CCDFE3"/>
<path d="M109.5 158.2C112.7 153.4 115.8 148.6 119.3 143.9C126.7 134 133 123.5 139.7 113.1C139.7 113.1 139.7 113.1 139.7 113C147.1 90.2 153.2 67.2 157.8 43.7C160 32.4 162.1 20.7 161.6 9.09999C161.4 3.19999 157.4 9.39998 156.3 11.4C154.9 13.9 153.6 16.5 152.5 19.2C150.4 24.3 148.3 29.5 146.2 34.6C128.6 77.9 113.7 122.9 102.3 168.2C104.5 164.8 107.2 161.8 109.5 158.2Z" fill="#CCDFE3"/>
<path d="M183.7 46C181 46.8 179 49.4 177.7 52C166.8 67.4 157.6 84 147.8 100.3C154.3 78.2 160 55.6 163.6 33C164.5 27.3 165.1 21.5 165.4 15.7C165.6 12.4 166.3 7.40002 164.8 4.20002C160.8 -3.89998 153.6 8.20001 151.8 11.5C145.7 22.2 141.8 34.7 137.4 46.2C131.9 60.5 126.9 75 122.1 89.5C117.4 103.5 112.6 117.4 108.1 131.4C104.1 144.1 100 157.3 98.9 170.6C94.8 173.7 91.2 178.5 89.2 182.5C81.2 198.3 60.7 204.3 49.6 202C33.5 198 19 204.3 8.59997 217.1C-2.00003 230.2 -3.20002 251.1 10.3 262.7C24.2 274.6 43.2 267.4 52.5 254.1C59.2 244.5 59.7 232.5 64.4 222.1C68.8 212.6 78.5 210.1 87.7 207.6C88.9 207.6 90 207.5 91.2 207.4C86.4 221.3 82 234.7 71.2 245.4C63.1 253.5 53.7 259.9 47.1 269.4C35.5 286 43.7 313.6 66.5 312.6C76.3 312.2 85.3 306.2 92.9 300.5C101.7 293.8 108.5 285 112.6 274.7C116.8 264.1 115.6 252.3 114.1 241.2C112.3 228.1 108.9 215.2 106.5 202.2C106.5 202.1 106.4 201.9 106.4 201.8C109.6 199.5 112.4 196.6 114.4 193.1C116.3 189.8 117.8 185.8 118.1 181.9C123.4 176.1 129.5 171.1 134.6 165C140.3 158.2 145.3 150.7 150.2 143.3C160.3 128.1 170.3 112.9 178.3 96.4C185.7 81.1 189.3 65.9 189.9 49C189.8 46.1 185.7 45.4 183.7 46ZM146.2 34.8C148.3 29.7 150.3 24.5 152.5 19.4C153.6 16.7 154.9 14.2 156.3 11.6C157.4 9.50001 161.4 3.39999 161.6 9.29999C162.1 20.8 160 32.6 157.8 43.9C153.2 67.4 147.1 90.4 139.7 113.2C139.7 113.2 139.7 113.2 139.7 113.3C133 123.7 126.7 134.2 119.3 144.1C115.8 148.7 112.7 153.5 109.5 158.4C107.2 161.9 104.5 165 102.3 168.5C113.7 123.1 128.6 78.1 146.2 34.8ZM110.9 260.4C110.1 282 90.3 302 70 307.4C55.1 311.4 45.7 298.4 46.1 284.9C46.4 273.3 56.1 264.6 64.1 257.5C71.8 250.7 79 244.3 84.4 235.5C89.8 226.8 93.1 216.5 95.3 206.5C98.1 205.8 100.8 204.8 103.3 203.5C105.1 222.6 111.6 241 110.9 260.4ZM113.2 186C111.4 192 107.3 196.8 102 200C98.6 202 94.8 202.8 90.9 203.3C90.7 203.3 90.6 203.3 90.4 203.3C88.5 203.5 86.7 203.8 84.9 204.2C84.6 204.2 84.3 204.3 84 204.3C83.9 204.3 83.9 204.3 83.8 204.4C73.5 206.7 64.4 211.5 59.7 221.6C56.4 228.7 55.4 236.8 52.6 244.1C48.5 254.8 39.7 263.6 27.8 264.4C6.49998 265.8 0.199966 241.5 7.59997 225.8C15.5 208.9 31.7 201.9 49.4 205.3C51.3 205.7 53.3 205.6 55.1 205.8C72.1 206.1 84.4 198.1 94.1 182.4C96.6 178.3 99.7 173.7 104.5 172C111.8 169.4 114.3 175.5 114.1 181.2C114 183 113.4 185.4 113.2 186ZM181.5 76.5C177.2 90.5 170 103.6 162.5 116.1C155.7 127.5 148.3 138.5 140.8 149.5C136.3 156 131.5 162.2 126.4 168.1C123.7 171.3 120.4 173.9 117.6 176.9C116.8 173.6 114.9 170.8 111.2 168.9C109.6 168.1 108.1 167.7 106.6 167.7C112 160.5 117.7 153.5 123 146.3C130.4 136.4 136.8 125.9 143.4 115.6C156.7 94.9 168.8 73.5 182 52.8C182.2 52.5 182.3 52.2 182.3 51.9C185.6 47.8 185.6 53.8 185.4 56.2C184.9 63.1 183.6 69.8 181.5 76.5Z" fill="#5F787D"/>
<path d="M102.2 178.7C99.9 182.4 105.7 186 108 182.3C110.4 178.6 104.6 175 102.2 178.7Z" fill="#5F787D"/>
<path d="M85.7 238.6C83.4 241.4 81.6 244.6 79.8 247.7C76.9 252.6 72.8 256.3 68.6 260.1C61.5 266.5 52.8 274.2 52.1 284.6C51.6 291.2 54.4 297.6 60.9 300.1C79.1 307.4 98.7 290.1 104.9 274.4C109.8 262 112.4 235.1 95.4 231.6C92.3 230.9 87.7 236.1 85.7 238.6ZM101.8 271.1C97.7 285.8 79.5 301.5 63.3 296.7C55.5 294.4 55.2 286.2 57.4 279.8C60.5 270.7 69.9 264.6 76.5 258.2C80.1 254.7 82.6 250.8 85.2 246.5C87 243.6 91 235.8 95.3 235.2C107.7 238.3 104.7 260.5 101.8 271.1Z" fill="#5F787D"/>
<path d="M45.7 209.4C23.4 201.4 0.900007 235.6 19.3 252C31.2 262.6 45 244.5 49.4 235.3C52 230 58.1 212.4 45.7 209.4ZM41.4 241.1C38.3 245.5 34.1 249.4 28.8 250.7C21.8 252.4 18.1 245.2 16.9 239.8C15.2 232 19.1 224.1 24.4 218.7C29.8 213 36.9 211.4 44.3 212.5C56.4 214.9 44.5 236.8 41.4 241.1Z" fill="#5F787D"/>
<path d="M104.6 172C99.8 173.7 96.8 178.3 94.2 182.4C84.5 198.1 72.2 206 55.2 205.8C53.4 205.7 51.5 205.7 49.5 205.3C31.8 201.9 15.6 208.9 7.69999 225.8C0.399992 241.5 6.6 265.8 27.9 264.4C39.8 263.6 48.6 254.8 52.7 244.1C55.5 236.8 56.5 228.7 59.8 221.6C64.4 211.5 73.6 206.6 83.9 204.4C84 204.4 84 204.3 84.1 204.3C84.4 204.2 84.7 204.2 85 204.2C86.8 203.8 88.7 203.5 90.5 203.3C90.7 203.3 90.8 203.3 91 203.3C94.9 202.8 98.7 202.1 102.1 200C107.4 196.8 111.5 192 113.3 186C113.5 185.4 114.1 183 114.2 181.1C114.3 175.4 111.9 169.4 104.6 172ZM49.4 235.3C45 244.5 31.2 262.5 19.3 252C0.899968 235.7 23.4 201.4 45.7 209.4C58.1 212.4 52 230 49.4 235.3ZM108.1 182.3C105.8 186 100 182.4 102.3 178.7C104.6 175 110.4 178.6 108.1 182.3Z" fill="#ABF7E3"/>
<path d="M95.3 206.5C93.1 216.5 89.8 226.8 84.4 235.5C79 244.3 71.7 250.7 64.1 257.5C56.1 264.6 46.4 273.3 46.1 284.9C45.7 298.4 55.1 311.4 70 307.4C90.3 302 110.1 282 110.9 260.4C111.6 241 105.1 222.6 103.3 203.5C100.8 204.8 98.1 205.8 95.3 206.5ZM104.9 274.3C98.7 290 79.1 307.3 60.9 300C54.4 297.4 51.7 291 52.1 284.5C52.9 274.2 61.5 266.5 68.6 260C72.8 256.2 76.9 252.4 79.8 247.6C81.6 244.5 83.5 241.4 85.7 238.5C87.6 236.1 92.3 230.9 95.3 231.5C112.4 235 109.7 261.9 104.9 274.3Z" fill="#ABF7E3"/>
<path d="M182.3 51.8C182.3 52.1 182.2 52.4 182 52.7C168.8 73.5 156.7 94.8 143.4 115.5C136.7 125.9 130.4 136.4 123 146.2C117.6 153.4 112 160.4 106.6 167.6C108.1 167.7 109.6 168 111.2 168.8C114.9 170.7 116.8 173.6 117.6 176.8C120.4 173.8 123.6 171.1 126.4 168C131.5 162.1 136.4 155.9 140.8 149.4C148.3 138.5 155.7 127.4 162.5 116C170 103.5 177.2 90.4 181.5 76.4C183.6 69.8 184.9 63 185.4 56.1C185.6 53.8 185.6 47.7 182.3 51.8Z" fill="#CCDFE3"/>
<path d="M109.5 158.2C112.7 153.4 115.8 148.6 119.3 143.9C126.7 134 133 123.5 139.7 113.1C139.7 113.1 139.7 113.1 139.7 113C147.1 90.2 153.2 67.2 157.8 43.7C160 32.4 162.1 20.7 161.6 9.09999C161.4 3.19999 157.4 9.39998 156.3 11.4C154.9 13.9 153.6 16.5 152.5 19.2C150.4 24.3 148.3 29.5 146.2 34.6C128.6 77.9 113.7 122.9 102.3 168.2C104.5 164.8 107.2 161.8 109.5 158.2Z" fill="#CCDFE3"/>
<path d="M184.288 44.543C181.588 45.343 179.588 47.943 178.288 50.543C167.388 65.943 158.188 82.543 148.388 98.843C154.888 76.743 160.588 54.143 164.188 31.543C165.088 25.843 165.689 20.043 165.989 14.243C166.189 10.943 166.888 5.94302 165.388 2.74302C161.388 -5.35698 154.188 6.74301 152.388 10.043C146.288 20.743 142.389 33.243 137.989 44.743C132.489 59.043 127.488 73.543 122.688 88.043C117.988 102.043 113.188 115.943 108.688 129.943C104.688 142.643 100.589 155.843 99.489 169.143C95.389 172.243 91.789 177.043 89.789 181.043C81.789 196.843 61.288 202.843 50.188 200.543C34.088 196.543 19.588 202.843 9.18798 215.643C-1.41202 228.743 -2.61201 249.643 10.888 261.243C24.788 273.143 43.788 265.943 53.088 252.643C59.788 243.043 60.289 231.043 64.989 220.643C69.389 211.143 79.089 208.643 88.289 206.143C89.489 206.143 90.589 206.043 91.789 205.943C86.989 219.843 82.589 233.243 71.789 243.943C63.689 252.043 54.288 258.443 47.688 267.943C36.088 284.543 44.288 312.143 67.088 311.143C76.888 310.743 85.889 304.743 93.489 299.043C102.289 292.343 109.088 283.543 113.188 273.243C117.388 262.643 116.188 250.843 114.688 239.743C112.888 226.643 109.488 213.743 107.088 200.743C107.088 200.643 106.989 200.443 106.989 200.343C110.189 198.043 112.989 195.143 114.989 191.643C116.889 188.343 118.388 184.343 118.688 180.443C123.988 174.643 130.088 169.643 135.188 163.543C140.888 156.743 145.888 149.243 150.788 141.843C160.888 126.643 170.888 111.443 178.888 94.943C186.288 79.643 189.889 64.443 190.489 47.543C190.389 44.643 186.288 43.943 184.288 44.543ZM146.788 33.343C148.888 28.243 150.888 23.043 153.088 17.943C154.188 15.243 155.488 12.743 156.888 10.143C157.988 8.04301 161.988 1.94299 162.188 7.84299C162.688 19.343 160.588 31.143 158.388 42.443C153.788 65.943 147.688 88.943 140.288 111.743C140.288 111.743 140.288 111.743 140.288 111.843C133.588 122.243 127.288 132.743 119.888 142.643C116.388 147.243 113.288 152.043 110.088 156.943C107.788 160.443 105.088 163.543 102.888 167.043C114.288 121.643 129.188 76.643 146.788 33.343ZM111.489 258.943C110.689 280.543 90.888 300.543 70.588 305.943C55.688 309.943 46.288 296.943 46.688 283.443C46.988 271.843 56.688 263.143 64.688 256.043C72.388 249.243 79.589 242.843 84.989 234.043C90.389 225.343 93.688 215.043 95.888 205.043C98.688 204.343 101.388 203.343 103.888 202.043C105.688 221.143 112.189 239.543 111.489 258.943ZM113.789 184.543C111.989 190.543 107.888 195.343 102.588 198.543C99.188 200.543 95.389 201.343 91.489 201.843C91.289 201.843 91.189 201.843 90.989 201.843C89.089 202.043 87.289 202.343 85.489 202.743C85.189 202.743 84.888 202.843 84.588 202.843C84.488 202.843 84.488 202.843 84.388 202.943C74.088 205.243 64.989 210.043 60.289 220.143C56.989 227.243 55.988 235.343 53.188 242.643C49.088 253.343 40.288 262.143 28.388 262.943C7.08799 264.343 0.787979 240.043 8.18798 224.343C16.088 207.443 32.289 200.443 49.989 203.843C51.889 204.243 53.888 204.143 55.688 204.343C72.688 204.643 84.988 196.643 94.688 180.943C97.188 176.843 100.288 172.243 105.088 170.543C112.388 167.943 114.888 174.043 114.688 179.743C114.588 181.543 113.989 183.943 113.789 184.543ZM182.088 75.043C177.788 89.043 170.588 102.143 163.088 114.643C156.288 126.043 148.888 137.043 141.388 148.043C136.888 154.543 132.089 160.743 126.989 166.643C124.289 169.843 120.988 172.443 118.188 175.443C117.388 172.143 115.489 169.343 111.789 167.443C110.189 166.643 108.688 166.243 107.188 166.243C112.588 159.043 118.288 152.043 123.588 144.843C130.988 134.943 137.389 124.443 143.989 114.143C157.289 93.443 169.388 72.043 182.588 51.343C182.788 51.043 182.888 50.743 182.888 50.443C186.188 46.343 186.189 52.343 185.989 54.743C185.489 61.643 184.188 68.343 182.088 75.043Z" fill="#5F787D"/>
<path d="M102.2 178.7C99.9 182.4 105.7 186 108 182.3C110.4 178.6 104.6 175 102.2 178.7Z" fill="#5F787D"/>
<path d="M85.7 238.6C83.4 241.4 81.6 244.6 79.8 247.7C76.9 252.6 72.8 256.3 68.6 260.1C61.5 266.5 52.8 274.2 52.1 284.6C51.6 291.2 54.4 297.6 60.9 300.1C79.1 307.4 98.7 290.1 104.9 274.4C109.8 262 112.4 235.1 95.4 231.6C92.3 230.9 87.7 236.1 85.7 238.6ZM101.8 271.1C97.7 285.8 79.5 301.5 63.3 296.7C55.5 294.4 55.2 286.2 57.4 279.8C60.5 270.7 69.9 264.6 76.5 258.2C80.1 254.7 82.6 250.8 85.2 246.5C87 243.6 91 235.8 95.3 235.2C107.7 238.3 104.7 260.5 101.8 271.1Z" fill="#5F787D"/>
</svg>
