<svg width="73" height="100" viewBox="0 0 73 100" fill="none" xmlns="http://www.w3.org/2000/svg">
<path d="M16.6 82.7C21.6 84.2 27.2 85.8 32.4 86.1C41.8 86.6 65.2 84.2 62.8 71.2C57.4 79.6 45.9 82.6 36.3 82.4C27 82.2 14.1 80.2 9.69999 71C8.29999 73.1 8.19995 76.4 9.59995 78.5C11.2 80.8 14 81.9 16.6 82.7Z" fill="#ABF7E3"/>
<path d="M7.1 90.3C9.7 91.8 12.6 92.6 15.6 93.1C21.6 94.1 27.7 94.9 33.8 95.5C41 96.1 48.6 96.6 55.7 94.9C59.1 94.1 62.6 93 65.4 90.9C70.6 87 70 81.4 65.6 77.5C61 88.1 38.5 90.7 28.8 89C22.4 87.9 11.1 86.9 7.20003 81C6.70003 80.2 6.30002 79.3 6.00002 78.4C4.10002 82.5 2.29999 87.6 7.1 90.3Z" fill="#ABF7E3"/>
<path d="M35.8 34.4C27.6 34 18.5 32.9 12.1 28C12.1 29.7 12.1 31.4 12 33.1C15.7 34.8 19.2 37 23.3 37.9C27.8 38.8 32.4 39.3 36.9 39.3C46.2 39.1 54.5 36.4 62.6 31.8C62.6 30.7 62.6 29.6 62.7 28.5C55.3 33.7 45.1 34.9 35.8 34.4Z" fill="#FFE785"/>
<path d="M41.6 42.4C48.8 43.2 56.1 43.9 62.9 41C62.8 38.9 62.7 36.9 62.6 34.8C55.1 38.9 47.1 41.7 38.5 42C39.6 42.2 40.6 42.3 41.6 42.4Z" fill="#FFE785"/>
<path d="M37.9 26.5C32.6 26.2 27.5 25.4 22.3 24.6C18.8 24.1 15.3 24 11.9 23.2C18.2 29 27.1 30.3 35.7 30.6C45.6 31 56.4 30 63.4 23.2C54.9 26.4 42.6 26.8 37.9 26.5Z" fill="#FFE785"/>
<path d="M37.9 22.7C43.3 22.9 66.9 22.5 69 14.3C65.9 16.7 61.4 17.6 57.7 18.2C47.6 19.7 37.8 19.3 27.6 18.5C22.9 18.1 11.9 18.8 6.20001 15.4C8.70001 19.7 17.4 20.2 21.3 20.7C26.9 21.3 32.3 22.5 37.9 22.7Z" fill="#ABF7E3"/>
<path d="M11.6 63.8C12.1 68.7 14 73.1 18.9 75.3C24.9 78 31.7 79.2 38.2 78.8C44.8 78.4 51.5 76.8 56.3 73.1C48.7 75.9 39.7 75.3 31.9 73.6C24.8 72 15.9 69.9 11.6 63.8Z" fill="#FFE785"/>
<path d="M62.1 13.4C63.5 13 68.9 11.7 68 9.09998C67.1 6.39998 63.1 6.00001 60.7 5.70001C55.1 5.20001 49.4 5.19999 43.7 5.29999C37.1 5.39999 30.6 5.70001 24 6.20001C19.3 6.60001 8.60001 5.60003 6.70001 10.9C11.9 15.3 20.6 14.1 26.9 14.6C38.5 15.6 50.8 16.7 62.1 13.4Z" fill="#ABF7E3"/>
<path d="M62.8 62.8C53.1 67.3 42.1 65.1 31.8 64C27.1 63.5 21.6 62.5 17.4 60.3C16.1 59.6 13.3 58.5 12.4 57.1C12 56.9 11.7 56.7 11.3 56.4C11.3 57.7 11.3 58.9 11.4 60.2C15.7 66.9 25.4 69.4 32.7 70.7C42.3 72.5 52.4 72.7 60.9 67.8C61.8 66.3 62.4 64.6 62.8 62.8Z" fill="#FFE785"/>
<path d="M11.3 53C11.4 53 11.4 53.1 11.5 53.1C14.7 56.1 19 55.6 23.1 55.4C27.6 55.2 32 55.1 36.4 54.3C39.6 53.7 42.5 52.8 45.4 51.7C44.9 51.7 44.5 51.7 44 51.7C37 51.6 29 51.5 22.3 48.9C21.3 48.5 15.5 45.9 11.7 42.9C11.5 46.3 11.4 49.6 11.3 53Z" fill="#FFE785"/>
<path d="M63.2 59.4C63.5 55.6 63.4 51.8 63.3 47.9C61.2 48.9 59.1 49.6 56.9 50.2C47.8 53.8 39.2 57.8 29.3 58.3C27.3 58.4 24.9 58.7 22.5 58.8C26.8 60.1 31.1 60.8 35.6 61.3C44.7 62.5 54.8 64.1 63.2 59.4Z" fill="#FFE785"/>
<path d="M11.9 39.1C13.3 40.2 15.8 42.6 16.7 43.1C21.6 45.8 26.5 47.3 32.1 47.9C42.9 49 53.1 49.2 63.2 44.9C63.2 44.5 63.2 44 63.1 43.6C56.6 45.9 50.3 46.3 43.4 45.5C40.5 45.2 36.9 45.2 34.2 44.1C32.3 43.4 30.5 42.4 28.6 41.6C26.6 41.4 24.6 41 22.6 40.5C18.3 39.3 15.4 37.4 12 35C12 36.4 11.9 37.7 11.9 39.1Z" fill="#FFE785"/>
<path d="M5.40003 74.2C5.20003 74.3 5.10003 74.4 4.90003 74.6C-0.499975 81.7 -1.99999 90.9 7.70001 94.8C16.1 98.2 26.4 98.6 35.3 99.3C45.6 100.2 56.9 99.9 66.1 94.5C74.9 89.4 74.3 79.5 66.7 73.7L66.6 73.6C66.7 71.7 66.2 69.5 65.1 67.2C65.1 67.1 65 67 64.9 66.9C66.7 61.8 66.8 56.5 66.6 51.1C66.2 42.6 66.7 34.1 66.1 25.6C67.8 23.9 69.3 21.8 70.5 19.5C70.6 19.3 70.7 19.1 70.7 18.8C72.7 16.6 73.4 13.8 71.9 10.3C72.7 6.89998 68.7 3.89998 65.9 2.79998C58.7 -2.30074e-05 49.3 1.19998 41.8 1.29998C32 1.39998 22.1 2.09999 12.5 3.49999C8.7 4.09999 4.50003 5.40001 3.40003 8.40001C3.10003 8.60001 2.90003 8.90001 2.90003 9.40001C2.90003 10.1 3.09999 10.8 3.29999 11.4C3.29999 11.5 3.29999 11.5 3.29999 11.6C2.49999 14.7 3.89999 17.8 6.29999 20C6.29999 20.1 6.40003 20.2 6.40003 20.3C7.30003 22.2 8.39998 23.8 9.59998 25.2C7.89998 33.2 8.40001 41.7 8.20001 49.8C8.10001 55.8 7.40001 61.7 8.70001 67.6C8.70001 67.8 8.79999 67.9 8.79999 68.1C6.39999 69.3 5.50003 71.7 5.40003 74.2ZM24.1 6.29998C30.7 5.79998 37.2 5.40001 43.8 5.40001C49.5 5.30001 55.2 5.29998 60.8 5.79998C63.2 5.99998 67.2 6.4 68.1 9.2C68.9 11.8 63.6 13.1 62.2 13.5C50.9 16.8 38.6 15.6 27.1 14.8C20.8 14.3 12.1 15.5 6.90003 11.1C8.70003 5.69997 19.4 6.69998 24.1 6.29998ZM6.20001 15.4C11.9 18.9 22.9 18.2 27.6 18.5C37.7 19.3 47.6 19.7 57.7 18.2C61.4 17.7 65.9 16.7 69 14.3C66.9 22.5 43.3 22.9 37.9 22.7C32.3 22.5 26.9 21.2 21.3 20.6C17.4 20.2 8.70001 19.7 6.20001 15.4ZM32.7 70.7C25.4 69.4 15.6 66.8 11.4 60.2C11.4 58.9 11.3 57.7 11.3 56.4C11.6 56.7 12 56.9 12.4 57.1C13.3 58.6 16.1 59.7 17.4 60.3C21.6 62.5 27.1 63.5 31.8 64C42.1 65.1 53.1 67.3 62.8 62.8C62.4 64.6 61.8 66.3 61 67.8C52.4 72.7 42.3 72.4 32.7 70.7ZM56.3 73.1C51.5 76.8 44.8 78.4 38.2 78.8C31.7 79.2 24.9 78 18.9 75.3C14 73.1 12.1 68.7 11.6 63.8C16 69.9 24.8 72 31.9 73.6C39.7 75.3 48.7 75.9 56.3 73.1ZM62.7 31.8C54.6 36.3 46.3 39.1 37 39.3C32.4 39.4 27.8 38.9 23.4 37.9C19.3 37.1 15.9 34.9 12.1 33.1C12.1 31.4 12.2 29.7 12.2 28C18.6 32.9 27.7 34 35.9 34.4C45.2 34.9 55.3 33.7 62.8 28.5C62.7 29.6 62.7 30.7 62.7 31.8ZM63 41C56.2 43.9 48.9 43.2 41.7 42.4C40.7 42.3 39.7 42.2 38.7 42C47.3 41.7 55.3 38.9 62.8 34.8C62.7 36.9 62.8 39 63 41ZM22.6 40.5C24.6 41 26.6 41.4 28.6 41.6C30.5 42.4 32.3 43.4 34.2 44.1C36.9 45.1 40.5 45.1 43.4 45.5C50.3 46.2 56.7 45.8 63.1 43.6C63.1 44 63.1 44.5 63.2 44.9C53.1 49.2 43 49.1 32.1 47.9C26.5 47.3 21.6 45.7 16.7 43.1C15.8 42.6 13.3 40.2 11.9 39.1C12 37.7 12 36.4 12.1 35C15.4 37.5 18.4 39.4 22.6 40.5ZM22.3 48.9C29 51.4 37 51.6 44 51.7C44.5 51.7 44.9 51.7 45.4 51.7C42.5 52.8 39.6 53.7 36.4 54.3C32 55.1 27.6 55.2 23.1 55.4C19 55.6 14.7 56.1 11.5 53.1C11.5 53.1 11.4 53 11.3 53C11.4 49.7 11.5 46.3 11.7 43C15.5 45.9 21.3 48.5 22.3 48.9ZM35.7 61.3C31.2 60.7 26.9 60.1 22.6 58.8C25 58.7 27.3 58.5 29.4 58.3C39.3 57.8 48 53.7 57 50.2C59.1 49.6 61.2 48.9 63.4 47.9C63.6 51.7 63.6 55.6 63.3 59.4C54.8 64.1 44.7 62.5 35.7 61.3ZM35.8 30.6C27.2 30.3 18.2 29 12 23.2C15.4 24 18.9 24.1 22.4 24.6C27.6 25.4 32.7 26.2 38 26.5C42.6 26.8 55 26.4 63.6 23.2C56.6 30.1 45.7 31 35.8 30.6ZM9.79999 71C14.2 80.2 27.1 82.2 36.4 82.4C45.9 82.6 57.5 79.6 62.9 71.2C65.3 84.2 41.9 86.6 32.5 86.1C27.3 85.8 21.7 84.2 16.7 82.7C14.1 81.9 11.3 80.8 9.79999 78.5C8.29999 76.4 8.29999 73.1 9.79999 71ZM28.9 89C38.6 90.7 61.1 88.1 65.7 77.5C70 81.3 70.6 87 65.5 90.9C62.7 93 59.2 94.1 55.8 94.9C48.7 96.6 41.1 96.1 33.9 95.5C27.8 95 21.8 94.1 15.7 93.1C12.7 92.6 9.80001 91.8 7.20001 90.3C2.40001 87.5 4.09998 82.4 6.09998 78.3C6.39998 79.3 6.79999 80.2 7.29999 80.9C11.2 86.9 22.5 87.9 28.9 89Z" fill="#5F787D"/>
</svg>
